<?xml version="1.0" encoding="UTF-8" standalone="no"?>
<svg
   xmlns:dc="http://purl.org/dc/elements/1.1/"
   xmlns:cc="http://creativecommons.org/ns#"
   xmlns:rdf="http://www.w3.org/1999/02/22-rdf-syntax-ns#"
   xmlns:svg="http://www.w3.org/2000/svg"
   xmlns="http://www.w3.org/2000/svg"
   xmlns:sodipodi="http://sodipodi.sourceforge.net/DTD/sodipodi-0.dtd"
   xmlns:inkscape="http://www.inkscape.org/namespaces/inkscape"
   id="e18ebc6e-17e0-463f-bef8-5e03a9b69a2f"
   data-name="Layer 1"
   width="250"
   height="115.63054"
   viewBox="0 0 250 115.63054"
   version="1.1"
   sodipodi:docname="advanced-computer-usage-illustration.svg"
   inkscape:version="1.0.1 (3bc2e813f5, 2020-09-07, custom)">
  <metadata
     id="metadata105">
    <rdf:RDF>
      <cc:Work
         rdf:about="">
        <dc:format>image/svg+xml</dc:format>
        <dc:type
           rdf:resource="http://purl.org/dc/dcmitype/StillImage" />
      </cc:Work>
    </rdf:RDF>
  </metadata>
  <defs
     id="defs103" />
  <sodipodi:namedview
     pagecolor="#ffffff"
     bordercolor="#666666"
     borderopacity="1"
     objecttolerance="10"
     gridtolerance="10"
     guidetolerance="10"
     inkscape:pageopacity="0"
     inkscape:pageshadow="2"
     inkscape:window-width="1920"
     inkscape:window-height="1058"
     id="namedview101"
     showgrid="false"
     inkscape:zoom="1.2247663"
     inkscape:cx="-105.65626"
     inkscape:cy="57.815259"
     inkscape:window-x="0"
     inkscape:window-y="22"
     inkscape:window-maximized="0"
     inkscape:current-layer="e18ebc6e-17e0-463f-bef8-5e03a9b69a2f" />
  <title
     id="title2">online_test</title>
  <g
     id="g978"
     transform="matrix(0.26556076,0,0,0.26556076,2.6556076e-6,0)">
    <path
       d="m 213.79147,646.81347 -1.26717,-0.475 c -0.27846,-0.10493 -27.99252,-10.72312 -40.975,-34.79939 -12.983,-24.07742 -6.62584,-53.06672 -6.56012,-53.35613 l 0.29921,-1.32021 1.26659,0.475 c 0.27846,0.10493 27.99194,10.72312 40.975,34.79939 12.983,24.07742 6.62585,53.06672 6.56012,53.35613 z m -40.16325,-36.39516 c 10.97621,20.35661 32.87672,30.79147 38.42564,33.17362 1.055,-5.94729 4.36362,-29.99705 -6.60278,-50.33406 -10.96525,-20.33472 -32.87441,-30.78572 -38.42564,-33.17363 -1.05559,5.95076 -4.36304,29.9982 6.60278,50.33407 z"
       transform="translate(-129.29794,-232.28986)"
       fill="#3f3d56"
       id="path4" />
    <path
       d="m 181.47093,603.09347 c 23.33121,14.03683 32.3168,41.91784 32.3168,41.91784 0,0 -28.84178,5.12282 -52.173,-8.914 -23.33122,-14.03682 -32.3168,-41.91784 -32.3168,-41.91784 0,0 28.84179,-5.12283 52.173,8.914 z"
       transform="translate(-129.29794,-232.28986)"
       fill="#d0cde1"
       id="path6" />
    <path
       d="m 928.14845,237.65218 h -260.1696 v -5.36232 h -117.971 v 5.36232 H 288.76576 a 17.59851,17.59851 0 0 0 -17.59851,17.59852 v 356.25218 a 17.59856,17.59856 0 0 0 17.59851,17.59858 H 928.14845 A 17.59856,17.59856 0 0 0 945.747,611.50288 V 255.2507 a 17.5985,17.5985 0 0 0 -17.59855,-17.59852 z"
       transform="translate(-129.29794,-232.28986)"
       fill="#3f3d56"
       id="path8" />
    <rect
       x="165.46352"
       y="36.463772"
       width="627.3913"
       height="353.91302"
       fill="#b32f26"
       id="rect10" />
    <circle
       cx="478.62292"
       cy="20.37681"
       r="6.4347801"
       fill="#b32f26"
       id="circle12" />
    <path
       d="m 886.1358,313.7967 h -29.74 v -29.73995 h 29.74 z m -28.44691,-1.293 h 27.15387 v -27.15391 h -27.15387 z"
       transform="translate(-129.29794,-232.28986)"
       fill="#3f3d56"
       id="path14" />
    <path
       d="m 963.36275,616.23188 h -61.22931 v -4.41154 a 0.87468,0.87468 0 0 0 -0.87471,-0.8747 h -20.99291 a 0.87468,0.87468 0 0 0 -0.8747,0.8747 v 4.41154 h -13.12057 v -4.41154 a 0.87468,0.87468 0 0 0 -0.8747,-0.8747 h -20.99291 a 0.87468,0.87468 0 0 0 -0.87471,0.8747 v 4.41154 h -13.12056 v -4.41154 a 0.87468,0.87468 0 0 0 -0.87471,-0.8747 H 808.54 a 0.87468,0.87468 0 0 0 -0.8747,0.8747 v 4.41154 h -13.12052 v -4.41154 a 0.87468,0.87468 0 0 0 -0.8747,-0.8747 h -20.99291 a 0.87468,0.87468 0 0 0 -0.8747,0.8747 v 4.41154 H 758.6819 v -4.41154 a 0.87468,0.87468 0 0 0 -0.87471,-0.8747 h -20.9929 a 0.87468,0.87468 0 0 0 -0.87471,0.8747 v 4.41154 H 722.819 v -4.41154 a 0.87467,0.87467 0 0 0 -0.8747,-0.8747 h -20.9929 a 0.87468,0.87468 0 0 0 -0.8747,0.8747 v 4.41154 h -13.12057 v -4.41154 a 0.87468,0.87468 0 0 0 -0.8747,-0.8747 H 521.637 a 0.87468,0.87468 0 0 0 -0.8747,0.8747 v 4.41154 h -13.12059 v -4.41154 a 0.87468,0.87468 0 0 0 -0.8747,-0.8747 H 485.7741 a 0.87468,0.87468 0 0 0 -0.87471,0.8747 v 4.41154 h -13.12056 v -4.41154 a 0.87468,0.87468 0 0 0 -0.87471,-0.8747 h -20.99291 a 0.87468,0.87468 0 0 0 -0.8747,0.8747 v 4.41154 h -13.12057 v -4.41154 a 0.87468,0.87468 0 0 0 -0.8747,-0.8747 h -20.99291 a 0.87468,0.87468 0 0 0 -0.87471,0.8747 v 4.41154 h -13.12056 v -4.41154 a 0.87468,0.87468 0 0 0 -0.87471,-0.8747 h -20.99291 a 0.87468,0.87468 0 0 0 -0.8747,0.8747 v 4.41154 h -13.12057 v -4.41154 a 0.87468,0.87468 0 0 0 -0.8747,-0.8747 h -20.99291 a 0.87468,0.87468 0 0 0 -0.8747,0.8747 v 4.41154 h -13.12057 v -4.41154 a 0.87468,0.87468 0 0 0 -0.87471,-0.8747 h -20.9929 a 0.87468,0.87468 0 0 0 -0.87471,0.8747 v 4.41154 h -40.2364 a 20.99291,20.99291 0 0 0 -20.99291,20.9929 v 9.4925 a 20.99291,20.99291 0 0 0 20.99291,20.99286 h 698.01418 a 20.99292,20.99292 0 0 0 20.99291,-20.99286 v -9.4925 a 20.99292,20.99292 0 0 0 -20.99291,-20.9929 z"
       transform="translate(-129.29794,-232.28986)"
       fill="#3f3d56"
       id="path16" />
    <rect
       x="28.711321"
       y="413.88348"
       width="912.69281"
       height="2.78529"
       fill="#3f3d56"
       id="rect18" />
    <path
       d="m 883.36954,465.96058 h -202 v -115 h 202 z m -200,-2 h 198 v -111 h -198 z"
       transform="translate(-129.29794,-232.28986)"
       fill="#3f3d56"
       id="path20" />
    <path
       d="m 513.36954,488.96058 h -180 v -112 h 180 z m -178,-2 h 176 v -108 h -176 z"
       transform="translate(-129.29794,-232.28986)"
       fill="#3f3d56"
       id="path22" />
    <path
       d="m 417.46378,445.96058 -0.17236,-2.23633 c -0.51563,-4.64356 1.03223,-9.71777 5.332,-14.87695 3.87012,-4.5586 6.02,-7.91211 6.02,-11.78223 0,-4.38574 -2.75195,-7.30957 -8.16992,-7.39551 a 15.28045,15.28045 0 0 0 -8.686,2.666 l -2.064,-5.418 c 2.83838,-2.06445 7.74023,-3.44043 12.29785,-3.44043 9.89014,0 14.36182,6.10644 14.36182,12.6416 0,5.84863 -3.26807,10.0625 -7.396,14.96387 -3.78369,4.47168 -5.15967,8.25586 -4.90186,12.6416 l 0.0859,2.23633 z m -1.89209,12.04 a 5.08415,5.08415 0 0 1 5.15967,-5.418 c 3.01025,0 5.07422,2.23535 5.07422,5.418 a 5.12129,5.12129 0 1 1 -10.23389,0 z"
       transform="translate(-129.29794,-232.28986)"
       fill="#d0cde1"
       id="path24" />
    <path
       d="m 776.46378,420.96058 -0.17236,-2.23633 c -0.51563,-4.64356 1.03223,-9.71777 5.332,-14.87695 3.87012,-4.5586 6.02,-7.91211 6.02,-11.78223 0,-4.38574 -2.75195,-7.30957 -8.16992,-7.39551 a 15.28045,15.28045 0 0 0 -8.686,2.666 l -2.064,-5.418 c 2.83838,-2.06445 7.74023,-3.44043 12.29785,-3.44043 9.89014,0 14.36182,6.10644 14.36182,12.6416 0,5.84863 -3.26807,10.0625 -7.396,14.96387 -3.78369,4.47168 -5.15967,8.25586 -4.90186,12.6416 l 0.0859,2.23633 z m -1.89209,12.04 a 5.08415,5.08415 0 0 1 5.15967,-5.418 c 3.01025,0 5.07422,2.23535 5.07422,5.418 a 5.12129,5.12129 0 1 1 -10.23389,0 z"
       transform="translate(-129.29794,-232.28986)"
       fill="#d0cde1"
       id="path26" />
    <circle
       cx="482.69312"
       cy="260.84872"
       r="86.292252"
       fill="#2f2e41"
       id="circle28" />
    <polygon
       points="457.731,325.154 449.365,379.018 423.568,374.348 431.935,320.484 "
       fill="#2f2e41"
       id="polygon30" />
    <rect
       x="608.43231"
       y="564.07269"
       width="26.21537"
       height="46.9692"
       transform="rotate(10.26106,1850.4843,-248.6316)"
       fill="#2f2e41"
       id="rect32" />
    <ellipse
       cx="626.08228"
       cy="611.19592"
       rx="8.1922998"
       ry="21.84614"
       transform="rotate(-78.58697,419.49907,574.05495)"
       fill="#2f2e41"
       id="ellipse34" />
    <ellipse
       cx="572.11078"
       cy="611.25702"
       rx="8.1922998"
       ry="21.84614"
       transform="rotate(-82.4537,374.91591,568.89023)"
       fill="#2f2e41"
       id="ellipse36" />
    <circle
       cx="488.73434"
       cy="239.74113"
       r="29.49229"
       fill="#ffffff"
       id="circle38" />
    <circle
       cx="500.85556"
       cy="229.16972"
       r="9.83076"
       fill="#3f3d56"
       id="circle40" />
    <path
       d="m 543.91852,399.26184 c -1.29768,-31.94667 26.23575,-59.00572 61.49764,-60.43807 35.26189,-1.43235 64.89929,23.30439 66.197,55.25107 1.29771,31.94668 -23.21382,39.20523 -58.47571,40.63758 -35.26189,1.43235 -67.92124,-3.5039 -69.21893,-35.45058 z"
       transform="translate(-129.29794,-232.28986)"
       fill="#ffffff"
       id="path42" />
    <ellipse
       cx="691.66998"
       cy="477.41757"
       rx="43.14613"
       ry="13.5449"
       transform="rotate(-12.9101,-399.52952,932.67461)"
       fill="#2f2e41"
       id="ellipse44" />
    <ellipse
       cx="522.28156"
       cy="505.58661"
       rx="43.14613"
       ry="13.5449"
       transform="rotate(-12.9101,-568.91795,960.84364)"
       fill="#2f2e41"
       id="ellipse46" />
    <path
       d="M 588.29085,527.14527 A 19.661533,19.661533 0 0 0 626.985,534.15 c 1.9343,-10.68509 -6.32706,-14.46612 -17.01215,-16.40043 -10.68509,-1.93431 -19.74769,-1.28939 -21.682,9.3957 z"
       transform="translate(-129.29794,-232.28986)"
       fill="#ffffff"
       id="path48" />
    <rect
       x="154.53481"
       y="13.12227"
       width="141.88698"
       height="134.9673"
       fill="#d0cde1"
       id="rect50" />
    <rect
       x="170.65833"
       y="29.24579"
       width="109.63994"
       height="83.842308"
       fill="#ffffff"
       id="rect52" />
    <rect
       x="170.54973"
       y="122.97937"
       width="59.636711"
       height="3.1387701"
       fill="#f2f2f2"
       id="rect54" />
    <rect
       x="170.54973"
       y="132.39571"
       width="59.636711"
       height="3.1387701"
       fill="#f2f2f2"
       id="rect56" />
    <circle
       cx="190.16707"
       cy="71.18959"
       r="12.5551"
       fill="#3f3d56"
       id="circle58" />
    <circle
       cx="225.47829"
       cy="71.18959"
       r="12.5551"
       fill="#b32f26"
       id="circle60" />
    <circle
       cx="260.78949"
       cy="71.18959"
       r="12.5551"
       fill="#e6e6e6"
       id="circle62" />
    <circle
       cx="225.47829"
       cy="20.9692"
       r="6.2775502"
       fill="#3f3d56"
       id="circle64" />
    <rect
       x="222.02216"
       y="274.45883"
       width="141.88698"
       height="134.9673"
       fill="#d0cde1"
       id="rect66" />
    <rect
       x="238.14568"
       y="290.58237"
       width="109.63994"
       height="83.842308"
       fill="#ffffff"
       id="rect68" />
    <rect
       x="262.27176"
       y="304.36087"
       width="38.437"
       height="38.437"
       fill="#b32f26"
       id="rect70" />
    <path
       d="M 406.28392,546.26247 V 592.936 h 46.67356 v -46.67353 z m 44.64908,44.649 H 408.30839 V 548.287 H 450.933 Z"
       transform="translate(-129.29794,-232.28986)"
       fill="#3f3d56"
       id="path72" />
    <rect
       x="238.03709"
       y="382.74655"
       width="59.636711"
       height="3.1387701"
       fill="#f2f2f2"
       id="rect74" />
    <circle
       cx="292.96564"
       cy="282.30579"
       r="6.2775502"
       fill="#3f3d56"
       id="circle76" />
    <rect
       x="591.43652"
       y="234.05278"
       width="141.88698"
       height="134.9673"
       fill="#d0cde1"
       id="rect78" />
    <rect
       x="607.56"
       y="250.1763"
       width="109.63994"
       height="83.842308"
       fill="#ffffff"
       id="rect80" />
    <rect
       x="650.58667"
       y="315.81241"
       width="23.58659"
       height="6.9896698"
       fill="#3f3d56"
       id="rect82" />
    <rect
       x="622.07159"
       y="261.39285"
       width="80.616837"
       height="2.9955699"
       fill="#3f3d56"
       id="rect84" />
    <rect
       x="622.07159"
       y="270.87881"
       width="80.616837"
       height="2.9955699"
       fill="#3f3d56"
       id="rect86" />
    <rect
       x="622.07159"
       y="280.36478"
       width="80.616837"
       height="2.9955699"
       fill="#3f3d56"
       id="rect88" />
    <rect
       x="622.07159"
       y="289.85077"
       width="80.616837"
       height="2.9955699"
       fill="#3f3d56"
       id="rect90" />
    <rect
       x="622.07159"
       y="299.33676"
       width="80.616837"
       height="2.9955699"
       fill="#3f3d56"
       id="rect92" />
    <rect
       x="607.45142"
       y="342.34052"
       width="59.636711"
       height="3.1387701"
       fill="#f2f2f2"
       id="rect94" />
    <rect
       x="607.45142"
       y="350.18744"
       width="83.177521"
       height="3.1387701"
       fill="#f2f2f2"
       id="rect96" />
    <circle
       cx="662.38"
       cy="241.8997"
       r="6.2775502"
       fill="#3f3d56"
       id="circle98" />
  </g>
</svg>
