<?xml version="1.0" encoding="UTF-8" standalone="no"?>
<svg
   xmlns:dc="http://purl.org/dc/elements/1.1/"
   xmlns:cc="http://creativecommons.org/ns#"
   xmlns:rdf="http://www.w3.org/1999/02/22-rdf-syntax-ns#"
   xmlns:svg="http://www.w3.org/2000/svg"
   xmlns="http://www.w3.org/2000/svg"
   xmlns:sodipodi="http://sodipodi.sourceforge.net/DTD/sodipodi-0.dtd"
   xmlns:inkscape="http://www.inkscape.org/namespaces/inkscape"
   id="f115e1f4-ca9e-46ea-99f2-be217fabe967"
   data-name="Layer 1"
   width="250"
   height="202.62329"
   viewBox="0 0 250 202.62328"
   version="1.1"
   sodipodi:docname="analysis.svg"
   inkscape:version="1.0.1 (3bc2e813f5, 2020-09-07, custom)">
  <metadata
     id="metadata271">
    <rdf:RDF>
      <cc:Work
         rdf:about="">
        <dc:format>image/svg+xml</dc:format>
        <dc:type
           rdf:resource="http://purl.org/dc/dcmitype/StillImage" />
      </cc:Work>
    </rdf:RDF>
  </metadata>
  <defs
     id="defs269" />
  <sodipodi:namedview
     pagecolor="#ffffff"
     bordercolor="#666666"
     borderopacity="1"
     objecttolerance="10"
     gridtolerance="10"
     guidetolerance="10"
     inkscape:pageopacity="0"
     inkscape:pageshadow="2"
     inkscape:window-width="1920"
     inkscape:window-height="1058"
     id="namedview267"
     showgrid="false"
     inkscape:zoom="1.3120492"
     inkscape:cx="13.009858"
     inkscape:cy="76.276389"
     inkscape:window-x="0"
     inkscape:window-y="22"
     inkscape:window-maximized="0"
     inkscape:current-layer="f115e1f4-ca9e-46ea-99f2-be217fabe967" />
  <g
     id="g1228"
     transform="matrix(0.31953345,0,0,0.31953345,2.2047277e-4,-2.2367244e-4)">
    <polygon
       points="782.39,632.017 782.009,634.123 524.27,634.123 524.27,632.017 "
       fill="#3f3d56"
       id="polygon2" />
    <circle
       cx="6.8126502"
       cy="6.8140402"
       r="6.8133402"
       fill="#e6e6e6"
       id="circle4" />
    <circle
       cx="41.301689"
       cy="6.8140402"
       r="6.8133402"
       fill="#e6e6e6"
       id="circle6" />
    <circle
       cx="75.790733"
       cy="6.8140402"
       r="6.8133402"
       fill="#e6e6e6"
       id="circle8" />
    <circle
       cx="110.27977"
       cy="6.8140402"
       r="6.8133402"
       fill="#e6e6e6"
       id="circle10" />
    <circle
       cx="144.76881"
       cy="6.8140402"
       r="6.8133402"
       fill="#e6e6e6"
       id="circle12" />
    <circle
       cx="179.25784"
       cy="6.8140402"
       r="6.8133402"
       fill="#e6e6e6"
       id="circle14" />
    <circle
       cx="213.74689"
       cy="6.8140402"
       r="6.8133402"
       fill="#e6e6e6"
       id="circle16" />
    <circle
       cx="248.23593"
       cy="6.8140402"
       r="6.8133402"
       fill="#e6e6e6"
       id="circle18" />
    <circle
       cx="282.72498"
       cy="6.8140402"
       r="6.8133402"
       fill="#e6e6e6"
       id="circle20" />
    <circle
       cx="317.21402"
       cy="6.8140402"
       r="6.8133402"
       fill="#e6e6e6"
       id="circle22" />
    <circle
       cx="6.8126502"
       cy="41.735989"
       r="6.8133402"
       fill="#e6e6e6"
       id="circle24" />
    <circle
       cx="41.301689"
       cy="41.735989"
       r="6.8133402"
       fill="#e6e6e6"
       id="circle26" />
    <circle
       cx="75.790733"
       cy="41.735989"
       r="6.8133402"
       fill="#e6e6e6"
       id="circle28" />
    <circle
       cx="110.27977"
       cy="41.735989"
       r="6.8133402"
       fill="#b32f26"
       id="circle30" />
    <circle
       cx="144.76881"
       cy="41.735989"
       r="6.8133402"
       fill="#e6e6e6"
       id="circle32" />
    <circle
       cx="179.25784"
       cy="41.735989"
       r="6.8133402"
       fill="#e6e6e6"
       id="circle34" />
    <circle
       cx="213.74689"
       cy="41.735989"
       r="6.8133402"
       fill="#e6e6e6"
       id="circle36" />
    <circle
       cx="248.23593"
       cy="41.735989"
       r="6.8133402"
       fill="#e6e6e6"
       id="circle38" />
    <circle
       cx="282.72498"
       cy="41.735989"
       r="6.8133402"
       fill="#e6e6e6"
       id="circle40" />
    <circle
       cx="317.21402"
       cy="41.735989"
       r="6.8133402"
       fill="#e6e6e6"
       id="circle42" />
    <circle
       cx="6.8126502"
       cy="76.657944"
       r="6.8133402"
       fill="#e6e6e6"
       id="circle44" />
    <circle
       cx="41.301689"
       cy="76.657944"
       r="6.8133402"
       fill="#e6e6e6"
       id="circle46" />
    <circle
       cx="75.790733"
       cy="76.657944"
       r="6.8133402"
       fill="#e6e6e6"
       id="circle48" />
    <circle
       cx="110.27977"
       cy="76.657944"
       r="6.8133402"
       fill="#e6e6e6"
       id="circle50" />
    <circle
       cx="144.76881"
       cy="76.657944"
       r="6.8133402"
       fill="#e6e6e6"
       id="circle52" />
    <circle
       cx="179.25784"
       cy="76.657944"
       r="6.8133402"
       fill="#e6e6e6"
       id="circle54" />
    <circle
       cx="213.74689"
       cy="76.657944"
       r="6.8133402"
       fill="#e6e6e6"
       id="circle56" />
    <circle
       cx="248.23593"
       cy="76.657944"
       r="6.8133402"
       fill="#e6e6e6"
       id="circle58" />
    <circle
       cx="282.72498"
       cy="76.657944"
       r="6.8133402"
       fill="#e6e6e6"
       id="circle60" />
    <circle
       cx="317.21402"
       cy="76.657944"
       r="6.8133402"
       fill="#e6e6e6"
       id="circle62" />
    <circle
       cx="6.8126502"
       cy="111.57988"
       r="6.8133402"
       fill="#e6e6e6"
       id="circle64" />
    <circle
       cx="41.301689"
       cy="111.57988"
       r="6.8133402"
       fill="#e6e6e6"
       id="circle66" />
    <circle
       cx="75.790733"
       cy="111.57988"
       r="6.8133402"
       fill="#e6e6e6"
       id="circle68" />
    <circle
       cx="110.27977"
       cy="111.57988"
       r="6.8133402"
       fill="#e6e6e6"
       id="circle70" />
    <circle
       cx="144.76881"
       cy="111.57988"
       r="6.8133402"
       fill="#e6e6e6"
       id="circle72" />
    <circle
       cx="179.25784"
       cy="111.57988"
       r="6.8133402"
       fill="#e6e6e6"
       id="circle74" />
    <circle
       cx="213.74689"
       cy="111.57988"
       r="6.8133402"
       fill="#e6e6e6"
       id="circle76" />
    <circle
       cx="248.23593"
       cy="111.57988"
       r="6.8133402"
       fill="#e6e6e6"
       id="circle78" />
    <circle
       cx="282.72498"
       cy="111.57988"
       r="6.8133402"
       fill="#e6e6e6"
       id="circle80" />
    <circle
       cx="317.21402"
       cy="111.57988"
       r="6.8133402"
       fill="#e6e6e6"
       id="circle82" />
    <circle
       cx="6.8126502"
       cy="146.50183"
       r="6.8133402"
       fill="#e6e6e6"
       id="circle84" />
    <circle
       cx="41.301689"
       cy="146.50183"
       r="6.8133402"
       fill="#b32f26"
       id="circle86" />
    <circle
       cx="75.790733"
       cy="146.50183"
       r="6.8133402"
       fill="#e6e6e6"
       id="circle88" />
    <circle
       cx="110.27977"
       cy="146.50183"
       r="6.8133402"
       fill="#e6e6e6"
       id="circle90" />
    <circle
       cx="144.76881"
       cy="146.50183"
       r="6.8133402"
       fill="#e6e6e6"
       id="circle92" />
    <circle
       cx="179.25784"
       cy="146.50183"
       r="6.8133402"
       fill="#e6e6e6"
       id="circle94" />
    <circle
       cx="213.74689"
       cy="146.50183"
       r="6.8133402"
       fill="#e6e6e6"
       id="circle96" />
    <circle
       cx="248.23593"
       cy="146.50183"
       r="6.8133402"
       fill="#e6e6e6"
       id="circle98" />
    <circle
       cx="282.72498"
       cy="146.50183"
       r="6.8133402"
       fill="#e6e6e6"
       id="circle100" />
    <circle
       cx="317.21402"
       cy="146.50183"
       r="6.8133402"
       fill="#e6e6e6"
       id="circle102" />
    <circle
       cx="6.8126502"
       cy="181.42378"
       r="6.8133402"
       fill="#e6e6e6"
       id="circle104" />
    <circle
       cx="41.301689"
       cy="181.42378"
       r="6.8133402"
       fill="#e6e6e6"
       id="circle106" />
    <circle
       cx="75.790733"
       cy="181.42378"
       r="6.8133402"
       fill="#e6e6e6"
       id="circle108" />
    <circle
       cx="110.27977"
       cy="181.42378"
       r="6.8133402"
       fill="#e6e6e6"
       id="circle110" />
    <circle
       cx="144.76881"
       cy="181.42378"
       r="6.8133402"
       fill="#e6e6e6"
       id="circle112" />
    <circle
       cx="179.25784"
       cy="181.42378"
       r="6.8133402"
       fill="#e6e6e6"
       id="circle114" />
    <circle
       cx="213.74689"
       cy="181.42378"
       r="6.8133402"
       fill="#e6e6e6"
       id="circle116" />
    <circle
       cx="248.23593"
       cy="181.42378"
       r="6.8133402"
       fill="#e6e6e6"
       id="circle118" />
    <circle
       cx="282.72498"
       cy="181.42378"
       r="6.8133402"
       fill="#e6e6e6"
       id="circle120" />
    <circle
       cx="317.21402"
       cy="181.42378"
       r="6.8133402"
       fill="#e6e6e6"
       id="circle122" />
    <circle
       cx="6.8126502"
       cy="216.34573"
       r="6.8133402"
       fill="#e6e6e6"
       id="circle124" />
    <circle
       cx="41.301689"
       cy="216.34573"
       r="6.8133402"
       fill="#e6e6e6"
       id="circle126" />
    <circle
       cx="75.790733"
       cy="216.34573"
       r="6.8133402"
       fill="#b32f26"
       id="circle128" />
    <circle
       cx="110.27977"
       cy="216.34573"
       r="6.8133402"
       fill="#e6e6e6"
       id="circle130" />
    <circle
       cx="144.76881"
       cy="216.34573"
       r="6.8133402"
       fill="#e6e6e6"
       id="circle132" />
    <circle
       cx="179.25784"
       cy="216.34573"
       r="6.8133402"
       fill="#e6e6e6"
       id="circle134" />
    <circle
       cx="213.74689"
       cy="216.34573"
       r="6.8133402"
       fill="#e6e6e6"
       id="circle136" />
    <circle
       cx="248.23593"
       cy="216.34573"
       r="6.8133402"
       fill="#e6e6e6"
       id="circle138" />
    <circle
       cx="282.72498"
       cy="216.34573"
       r="6.8133402"
       fill="#e6e6e6"
       id="circle140" />
    <circle
       cx="317.21402"
       cy="216.34573"
       r="6.8133402"
       fill="#e6e6e6"
       id="circle142" />
    <circle
       cx="6.8126502"
       cy="251.26768"
       r="6.8133402"
       fill="#e6e6e6"
       id="circle144" />
    <circle
       cx="41.301689"
       cy="251.26768"
       r="6.8133402"
       fill="#e6e6e6"
       id="circle146" />
    <circle
       cx="75.790733"
       cy="251.26768"
       r="6.8133402"
       fill="#e6e6e6"
       id="circle148" />
    <circle
       cx="110.27977"
       cy="251.26768"
       r="6.8133402"
       fill="#e6e6e6"
       id="circle150" />
    <circle
       cx="144.76881"
       cy="251.26768"
       r="6.8133402"
       fill="#e6e6e6"
       id="circle152" />
    <circle
       cx="179.25784"
       cy="251.26768"
       r="6.8133402"
       fill="#e6e6e6"
       id="circle154" />
    <circle
       cx="213.74689"
       cy="251.26768"
       r="6.8133402"
       fill="#e6e6e6"
       id="circle156" />
    <circle
       cx="248.23593"
       cy="251.26768"
       r="6.8133402"
       fill="#e6e6e6"
       id="circle158" />
    <circle
       cx="282.72498"
       cy="251.26768"
       r="6.8133402"
       fill="#e6e6e6"
       id="circle160" />
    <circle
       cx="317.21402"
       cy="251.26768"
       r="6.8133402"
       fill="#e6e6e6"
       id="circle162" />
    <circle
       cx="6.8126502"
       cy="286.18964"
       r="6.8133402"
       fill="#e6e6e6"
       id="circle164" />
    <circle
       cx="41.301689"
       cy="286.18964"
       r="6.8133402"
       fill="#e6e6e6"
       id="circle166" />
    <circle
       cx="75.790733"
       cy="286.18964"
       r="6.8133402"
       fill="#e6e6e6"
       id="circle168" />
    <circle
       cx="110.27977"
       cy="286.18964"
       r="6.8133402"
       fill="#e6e6e6"
       id="circle170" />
    <circle
       cx="144.76881"
       cy="286.18964"
       r="6.8133402"
       fill="#e6e6e6"
       id="circle172" />
    <circle
       cx="179.25784"
       cy="286.18964"
       r="6.8133402"
       fill="#e6e6e6"
       id="circle174" />
    <circle
       cx="213.74689"
       cy="286.18964"
       r="6.8133402"
       fill="#e6e6e6"
       id="circle176" />
    <circle
       cx="248.23593"
       cy="286.18964"
       r="6.8133402"
       fill="#e6e6e6"
       id="circle178" />
    <circle
       cx="282.72498"
       cy="286.18964"
       r="6.8133402"
       fill="#e6e6e6"
       id="circle180" />
    <circle
       cx="317.21402"
       cy="286.18964"
       r="6.8133402"
       fill="#e6e6e6"
       id="circle182" />
    <circle
       cx="6.8126502"
       cy="321.11157"
       r="6.8133402"
       fill="#e6e6e6"
       id="circle184" />
    <circle
       cx="41.301689"
       cy="321.11157"
       r="6.8133402"
       fill="#e6e6e6"
       id="circle186" />
    <circle
       cx="75.790733"
       cy="321.11157"
       r="6.8133402"
       fill="#e6e6e6"
       id="circle188" />
    <circle
       cx="110.27977"
       cy="321.11157"
       r="6.8133402"
       fill="#e6e6e6"
       id="circle190" />
    <circle
       cx="144.76881"
       cy="321.11157"
       r="6.8133402"
       fill="#e6e6e6"
       id="circle192" />
    <circle
       cx="179.25784"
       cy="321.11157"
       r="6.8133402"
       fill="#e6e6e6"
       id="circle194" />
    <circle
       cx="213.74689"
       cy="321.11157"
       r="6.8133402"
       fill="#e6e6e6"
       id="circle196" />
    <circle
       cx="248.23593"
       cy="321.11157"
       r="6.8133402"
       fill="#e6e6e6"
       id="circle198" />
    <circle
       cx="282.72498"
       cy="321.11157"
       r="6.8133402"
       fill="#e6e6e6"
       id="circle200" />
    <circle
       cx="317.21402"
       cy="321.11157"
       r="6.8133402"
       fill="#e6e6e6"
       id="circle202" />
    <path
       d="m 609.20925,193.8305 a 8.614,8.614 0 0 1 8.614,8.614 v 344.55938 a 8.614,8.614 0 0 1 -8.614,8.614 H 361.98784 a 8.614,8.614 0 0 1 -8.614,-8.614 V 202.44449 a 8.614,8.614 0 0 1 8.614,-8.614 h 247.22141"
       transform="translate(-208.80496,-132.93873)"
       fill="#e6e6e6"
       id="path204" />
    <path
       d="M 362.99057,546.001 H 608.20632 V 203.44727 H 362.99057 Z"
       transform="translate(-208.80496,-132.93873)"
       fill="#ffffff"
       id="path206" />
    <path
       d="m 553.64892,257.64283 a 1.72279,1.72279 0 0 1 1.72279,1.7228 v 3.4456 a 1.72279,1.72279 0 0 1 -1.72279,1.72279 H 417.548 a 1.72278,1.72278 0 0 1 -1.72279,-1.72279 v -3.4456 a 1.72278,1.72278 0 0 1 1.72279,-1.7228 h 136.101"
       transform="translate(-208.80496,-132.93873)"
       fill="#e6e6e6"
       id="path208" />
    <path
       d="m 553.64892,274.0094 a 1.7228,1.7228 0 0 1 1.72279,1.7228 v 3.4456 a 1.72279,1.72279 0 0 1 -1.72279,1.72279 H 417.548 a 1.72278,1.72278 0 0 1 -1.72279,-1.72279 v -3.4456 a 1.72279,1.72279 0 0 1 1.72279,-1.7228 h 136.101"
       transform="translate(-208.80496,-132.93873)"
       fill="#e6e6e6"
       id="path210" />
    <path
       d="m 553.64892,290.376 a 1.7228,1.7228 0 0 1 1.72279,1.72279 v 3.4456 a 1.7228,1.7228 0 0 1 -1.72279,1.72279 H 417.548 a 1.72279,1.72279 0 0 1 -1.72279,-1.72279 v -3.4456 A 1.72279,1.72279 0 0 1 417.548,290.376 h 136.101"
       transform="translate(-208.80496,-132.93873)"
       fill="#b32f26"
       id="path212" />
    <path
       d="m 553.64892,307.10073 a 1.72279,1.72279 0 0 1 1.72279,1.72279 v 3.4456 a 1.72279,1.72279 0 0 1 -1.72279,1.72279 H 417.548 a 1.72278,1.72278 0 0 1 -1.72279,-1.72279 v -3.4456 a 1.72278,1.72278 0 0 1 1.72279,-1.72279 h 136.101"
       transform="translate(-208.80496,-132.93873)"
       fill="#e6e6e6"
       id="path214" />
    <path
       d="m 553.64892,323.4673 a 1.72279,1.72279 0 0 1 1.72279,1.72279 v 3.4456 a 1.72279,1.72279 0 0 1 -1.72279,1.7228 H 417.548 a 1.72278,1.72278 0 0 1 -1.72279,-1.7228 v -3.4456 a 1.72278,1.72278 0 0 1 1.72279,-1.72279 h 136.101"
       transform="translate(-208.80496,-132.93873)"
       fill="#e6e6e6"
       id="path216" />
    <path
       d="m 553.64892,339.83387 a 1.7228,1.7228 0 0 1 1.72279,1.72279 v 3.4456 a 1.72281,1.72281 0 0 1 -1.72279,1.7228 H 417.548 a 1.7228,1.7228 0 0 1 -1.72279,-1.7228 v -3.4456 a 1.72279,1.72279 0 0 1 1.72279,-1.72279 h 136.101"
       transform="translate(-208.80496,-132.93873)"
       fill="#e6e6e6"
       id="path218" />
    <path
       d="m 418.41724,394.89 a 2.002,2.002 0 0 0 -2,2 v 92.91552 a 2.0023,2.0023 0 0 0 2,2 H 552.5481 a 2.00229,2.00229 0 0 0 2,-2 V 396.89 a 2.002,2.002 0 0 0 -2,-2 z"
       transform="translate(-208.80496,-132.93873)"
       fill="#b32f26"
       id="path220" />
    <polygon
       points="484.785,45.221 484.785,46.678 307.679,46.678 277.241,161.182 275.833,160.808 306.56,45.221 "
       fill="#3f3d56"
       id="polygon222" />
    <path
       d="m 708.15259,194.17916 a 15.29091,15.29091 0 1 1 15.2909,-15.29091 15.30831,15.30831 0 0 1 -15.2909,15.29091 z m 0,-29.12554 a 13.83463,13.83463 0 1 0 13.83462,13.83463 13.85037,13.85037 0 0 0 -13.83462,-13.83463 z"
       transform="translate(-208.80496,-132.93873)"
       fill="#3f3d56"
       id="path224" />
    <circle
       cx="499.34763"
       cy="45.94952"
       r="5.82511"
       fill="#b32f26"
       id="circle226" />
    <polygon
       points="64.712,472.504 64.715,471.047 241.82,471.387 272.477,356.941 273.884,357.317 242.937,472.845 "
       fill="#3f3d56"
       id="polygon228" />
    <path
       d="m 258.98467,589.39543 a 15.29091,15.29091 0 1 1 -15.32018,15.26157 15.30832,15.30832 0 0 1 15.32018,-15.26157 z m -0.0558,29.12548 a 13.83463,13.83463 0 1 0 -13.80809,-13.86111 13.85036,13.85036 0 0 0 13.80809,13.86111 z"
       transform="translate(-208.80496,-132.93873)"
       fill="#3f3d56"
       id="path230" />
    <circle
       cx="50.15041"
       cy="471.74759"
       r="5.82511"
       fill="#b32f26"
       id="circle232" />
    <polygon
       points="635.548,545.17 616.828,600.594 606.551,600.594 608.386,543.702 "
       fill="#ffb8b8"
       id="polygon234" />
    <path
       d="m 827.0356,766.22887 c -3.10207,1.41577 -5.70046,-10.05467 -8.31711,-7.48324 -7.31912,7.19262 -14.8815,8.75887 -24.65094,5.61857 l -0.22627,-0.0382 a 4.57524,4.57524 0 0 1 -2.88382,-5.96221 v 0 a 4.57524,4.57524 0 0 1 3.17428,-2.83216 l 7.78388,-1.946 12.22181,-21.49353 12.47673,-0.84288 v 0 a 29.80836,29.80836 0 0 1 5.51307,25.42887 c -1.13223,4.62123 -2.88009,8.54148 -5.09163,9.55081 z"
       transform="translate(-208.80496,-132.93873)"
       fill="#2f2e41"
       id="path236" />
    <polygon
       points="711.489,534.65 714.467,593.074 704.91,596.854 685.691,543.275 "
       fill="#ffb8b8"
       id="polygon238" />
    <path
       d="m 936.60125,755.901 c -2.36392,2.45747 -8.999,-7.25324 -10.48647,-3.89965 -4.16062,9.38044 -10.61684,13.61835 -20.8565,14.2914 l -0.22447,0.0477 a 4.57523,4.57523 0 0 1 -4.87458,-4.48361 v 0 a 4.57524,4.57524 0 0 1 1.91009,-3.80114 l 6.52254,-4.67249 3.45974,-24.48218 11.29216,-5.37276 v 0 a 29.80835,29.80835 0 0 1 14.47942,21.6187 c 0.64682,4.71369 0.46335,9.00206 -1.22193,10.75406 z"
       transform="translate(-208.80496,-132.93873)"
       fill="#2f2e41"
       id="path240" />
    <path
       d="m 892.07129,451.2996 -15.77836,4.05729 a 8.25773,8.25773 0 0 1 -10.30815,-7.68019 v 0 a 8.25773,8.25773 0 0 1 8.51788,-8.57081 l 13.8982,0.44833 26.78129,-9.75184 -25.31315,-18.8776 2.93635,-26.42715 49.3313,39.604 a 8.19471,8.19471 0 0 1 3.04373,5.80637 v 0 a 8.19474,8.19474 0 0 1 -6.00855,8.48733 c -11.55899,9.43313 -28.39891,12.32221 -47.10054,12.90427 z"
       transform="translate(-208.80496,-132.93873)"
       fill="#ffb8b8"
       id="path242" />
    <circle
       cx="647.29602"
       cy="193.56598"
       r="25.69306"
       fill="#ffb8b8"
       id="circle244" />
    <path
       d="m 887.66677,361.74092 -34.50212,13.94766 a 46.63067,46.63067 0 0 0 -8.075,-30.83168 l 28.62941,-6.60679 c -0.37229,8.74382 4.35594,16.55972 13.94771,23.49081 z"
       transform="translate(-208.80496,-132.93873)"
       fill="#ffb8b8"
       id="path246" />
    <path
       d="m 893.90651,421.56905 c -27.81248,2.226 -43.02531,-1.4673 -66.43492,-15.04879 l 8.809,-20.55445 v 0 a 17.00141,17.00141 0 0 1 7.00343,-16.27794 l 9.1465,-6.47877 27.89532,-8.075 1.2513,0.0626 a 15.2693,15.2693 0 0 1 14.46186,14.07918 c 6.06018,18.11054 6.09947,35.61689 -2.13249,52.29321 z"
       transform="translate(-208.80496,-132.93873)"
       fill="#b32f26"
       id="path248" />
    <path
       d="m 888.40086,464.51318 -59.4611,-6.60679 -4.40452,-19.08628 c -9.763,-14.73785 -5.50172,-28.23741 5.8727,-41.1089 20.73295,13.306 39.9782,19.05585 67.536,14.68175 -7.32859,17.82338 -14.09694,35.33986 -9.54308,52.12022 z"
       transform="translate(-208.80496,-132.93873)"
       fill="#2f2e41"
       id="path250" />
    <path
       d="M 934.64837,686.94171 887.29972,684.3724 871.88389,561.77978 859.4044,683.63832 803.2467,681.069 c 17.13051,-80.11107 29.03118,-156.16275 25.69306,-226.099 l 58.727,5.13861 c 19.90324,20.98571 29.78575,54.48512 35.60324,94.33029 5.81749,39.84517 10.50635,86.0361 11.37837,132.50281 z"
       transform="translate(-208.80496,-132.93873)"
       fill="#2f2e41"
       id="path252" />
    <circle
       cx="675.58002"
       cy="161.34488"
       r="8.8313198"
       fill="#2f2e41"
       id="circle254" />
    <path
       d="m 875.28507,292.12157 a 8.82437,8.82437 0 0 1 8.82714,-8.25412 c -0.18236,-0.0231 -0.36309,-0.0513 -0.549,-0.0632 a 8.8313213,8.8313213 0 0 0 -1.13325,17.62625 c 0.18595,0.0119 0.36879,0.007 0.55261,0.008 a 8.82436,8.82436 0 0 1 -7.6975,-9.31653 z"
       transform="translate(-208.80496,-132.93873)"
       fill="#2f2e41"
       id="path256" />
    <path
       d="m 875.23523,295.89278 c -7.87608,-6.53374 -30.4669,1.77036 -31.92466,6.16308 -10.65074,1.45149 -18.71465,7.66553 -18.71465,18.71459 v 6e-5 c 6.33219,2.59406 13.53384,2.27438 21.31879,0 12.40986,10.11331 13.26059,22.82682 5.71348,37.4293 l 9.285,0.18568 11.50907,-16.82092 0.55038,17.06213 21.28338,-0.42689 V 333.7487 a 51.12092,51.12092 0 0 0 -5.45822,-23.42036 c -3.31667,-6.44346 -8.46375,-10.20577 -13.56257,-14.43556 z"
       transform="translate(-208.80496,-132.93873)"
       fill="#2f2e41"
       id="path258" />
    <ellipse
       cx="646.61121"
       cy="200.24129"
       rx="4.2231598"
       ry="5.9124298"
       fill="#ffb8b8"
       id="ellipse260" />
    <path
       d="m 823.11342,559.92824 a 1.483,1.483 0 0 1 1.483,1.483 v 59.31928 a 1.483,1.483 0 0 1 -1.483,1.483 h -42.5616 a 1.483,1.483 0 0 1 -1.483,-1.483 v -59.31929 a 1.483,1.483 0 0 1 1.483,-1.483 h 42.5616"
       transform="translate(-208.80496,-132.93873)"
       fill="#b32f26"
       id="path262" />
    <path
       d="m 828.93976,537.92193 1.43732,24.91342 a 10.8188,10.8188 0 0 1 -12.37492,11.3268 v 0 c -6.32954,-0.93081 -6.47336,-7.121 -4.92171,-13.32762 l 5.91167,-23.64668 c 14.50235,-51.99824 18.41745,-103.03575 17.68369,-152.8119 A 12.4975,12.4975 0 0 1 849.50966,371.662 v 0 a 12.4912,12.4912 0 0 1 12.12134,12.92719 c -2.05288,58.45023 -10.57807,111.52941 -32.69124,153.33274 z"
       transform="translate(-208.80496,-132.93873)"
       fill="#ffb8b8"
       id="path264" />
  </g>
</svg>
