<svg width="72" height="72" viewBox="0 0 72 72" fill="none" xmlns="http://www.w3.org/2000/svg">
<g filter="url(#filter0_d)">
<g opacity="0.5">
<path opacity="0.5" d="M36 65C52.5685 65 66 51.5685 66 35C66 18.4315 52.5685 5 36 5C19.4315 5 6 18.4315 6 35C6 51.5685 19.4315 65 36 65Z" fill="url(#paint0_linear)"/>
</g>
<path d="M36.0572 64.1742C52.2755 64.1742 65.423 51.0267 65.423 34.8084C65.423 18.5901 52.2755 5.44263 36.0572 5.44263C19.8389 5.44263 6.69141 18.5901 6.69141 34.8084C6.69141 51.0267 19.8389 64.1742 36.0572 64.1742Z" fill="white"/>
<path d="M36.0829 64.2907C41.8179 64.2981 47.4283 62.6182 52.2154 59.4602C51.1334 53.5477 47.0148 53.2086 47.0148 53.2086H24.3174C24.3174 53.2086 20.4344 53.527 19.2178 58.9684C24.1551 62.4413 30.0465 64.3005 36.0829 64.2907Z" fill="#7EBDC2"/>
<path d="M35.7722 48.3653C43.6011 48.3653 49.9477 42.0187 49.9477 34.1898C49.9477 26.3609 43.6011 20.0143 35.7722 20.0143C27.9433 20.0143 21.5967 26.3609 21.5967 34.1898C21.5967 42.0187 27.9433 48.3653 35.7722 48.3653Z" fill="#F55F44"/>
<path opacity="0.1" d="M31.1982 45.9966H40.2819V53.263C40.2819 54.4672 39.8035 55.6221 38.952 56.4736C38.1005 57.3251 36.9456 57.8035 35.7413 57.8035C34.5371 57.8035 33.3822 57.3251 32.5307 56.4736C31.6792 55.6221 31.2008 54.4672 31.2008 53.263V45.9966H31.1982Z" fill="black"/>
<path d="M32.0648 45.6602H39.414C39.5279 45.6602 39.6407 45.6826 39.7459 45.7262C39.8511 45.7697 39.9467 45.8336 40.0272 45.9142C40.1077 45.9947 40.1716 46.0903 40.2152 46.1955C40.2588 46.3007 40.2812 46.4135 40.2812 46.5274V52.9265C40.2812 53.5228 40.1638 54.1132 39.9356 54.6641C39.7074 55.215 39.373 55.7155 38.9513 56.1372C38.5297 56.5588 38.0292 56.8932 37.4783 57.1214C36.9274 57.3496 36.337 57.467 35.7407 57.467C35.1444 57.467 34.554 57.3496 34.0031 57.1214C33.4522 56.8932 32.9517 56.5588 32.5301 56.1372C32.1085 55.7155 31.774 55.215 31.5458 54.6641C31.3176 54.1132 31.2002 53.5228 31.2002 52.9265V46.5274C31.2002 46.2974 31.2916 46.0768 31.4542 45.9142C31.6168 45.7515 31.8374 45.6602 32.0674 45.6602H32.0648Z" fill="#FDA57D"/>
<path opacity="0.1" d="M31.2158 49.4266C34.1433 50.5208 37.3658 50.5299 40.2994 49.4525V48.3368H31.2158V49.4266Z" fill="black"/>
<path d="M35.7723 50.0349C42.9621 50.0349 48.7907 44.2064 48.7907 37.0165C48.7907 29.8267 42.9621 23.9982 35.7723 23.9982C28.5824 23.9982 22.7539 29.8267 22.7539 37.0165C22.7539 44.2064 28.5824 50.0349 35.7723 50.0349Z" fill="#FDA57D"/>
<path d="M35.7541 25.0104C38.6478 25.0104 40.9935 22.6646 40.9935 19.7709C40.9935 16.8773 38.6478 14.5315 35.7541 14.5315C32.8604 14.5315 30.5146 16.8773 30.5146 19.7709C30.5146 22.6646 32.8604 25.0104 35.7541 25.0104Z" fill="#F55F44"/>
<path d="M35.7538 18.0521C37.6539 18.0521 39.1941 16.5118 39.1941 14.6117C39.1941 12.7117 37.6539 11.1714 35.7538 11.1714C33.8538 11.1714 32.3135 12.7117 32.3135 14.6117C32.3135 16.5118 33.8538 18.0521 35.7538 18.0521Z" fill="#F55F44"/>
<path d="M33.4817 22.6443C32.2525 22.0929 31.2829 21.0892 30.7743 19.8416C30.2657 18.594 30.2573 17.1985 30.7507 15.9448C30.7144 16.0173 30.6782 16.0924 30.6445 16.1675C30.3629 16.7953 30.2077 17.4725 30.1877 18.1604C30.1678 18.8483 30.2836 19.5333 30.5284 20.1765C30.7732 20.8196 31.1423 21.4082 31.6146 21.9087C32.0869 22.4092 32.6532 22.8118 33.2811 23.0934C33.909 23.3751 34.5862 23.5303 35.2741 23.5502C35.9619 23.5701 36.647 23.4544 37.2901 23.2096C37.9332 22.9647 38.5219 22.5956 39.0224 22.1233C39.5228 21.651 39.9254 21.0848 40.207 20.4569C40.2407 20.3818 40.2718 20.3067 40.3028 20.2291C39.6946 21.4316 38.6465 22.3535 37.3762 22.8033C36.1059 23.2531 34.7111 23.1961 33.4817 22.6443Z" fill="#F55F44"/>
<path opacity="0.1" d="M26.502 25.176C26.502 25.176 31.9873 36.3072 47.4701 29.8356L43.8667 24.1845L37.4805 21.891L26.502 25.176Z" fill="black"/>
<path d="M26.502 25.0104C26.502 25.0104 31.9873 36.1416 47.4701 29.6699L43.8667 24.0189L37.4805 21.7253L26.502 25.0104Z" fill="#F55F44"/>
<path d="M30.7295 20.9564C34.1051 20.691 37.4963 20.691 40.8719 20.9564C40.8719 20.9564 33.3803 21.6528 30.7295 20.9564Z" fill="#333333"/>
<path d="M36.5412 10.9617C36.281 10.9521 36.0204 10.9721 35.7646 11.0212H35.964C36.8112 11.0483 37.6186 11.3875 38.231 11.9737C38.8435 12.5598 39.2177 13.3515 39.2819 14.1968C39.3461 15.0421 39.0958 15.8813 38.5789 16.5532C38.0621 17.2251 37.3152 17.6824 36.4817 17.8372C37.3934 17.8454 38.2711 17.4911 38.9216 16.8522C39.5722 16.2134 39.9423 15.3422 39.9505 14.4305C39.9587 13.5187 39.6045 12.6411 38.9656 11.9905C38.3267 11.34 37.4556 10.9699 36.5438 10.9617H36.5412Z" fill="#F55F44"/>
<path d="M22.7506 39.2739C23.4196 39.2739 23.962 38.2575 23.962 37.0037C23.962 35.7498 23.4196 34.7334 22.7506 34.7334C22.0815 34.7334 21.5391 35.7498 21.5391 37.0037C21.5391 38.2575 22.0815 39.2739 22.7506 39.2739Z" fill="#FDA57D"/>
<path d="M48.7906 39.2739C49.4597 39.2739 50.0021 38.2575 50.0021 37.0037C50.0021 35.7498 49.4597 34.7334 48.7906 34.7334C48.1215 34.7334 47.5791 35.7498 47.5791 37.0037C47.5791 38.2575 48.1215 39.2739 48.7906 39.2739Z" fill="#FDA57D"/>
<path d="M25.6816 25.3392L28.2211 24.0293L28.7932 26.1287L27.2374 27.1875L25.6816 25.3392Z" fill="#F55F44"/>
</g>
<defs>
<filter id="filter0_d" x="0" y="0" width="72" height="72" filterUnits="userSpaceOnUse" color-interpolation-filters="sRGB">
<feFlood flood-opacity="0" result="BackgroundImageFix"/>
<feColorMatrix in="SourceAlpha" type="matrix" values="0 0 0 0 0 0 0 0 0 0 0 0 0 0 0 0 0 0 127 0"/>
<feOffset dy="1"/>
<feGaussianBlur stdDeviation="3"/>
<feColorMatrix type="matrix" values="0 0 0 0 0 0 0 0 0 0 0 0 0 0 0 0 0 0 0.25 0"/>
<feBlend mode="normal" in2="BackgroundImageFix" result="effect1_dropShadow"/>
<feBlend mode="normal" in="SourceGraphic" in2="effect1_dropShadow" result="shape"/>
</filter>
<linearGradient id="paint0_linear" x1="23110.8" y1="29417.6" x2="23110.8" y2="15511.4" gradientUnits="userSpaceOnUse">
<stop stop-color="#808080" stop-opacity="0.25"/>
<stop offset="0.54" stop-color="#808080" stop-opacity="0.12"/>
<stop offset="1" stop-color="#808080" stop-opacity="0.1"/>
</linearGradient>
</defs>
</svg>
