<svg width="72" height="72" viewBox="0 0 72 72" fill="none" xmlns="http://www.w3.org/2000/svg">
<g opacity="0.5">
<path opacity="0.5" d="M36 65C52.5685 65 66 51.5685 66 35C66 18.4315 52.5685 5 36 5C19.4314 5 6 18.4315 6 35C6 51.5685 19.4314 65 36 65Z" fill="url(#paint0_linear)"/>
</g>
<g filter="url(#filter0_d)">
<path d="M36.0572 64.1718C52.2755 64.1718 65.423 51.0243 65.423 34.806C65.423 18.5877 52.2755 5.44019 36.0572 5.44019C19.8389 5.44019 6.69141 18.5877 6.69141 34.806C6.69141 51.0243 19.8389 64.1718 36.0572 64.1718Z" fill="white"/>
</g>
<path d="M36.0823 64.2907C41.8207 64.3002 47.435 62.6202 52.2252 59.4603C51.1405 53.5452 47.0245 53.2061 47.0245 53.2061H24.3194C24.3194 53.2061 20.4364 53.5245 19.2197 58.9658C24.156 62.4392 30.0465 64.2993 36.0823 64.2907Z" fill="#7EBDC2"/>
<path d="M35.7742 48.3626C43.6031 48.3626 49.9497 42.016 49.9497 34.1871C49.9497 26.3582 43.6031 20.0116 35.7742 20.0116C27.9452 20.0116 21.5986 26.3582 21.5986 34.1871C21.5986 42.016 27.9452 48.3626 35.7742 48.3626Z" fill="#72351C"/>
<path opacity="0.1" d="M31.1982 45.9941H40.2819V53.2605C40.2829 53.8574 40.1662 54.4487 39.9385 55.0005C39.7107 55.5523 39.3764 56.0537 38.9547 56.4762C38.533 56.8986 38.0321 57.2338 37.4807 57.4624C36.9293 57.6911 36.3383 57.8088 35.7413 57.8088C34.5371 57.8088 33.3822 57.3304 32.5307 56.4789C31.6792 55.6274 31.2008 54.4725 31.2008 53.2683V45.9941H31.1982Z" fill="black"/>
<path d="M32.057 45.6575H39.4062C39.6362 45.6575 39.8568 45.7488 40.0194 45.9115C40.1821 46.0741 40.2734 46.2947 40.2734 46.5247V52.9239C40.2734 54.1281 39.7951 55.283 38.9436 56.1345C38.092 56.986 36.9371 57.4644 35.7329 57.4644C34.5287 57.4644 33.3738 56.986 32.5223 56.1345C31.6708 55.283 31.1924 54.1281 31.1924 52.9239V46.5247C31.1924 46.2947 31.2838 46.0741 31.4464 45.9115C31.609 45.7488 31.8296 45.6575 32.0596 45.6575H32.057Z" fill="#FDA57D"/>
<path opacity="0.1" d="M31.208 49.424C34.1354 50.5181 37.358 50.5273 40.2916 49.4499V48.3342H31.208V49.424Z" fill="black"/>
<path d="M35.7752 50.0324C42.965 50.0324 48.7936 44.2038 48.7936 37.014C48.7936 29.8241 42.965 23.9956 35.7752 23.9956C28.5854 23.9956 22.7568 29.8241 22.7568 37.014C22.7568 44.2038 28.5854 50.0324 35.7752 50.0324Z" fill="#FDA57D"/>
<path opacity="0.1" d="M26.502 25.1734C26.502 25.1734 31.9873 36.3047 47.4701 29.8331L43.8667 24.182L37.4804 21.8884L26.502 25.1734Z" fill="black"/>
<path d="M26.502 25.0105C26.502 25.0105 31.9873 36.1418 47.4701 29.6701L43.8667 24.019L37.4804 21.7255L26.502 25.0105Z" fill="#72351C"/>
<path d="M26.4532 24.2571C26.823 23.1121 27.4622 22.0725 28.3171 21.2258C30.8773 18.6941 35.0761 18.1608 37.2298 15.2719C37.3469 15.4763 37.4197 15.703 37.4437 15.9374C37.4677 16.1717 37.4423 16.4085 37.3691 16.6324C37.2959 16.8564 37.1766 17.0625 37.0188 17.2374C36.8611 17.4124 36.6684 17.5523 36.4532 17.6482C38.5242 17.6353 40.9083 17.4541 42.0732 15.7559C42.3615 16.427 42.4535 17.1661 42.3385 17.8873C42.2235 18.6086 41.9062 19.2824 41.4235 19.8305C43.2511 19.9133 45.2029 21.1533 45.322 22.9809C45.3997 24.1975 44.6386 25.3495 43.6368 26.0484C42.635 26.7474 41.4286 27.0606 40.2379 27.3195C36.7639 28.0961 24.1856 31.3086 26.4532 24.2571Z" fill="#72351C"/>
<path d="M48.7936 37.1279H48.4493L41.7343 43.1103C35.2627 40.0816 30.5151 43.1103 30.5151 43.1103L23.4739 37.379L22.7646 37.467C22.8607 40.884 24.2968 44.126 26.7628 46.4931C29.2288 48.8603 32.5269 50.1625 35.9449 50.1186C39.3628 50.0748 42.6264 48.6884 45.0309 46.2588C47.4354 43.8292 48.7879 40.5514 48.7962 37.1331L48.7936 37.1279ZM35.7571 45.3987C33.2254 45.3987 31.1726 44.881 31.1726 44.2519C31.1726 43.6229 33.2254 43.1052 35.7571 43.1052C38.2888 43.1052 40.3417 43.6229 40.3417 44.2519C40.3417 44.881 38.2888 45.3987 35.7545 45.3987H35.7571Z" fill="#72351C"/>
<path d="M22.7515 39.2713C23.4206 39.2713 23.963 38.2549 23.963 37.0011C23.963 35.7473 23.4206 34.7308 22.7515 34.7308C22.0824 34.7308 21.54 35.7473 21.54 37.0011C21.54 38.2549 22.0824 39.2713 22.7515 39.2713Z" fill="#FDA57D"/>
<path d="M48.7906 39.2713C49.4597 39.2713 50.0021 38.2549 50.0021 37.0011C50.0021 35.7473 49.4597 34.7308 48.7906 34.7308C48.1215 34.7308 47.5791 35.7473 47.5791 37.0011C47.5791 38.2549 48.1215 39.2713 48.7906 39.2713Z" fill="#FDA57D"/>
<defs>
<filter id="filter0_d" x="0.691406" y="0.440186" width="70.7316" height="70.7316" filterUnits="userSpaceOnUse" color-interpolation-filters="sRGB">
<feFlood flood-opacity="0" result="BackgroundImageFix"/>
<feColorMatrix in="SourceAlpha" type="matrix" values="0 0 0 0 0 0 0 0 0 0 0 0 0 0 0 0 0 0 127 0"/>
<feOffset dy="1"/>
<feGaussianBlur stdDeviation="3"/>
<feColorMatrix type="matrix" values="0 0 0 0 0 0 0 0 0 0 0 0 0 0 0 0 0 0 0.25 0"/>
<feBlend mode="normal" in2="BackgroundImageFix" result="effect1_dropShadow"/>
<feBlend mode="normal" in="SourceGraphic" in2="effect1_dropShadow" result="shape"/>
</filter>
<linearGradient id="paint0_linear" x1="39679.8" y1="13911.2" x2="39679.8" y2="5" gradientUnits="userSpaceOnUse">
<stop stop-color="#808080" stop-opacity="0.25"/>
<stop offset="0.54" stop-color="#808080" stop-opacity="0.12"/>
<stop offset="1" stop-color="#808080" stop-opacity="0.1"/>
</linearGradient>
</defs>
</svg>
