<svg width="72" height="72" viewBox="0 0 72 72" fill="none" xmlns="http://www.w3.org/2000/svg">
<g filter="url(#filter0_d)">
<g opacity="0.5">
<path opacity="0.5" d="M36 65C52.5685 65 66 51.5685 66 35C66 18.4315 52.5685 5 36 5C19.4315 5 6 18.4315 6 35C6 51.5685 19.4315 65 36 65Z" fill="url(#paint0_linear)"/>
</g>
<path d="M36.0587 64.1756C52.2779 64.1756 65.4261 51.0274 65.4261 34.8083C65.4261 18.5891 52.2779 5.44092 36.0587 5.44092C19.8396 5.44092 6.69141 18.5891 6.69141 34.8083C6.69141 51.0274 19.8396 64.1756 36.0587 64.1756Z" fill="white"/>
<path d="M36.0856 64.2917C41.8239 64.301 47.4381 62.6208 52.228 59.4607C51.1457 53.5467 47.0274 53.2097 47.0274 53.2097H24.3168C24.3168 53.2097 20.4306 53.5286 19.2168 58.969C24.1551 62.4427 30.0479 64.3021 36.0856 64.2917Z" fill="#7EBDC2"/>
<path d="M35.7744 48.3642C43.6029 48.3642 49.9492 42.0179 49.9492 34.1894C49.9492 26.3609 43.6029 20.0146 35.7744 20.0146C27.9459 20.0146 21.5996 26.3609 21.5996 34.1894C21.5996 42.0179 27.9459 48.3642 35.7744 48.3642Z" fill="#333333"/>
<path opacity="0.1" d="M31.1992 45.996H40.2817V53.2621C40.2817 54.4663 39.8035 55.6211 38.9522 56.4727C38.101 57.3243 36.9463 57.8029 35.7422 57.8034C34.5378 57.8034 33.3827 57.3249 32.531 56.4733C31.6794 55.6216 31.2009 54.4666 31.2009 53.2621V45.996H31.1992Z" fill="black"/>
<path d="M31.4874 45.6591H39.9974C40.0738 45.6591 40.1471 45.6894 40.2011 45.7434C40.2551 45.7974 40.2854 45.8707 40.2854 45.947V52.9253C40.2855 53.5218 40.1681 54.1126 39.9398 54.6638C39.7115 55.215 39.3769 55.7158 38.955 56.1376C38.5331 56.5594 38.0323 56.8939 37.481 57.1221C36.9298 57.3503 36.339 57.4676 35.7424 57.4674C34.538 57.4674 33.3829 56.9889 32.5313 56.1373C31.6796 55.2856 31.2012 54.1305 31.2012 52.9261V45.947C31.2012 45.8709 31.2313 45.798 31.2849 45.744C31.3385 45.6901 31.4113 45.6595 31.4874 45.6591Z" fill="#FDB797"/>
<path opacity="0.1" d="M31.2158 49.4258C34.143 50.5194 37.3652 50.5283 40.2983 49.4507V48.3333H31.2158V49.4258Z" fill="black"/>
<path d="M35.7745 50.0336C42.9645 50.0336 48.7931 44.205 48.7931 37.015C48.7931 29.825 42.9645 23.9963 35.7745 23.9963C28.5845 23.9963 22.7559 29.825 22.7559 37.015C22.7559 44.205 28.5845 50.0336 35.7745 50.0336Z" fill="#FDB797"/>
<path opacity="0.1" d="M26.5 25.173C26.5 25.173 31.9868 36.31 47.4639 29.8424L43.8605 24.1922L37.4728 21.8997L26.5 25.173Z" fill="black"/>
<path d="M26.5 25.0097C26.5 25.0097 31.9868 36.1467 47.4639 29.6773L43.8605 24.0272L37.4728 21.7346L26.5 25.0097Z" fill="#333333"/>
<path d="M26.4524 24.255C26.8224 23.1098 27.4618 22.0701 28.3169 21.2232C30.8777 18.6917 35.0759 18.1579 37.2292 15.2714C37.745 16.0725 37.3461 17.3043 36.4556 17.6482C38.5186 17.6344 40.9092 17.4539 42.0757 15.757C42.3639 16.4281 42.4558 17.1673 42.3406 17.8886C42.2254 18.6098 41.9079 19.2836 41.4249 19.8315C43.2533 19.9175 45.2072 21.1553 45.3224 22.982C45.4014 24.1992 44.6347 25.351 43.6384 26.049C42.6421 26.747 41.4284 27.0676 40.2378 27.3298C36.7616 28.0974 24.184 31.3098 26.4524 24.255Z" fill="#333333"/>
<path d="M22.7502 39.2739C23.4191 39.2739 23.9614 38.2571 23.9614 37.0029C23.9614 35.7486 23.4191 34.7318 22.7502 34.7318C22.0813 34.7318 21.5391 35.7486 21.5391 37.0029C21.5391 38.2571 22.0813 39.2739 22.7502 39.2739Z" fill="#FDB797"/>
<path d="M48.7913 39.2739C49.4602 39.2739 50.0024 38.2571 50.0024 37.0029C50.0024 35.7486 49.4602 34.7318 48.7913 34.7318C48.1223 34.7318 47.5801 35.7486 47.5801 37.0029C47.5801 38.2571 48.1223 39.2739 48.7913 39.2739Z" fill="#FDB797"/>
</g>
<defs>
<filter id="filter0_d" x="0" y="0" width="72" height="72" filterUnits="userSpaceOnUse" color-interpolation-filters="sRGB">
<feFlood flood-opacity="0" result="BackgroundImageFix"/>
<feColorMatrix in="SourceAlpha" type="matrix" values="0 0 0 0 0 0 0 0 0 0 0 0 0 0 0 0 0 0 127 0"/>
<feOffset dy="1"/>
<feGaussianBlur stdDeviation="3"/>
<feColorMatrix type="matrix" values="0 0 0 0 0 0 0 0 0 0 0 0 0 0 0 0 0 0 0.25 0"/>
<feBlend mode="normal" in2="BackgroundImageFix" result="effect1_dropShadow"/>
<feBlend mode="normal" in="SourceGraphic" in2="effect1_dropShadow" result="shape"/>
</filter>
<linearGradient id="paint0_linear" x1="36" y1="65" x2="36" y2="5" gradientUnits="userSpaceOnUse">
<stop stop-color="#808080" stop-opacity="0.25"/>
<stop offset="0.54" stop-color="#808080" stop-opacity="0.12"/>
<stop offset="1" stop-color="#808080" stop-opacity="0.1"/>
</linearGradient>
</defs>
</svg>
