<svg width="72" height="72" viewBox="0 0 72 72" fill="none" xmlns="http://www.w3.org/2000/svg">
<g opacity="0.5">
<path opacity="0.5" d="M36 65C52.5685 65 66 51.5685 66 35C66 18.4315 52.5685 5 36 5C19.4315 5 6 18.4315 6 35C6 51.5685 19.4315 65 36 65Z" fill="url(#paint0_linear)"/>
</g>
<g filter="url(#filter0_d)">
<path d="M35.9996 64.2028C52.2178 64.2028 65.3654 51.0553 65.3654 34.837C65.3654 18.6188 52.2178 5.47131 35.9996 5.47131C19.7813 5.47131 6.63379 18.6188 6.63379 34.837C6.63379 51.0553 19.7813 64.2028 35.9996 64.2028Z" fill="white"/>
</g>
<path d="M52.2435 37.4774C52.2435 48.2928 45.1868 60.3327 36.4812 60.3327C27.7755 60.3327 20.7266 48.2928 20.7266 37.4774C20.7266 26.662 27.7833 21.1688 36.4889 21.1688C45.1946 21.1688 52.2435 26.6646 52.2435 37.4774Z" fill="#FDD835"/>
<path d="M36.0823 64.2932C41.8207 64.3027 47.435 62.6227 52.2252 59.4628C51.1431 53.5503 47.0245 53.2112 47.0245 53.2112H24.3194C24.3194 53.2112 20.4364 53.5296 19.2197 58.971C24.1563 62.4434 30.0468 64.3025 36.0823 64.2932Z" fill="#7EBDC2"/>
<path opacity="0.1" d="M31.2002 45.9967H40.2838V53.2631C40.2838 54.4673 39.8054 55.6222 38.9539 56.4737C38.1024 57.3252 36.9475 57.8036 35.7433 57.8036C34.5391 57.8036 33.3842 57.3252 32.5327 56.4737C31.6812 55.6222 31.2028 54.4673 31.2028 53.2631V45.9967H31.2002Z" fill="black"/>
<path d="M32.0677 45.6602H39.417C39.647 45.6602 39.8675 45.7515 40.0302 45.9142C40.1928 46.0768 40.2842 46.2974 40.2842 46.5273V52.9265C40.2842 54.1307 39.8058 55.2856 38.9543 56.1371C38.1028 56.9886 36.9479 57.467 35.7437 57.467C34.5394 57.467 33.3845 56.9886 32.533 56.1371C31.6815 55.2856 31.2031 54.1307 31.2031 52.9265V46.5273C31.2031 46.2978 31.2941 46.0776 31.4562 45.9151C31.6183 45.7525 31.8382 45.6608 32.0677 45.6602Z" fill="#FDB797"/>
<path opacity="0.1" d="M31.2188 49.4265C34.1462 50.5206 37.3687 50.5298 40.3024 49.4524V48.3367H31.2188V49.4265Z" fill="black"/>
<path d="M35.7752 50.035C42.9651 50.035 48.7936 44.2065 48.7936 37.0167C48.7936 29.8268 42.9651 23.9983 35.7752 23.9983C28.5854 23.9983 22.7568 29.8268 22.7568 37.0167C22.7568 44.2065 28.5854 50.035 35.7752 50.035Z" fill="#FDB797"/>
<path d="M23.025 38.7304C23.6941 38.7304 24.2365 37.7139 24.2365 36.46C24.2365 35.2062 23.6941 34.1897 23.025 34.1897C22.3559 34.1897 21.8135 35.2062 21.8135 36.46C21.8135 37.7139 22.3559 38.7304 23.025 38.7304Z" fill="#FDB797"/>
<path d="M48.4566 38.7304C49.1257 38.7304 49.6682 37.7139 49.6682 36.46C49.6682 35.2062 49.1257 34.1897 48.4566 34.1897C47.7875 34.1897 47.2451 35.2062 47.2451 36.46C47.2451 37.7139 47.7875 38.7304 48.4566 38.7304Z" fill="#FDB797"/>
<path opacity="0.1" d="M24.2393 29.9549C24.2393 29.9549 31.5988 40.0274 48.4769 36.587C48.4769 36.587 50.3615 34.2935 45.7744 27.2523C41.1873 20.2111 28.4148 21.3579 24.2393 29.9549Z" fill="black"/>
<path d="M24.2393 29.7915C24.2393 29.7915 31.5988 39.864 48.4769 36.4237C48.4769 36.4237 50.3615 34.1301 45.7744 27.089C41.1873 20.0478 28.4148 21.1946 24.2393 29.7915Z" fill="#FDD835"/>
<defs>
<filter id="filter0_d" x="0.633789" y="0.471313" width="70.7316" height="70.7314" filterUnits="userSpaceOnUse" color-interpolation-filters="sRGB">
<feFlood flood-opacity="0" result="BackgroundImageFix"/>
<feColorMatrix in="SourceAlpha" type="matrix" values="0 0 0 0 0 0 0 0 0 0 0 0 0 0 0 0 0 0 127 0"/>
<feOffset dy="1"/>
<feGaussianBlur stdDeviation="3"/>
<feColorMatrix type="matrix" values="0 0 0 0 0 0 0 0 0 0 0 0 0 0 0 0 0 0 0.25 0"/>
<feBlend mode="normal" in2="BackgroundImageFix" result="effect1_dropShadow"/>
<feBlend mode="normal" in="SourceGraphic" in2="effect1_dropShadow" result="shape"/>
</filter>
<linearGradient id="paint0_linear" x1="7009.2" y1="44594" x2="7009.2" y2="30687.8" gradientUnits="userSpaceOnUse">
<stop stop-color="#808080" stop-opacity="0.25"/>
<stop offset="0.54" stop-color="#808080" stop-opacity="0.12"/>
<stop offset="1" stop-color="#808080" stop-opacity="0.1"/>
</linearGradient>
</defs>
</svg>
