<?xml version="1.0" encoding="UTF-8" standalone="no"?>
<svg
   xmlns:dc="http://purl.org/dc/elements/1.1/"
   xmlns:cc="http://creativecommons.org/ns#"
   xmlns:rdf="http://www.w3.org/1999/02/22-rdf-syntax-ns#"
   xmlns:svg="http://www.w3.org/2000/svg"
   xmlns="http://www.w3.org/2000/svg"
   xmlns:sodipodi="http://sodipodi.sourceforge.net/DTD/sodipodi-0.dtd"
   xmlns:inkscape="http://www.inkscape.org/namespaces/inkscape"
   id="e189b3b9-b88e-4ad6-86fc-a3cf637fca9f"
   data-name="Layer 1"
   width="250"
   height="103.90452"
   viewBox="0 0 250.00001 103.90452"
   version="1.1"
   sodipodi:docname="basic-computer-usage-illustration.svg"
   inkscape:version="1.0.1 (3bc2e813f5, 2020-09-07, custom)">
  <metadata
     id="metadata79">
    <rdf:RDF>
      <cc:Work
         rdf:about="">
        <dc:format>image/svg+xml</dc:format>
        <dc:type
           rdf:resource="http://purl.org/dc/dcmitype/StillImage" />
      </cc:Work>
    </rdf:RDF>
  </metadata>
  <defs
     id="defs77" />
  <sodipodi:namedview
     pagecolor="#ffffff"
     bordercolor="#666666"
     borderopacity="1"
     objecttolerance="10"
     gridtolerance="10"
     guidetolerance="10"
     inkscape:pageopacity="0"
     inkscape:pageshadow="2"
     inkscape:window-width="1920"
     inkscape:window-height="1058"
     id="namedview75"
     showgrid="false"
     inkscape:zoom="1.0651871"
     inkscape:cx="-14.415481"
     inkscape:cy="55.967957"
     inkscape:window-x="0"
     inkscape:window-y="22"
     inkscape:window-maximized="0"
     inkscape:current-layer="e189b3b9-b88e-4ad6-86fc-a3cf637fca9f" />
  <title
     id="title2">code_thinking</title>
  <g
     id="g939"
     transform="scale(0.23095989)">
    <polygon
       points="89.173,414.487 77.591,390.495 52.772,388.84 61.045,426.069 "
       fill="#ffb9b9"
       id="polygon4" />
    <polygon
       points="148.739,368.985 156.185,380.567 235.606,326.792 289.381,397.113 340.674,371.467 305.1,321.001 247.189,264.744 214.096,290.391 "
       fill="#2f2e41"
       id="polygon6" />
    <polygon
       points="148.739,368.985 156.185,380.567 235.606,326.792 289.381,397.113 340.674,371.467 305.1,321.001 247.189,264.744 214.096,290.391 "
       opacity="0.1"
       id="polygon8" />
    <path
       d="m 368.84451,583.28933 -7.44576,5.79115 -60.39337,-20.68267 -14.06421,-5.79114 -28.12842,5.79114 c 0,0 0,-23.16458 26.47381,-22.33727 l 27.30111,6.61845 32.265,2.48192 z"
       transform="translate(-58.78049,-225.05938)"
       fill="#ffb9b9"
       id="path10" />
    <polygon
       points="224.024,393.804 77.591,420.278 73.454,388.84 207.478,330.102 324.956,368.985 363.839,419.451 345.638,431.033 324.128,431.033 "
       fill="#2f2e41"
       id="polygon12" />
    <path
       d="m 305.14191,497.24946 -12.4096,2.48191 -2.70423,-3.15494 a 16.71669,16.71669 0 0 1 -2.25961,-18.355 v 0 l 34.74687,-45.50186 c 0,0 9.92768,-22.33728 25.6465,-13.23691 15.71882,9.10037 -13.2369,23.99189 -13.2369,23.99189 l -17.37344,27.30112 1.65461,14.06421 z"
       transform="translate(-58.78049,-225.05938)"
       fill="#ffb9b9"
       id="path14" />
    <circle
       cx="324.95554"
       cy="186.15021"
       r="32.26495"
       fill="#ffb9b9"
       id="circle16" />
    <path
       d="m 369.25817,434.78781 14.89151,35.57419 35.57418,-14.89151 c 0,0 -11.58229,-28.12842 -11.58229,-28.95573 0,-0.82731 -38.8834,8.27305 -38.8834,8.27305 z"
       transform="translate(-58.78049,-225.05938)"
       fill="#ffb9b9"
       id="path18" />
    <path
       d="m 467.21951,540.02944 a 185.3827,185.3827 0 0 1 -9.09209,57.34061 l -2.41572,7.42925 -11.5823,52.94762 -12.40959,3.30922 -9.10037,-11.58229 -18.20075,-13.23685 -13.2369,-21.51 -11.35062,-18.91222 -3.5409,-5.907 -12.4096,-62.048 -47.15647,-26.47378 -15.71882,-2.48192 3.30923,-9.10037 14.06421,-19.02805 14.06418,-1.65466 4.13653,-3.30922 3.30923,1.65461 13.2369,-7.44576 4.13653,1.65462 24.19044,2.25025 14.693,-3.07756 21.12937,-11.34236 8.65364,1.41471 29.783,24.8192 a 185.22006,185.22006 0 0 1 11.50787,64.28995 z"
       transform="translate(-58.78049,-225.05938)"
       fill="#575a89"
       id="path20" />
    <path
       d="m 119.17072,628.36472 c 0,0 7.40995,-12.55867 4.28015,-14.02487 -3.1298,-1.4662 -16.42157,-7.31125 -16.42157,-7.31125 l -19.49215,-6.45971 c 0,0 -28.126,-41.801 -28.74337,-5.45025 -0.61737,36.35075 20.47916,45.08869 20.47916,45.08869 0,0 18.81556,40.49267 29.47375,34.03567 10.65819,-6.457 21.32331,-28.37583 21.32331,-28.37583 0,0 -19.22,-10.33209 -10.89928,-17.50245 z"
       transform="translate(-58.78049,-225.05938)"
       fill="#2f2e41"
       id="path22" />
    <polygon
       points="317.51,364.848 307.582,315.21 310.064,315.21 335.711,268.054 399.413,307.764 367.975,328.447 321.051,370.755 "
       opacity="0.1"
       id="polygon24" />
    <polygon
       points="295.173,326.792 281.936,330.102 317.51,368.985 367.975,323.483 399.413,302.8 335.711,263.09 310.064,310.246 300.964,310.246 "
       fill="#575a89"
       id="polygon26" />
    <path
       d="m 358.64047,387.21919 -3.49581,1.345 a 4.88017,4.88017 0 0 1 -1.24759,-6.86 l -6.4602,-0.30231 a 48.78211,48.78211 0 0 1 72.82519,-5.86988 c 0.29412,-1.013 3.50037,0.95787 4.80938,2.95626 0.43984,-1.64837 3.4461,6.31994 4.5094,11.95247 0.49227,-1.8754 2.385,1.15218 0.72681,4.05727 1.05066,-0.15351 1.52525,2.53462 0.71189,4.0322 1.1494,-0.54 0.95568,2.66884 -0.29057,4.81326 1.64017,-0.14573 -12.93544,22.47575 -18.83687,35.696 -1.71358,-7.87343 -3.64027,-16.1643 -9.16573,-22.02916 -0.93919,-0.99689 -1.96768,-1.90488 -2.9945,-2.81126 l -5.55369,-4.90228 c -6.4579,-5.70042 -12.33246,-12.7359 -20.93549,-14.8664 -5.91224,-1.46413 -9.65052,-1.7947 -6.42852,-8.45681 -2.911,1.21478 -5.6294,3.02129 -8.5665,4.14957 0.0394,-0.93087 0.44994,-1.97254 0.3928,-2.90393 z"
       transform="translate(-58.78049,-225.05938)"
       fill="#2f2e41"
       id="path28" />
    <circle
       cx="341.08801"
       cy="189.87308"
       r="5.7911501"
       fill="#ffb9b9"
       id="circle30" />
    <rect
       x="178.43901"
       y="59.710152"
       width="28"
       height="28"
       fill="#b32f26"
       id="rect32" />
    <path
       d="m 282.21951,296.76953 h -34 v -34 h 34 z m -32.52174,-1.47826 h 31.04348 v -31.04348 h -31.04348 z"
       transform="translate(-58.78049,-225.05938)"
       fill="#3f3d56"
       id="path34" />
    <rect
       x="108.80838"
       y="374.61658"
       width="28"
       height="28"
       transform="rotate(74.06317,242.57893,237.1294)"
       fill="#b32f26"
       id="rect36" />
    <path
       d="m 133.24341,417.87594 -9.33563,-32.69321 32.69321,-9.33564 9.33563,32.69321 z m -7.50829,-31.67767 8.52384,29.85032 29.85032,-8.52383 -8.52384,-29.85033 z"
       transform="translate(-58.78049,-225.05938)"
       fill="#3f3d56"
       id="path38" />
    <rect
       x="118.48664"
       y="239.04858"
       width="28"
       height="28"
       transform="rotate(133.06281,151.95238,127.7588)"
       fill="#b32f26"
       id="rect40" />
    <path
       d="m 112.78106,277.063 23.21519,-24.8406 24.84059,23.21519 -23.21518,24.84059 z m 23.28586,-22.75121 -21.19647,22.68054 22.68055,21.19643 21.19647,-22.68054 z"
       transform="translate(-58.78049,-225.05938)"
       fill="#3f3d56"
       id="path42" />
    <path
       d="M 1085.0123,230.4217 H 824.8427 v -5.36232 h -117.971 v 5.36232 H 445.62961 A 17.5985,17.5985 0 0 0 428.0311,248.02021 V 604.2724 a 17.59855,17.59855 0 0 0 17.59851,17.5986 h 639.38269 a 17.59855,17.59855 0 0 0 17.5985,-17.59857 V 248.02021 a 17.5985,17.5985 0 0 0 -17.5985,-17.59851 z"
       transform="translate(-58.78049,-225.05938)"
       fill="#3f3d56"
       id="path44" />
    <rect
       x="392.84482"
       y="36.463772"
       width="627.3913"
       height="353.91302"
       fill="#b32f26"
       id="rect46" />
    <circle
       cx="706.00421"
       cy="20.37681"
       r="6.4347801"
       fill="#b32f26"
       id="circle48" />
    <polygon
       points="840.813,390.377 392.845,390.377 392.845,36.464 "
       opacity="0.1"
       id="polygon50" />
    <circle
       cx="491.01276"
       cy="303.58655"
       r="60.306801"
       fill="#f2f2f2"
       id="circle52" />
    <path
       d="M 563.21822,573.97237 A 75.01578,75.01578 0 1 1 638.234,498.9566 75.10088,75.10088 0 0 1 563.21822,573.97237 Z m 0,-149.05095 a 74.03518,74.03518 0 1 0 74.03518,74.03518 74.119,74.119 0 0 0 -74.03518,-74.03518 z"
       transform="translate(-58.78049,-225.05938)"
       fill="#3f3d56"
       id="path54" />
    <rect
       x="852.39172"
       y="227.33189"
       width="58.605202"
       height="12.24586"
       fill="#3f3d56"
       id="rect56" />
    <rect
       x="781.54065"
       y="131.98911"
       width="200.30733"
       height="5.24823"
       fill="#3f3d56"
       id="rect58" />
    <rect
       x="781.54065"
       y="148.60849"
       width="200.30733"
       height="5.24823"
       fill="#3f3d56"
       id="rect60" />
    <rect
       x="781.54065"
       y="165.22787"
       width="200.30733"
       height="5.24823"
       fill="#3f3d56"
       id="rect62" />
    <rect
       x="781.54065"
       y="181.84726"
       width="200.30733"
       height="5.24823"
       fill="#3f3d56"
       id="rect64" />
    <rect
       x="781.54065"
       y="198.46664"
       width="200.30733"
       height="5.24823"
       fill="#3f3d56"
       id="rect66" />
    <rect
       x="957.35626"
       y="43.643951"
       width="24.49173"
       height="24.49173"
       fill="#f2f2f2"
       id="rect68" />
    <path
       d="m 1051.9997,304.56621 h -29.7401 v -29.74 h 29.7401 z m -28.447,-1.293 h 27.1539 V 276.1193 h -27.1539 z"
       transform="translate(-58.78049,-225.05938)"
       fill="#3f3d56"
       id="path70" />
    <path
       d="m 1120.2266,609.00139 h -61.2293 v -4.41153 a 0.87467,0.87467 0 0 0 -0.8747,-0.87471 h -20.9929 a 0.87468,0.87468 0 0 0 -0.8747,0.87471 v 4.41153 h -13.1206 v -4.41153 a 0.87468,0.87468 0 0 0 -0.8747,-0.87471 h -20.9929 a 0.87468,0.87468 0 0 0 -0.8747,0.87471 v 4.41153 h -13.12058 v -4.41153 a 0.87468,0.87468 0 0 0 -0.87471,-0.87471 H 965.4039 a 0.87468,0.87468 0 0 0 -0.8747,0.87471 v 4.41153 h -13.12057 v -4.41153 a 0.87468,0.87468 0 0 0 -0.8747,-0.87471 H 929.541 a 0.87467,0.87467 0 0 0 -0.8747,0.87471 v 4.41153 h -13.12055 v -4.41153 a 0.87468,0.87468 0 0 0 -0.87471,-0.87471 h -20.9929 a 0.87468,0.87468 0 0 0 -0.87471,0.87471 v 4.41153 h -13.12057 v -4.41153 a 0.87468,0.87468 0 0 0 -0.8747,-0.87471 h -20.99291 a 0.87468,0.87468 0 0 0 -0.8747,0.87471 v 4.41153 H 843.82 v -4.41153 a 0.87468,0.87468 0 0 0 -0.8747,-0.87471 H 678.50083 a 0.87468,0.87468 0 0 0 -0.8747,0.87471 v 4.41153 h -13.12057 v -4.41153 a 0.87468,0.87468 0 0 0 -0.87471,-0.87471 H 642.638 a 0.87468,0.87468 0 0 0 -0.87471,0.87471 v 4.41153 h -13.12062 v -4.41153 a 0.87467,0.87467 0 0 0 -0.8747,-0.87471 h -20.99291 a 0.87468,0.87468 0 0 0 -0.8747,0.87471 v 4.41153 h -13.12057 v -4.41153 a 0.87468,0.87468 0 0 0 -0.8747,-0.87471 h -20.99291 a 0.87468,0.87468 0 0 0 -0.87471,0.87471 v 4.41153 h -13.12056 v -4.41153 a 0.87468,0.87468 0 0 0 -0.87471,-0.87471 h -20.99291 a 0.87468,0.87468 0 0 0 -0.8747,0.87471 v 4.41153 H 521.054 v -4.41153 a 0.87468,0.87468 0 0 0 -0.8747,-0.87471 h -20.99289 a 0.87467,0.87467 0 0 0 -0.8747,0.87471 v 4.41153 h -13.12057 v -4.41153 a 0.87468,0.87468 0 0 0 -0.87471,-0.87471 h -20.9929 a 0.87468,0.87468 0 0 0 -0.87471,0.87471 v 4.41153 h -40.23641 a 20.99292,20.99292 0 0 0 -20.9929,20.99291 v 9.4925 a 20.99291,20.99291 0 0 0 20.9929,20.99285 h 698.01419 a 20.99292,20.99292 0 0 0 20.9929,-20.99285 v -9.4925 a 20.99293,20.99293 0 0 0 -20.9929,-20.99291 z"
       transform="translate(-58.78049,-225.05938)"
       fill="#3f3d56"
       id="path72" />
  </g>
</svg>
