<?xml version="1.0" encoding="UTF-8" standalone="no"?>
<svg
   xmlns:dc="http://purl.org/dc/elements/1.1/"
   xmlns:cc="http://creativecommons.org/ns#"
   xmlns:rdf="http://www.w3.org/1999/02/22-rdf-syntax-ns#"
   xmlns:svg="http://www.w3.org/2000/svg"
   xmlns="http://www.w3.org/2000/svg"
   xmlns:sodipodi="http://sodipodi.sourceforge.net/DTD/sodipodi-0.dtd"
   xmlns:inkscape="http://www.inkscape.org/namespaces/inkscape"
   id="f241e7b9-92bc-4a39-8e1f-dd6f59c49ece"
   data-name="Layer 1"
   width="250"
   height="157.1227"
   viewBox="0 0 250 157.1227"
   version="1.1"
   sodipodi:docname="broken-computer.svg"
   inkscape:version="1.0.1 (3bc2e813f5, 2020-09-07, custom)">
  <metadata
     id="metadata144">
    <rdf:RDF>
      <cc:Work
         rdf:about="">
        <dc:format>image/svg+xml</dc:format>
        <dc:type
           rdf:resource="http://purl.org/dc/dcmitype/StillImage" />
      </cc:Work>
    </rdf:RDF>
  </metadata>
  <defs
     id="defs142" />
  <sodipodi:namedview
     pagecolor="#ffffff"
     bordercolor="#666666"
     borderopacity="1"
     objecttolerance="10"
     gridtolerance="10"
     guidetolerance="10"
     inkscape:pageopacity="0"
     inkscape:pageshadow="2"
     inkscape:window-width="1920"
     inkscape:window-height="1058"
     id="namedview140"
     showgrid="false"
     inkscape:zoom="1.8558086"
     inkscape:cx="73.225856"
     inkscape:cy="62.782532"
     inkscape:window-x="0"
     inkscape:window-y="22"
     inkscape:window-maximized="0"
     inkscape:current-layer="f241e7b9-92bc-4a39-8e1f-dd6f59c49ece"
     inkscape:document-rotation="0" />
  <g
     id="g1039"
     transform="matrix(0.2845319,0,0,0.2845319,-7.5302384e-4,3.1266708e-8)">
    <path
       d="M 998.54278,726.10734 H 255.9092 a 24.9009,24.9009 0 0 1 -24.9009,-24.9009 v 0 q 403.8068,-46.93008 792.4354,0 v 0 a 24.90091,24.90091 0 0 1 -24.90092,24.9009 z"
       transform="translate(-160.67983,-173.89266)"
       fill="#cccccc"
       id="path2" />
    <path
       d="m 1023.4437,702.67117 -792.4354,-1.46476 91.84049,-154.53222 0.43941,-0.73238 V 205.37035 a 31.47506,31.47506 0 0 1 31.47769,-31.47769 h 540.52592 a 31.47506,31.47506 0 0 1 31.47769,31.47769 v 342.915 z"
       transform="translate(-160.67983,-173.89266)"
       fill="#e6e6e6"
       id="path4" />
    <path
       d="m 354.04817,195.86407 a 10.26484,10.26484 0 0 0 -10.25332,10.25332 V 516.6466 a 10.2653,10.2653 0 0 0 10.25332,10.25332 H 900.40381 A 10.26575,10.26575 0 0 0 910.65713,516.6466 V 206.11739 a 10.26529,10.26529 0 0 0 -10.25332,-10.25332 z"
       transform="translate(-160.67983,-173.89266)"
       fill="#ffffff"
       id="path6" />
    <path
       d="m 357.63886,567.91321 a 4.40643,4.40643 0 0 0 -3.99233,2.55761 l -28.29891,61.51994 a 4.39408,4.39408 0 0 0 3.99161,6.231 h 595.11114 a 4.39378,4.39378 0 0 0 3.92939,-6.35969 l -30.76,-61.51994 a 4.372,4.372 0 0 0 -3.92939,-2.42887 z"
       transform="translate(-160.67983,-173.89266)"
       fill="#cccccc"
       id="path8" />
    <circle
       cx="464.34903"
       cy="10.25332"
       r="6.5914202"
       fill="#ffffff"
       id="circle10" />
    <path
       d="m 566.53427,649.9398 a 4.401,4.401 0 0 0 -4.24265,3.25137 l -7.09851,26.36568 a 4.39386,4.39386 0 0 0 4.24265,5.5372 h 134.99756 a 4.39329,4.39329 0 0 0 4.15111,-5.83187 l -9.12615,-26.36568 a 4.39658,4.39658 0 0 0 -4.15254,-2.9567 z"
       transform="translate(-160.67983,-173.89266)"
       fill="#cccccc"
       id="path12" />
    <polygon
       points="162.623,372.049 162.623,366.922 766.09,366.922 766.09,372.782 162.169,372.782 "
       fill="#cccccc"
       id="polygon14" />
    <path
       d="m 852.22715,554.23663 a 1.07171,1.07171 0 0 0 -1.03315,0.79175 l -1.7286,6.42045 a 1.07,1.07 0 0 0 1.03316,1.34839 h 32.87394 a 1.06983,1.06983 0 0 0 1.01085,-1.42015 l -2.22235,-6.42044 a 1.07064,1.07064 0 0 0 -1.01121,-0.72 z"
       transform="translate(-160.67983,-173.89266)"
       fill="#cccccc"
       id="path16" />
    <path
       d="m 804.22715,554.23663 a 1.07171,1.07171 0 0 0 -1.03315,0.79175 l -1.7286,6.42045 a 1.07,1.07 0 0 0 1.03316,1.34839 h 32.87394 a 1.06983,1.06983 0 0 0 1.01085,-1.42015 l -2.22235,-6.42044 a 1.07064,1.07064 0 0 0 -1.01121,-0.72 z"
       transform="translate(-160.67983,-173.89266)"
       fill="#cccccc"
       id="path18" />
    <path
       d="m 665.1612,595.03225 h 2.57647 l -5.153,-344.38824 h -2.57648 l 0.10279,6.8706 h -57.74666 l 0.10278,-6.8706 h -2.57647 l -5.153,344.38824 h 2.57648 l 0.33411,-22.3294 h 67.17883 z m -3.71375,-248.2 H 601.0279 l 0.62963,-42.08234 h 59.16028 z m 0.0386,2.57648 0.62963,42.08233 h -61.756 l 0.62964,-42.08233 z m 0.66821,44.65881 0.62964,42.08234 h -63.09241 l 0.62964,-42.08234 z m 0.66821,44.65881 0.62964,42.08234 h -64.42883 l 0.62964,-42.08234 z m 0.66821,44.65882 0.62964,42.08239 H 598.355 l 0.62964,-42.08239 z m -3.34106,-223.29408 0.62964,42.08234 h -59.08313 l 0.62964,-42.08234 z m -62.46277,310.03528 0.62964,-42.08234 h 65.84241 l 0.62964,42.08234 z"
       transform="translate(-160.67983,-173.89266)"
       fill="#3f3d56"
       id="path20" />
    <circle
       cx="457.7944"
       cy="153.3576"
       r="42.012329"
       fill="#2f2e41"
       id="circle22" />
    <rect
       x="632.56177"
       y="357.23822"
       width="12.76324"
       height="22.867491"
       transform="rotate(-10.26106,-409.78283,1176.5316)"
       fill="#2f2e41"
       id="rect24" />
    <rect
       x="607.4436"
       y="361.78528"
       width="12.76324"
       height="22.867491"
       transform="rotate(-10.26106,-434.90098,1181.0786)"
       fill="#2f2e41"
       id="rect26" />
    <ellipse
       cx="613.67175"
       cy="387.29849"
       rx="10.63602"
       ry="3.9885299"
       transform="rotate(-40.26106,296.13156,519.52933)"
       fill="#2f2e41"
       id="ellipse28" />
    <ellipse
       cx="638.26672"
       cy="382.84607"
       rx="10.63605"
       ry="3.9885299"
       transform="rotate(-40.26106,320.72649,515.07691)"
       fill="#2f2e41"
       id="ellipse30" />
    <circle
       cx="454.85318"
       cy="143.08115"
       r="14.35864"
       fill="#ffffff"
       id="circle32" />
    <circle
       cx="448.95181"
       cy="137.93436"
       r="4.7862201"
       fill="#3f3d56"
       id="circle34" />
    <path
       d="m 651.61608,281.54535 c 0.63177,-15.55359 -12.77313,-28.7276 -29.9408,-29.42493 -17.16767,-0.69733 -31.59692,11.346 -32.22873,26.8996 -0.63181,15.5536 11.30191,19.08746 28.46955,19.78485 17.16764,0.69739 33.0682,-1.70594 33.69998,-17.25952 z"
       transform="translate(-160.67983,-173.89266)"
       fill="#b32f26"
       id="path36" />
    <ellipse
       cx="579.68164"
       cy="319.59634"
       rx="6.59448"
       ry="21.006161"
       transform="rotate(-77.0899,390.21103,333.48865)"
       fill="#2f2e41"
       id="ellipse38" />
    <ellipse
       cx="662.15027"
       cy="333.31082"
       rx="6.59448"
       ry="21.006161"
       transform="rotate(-77.0899,472.67966,347.20311)"
       fill="#2f2e41"
       id="ellipse40" />
    <path
       d="m 630.01293,343.80682 a 9.57243,9.57243 0 1 1 -18.8353,3.42883 l -0.003,-0.0185 c -0.94175,-5.20215 3.08038,-7.043 8.28256,-7.98474 5.20218,-0.94174 9.61438,-0.62775 10.55609,4.5744 z"
       transform="translate(-160.67983,-173.89266)"
       fill="#ffffff"
       id="path42" />
    <ellipse
       cx="469.86575"
       cy="467.52634"
       rx="21.533689"
       ry="6.7600698"
       transform="rotate(-69.08217,263.21227,497.29593)"
       fill="#2f2e41"
       id="ellipse44" />
    <circle
       cx="430.05859"
       cy="500.04834"
       r="43.067348"
       transform="rotate(-80.78252,247.52553,507.53029)"
       fill="#2f2e41"
       id="circle46" />
    <rect
       x="249.75314"
       y="359.95538"
       width="13.08374"
       height="23.44171"
       fill="#2f2e41"
       id="rect48" />
    <rect
       x="275.92062"
       y="359.95538"
       width="13.08374"
       height="23.44171"
       fill="#2f2e41"
       id="rect50" />
    <ellipse
       cx="260.65628"
       cy="383.66968"
       rx="10.90314"
       ry="4.0886798"
       fill="#2f2e41"
       id="ellipse52" />
    <ellipse
       cx="286.82376"
       cy="383.12454"
       rx="10.90314"
       ry="4.0886798"
       fill="#2f2e41"
       id="ellipse54" />
    <path
       d="m 388.28186,459.997 c -3.47748,-15.57379 7.63867,-31.31046 24.82861,-35.14884 17.18994,-3.83838 33.94422,5.67508 37.42169,21.24888 3.47747,15.5738 -7.91491,21.31765 -25.10485,25.156 -17.18994,3.83835 -33.66797,4.31774 -37.14545,-11.25604 z"
       transform="translate(-160.67983,-173.89266)"
       fill="#b32f26"
       id="path56" />
    <ellipse
       cx="381.55042"
       cy="480.06494"
       rx="6.7600698"
       ry="21.53368"
       transform="rotate(-64.62574,163.7434,520.14062)"
       fill="#2f2e41"
       id="ellipse58" />
    <circle
       cx="82.900803"
       cy="369.76318"
       r="43.067329"
       fill="#2f2e41"
       id="circle60" />
    <rect
       x="63.275188"
       y="403.56287"
       width="13.08374"
       height="23.44171"
       fill="#2f2e41"
       id="rect62" />
    <rect
       x="89.442673"
       y="403.56287"
       width="13.08374"
       height="23.44171"
       fill="#2f2e41"
       id="rect64" />
    <ellipse
       cx="74.178268"
       cy="427.27716"
       rx="10.90314"
       ry="4.0886798"
       fill="#2f2e41"
       id="ellipse66" />
    <ellipse
       cx="100.34581"
       cy="426.73199"
       rx="10.90314"
       ry="4.0886798"
       fill="#2f2e41"
       id="ellipse68" />
    <circle
       cx="83.991127"
       cy="358.86008"
       r="14.71922"
       fill="#ffffff"
       id="circle70" />
    <circle
       cx="83.991127"
       cy="358.86008"
       r="4.9064202"
       fill="#3f3d56"
       id="circle72" />
    <path
       d="m 201.80384,503.60449 c -3.47748,-15.57379 7.63867,-31.31043 24.82861,-35.14881 17.18994,-3.83838 33.94421,5.67511 37.42169,21.2489 3.47748,15.57379 -7.91492,21.31769 -25.10486,25.156 -17.18994,3.83831 -33.66791,4.31776 -37.14544,-11.25609 z"
       transform="translate(-160.67983,-173.89266)"
       fill="#e6e6e6"
       id="path74" />
    <ellipse
       cx="268.66855"
       cy="387.38342"
       rx="21.533689"
       ry="6.7600698"
       transform="rotate(-69.08217,62.015073,417.153)"
       fill="#2f2e41"
       id="ellipse76" />
    <circle
       cx="228.86137"
       cy="419.90543"
       r="43.067348"
       transform="rotate(-80.78252,46.328319,427.38735)"
       fill="#2f2e41"
       id="circle78" />
    <rect
       x="48.55595"
       y="279.81244"
       width="13.08374"
       height="23.44171"
       fill="#2f2e41"
       id="rect80" />
    <rect
       x="74.723427"
       y="279.81244"
       width="13.08374"
       height="23.44171"
       fill="#2f2e41"
       id="rect82" />
    <ellipse
       cx="59.459091"
       cy="303.52673"
       rx="10.90314"
       ry="4.0886798"
       fill="#2f2e41"
       id="ellipse84" />
    <ellipse
       cx="85.626572"
       cy="302.9816"
       rx="10.90314"
       ry="4.0886798"
       fill="#2f2e41"
       id="ellipse86" />
    <circle
       cx="69.271889"
       cy="235.10965"
       r="14.71922"
       fill="#ffffff"
       id="circle88" />
    <circle
       cx="69.271889"
       cy="235.10965"
       r="4.9064202"
       fill="#3f3d56"
       id="circle90" />
    <path
       d="m 187.08466,379.854 c -3.47748,-15.57379 7.63867,-31.31046 24.82861,-35.14884 17.18994,-3.83838 33.94422,5.67508 37.42169,21.24888 3.47747,15.5738 -7.91491,21.31765 -25.10485,25.156 -17.18994,3.83835 -33.66797,4.31781 -37.14545,-11.25604 z"
       transform="translate(-160.67983,-173.89266)"
       fill="#b32f26"
       id="path92" />
    <ellipse
       cx="180.35323"
       cy="399.92203"
       rx="6.7600698"
       ry="21.53368"
       transform="rotate(-64.62574,-37.453799,439.99769)"
       fill="#2f2e41"
       id="ellipse94" />
    <path
       d="m 207.70685,435.44238 c 0,4.21515 10.85327,12.53857 22.89655,12.53857 12.04328,0 23.33514,-11.867 23.33514,-16.08209 0,-4.21509 -11.29193,0.81775 -23.33514,0.81775 -12.04321,0 -22.89655,-1.48938 -22.89655,2.72577 z"
       transform="translate(-160.67983,-173.89266)"
       fill="#ffffff"
       id="path96" />
    <path
       d="m 271.20359,255.46135 a 3.00328,3.00328 0 0 0 -3,3 v 124 a 3.00328,3.00328 0 0 0 3,3 h 287 a 3.00328,3.00328 0 0 0 3,-3 v -124 a 3.00328,3.00328 0 0 0 -3,-3 z"
       transform="translate(-160.67983,-173.89266)"
       fill="#b32f26"
       id="path98" />
    <circle
       cx="188.01816"
       cy="146.5687"
       r="29.121099"
       fill="#ffffff"
       id="circle100" />
    <path
       id="b71acdfd-6a55-428e-917a-53f192cb0203"
       data-name="Path 40"
       d="m 414.42343,316.58683 a 3.40529,3.40529 0 0 0 0,6.80966 h 91.94566 a 3.40529,3.40529 0 1 0 0.11181,-6.80966 q -0.0559,-9.5e-4 -0.11181,0 z"
       transform="translate(-160.67983,-173.89266)"
       fill="#ffffff" />
    <path
       id="ad4fbcfa-41b0-45f9-a593-23b6dc3fe165"
       data-name="Path 40"
       d="m 414.42343,296.85963 a 3.40529,3.40529 0 0 0 0,6.80966 H 460.339 a 3.40529,3.40529 0 1 0 0.1118,-6.80966 q -0.0559,-9.5e-4 -0.1118,0 z"
       transform="translate(-160.67983,-173.89266)"
       fill="#ffffff" />
    <path
       id="bce2a7cd-a325-424d-9b3a-f63d1dad5aba"
       data-name="Path 40"
       d="m 414.42343,337.25342 a 3.40529,3.40529 0 0 0 0,6.80966 h 91.94566 a 3.40529,3.40529 0 1 0 0.11181,-6.80966 q -0.0559,-0.001 -0.11181,0 z"
       transform="translate(-160.67983,-173.89266)"
       fill="#ffffff" />
    <ellipse
       cx="853.28247"
       cy="546.50275"
       rx="6.7600698"
       ry="21.533689"
       transform="rotate(-20.91783,301.93758,894.77326)"
       fill="#2f2e41"
       id="ellipse105" />
    <circle
       cx="884.08966"
       cy="588.02472"
       r="43.067329"
       transform="rotate(-9.21747,-274.83424,1497.7091)"
       fill="#2f2e41"
       id="circle107" />
    <polygon
       points="743.035,447.932 729.952,447.932 732.512,476.005 743.058,473.14 "
       fill="#2f2e41"
       id="polygon109" />
    <polygon
       points="714.512,448.005 701.428,448.005 703.988,476.078 714.058,473.14 "
       fill="#2f2e41"
       id="polygon111" />
    <ellipse
       cx="863.99792"
       cy="647.21173"
       rx="10.90314"
       ry="4.0886798"
       transform="rotate(-4.18164,-1597.9169,2760.8833)"
       fill="#2f2e41"
       id="ellipse113" />
    <circle
       cx="722.31952"
       cy="403.22897"
       r="14.71922"
       fill="#ffffff"
       id="circle115" />
    <circle
       cx="722.31952"
       cy="403.22897"
       r="4.9064202"
       fill="#3f3d56"
       id="circle117" />
    <ellipse
       cx="929.59784"
       cy="558.04132"
       rx="21.53368"
       ry="6.7600698"
       transform="rotate(-53.5499,676.94633,630.31393)"
       fill="#2f2e41"
       id="ellipse119" />
    <path
       d="m 863.07681,610.23132 c 0,-3.474 8.945,-10.334 18.8708,-10.334 9.9258,0 19.23228,9.7805 19.23228,13.25448 0,3.47398 -9.30655,-0.674 -19.23228,-0.674 -9.92573,0 -18.8708,1.22754 -18.8708,-2.24648 z"
       transform="translate(-160.67983,-173.89266)"
       fill="#ffffff"
       id="path121" />
    <path
       d="M 1004.8565,552.43438 769.111,519.7533 a 7.0085,7.0085 0 0 1 -5.97249,-7.8949 L 789.6404,320.68662 a 7.00819,7.00819 0 0 1 7.8949,-5.97249 l 235.7455,32.68109 a 7.00818,7.00818 0 0 1 5.9725,7.8949 l -26.5019,191.17178 a 7.00848,7.00848 0 0 1 -7.8949,5.97248 z"
       transform="translate(-160.67983,-173.89266)"
       fill="#b32f26"
       id="path123" />
    <path
       d="M 920.40214,492.77223 800.04767,476.08764 a 2.47686,2.47686 0 0 1 -0.44482,-0.098 l 70.59053,-90.70626 a 4.02366,4.02366 0 0 1 6.93772,0.96176 l 29.02932,71.46232 1.39127,3.41979 z"
       transform="translate(-160.67983,-173.89266)"
       fill="#ffffff"
       id="path125" />
    <polygon
       points="742.864,286.679 744.609,284.77 745.481,283.815 746.872,287.235 759.722,318.879 718.63,313.183 "
       opacity="0.2"
       style="isolation:isolate"
       id="polygon127" />
    <path
       d="m 987.41464,502.06208 -104.09674,-14.43079 24.23379,-26.504 1.74426,-1.90948 31.57921,-34.54012 a 5.36964,5.36964 0 0 1 7.96051,0.62248 4.79638,4.79638 0 0 1 0.3131,0.52448 z"
       transform="translate(-160.67983,-173.89266)"
       fill="#ffffff"
       id="path129" />
    <circle
       cx="761.18604"
       cy="224.18353"
       r="18"
       fill="#ffffff"
       id="circle131" />
    <rect
       x="799.94141"
       y="330.81168"
       width="22"
       height="22"
       transform="matrix(0.99053,0.13732,-0.13732,0.99053,-106.06204,-282.00962)"
       fill="#3f3d56"
       id="rect133" />
    <path
       d="m 925.86638,547.97334 c 3.47748,-15.57379 -7.63867,-31.31046 -24.82861,-35.14884 -17.18994,-3.83838 -33.94421,5.67508 -37.42169,21.24887 -3.47748,15.57379 7.91492,21.31766 25.10486,25.156 17.18994,3.83834 33.66797,4.31779 37.14544,-11.25603 z"
       transform="translate(-160.67983,-173.89266)"
       fill="#f2f2f2"
       id="path135" />
    <ellipse
       cx="892.69043"
       cy="647.14252"
       rx="10.90314"
       ry="4.0886798"
       transform="rotate(-4.18164,-1569.2244,2760.8141)"
       fill="#2f2e41"
       id="ellipse137" />
  </g>
</svg>
