<?xml version="1.0" encoding="UTF-8" standalone="no"?>
<svg
   xmlns:dc="http://purl.org/dc/elements/1.1/"
   xmlns:cc="http://creativecommons.org/ns#"
   xmlns:rdf="http://www.w3.org/1999/02/22-rdf-syntax-ns#"
   xmlns:svg="http://www.w3.org/2000/svg"
   xmlns="http://www.w3.org/2000/svg"
   xmlns:sodipodi="http://sodipodi.sourceforge.net/DTD/sodipodi-0.dtd"
   xmlns:inkscape="http://www.inkscape.org/namespaces/inkscape"
   id="f26437e7-89a7-4b5d-86a1-b6b68813c70b"
   data-name="Layer 1"
   width="250"
   height="170.38177"
   viewBox="0 0 250 170.38177"
   version="1.1"
   sodipodi:docname="business-decisions.svg"
   inkscape:version="1.0.1 (3bc2e813f5, 2020-09-07, custom)">
  <metadata
     id="metadata179">
    <rdf:RDF>
      <cc:Work
         rdf:about="">
        <dc:format>image/svg+xml</dc:format>
        <dc:type
           rdf:resource="http://purl.org/dc/dcmitype/StillImage" />
      </cc:Work>
    </rdf:RDF>
  </metadata>
  <defs
     id="defs177" />
  <sodipodi:namedview
     pagecolor="#ffffff"
     bordercolor="#666666"
     borderopacity="1"
     objecttolerance="10"
     gridtolerance="10"
     guidetolerance="10"
     inkscape:pageopacity="0"
     inkscape:pageshadow="2"
     inkscape:window-width="1920"
     inkscape:window-height="1058"
     id="namedview175"
     showgrid="false"
     inkscape:zoom="1.498548"
     inkscape:cx="-63.515813"
     inkscape:cy="85.190901"
     inkscape:window-x="0"
     inkscape:window-y="22"
     inkscape:window-maximized="0"
     inkscape:current-layer="f26437e7-89a7-4b5d-86a1-b6b68813c70b" />
  <g
     id="g1090"
     transform="matrix(0.32492368,0,0,0.32492368,0,3.2536494e-6)">
    <circle
       cx="174.75708"
       cy="6.8133402"
       r="6.8133502"
       fill="#e6e6e6"
       id="circle2" />
    <circle
       cx="209.24609"
       cy="6.8133402"
       r="6.8133502"
       fill="#e6e6e6"
       id="circle4" />
    <circle
       cx="243.73517"
       cy="6.8133402"
       r="6.8133502"
       fill="#e6e6e6"
       id="circle6" />
    <circle
       cx="278.22418"
       cy="6.8133402"
       r="6.8133502"
       fill="#e6e6e6"
       id="circle8" />
    <circle
       cx="312.71326"
       cy="6.8133402"
       r="6.8133502"
       fill="#e6e6e6"
       id="circle10" />
    <circle
       cx="174.75708"
       cy="41.735291"
       r="6.8133502"
       fill="#e6e6e6"
       id="circle12" />
    <circle
       cx="209.24609"
       cy="41.735291"
       r="6.8133502"
       fill="#e6e6e6"
       id="circle14" />
    <circle
       cx="243.73517"
       cy="41.735291"
       r="6.8133502"
       fill="#e6e6e6"
       id="circle16" />
    <circle
       cx="278.22418"
       cy="41.735291"
       r="6.8133502"
       fill="#b32f26"
       id="circle18" />
    <circle
       cx="312.71326"
       cy="41.735291"
       r="6.8133502"
       fill="#e6e6e6"
       id="circle20" />
    <circle
       cx="381.69135"
       cy="41.735291"
       r="6.8133502"
       fill="#e6e6e6"
       id="circle22" />
    <circle
       cx="174.75708"
       cy="76.657242"
       r="6.8133502"
       fill="#e6e6e6"
       id="circle24" />
    <circle
       cx="209.24609"
       cy="76.657242"
       r="6.8133502"
       fill="#e6e6e6"
       id="circle26" />
    <circle
       cx="243.73517"
       cy="76.657242"
       r="6.8133502"
       fill="#e6e6e6"
       id="circle28" />
    <circle
       cx="278.22418"
       cy="76.657242"
       r="6.8133502"
       fill="#e6e6e6"
       id="circle30" />
    <circle
       cx="312.71326"
       cy="76.657242"
       r="6.8133502"
       fill="#e6e6e6"
       id="circle32" />
    <circle
       cx="174.75708"
       cy="111.57918"
       r="6.8133502"
       fill="#e6e6e6"
       id="circle34" />
    <circle
       cx="209.24609"
       cy="111.57918"
       r="6.8133502"
       fill="#e6e6e6"
       id="circle36" />
    <circle
       cx="243.73517"
       cy="111.57918"
       r="6.8133502"
       fill="#e6e6e6"
       id="circle38" />
    <circle
       cx="278.22418"
       cy="111.57918"
       r="6.8133502"
       fill="#e6e6e6"
       id="circle40" />
    <circle
       cx="312.71326"
       cy="111.57918"
       r="6.8133502"
       fill="#e6e6e6"
       id="circle42" />
    <circle
       cx="347.20227"
       cy="111.57918"
       r="6.8133502"
       fill="#e6e6e6"
       id="circle44" />
    <circle
       cx="381.69135"
       cy="111.57918"
       r="6.8133502"
       fill="#e6e6e6"
       id="circle46" />
    <circle
       cx="416.18036"
       cy="111.57918"
       r="6.8133502"
       fill="#e6e6e6"
       id="circle48" />
    <circle
       cx="450.66943"
       cy="111.57918"
       r="6.8133502"
       fill="#e6e6e6"
       id="circle50" />
    <circle
       cx="485.15845"
       cy="111.57918"
       r="6.8133502"
       fill="#e6e6e6"
       id="circle52" />
    <circle
       cx="312.71326"
       cy="146.50113"
       r="6.8133502"
       fill="#e6e6e6"
       id="circle54" />
    <circle
       cx="347.20227"
       cy="146.50113"
       r="6.8133502"
       fill="#b32f26"
       id="circle56" />
    <circle
       cx="381.69135"
       cy="146.50113"
       r="6.8133502"
       fill="#e6e6e6"
       id="circle58" />
    <circle
       cx="416.18036"
       cy="146.50113"
       r="6.8133502"
       fill="#e6e6e6"
       id="circle60" />
    <circle
       cx="450.66943"
       cy="146.50113"
       r="6.8133502"
       fill="#e6e6e6"
       id="circle62" />
    <circle
       cx="485.15845"
       cy="146.50113"
       r="6.8133502"
       fill="#e6e6e6"
       id="circle64" />
    <circle
       cx="312.71326"
       cy="181.42308"
       r="6.8133502"
       fill="#e6e6e6"
       id="circle66" />
    <circle
       cx="347.20227"
       cy="181.42308"
       r="6.8133502"
       fill="#e6e6e6"
       id="circle68" />
    <circle
       cx="381.69135"
       cy="181.42308"
       r="6.8133502"
       fill="#e6e6e6"
       id="circle70" />
    <circle
       cx="416.18036"
       cy="181.42308"
       r="6.8133502"
       fill="#e6e6e6"
       id="circle72" />
    <circle
       cx="450.66943"
       cy="181.42308"
       r="6.8133502"
       fill="#b32f26"
       id="circle74" />
    <circle
       cx="485.15845"
       cy="181.42308"
       r="6.8133502"
       fill="#e6e6e6"
       id="circle76" />
    <circle
       cx="312.71326"
       cy="216.34503"
       r="6.8133502"
       fill="#e6e6e6"
       id="circle78" />
    <circle
       cx="347.20227"
       cy="216.34503"
       r="6.8133502"
       fill="#e6e6e6"
       id="circle80" />
    <circle
       cx="381.69135"
       cy="216.34503"
       r="6.8133502"
       fill="#e6e6e6"
       id="circle82" />
    <circle
       cx="416.18036"
       cy="216.34503"
       r="6.8133502"
       fill="#e6e6e6"
       id="circle84" />
    <circle
       cx="450.66943"
       cy="216.34503"
       r="6.8133502"
       fill="#e6e6e6"
       id="circle86" />
    <circle
       cx="485.15845"
       cy="216.34503"
       r="6.8133502"
       fill="#e6e6e6"
       id="circle88" />
    <circle
       cx="174.75708"
       cy="251.26698"
       r="6.8133502"
       fill="#e6e6e6"
       id="circle90" />
    <circle
       cx="209.24609"
       cy="251.26698"
       r="6.8133502"
       fill="#e6e6e6"
       id="circle92" />
    <circle
       cx="243.73517"
       cy="251.26698"
       r="6.8133502"
       fill="#e6e6e6"
       id="circle94" />
    <circle
       cx="278.22418"
       cy="251.26698"
       r="6.8133502"
       fill="#e6e6e6"
       id="circle96" />
    <circle
       cx="312.71326"
       cy="251.26698"
       r="6.8133502"
       fill="#e6e6e6"
       id="circle98" />
    <circle
       cx="347.20227"
       cy="251.26698"
       r="6.8133502"
       fill="#e6e6e6"
       id="circle100" />
    <circle
       cx="381.69135"
       cy="251.26698"
       r="6.8133502"
       fill="#e6e6e6"
       id="circle102" />
    <circle
       cx="416.18036"
       cy="251.26698"
       r="6.8133502"
       fill="#e6e6e6"
       id="circle104" />
    <circle
       cx="450.66943"
       cy="251.26698"
       r="6.8133502"
       fill="#e6e6e6"
       id="circle106" />
    <circle
       cx="485.15845"
       cy="251.26698"
       r="6.8133502"
       fill="#e6e6e6"
       id="circle108" />
    <circle
       cx="174.75314"
       cy="286.18784"
       r="6.8133402"
       fill="#e6e6e6"
       id="circle110" />
    <circle
       cx="209.24609"
       cy="286.18893"
       r="6.8133502"
       fill="#e6e6e6"
       id="circle112" />
    <circle
       cx="174.75308"
       cy="321.10959"
       r="6.8133402"
       fill="#e6e6e6"
       id="circle114" />
    <circle
       cx="209.24609"
       cy="321.11087"
       r="6.8133502"
       fill="#e6e6e6"
       id="circle116" />
    <circle
       cx="278.22418"
       cy="321.11087"
       r="6.8133502"
       fill="#e6e6e6"
       id="circle118" />
    <path
       d="M 837.29482,268.19654 H 567.29428 a 5.00586,5.00586 0 0 1 -5,-5 V 196.221 a 5.00587,5.00587 0 0 1 5,-5 h 270.00054 a 5.00587,5.00587 0 0 1 5,5 v 66.97557 a 5.00586,5.00586 0 0 1 -5,4.99997 z M 567.29428,193.221 a 3.00328,3.00328 0 0 0 -3,3 v 66.97557 a 3.00328,3.00328 0 0 0 3,3 h 270.00054 a 3.00328,3.00328 0 0 0 3,-3 V 196.221 a 3.00328,3.00328 0 0 0 -3,-3 z"
       transform="translate(-215.29428,-187.81263)"
       fill="#e6e6e6"
       id="path120" />
    <circle
       cx="387"
       cy="41.89587"
       r="21"
       fill="#b32f26"
       id="circle122" />
    <path
       d="m 650.79428,215.70849 a 3.5,3.5 0 1 0 0,7 h 93 a 3.5,3.5 0 1 0 0,-7 z"
       transform="translate(-215.29428,-187.81263)"
       fill="#e6e6e6"
       id="path124" />
    <path
       d="m 650.79428,236.70849 a 3.5,3.5 0 1 0 0,7 h 165.00006 a 3.5,3.5 0 1 0 0,-7 z"
       transform="translate(-215.29428,-187.81263)"
       fill="#e6e6e6"
       id="path126" />
    <path
       d="M 490.29476,404.19654 H 220.29428 a 5.00587,5.00587 0 0 1 -5,-5 V 332.221 a 5.00587,5.00587 0 0 1 5,-5 h 270.00048 a 5.00588,5.00588 0 0 1 5,5 v 66.97558 a 5.00587,5.00587 0 0 1 -5,4.99996 z M 220.29428,329.221 a 3.00328,3.00328 0 0 0 -3,3 v 66.97558 a 3.00328,3.00328 0 0 0 3,3 h 270.00048 a 3.00328,3.00328 0 0 0 3,-3 V 332.221 a 3.00328,3.00328 0 0 0 -3,-3 z"
       transform="translate(-215.29428,-187.81263)"
       fill="#e6e6e6"
       id="path128" />
    <circle
       cx="40"
       cy="177.89587"
       r="21"
       fill="#b32f26"
       id="circle130" />
    <path
       d="m 303.79428,351.70851 a 3.5,3.5 0 0 0 0,7 h 97 a 3.5,3.5 0 0 0 0,-7 z"
       transform="translate(-215.29428,-187.81263)"
       fill="#e6e6e6"
       id="path132" />
    <path
       d="m 303.79428,372.70851 a 3.5,3.5 0 0 0 0,7 h 165 a 3.5,3.5 0 0 0 0,-7 z"
       transform="translate(-215.29428,-187.81263)"
       fill="#e6e6e6"
       id="path134" />
    <path
       d="M 734.29476,551.19654 H 464.29428 a 5.00587,5.00587 0 0 1 -5,-5 V 479.221 a 5.00587,5.00587 0 0 1 5,-5 h 270.00048 a 5.00588,5.00588 0 0 1 5,5 v 66.97558 a 5.00587,5.00587 0 0 1 -5,4.99996 z M 464.29428,476.221 a 3.00328,3.00328 0 0 0 -3,3 v 66.97558 a 3.00328,3.00328 0 0 0 3,3 h 270.00048 a 3.00328,3.00328 0 0 0 3,-3 V 479.221 a 3.00328,3.00328 0 0 0 -3,-3 z"
       transform="translate(-215.29428,-187.81263)"
       fill="#3f3d56"
       id="path136" />
    <circle
       cx="284"
       cy="324.89587"
       r="21"
       fill="#b32f26"
       id="circle138" />
    <path
       d="m 547.79428,498.70851 a 3.5,3.5 0 0 0 0,7 h 89 a 3.5,3.5 0 0 0 0,-7 z"
       transform="translate(-215.29428,-187.81263)"
       fill="#e6e6e6"
       id="path140" />
    <path
       d="m 547.79428,519.70851 a 3.5,3.5 0 0 0 0,7 h 165 a 3.5,3.5 0 0 0 0,-7 z"
       transform="translate(-215.29428,-187.81263)"
       fill="#e6e6e6"
       id="path142" />
    <path
       d="m 879.54366,534.21071 c -11.72577,35.17727 -59.69483,-2.132 -59.69483,-2.132 l 12.79175,-133.24728 c 19.18762,-14.92374 39.44122,-2.132 39.44122,-2.132 z"
       transform="translate(-215.29428,-187.81263)"
       fill="#e6e6e6"
       id="path144" />
    <polygon
       points="661.733,511.746 661.731,464.458 678.076,464.63 673.993,511.745 "
       fill="#ffb8b8"
       id="polygon146" />
    <path
       d="m 873.89973,695.555 h 24.1438 a 15.40412,15.40412 0 0 1 15.38684,15.38672 v 0.5 h -39.53064 z"
       transform="translate(-215.29428,-187.81263)"
       fill="#2f2e41"
       id="path148" />
    <polygon
       points="617.419,511.746 617.421,464.458 599.327,464.457 605.159,511.745 "
       fill="#ffb8b8"
       id="polygon150" />
    <path
       d="m 796.30891,711.44127 v -0.5 A 15.38689,15.38689 0 0 1 811.69636,695.555 l 24.144,0.001 -7.3e-4,15.88721 z"
       transform="translate(-215.29428,-187.81263)"
       fill="#2f2e41"
       id="path152" />
    <path
       d="m 875.92182,691.39635 -21.413,-124.82275 -19.8396,123.21386 -20.10059,1.1167 -5.35986,-165.08593 0.404,-0.0903 c 3.32324,-0.74414 81.53675,-17.92285 94.35852,6.65235 l 0.0651,0.12451 -10.70145,159.45312 z"
       transform="translate(-215.29428,-187.81263)"
       fill="#2f2e41"
       id="path154" />
    <circle
       cx="637.93378"
       cy="170.84251"
       r="24.561029"
       fill="#ffb8b8"
       id="circle156" />
    <path
       d="m 873.86189,544.73717 c -2.879,-0.79736 -4.95374,-4.10351 -6.52906,-10.40527 -0.2716,-1.08643 -25.772,-109.71143 -4.20691,-129.3916 l 4.97083,-13.80811 6.80261,4.53516 c 2.40711,0.0225 27.02075,0.64551 29.12439,16.42285 2.05933,15.44336 7.66553,118.91308 2.0304,125.34912 a 1.21859,1.21859 0 0 1 -0.927,0.46924 c -5.71069,0 -7.44421,-6.33643 -7.85144,-8.356 -1.35791,0.5625 -5.4021,2.62891 -12.04858,9.27539 -4.11706,4.11719 -7.34521,6.09033 -10.01221,6.09033 a 5.03681,5.03681 0 0 1 -1.35303,-0.18111 z"
       transform="translate(-215.29428,-187.81263)"
       fill="#2f2e41"
       id="path158" />
    <path
       d="m 820.56135,538.828 c -6.64844,-6.64844 -10.69312,-8.71435 -12.04858,-9.27539 -0.40723,2.01953 -2.14087,8.356 -7.85157,8.356 a 1.21859,1.21859 0 0 1 -0.927,-0.46924 c -5.63452,-6.43555 -0.0288,-109.90527 2.03027,-125.34912 2.10376,-15.77734 26.71753,-16.40039 29.12452,-16.42285 l 6.80273,-4.53516 4.9707,13.80811 c 21.5636,19.67871 -3.9353,128.30517 -4.20678,129.3916 -1.57544,6.30176 -3.65015,9.60791 -6.52906,10.40527 a 5.03687,5.03687 0 0 1 -1.353,0.18115 c -2.66702,-5e-5 -5.89553,-1.97368 -10.01223,-6.09037 z"
       transform="translate(-215.29428,-187.81263)"
       fill="#2f2e41"
       id="path160" />
    <path
       d="m 873.50569,372.6848 a 25.2045,25.2045 0 0 0 -12.20761,-45.54 c -2.261,-0.22632 -4.6962,-0.19263 -6.57089,-1.47671 -1.66538,-1.14075 -2.56235,-3.11927 -4.09274,-4.43557 a 8.92882,8.92882 0 0 0 -6.92633,-1.746 25.06232,25.06232 0 0 0 -6.96241,2.28755 c -5.4461,2.4281 -11.23532,5.41651 -13.71368,10.83994 -2.14673,4.69778 -1.19916,10.49066 1.83963,14.66717 a 20.40969,20.40969 0 0 0 13.01642,7.6857 32.53463,32.53463 0 0 0 15.28491,-1.3764 c 3.24149,-1.02 6.44168,-2.40994 9.83795,-2.52344 a 13.36948,13.36948 0 0 1 10.14533,22.56406"
       transform="translate(-215.29428,-187.81263)"
       fill="#2f2e41"
       id="path162" />
    <path
       d="m 739.63564,518.79392 a 10.80089,10.80089 0 0 0 10.54768,-11.04832 l 14.32324,-24.16626 -11.06662,-10.14584 -15.08771,23.8105 a 10.80119,10.80119 0 0 0 1.28341,21.54995 z"
       transform="translate(-215.29428,-187.81263)"
       fill="#ffb8b8"
       id="path164" />
    <path
       d="M 905.80824,545.26863 A 10.80089,10.80089 0 0 0 908.9576,530.322 l -0.54831,-28.0867 -14.75055,-2.7981 -0.28894,28.1868 a 10.80119,10.80119 0 0 0 12.43844,17.64462 z"
       transform="translate(-215.29428,-187.81263)"
       fill="#ffb8b8"
       id="path166" />
    <path
       d="m 743.993,479.93617 -0.167,-0.26541 0.16543,-0.2657 c 21.48348,-34.49883 66.57905,-77.59335 67.03216,-78.0249 l 0.14261,-0.13567 5.56988,-0.0571 6.02086,15 c -1.87458,3.60607 -52.39573,74.10985 -59.067,78.78606 a 4.60271,4.60271 0 0 1 -3.68455,0.69416 9.69861,9.69861 0 0 1 -3.12459,-1.33052 c -6.1561,-3.81295 -12.57261,-13.90183 -12.8878,-14.4009 z"
       transform="translate(-215.29428,-187.81263)"
       fill="#2f2e41"
       id="path168" />
    <path
       d="m 890.85188,519.30309 a 4.57042,4.57042 0 0 1 -2.707,-2.48438 c -3.21644,-7.50488 10.56933,-102.30224 11.15771,-106.334 l 0.11133,-0.7627 4.6604,2.95313 0.0457,0.20117 c 0.13758,0.60547 13.71253,60.99707 10.033,101.126 l -0.0264,0.28711 -0.26135,0.12109 c -0.56067,0.25977 -11.868,5.45264 -19.40417,5.45264 a 10.19225,10.19225 0 0 1 -3.6092,-0.56006 z"
       transform="translate(-215.29428,-187.81263)"
       fill="#2f2e41"
       id="path170" />
    <path
       d="m 983.70572,712.18737 h -266 a 1,1 0 0 1 0,-2 h 266 a 1,1 0 0 1 0,2 z"
       transform="translate(-215.29428,-187.81263)"
       fill="#3f3d56"
       id="path172" />
  </g>
</svg>
