<svg width="41" height="41" viewBox="0 0 41 41" fill="none" xmlns="http://www.w3.org/2000/svg">
<rect width="41" height="41" rx="4" fill="#b32f26"/>
<path fill-rule="evenodd" clip-rule="evenodd" d="M20.9716 13.132C20.8281 13.0457 20.6657 13.0003 20.5004 13.0003C20.3351 13.0003 20.1727 13.0457 20.0292 13.132L13.3792 17.132C13.1974 17.2414 13.0551 17.411 12.9744 17.6144C12.8936 17.8178 12.879 18.0436 12.9327 18.2566C12.9865 18.4697 13.1056 18.658 13.2715 18.7925C13.4375 18.9269 13.641 18.9999 13.8504 19V26C13.5984 26 13.3568 26.1053 13.1786 26.2929C13.0005 26.4804 12.9004 26.7348 12.9004 27C12.9004 27.2652 13.0005 27.5196 13.1786 27.7071C13.3568 27.8946 13.5984 28 13.8504 28H27.1504C27.4023 28 27.644 27.8946 27.8221 27.7071C28.0003 27.5196 28.1004 27.2652 28.1004 27C28.1004 26.7348 28.0003 26.4804 27.8221 26.2929C27.644 26.1053 27.4023 26 27.1504 26V19C27.3598 18.9999 27.5633 18.9269 27.7292 18.7925C27.8952 18.658 28.0143 18.4697 28.068 18.2566C28.1218 18.0436 28.1071 17.8178 28.0264 17.6144C27.9457 17.411 27.8034 17.2414 27.6216 17.132L20.9716 13.132ZM16.7004 20C16.4484 20 16.2068 20.1053 16.0286 20.2929C15.8505 20.4804 15.7504 20.7348 15.7504 21V24C15.7504 24.2652 15.8505 24.5196 16.0286 24.7071C16.2068 24.8946 16.4484 25 16.7004 25C16.9523 25 17.194 24.8946 17.3721 24.7071C17.5503 24.5196 17.6504 24.2652 17.6504 24V21C17.6504 20.7348 17.5503 20.4804 17.3721 20.2929C17.194 20.1053 16.9523 20 16.7004 20ZM19.5504 21C19.5504 20.7348 19.6505 20.4804 19.8286 20.2929C20.0068 20.1053 20.2484 20 20.5004 20C20.7523 20 20.994 20.1053 21.1721 20.2929C21.3503 20.4804 21.4504 20.7348 21.4504 21V24C21.4504 24.2652 21.3503 24.5196 21.1721 24.7071C20.994 24.8946 20.7523 25 20.5004 25C20.2484 25 20.0068 24.8946 19.8286 24.7071C19.6505 24.5196 19.5504 24.2652 19.5504 24V21ZM24.3004 20C24.0484 20 23.8068 20.1053 23.6286 20.2929C23.4505 20.4804 23.3504 20.7348 23.3504 21V24C23.3504 24.2652 23.4505 24.5196 23.6286 24.7071C23.8068 24.8946 24.0484 25 24.3004 25C24.5523 25 24.794 24.8946 24.9721 24.7071C25.1503 24.5196 25.2504 24.2652 25.2504 24V21C25.2504 20.7348 25.1503 20.4804 24.9721 20.2929C24.794 20.1053 24.5523 20 24.3004 20Z" fill="#F2D4CE"/>
</svg>
