<?xml version="1.0" encoding="UTF-8" standalone="no"?>
<svg
   xmlns:dc="http://purl.org/dc/elements/1.1/"
   xmlns:cc="http://creativecommons.org/ns#"
   xmlns:rdf="http://www.w3.org/1999/02/22-rdf-syntax-ns#"
   xmlns:svg="http://www.w3.org/2000/svg"
   xmlns="http://www.w3.org/2000/svg"
   xmlns:sodipodi="http://sodipodi.sourceforge.net/DTD/sodipodi-0.dtd"
   xmlns:inkscape="http://www.inkscape.org/namespaces/inkscape"
   id="a103f326-996f-4fea-8e69-572a052820ff"
   data-name="Layer 1"
   width="249.99998"
   height="193.9304"
   viewBox="0 0 249.99998 193.9304"
   version="1.1"
   sodipodi:docname="computer-desktop.svg"
   inkscape:version="1.0.1 (3bc2e813f5, 2020-09-07, custom)">
  <metadata
     id="metadata95">
    <rdf:RDF>
      <cc:Work
         rdf:about="">
        <dc:format>image/svg+xml</dc:format>
        <dc:type
           rdf:resource="http://purl.org/dc/dcmitype/StillImage" />
      </cc:Work>
    </rdf:RDF>
  </metadata>
  <defs
     id="defs93" />
  <sodipodi:namedview
     pagecolor="#ffffff"
     bordercolor="#666666"
     borderopacity="1"
     objecttolerance="10"
     gridtolerance="10"
     guidetolerance="10"
     inkscape:pageopacity="0"
     inkscape:pageshadow="2"
     inkscape:window-width="1920"
     inkscape:window-height="1058"
     id="namedview91"
     showgrid="false"
     inkscape:zoom="0.64942668"
     inkscape:cx="108.73549"
     inkscape:cy="253.21241"
     inkscape:window-x="0"
     inkscape:window-y="22"
     inkscape:window-maximized="0"
     inkscape:current-layer="a103f326-996f-4fea-8e69-572a052820ff" />
  <title
     id="title2">performance_overview</title>
  <g
     id="g963"
     transform="scale(0.30274898)">
    <polygon
       points="473.252,542.943 479.735,627.22 288.489,627.22 294.972,542.943 "
       fill="#e6e6e6"
       id="polygon4" />
    <rect
       x="278.76465"
       y="617.49609"
       width="213.93565"
       height="19.4487"
       fill="#e6e6e6"
       id="rect6" />
    <path
       d="M 937.51223,129.7175 H 206.5654 a 19.4487,19.4487 0 0 0 -19.4487,19.4487 V 594.86549 H 956.96093 V 149.1662 a 19.4487,19.4487 0 0 0 -19.4487,-19.4487 z"
       transform="translate(-187.1167,-129.7175)"
       fill="#3f3d56"
       id="path8" />
    <path
       d="m 187.1167,594.86549 v 72.93261 a 19.44869,19.44869 0 0 0 19.4487,19.44869 h 730.94683 a 19.44869,19.44869 0 0 0 19.4487,-19.44869 v -72.93261 z"
       transform="translate(-187.1167,-129.7175)"
       fill="#e6e6e6"
       id="path10" />
    <rect
       x="38.897388"
       y="40.51812"
       width="693.67017"
       height="388.97394"
       fill="#e6e6e6"
       id="rect12" />
    <circle
       cx="385.73248"
       cy="510.52829"
       r="19.4487"
       fill="#3f3d56"
       id="circle14" />
    <circle
       cx="60.526249"
       cy="53.25663"
       r="3.69086"
       fill="#ffffff"
       id="circle16" />
    <circle
       cx="74.535851"
       cy="53.25663"
       r="3.69086"
       fill="#ffffff"
       id="circle18" />
    <circle
       cx="88.545441"
       cy="53.25663"
       r="3.69086"
       fill="#ffffff"
       id="circle20" />
    <path
       d="m 983.46079,392.77548 c 0,0 5.94476,77.28191 -2.3779,79.65981 -8.32266,2.3779 -38.04648,20.21219 -85.60458,15.45638 0,0 -46.36915,24.968 -39.23543,1.189 7.13372,-23.779 39.23543,-17.83429 39.23543,-17.83429 0,0 57.06972,-11.88953 59.44762,-20.21219 2.3779,-8.32266 -7.13371,-42.80229 -3.56685,-43.99124 3.56686,-1.18895 32.10171,-14.26747 32.10171,-14.26747 z"
       transform="translate(-187.1167,-129.7175)"
       fill="#ffb8b8"
       id="path22" />
    <path
       d="m 979.46079,393.77548 c 0,0 5.94476,77.28191 -2.3779,79.65981 -8.32266,2.3779 -38.04648,20.21219 -85.60458,15.45638 0,0 -46.36915,24.968 -39.23543,1.189 7.13372,-23.779 39.23543,-17.83429 39.23543,-17.83429 0,0 57.06972,-11.88953 59.44762,-20.21219 2.3779,-8.32266 -7.13371,-42.80229 -3.56685,-43.99124 3.56686,-1.18895 32.10171,-14.26747 32.10171,-14.26747 z"
       transform="translate(-187.1167,-129.7175)"
       fill="#231f20"
       opacity="0.2"
       id="path24" />
    <path
       d="m 912.70176,518.097 c 0,0 4.17769,130.06933 11.31141,146.71466 5.94213,13.865 9.40947,59.07736 10.402,73.79462 0.199,2.95127 0.29855,4.67624 0.29855,4.67624 0,0 19.02324,0 20.21219,-4.75581 1.18895,-4.75581 4.75581,-57.06971 0,-73.71505 -4.75581,-16.64534 6.77585,-139.71466 6.77585,-139.71466 z"
       transform="translate(-187.1167,-129.7175)"
       fill="#2f2e41"
       id="path26" />
    <path
       d="m 939.46955,737.33774 c 0,0 -11.88952,3.56686 -14.26743,8.32267 -2.37791,4.75581 -41.61334,13.07848 -29.72381,19.02324 11.88953,5.94476 47.5581,-4.75581 47.5581,-4.75581 0,0 19.02324,-1.18895 17.83429,-8.32267 -1.18895,-7.13372 -5.5188,-15.92356 -5.5188,-15.92356 z"
       transform="translate(-187.1167,-129.7175)"
       fill="#2f2e41"
       id="path28" />
    <path
       d="m 972.76022,741.13856 c 0,0 -11.88952,3.56685 -14.26743,8.32266 -2.37791,4.75581 -41.61334,13.07848 -29.72379,19.02324 11.88955,5.94476 47.5581,-4.75581 47.5581,-4.75581 0,0 19.02324,-1.18895 17.83428,-8.32266 -1.18896,-7.13371 -5.51879,-15.92356 -5.51879,-15.92356 z"
       transform="translate(-187.1167,-129.7175)"
       fill="#2f2e41"
       id="path30" />
    <path
       d="m 922.82422,524.7492 16.64533,28.53486 27.77989,99.21045 c 0,0 -2.81189,91.022 0.755,91.022 3.56689,0 22.5901,5.94476 23.779,0 1.00432,-5.02161 14.32086,-53.12538 7.6832,-85.14314 a 409.42026,409.42026 0 0 1 -8.30805,-61.42572 l -2.942,-55.55306 c 0,0 11.88951,-21.40115 -1.18895,-24.968 -13.07848,-3.56685 -64.20342,8.32261 -64.20342,8.32261 z"
       transform="translate(-187.1167,-129.7175)"
       fill="#2f2e41"
       id="path32" />
    <circle
       cx="751.16388"
       cy="183.39816"
       r="28.534861"
       fill="#ffb8b8"
       id="circle34" />
    <path
       d="m 934.71374,332.1389 c 0,0 4.75581,38.04648 3.56686,40.42438 -1.18895,2.3779 28.53486,-26.15695 28.53486,-26.15695 0,0 -10.70057,-16.64534 -8.32267,-24.968 z"
       transform="translate(-187.1167,-129.7175)"
       fill="#ffb8b8"
       id="path36" />
    <path
       d="m 1001.2951,370.18538 c 0,0 -33.29069,-23.779 -34.47964,-28.53486 l -24.968,21.40114 -4.24262,-5.05012 c 0,0 -19.53643,19.31755 -19.53643,27.64022 0,8.32267 -1.189,33.29067 2.3779,40.42439 3.5669,7.13372 -10.70057,97.4941 -10.70057,97.4941 0,0 11.88952,10.70057 13.07848,11.88952 1.18896,1.18895 48.74705,-7.13371 48.74705,-7.13371 0,0 23.779,-2.37791 23.779,-5.94476 0,-3.56685 -7.13372,-57.06972 -4.75581,-71.33715 2.37791,-14.26743 10.70064,-80.84877 10.70064,-80.84877 z"
       transform="translate(-187.1167,-129.7175)"
       fill="#575a89"
       id="path38" />
    <path
       d="m 926.0919,298.8612 c 3.9005,-1.38824 8.20351,-2.10118 12.18054,-0.95035 5.6287,1.62879 9.52706,6.5627 13.7317,10.64389 4.20464,4.08119 10.101,7.69757 15.6374,5.77843 a 9.168,9.168 0 0 1 1.75135,-6.77095 6.22705,6.22705 0 0 0 1.55507,-2.58815 c 0.23654,-1.52831 -1.04861,-2.84646 -1.434,-4.34418 -0.67535,-2.62464 1.176,-6.21763 -1.10019,-7.68865 -0.60082,-0.3883 -1.36154,-0.47683 -1.94789,-0.88664 -2.30122,-1.60839 0.25422,-5.6087 -1.26727,-7.96828 a 4.86629,4.86629 0 0 0 -1.72891,-1.44229 c -11.0327,-6.43748 -24.52485,-6.45515 -37.29729,-6.293 -1.77808,0.0226 -4.2535,0.90568 -3.752,2.61171 -2.41382,-1.73266 -5.57461,0.70029 -7.52025,2.946 l -3.98228,4.59642 a 35.41012,35.41012 0 0 0 -4.86669,6.58314 c -1.21651,2.32636 -1.48546,5.90289 0.9356,6.9171 -1.8,-0.754 -3.98348,9.90762 4.31446,8.15345 4.82129,-1.01922 9.5471,-7.43138 14.79065,-9.29765 z"
       transform="translate(-187.1167,-129.7175)"
       fill="#2f2e41"
       id="path40" />
    <rect
       x="56.835381"
       y="65.798111"
       width="655.73993"
       height="326.67429"
       fill="#ffffff"
       id="rect42" />
    <rect
       x="96.424301"
       y="113.80551"
       width="143.32069"
       height="125.17652"
       fill="#e6e6e6"
       id="rect44" />
    <rect
       x="313.69839"
       y="114.18199"
       width="142.88963"
       height="124.80003"
       fill="#e6e6e6"
       id="rect46" />
    <rect
       x="528.69507"
       y="112.95777"
       width="144.29131"
       height="126.02426"
       fill="#e6e6e6"
       id="rect48" />
    <rect
       x="96.424301"
       y="293.62073"
       width="140.1765"
       height="12.94905"
       fill="#e6e6e6"
       id="rect50" />
    <rect
       x="96.424301"
       y="316.41837"
       width="70.232246"
       height="12.94905"
       fill="#b32f26"
       id="rect52" />
    <rect
       x="316.03406"
       y="293.62073"
       width="140.1765"
       height="12.94905"
       fill="#e6e6e6"
       id="rect54" />
    <rect
       x="316.03406"
       y="316.41837"
       width="70.232246"
       height="12.94905"
       fill="#b32f26"
       id="rect56" />
    <rect
       x="530.15356"
       y="293.62073"
       width="140.1765"
       height="12.94905"
       fill="#e6e6e6"
       id="rect58" />
    <rect
       x="530.15356"
       y="316.41837"
       width="70.232246"
       height="12.94905"
       fill="#b32f26"
       id="rect60" />
    <circle
       cx="359.58713"
       cy="266.25839"
       r="6.6174598"
       fill="#b32f26"
       id="circle62" />
    <circle
       cx="384.70535"
       cy="266.25839"
       r="6.6174598"
       fill="#e6e6e6"
       id="circle64" />
    <circle
       cx="409.82358"
       cy="266.25839"
       r="6.6174598"
       fill="#e6e6e6"
       id="circle66" />
    <circle
       cx="142.96642"
       cy="266.25839"
       r="6.6174598"
       fill="#b32f26"
       id="circle68" />
    <circle
       cx="168.08466"
       cy="266.25839"
       r="6.6174598"
       fill="#b32f26"
       id="circle70" />
    <circle
       cx="193.20288"
       cy="266.25839"
       r="6.6174598"
       fill="#e6e6e6"
       id="circle72" />
    <circle
       cx="581.54987"
       cy="266.25839"
       r="6.6174598"
       fill="#b32f26"
       id="circle74" />
    <circle
       cx="606.66809"
       cy="266.25839"
       r="6.6174598"
       fill="#b32f26"
       id="circle76" />
    <circle
       cx="631.78632"
       cy="266.25839"
       r="6.6174598"
       fill="#b32f26"
       id="circle78" />
    <path
       d="m 787.95744,269.00126 a 36.68614,36.68614 0 1 0 36.68614,36.68613 36.794,36.794 0 0 0 -36.68614,-36.68613 z m 0,11.00584 a 11.00584,11.00584 0 1 1 -11.00584,11.00584 11.04276,11.04276 0 0 1 11.00584,-11.00584 z m 0,52.98324 a 26.72558,26.72558 0 0 1 -22.01168,-11.74662 c 0.17638,-7.33722 14.67446,-11.37623 22.01168,-11.37623 7.33722,0 21.83531,4.039 22.01168,11.37623 a 26.77008,26.77008 0 0 1 -22.01168,11.74662 z"
       transform="translate(-187.1167,-129.7175)"
       fill="#b32f26"
       id="path80" />
    <path
       d="m 572.25991,269.61337 a 36.68614,36.68614 0 1 0 36.68609,36.68614 36.794,36.794 0 0 0 -36.68609,-36.68614 z m 0,11.00584 a 11.00585,11.00585 0 1 1 -11.00584,11.00585 11.04277,11.04277 0 0 1 11.00584,-11.00585 z m 0,52.98325 a 26.72557,26.72557 0 0 1 -22.01168,-11.74662 c 0.17637,-7.33723 14.67445,-11.37623 22.01168,-11.37623 7.33723,0 21.8353,4.039 22.01168,11.37623 a 26.77012,26.77012 0 0 1 -22.01169,11.74662 z"
       transform="translate(-187.1167,-129.7175)"
       fill="#b32f26"
       id="path82" />
    <path
       d="m 355.20135,269.42513 a 36.68614,36.68614 0 1 0 36.68613,36.68614 36.794,36.794 0 0 0 -36.68613,-36.68614 z m 0,11.00584 a 11.00585,11.00585 0 1 1 -11.00584,11.00585 11.04277,11.04277 0 0 1 11.00584,-11.00582 z m 0,52.98325 A 26.72561,26.72561 0 0 1 333.18966,321.6676 c 0.17638,-7.33723 14.67446,-11.37623 22.01169,-11.37623 7.33723,0 21.8353,4.039 22.01168,11.37623 a 26.77014,26.77014 0 0 1 -22.01169,11.74662 z"
       transform="translate(-187.1167,-129.7175)"
       fill="#b32f26"
       id="path84" />
    <path
       d="m 1008.4288,403.47605 c 0,0 5.9448,77.28191 -2.3779,79.65981 -8.32268,2.3779 -38.04649,20.2122 -85.60459,15.45639 0,0 -46.36915,24.968 -39.23543,1.189 7.13372,-23.779 39.23543,-17.83429 39.23543,-17.83429 0,0 57.06972,-11.88952 59.44762,-20.21219 2.3779,-8.32267 -7.13371,-42.80229 -3.56685,-43.99124 3.56686,-1.18895 32.10172,-14.26748 32.10172,-14.26748 z"
       transform="translate(-187.1167,-129.7175)"
       fill="#ffb8b8"
       id="path86" />
    <path
       d="m 982.27184,372.56328 19.02326,-2.3779 c 0,0 19.0232,36.85753 8.3226,42.80229 -10.70052,5.94476 -38.04643,10.70057 -38.04643,8.32267 0,-2.3779 10.70057,-48.74706 10.70057,-48.74706 z"
       transform="translate(-187.1167,-129.7175)"
       fill="#575a89"
       id="path88" />
  </g>
</svg>
