<?xml version="1.0" encoding="UTF-8" standalone="no"?>
<svg
   xmlns:dc="http://purl.org/dc/elements/1.1/"
   xmlns:cc="http://creativecommons.org/ns#"
   xmlns:rdf="http://www.w3.org/1999/02/22-rdf-syntax-ns#"
   xmlns:svg="http://www.w3.org/2000/svg"
   xmlns="http://www.w3.org/2000/svg"
   xmlns:sodipodi="http://sodipodi.sourceforge.net/DTD/sodipodi-0.dtd"
   xmlns:inkscape="http://www.inkscape.org/namespaces/inkscape"
   id="faaae39e-6d1f-40c0-bc77-dd3f36c97390"
   data-name="Layer 1"
   width="250"
   height="230.2811"
   viewBox="0 0 250.00001 230.28109"
   version="1.1"
   sodipodi:docname="contract.svg"
   inkscape:version="1.0.1 (3bc2e813f5, 2020-09-07, custom)">
  <metadata
     id="metadata63">
    <rdf:RDF>
      <cc:Work
         rdf:about="">
        <dc:format>image/svg+xml</dc:format>
        <dc:type
           rdf:resource="http://purl.org/dc/dcmitype/StillImage" />
      </cc:Work>
    </rdf:RDF>
  </metadata>
  <defs
     id="defs61" />
  <sodipodi:namedview
     pagecolor="#ffffff"
     bordercolor="#666666"
     borderopacity="1"
     objecttolerance="10"
     gridtolerance="10"
     guidetolerance="10"
     inkscape:pageopacity="0"
     inkscape:pageshadow="2"
     inkscape:window-width="1920"
     inkscape:window-height="1058"
     id="namedview59"
     showgrid="false"
     inkscape:zoom="1.4238049"
     inkscape:cx="36.240262"
     inkscape:cy="130.59537"
     inkscape:window-x="0"
     inkscape:window-y="22"
     inkscape:window-maximized="0"
     inkscape:current-layer="faaae39e-6d1f-40c0-bc77-dd3f36c97390" />
  <g
     id="g916"
     transform="matrix(0.39408096,0,0,0.39408096,-5.0645446e-7,2.144223e-6)">
    <path
       d="m 574.10044,479.32759 c -0.11329,0 -0.18457,-0.003 -0.20948,-0.004 l -13.56445,10e-4 v -2 H 573.94 c 0.31518,0.0112 6.74584,0.19287 12.67089,-6.99659 8.82959,-10.71484 16.08057,-37.23974 0.48145,-102.75586 -20.9751,-88.0957 -3.481,-165.92334 5.01392,-195.29541 A 9.75245,9.75245 0 0 0 582.7232,159.82514 H 380.1478 a 9.79616,9.79616 0 0 0 -7.89966,4.021 c -3.59863,4.9502 -8.53711,14.46 -11.62744,31.65527 l -1.96826,-0.35351 c 3.15722,-17.56885 8.25635,-27.3584 11.978,-32.47754 a 11.801,11.801 0 0 1 9.51734,-4.84522 h 202.57546 a 11.75275,11.75275 0 0 1 11.30444,15.00733 c -8.45117,29.21972 -25.85473,106.64355 -4.9895,194.27685 15.81836,66.4375 8.21387,93.53711 -0.95068,104.57178 -6.04493,7.27783 -12.70533,7.64649 -13.98706,7.64649 z"
       transform="translate(-282.80629,-157.82514)"
       fill="#e6e6e6"
       id="path2" />
    <path
       d="m 537.60044,515.82759 c -0.11329,0 -0.18457,-0.003 -0.20948,-0.004 l -13.56445,10e-4 v -2 H 537.44 c 0.31689,0.01 6.74584,0.19287 12.67089,-6.99659 8.82959,-10.71484 16.08057,-37.23974 0.48145,-102.75586 -20.9751,-88.0957 -3.481,-165.92334 5.01392,-195.29541 A 9.75245,9.75245 0 0 0 546.2232,196.32514 H 343.6478 a 9.79616,9.79616 0 0 0 -7.89966,4.021 c -3.59863,4.9502 -8.53711,14.46 -11.62732,31.65527 l -1.9685,-0.35351 c 3.15734,-17.56885 8.25647,-27.3584 11.97814,-32.47754 a 11.801,11.801 0 0 1 9.51734,-4.84522 h 202.57544 a 11.75275,11.75275 0 0 1 11.30444,15.00733 c -8.45117,29.21972 -25.85473,106.64355 -4.9895,194.27685 15.81836,66.4375 8.21387,93.53711 -0.95068,104.57178 -6.04493,7.27783 -12.70533,7.64649 -13.98706,7.64649 z"
       transform="translate(-282.80629,-157.82514)"
       fill="#cccccc"
       id="path4" />
    <path
       d="m 501.10044,552.32759 c -0.11329,0 -0.18457,-0.003 -0.20948,-0.004 l -199.45312,10e-4 A 11.75012,11.75012 0 0 1 290.50949,536.2226 c 7.23682,-18.08056 16.98084,-61.459 0.93152,-148.83935 -18.95141,-103.18018 -1.98486,-140.46973 6.18933,-151.71289 a 11.80128,11.80128 0 0 1 9.51758,-4.84522 h 202.57532 a 11.75275,11.75275 0 0 1 11.30444,15.00733 c -8.45117,29.21972 -25.85473,106.64355 -4.9895,194.27685 15.81836,66.4375 8.21411,93.53711 -0.95068,104.57178 -6.04493,7.27783 -12.70533,7.64649 -13.98706,7.64649 z M 307.14792,232.82514 a 9.79644,9.79644 0 0 0 -7.8999,4.021 c -8.02258,11.03467 -24.65149,47.75732 -5.84,150.17578 15.33191,83.47363 7.896,127.61377 -1.04187,149.94385 a 9.58718,9.58718 0 0 0 0.97705,9.06445 9.76294,9.76294 0 0 0 8.09461,4.29444 H 500.94 c 0.31494,0.0151 6.74584,0.19335 12.67089,-6.99659 8.82959,-10.71484 16.08057,-37.23974 0.48145,-102.75586 -20.9751,-88.0957 -3.481,-165.92334 5.01392,-195.29541 a 9.75245,9.75245 0 0 0 -9.38306,-12.45166 z"
       transform="translate(-282.80629,-157.82514)"
       fill="#3f3d56"
       id="path6" />
    <path
       d="m 475.26725,320.82514 h -159 a 8,8 0 1 1 0,-16 h 159 a 8,8 0 0 1 0,16 z"
       transform="translate(-282.80629,-157.82514)"
       fill="#b32f26"
       id="path8" />
    <path
       d="m 475.26725,354.82514 h -159 a 8,8 0 1 1 0,-16 h 159 a 8,8 0 0 1 0,16 z"
       transform="translate(-282.80629,-157.82514)"
       fill="#cccccc"
       id="path10" />
    <path
       d="m 475.26725,388.82514 h -159 a 8,8 0 1 1 0,-16 h 159 a 8,8 0 0 1 0,16 z"
       transform="translate(-282.80629,-157.82514)"
       fill="#cccccc"
       id="path12" />
    <path
       d="m 487.26725,422.82514 h -159 a 8,8 0 1 1 0,-16 h 159 a 8,8 0 0 1 0,16 z"
       transform="translate(-282.80629,-157.82514)"
       fill="#cccccc"
       id="path14" />
    <path
       d="m 487.26725,456.82514 h -159 a 8,8 0 1 1 0,-16 h 159 a 8,8 0 0 1 0,16 z"
       transform="translate(-282.80629,-157.82514)"
       fill="#cccccc"
       id="path16" />
    <path
       d="m 391.26725,286.82514 h -75 a 8,8 0 1 1 0,-16 h 75 a 8,8 0 0 1 0,16 z"
       transform="translate(-282.80629,-157.82514)"
       fill="#b32f26"
       id="path18" />
    <path
       d="m 381.58294,511.64686 c 1.6141,-6.835 9.19795,-9.07539 15.39832,-8.82485 a 65.72829,65.72829 0 0 1 11.6109,1.83727 c 3.9841,0.89132 7.92945,1.94677 11.85492,3.06617 7.19849,2.05274 14.32272,4.53559 21.63978,6.14065 6.09146,1.33622 12.71116,2.11988 18.78589,0.27517 5.83939,-1.77324 10.79336,-6.12626 12.38213,-12.14463 1.49722,-5.67157 -0.55835,-11.8728 -6.05412,-14.46457 -5.01175,-2.36352 -11.34247,-1.1616 -13.82653,4.18356 -2.80075,6.02663 -0.002,12.59922 4.43248,16.96033 a 49.66774,49.66774 0 0 0 8.23778,6.257 30.67633,30.67633 0 0 0 9.86375,4.41791 c 5.785,1.23563 12.67623,-0.58511 15.65954,-6.112 a 10.32933,10.32933 0 0 0 1.17184,-4.03693 c 0.17661,-1.92177 -2.8245,-1.90975 -3,0 -0.50576,5.50343 -6.95071,8.08082 -11.77032,7.4771 a 23.92386,23.92386 0 0 1 -9.12538,-3.54166 53.47235,53.47235 0 0 1 -7.55822,-5.33292 c -4.08779,-3.53755 -7.9197,-9.359 -5.17421,-14.87935 2.23555,-4.495 8.06322,-4.4502 11.60773,-1.55128 4.29251,3.51068 3.5271,9.88266 0.69595,14.05172 -3.13485,4.61626 -8.81678,6.55143 -14.174,6.76014 -5.821,0.22678 -11.59339,-1.109 -17.15667,-2.68883 -6.91261,-1.963 -13.75632,-4.15989 -20.70215,-6.00791 -3.94328,-1.04917 -7.9169,-1.996 -11.93125,-2.73275 a 39.377,39.377 0 0 0 -11.56954,-0.80089 c -6.25992,0.72286 -12.65,4.36679 -14.19142,10.89406 -0.44336,1.87745 2.4486,2.6787 2.89284,0.79752 z"
       transform="translate(-282.80629,-157.82514)"
       fill="#3f3d56"
       id="path20" />
    <path
       d="m 688.0826,681.2653 a 458.03107,458.03107 0 0 0 4.318,58.85469 c 0.0946,0.685 0.19759,1.36993 0.29256,2.05487 l 184.40236,-1.03035 c 0.54143,-0.68028 1.07434,-1.36872 1.59067,-2.06539 1.7216,-2.30561 3.33516,-4.67675 4.81639,-7.12968 7.11952,-11.81721 10.37891,-25.65281 7.11268,-35.19857 l -0.0585,-0.14833 a 16.75017,16.75017 0 0 0 -3.26922,-5.6805 c -7.44693,-8.38264 -22.50384,-6.9853 -36.16768,-0.21914 12.2556,-13.41509 22.01422,-30.3429 22.7557,-45.4529 0.727,-14.7382 -6.97951,-25.26672 -15.33816,-34.21415 -0.27427,-0.29578 -0.54849,-0.58335 -0.82271,-0.87086 -0.1331,-0.14791 -0.27422,-0.28757 -0.40692,-0.43548 -6.52154,-6.81857 -14.12452,-13.54026 -25.12937,-12.72717 -12.06945,0.89334 -25.45087,11.00284 -34.83337,22.78314 -9.38254,11.772 -15.61745,25.14522 -21.93723,38.19682 -6.32789,13.04338 -13.17414,26.42 -23.3284,37.56868 13.75326,-17.39607 24.842,-37.18893 28.93817,-56.43894 4.09617,-19.25001 0.49124,-37.73839 -11.76613,-46.80442 a 28.669,28.669 0 0 0 -12.55765,-5.067 c -0.52878,-0.0879 -1.06593,-0.15923 -1.61151,-0.22227 -11.34689,-1.291 -24.89474,2.63335 -36.42155,12.014 -12.69423,10.32875 -21.49523,25.64065 -25.87422,40.1763 -4.3786,14.53564 -4.84523,28.52909 -4.70391,42.05665 z"
       transform="translate(-282.80629,-157.82514)"
       fill="#f2f2f2"
       id="path22" />
    <path
       d="m 808.72937,741.5265 3.52612,-0.0197 q 1.67943,-1.05 3.3747,-2.07535 c 0.69964,-0.44162 1.40743,-0.86679 2.11558,-1.30023 q 17.54426,-10.71507 35.308,-20.55589 17.74752,-9.849 35.67351,-18.79043 a 1.47784,1.47784 0 0 0 0.84954,-1.68963 0.42594,0.42594 0 0 0 -0.0588,-0.12352 c -0.16669,-0.31292 -0.53924,-0.443 -1.083,-0.17568 -1.46583,0.735 -2.94013,1.47 -4.40586,2.22156 q -17.975,9.09448 -35.79561,19.09674 -17.80839,9.998 -35.41384,20.87854 c -0.24677,0.15 -0.4939,0.30834 -0.74067,0.45838 -1.11926,0.69177 -2.23045,1.38349 -3.34971,2.07521 z"
       transform="translate(-282.80629,-157.82514)"
       fill="#ffffff"
       id="path24" />
    <path
       d="m 763.26442,741.78054 2.18044,-0.0122 c 0.49178,-0.68822 0.97509,-1.37643 1.46687,-2.0647 q 17.33163,-24.30411 34.656,-48.60824 28.37064,-39.78961 56.72434,-79.57913 a 1.40436,1.40436 0 0 0 0.24533,-0.48041 c 0.16166,-0.58731 -0.26976,-0.93177 -0.82271,-0.87086 a 1.6564,1.6564 0 0 0 -1.15209,0.73324 q -15.90609,22.314 -31.80419,44.61144 -28.22295,39.5906 -56.43787,79.17284 c -1.19643,1.675 -2.39282,3.35827 -3.58925,5.03331 -0.49178,0.68826 -0.98356,1.37652 -1.46687,2.06469 z"
       transform="translate(-282.80629,-157.82514)"
       fill="#ffffff"
       id="path26" />
    <path
       d="m 714.68823,729.11829 c 0.11127,3.67467 0.35448,7.29079 0.67212,10.87342 q 0.0922,1.02775 0.18489,2.05546 l 2.28771,-0.0128 c -0.07,-0.68508 -0.13993,-1.3702 -0.20143,-2.05537 -0.48341,-5.17575 -0.8264,-10.41 -0.873,-15.78645 a 220.22989,220.22989 0 0 1 4.33558,-44.39187 276.39733,276.39733 0 0 1 13.42783,-46.11929 316.72374,316.72374 0 0 1 21.9699,-45.63021 1.21872,1.21872 0 0 0 0.20194,-0.8105 c -0.0944,-0.652 -0.9625,-0.84532 -1.61151,-0.22227 a 1.89383,1.89383 0 0 0 -0.328,0.41479 q -1.583,2.72194 -3.10817,5.46011 a 316.50458,316.50458 0 0 0 -21.02777,45.79008 275.09009,275.09009 0 0 0 -12.51841,46.18859 217.271,217.271 0 0 0 -3.41168,44.24629 z"
       transform="translate(-282.80629,-157.82514)"
       fill="#ffffff"
       id="path28" />
    <path
       d="m 491.811,512.35768 a 2.49989,2.49989 0 0 1 1.36211,-4.40965 41.28894,41.28894 0 0 1 16.19271,1.6597 l 53.31537,16.46563 a 5.5000006,5.5000006 0 0 1 -3.24591,10.51019 L 506.11991,520.11792 A 41.29214,41.29214 0 0 1 491.811,512.35768 Z"
       transform="translate(-282.80629,-157.82514)"
       fill="#3f3d56"
       id="path30" />
    <path
       d="m 710.358,580.75721 a 10.74268,10.74268 0 0 1 -4.868,-15.7369 l -9.1385,-47.79161 23.29142,-1.81583 1.40592,46.74693 A 10.80091,10.80091 0 0 1 710.358,580.75721 Z"
       transform="translate(-282.80629,-157.82514)"
       fill="#ffb8b8"
       id="path32" />
    <path
       d="m 694.91408,556.09185 -23.7229,-110.48243 a 17.49974,17.49974 0 1 1 34.21973,-7.34668 l 23.72314,110.48145 a 4.50561,4.50561 0 0 1 -3.45483,5.34473 l -25.42066,5.458 a 4.4984,4.4984 0 0 1 -5.34448,-3.45507 z"
       transform="translate(-282.80629,-157.82514)"
       fill="#b32f26"
       id="path34" />
    <polygon
       points="373.173,524.777 373.17,572.064 360.911,572.064 355.078,524.776 "
       fill="#ffb8b8"
       id="polygon36" />
    <path
       d="m 352.15353,568.56068 h 23.64387 v 14.88687 h -38.53073 v 0 a 14.88686,14.88686 0 0 1 14.88686,-14.88687 z"
       fill="#2f2e41"
       id="path38" />
    <polygon
       points="414.173,523.777 414.17,571.064 401.911,571.064 396.078,523.776 "
       fill="#ffb8b8"
       id="polygon40" />
    <path
       d="m 393.15353,567.56068 h 23.64387 v 14.88687 h -38.53073 v 0 a 14.88686,14.88686 0 0 1 14.88686,-14.88687 z"
       fill="#2f2e41"
       id="path42" />
    <path
       d="m 641.28786,721.06841 a 4.46919,4.46919 0 0 1 -1.61621,-3.0625 L 625.419,561.22661 a 4.50075,4.50075 0 0 1 4.313,-4.9043 l 71.47974,-2.68066 a 4.50154,4.50154 0 0 1 4.66577,4.66211 l -5.71387,156.17676 a 4.50841,4.50841 0 0 1 -4.0896,4.3164 l -14.41284,1.31055 a 4.49951,4.49951 0 0 1 -4.89722,-4.18262 l -6.6145,-99.21679 a 1.43593,1.43593 0 0 0 -1.49585,-1.39942 h -0.006 a 1.43661,1.43661 0 0 0 -1.49243,1.41114 l -5.91919,99.88574 a 4.4791,4.4791 0 0 1 -4.04419,4.21094 l -12.59082,1.25976 a 4.46991,4.46991 0 0 1 -3.313,-1.00781 z"
       transform="translate(-282.80629,-157.82514)"
       fill="#2f2e41"
       id="path44" />
    <circle
       cx="385.97693"
       cy="218.96246"
       r="24.561029"
       fill="#ffb8b8"
       id="circle46" />
    <path
       d="m 621.48513,562.28814 a 4.46183,4.46183 0 0 1 -1.05274,-3.67872 c 4.53442,-27.56152 1.97876,-68.07421 -0.96387,-97.207 a 44.20088,44.20088 0 0 1 18.24121,-40.30175 l 12.82691,-10.99415 a 4.56971,4.56971 0 0 1 3.05737,-1.082 l 31.866,0.91016 a 4.48315,4.48315 0 0 1 3.05347,1.31738 l 4.92407,10.9043 0.0508,0.0371 a 44.07016,44.07016 0 0 1 17.915,37.69043 l -4.69043,96.93652 a 4.52415,4.52415 0 0 1 -4.34693,4.28028 l -77.34741,2.71777 c -0.05,0.001 -0.0996,0.002 -0.14941,0.002 a 4.48933,4.48933 0 0 1 -3.38402,-1.53233 z"
       transform="translate(-282.80629,-157.82514)"
       fill="#b32f26"
       id="path48" />
    <path
       d="m 528.70914,521.83713 a 10.74267,10.74267 0 0 1 12.366,-10.8825 l 39.86511,-27.89846 11.18962,20.508 -42.07677,20.41562 a 10.80091,10.80091 0 0 1 -21.344,-2.1427 z"
       transform="translate(-282.80629,-157.82514)"
       fill="#ffb8b8"
       id="path50" />
    <path
       d="m 562.25783,526.68657 a 4.47327,4.47327 0 0 1 -2.94531,-1.78515 l -15.38452,-20.96 a 4.50641,4.50641 0 0 1 0.96484,-6.291 l 91.09473,-66.86328 a 17.500261,17.500261 0 0 1 20.71,28.21582 l -91.09477,66.8633 a 4.46888,4.46888 0 0 1 -2.65283,0.87305 4.60231,4.60231 0 0 1 -0.69214,-0.0527 z"
       transform="translate(-282.80629,-157.82514)"
       fill="#b32f26"
       id="path52" />
    <path
       d="m 670.04044,398.652 c 3.25719,-3.99362 2.90059,-10.07682 0.2864,-14.518 -2.61419,-4.44118 -7.05192,-7.49993 -11.61815,-9.889 -4.56623,-2.38907 -9.4171,-4.26785 -13.71433,-7.11253 -4.29723,-2.84468 -4.10985,-14.88746 -5.25405,-19.91231 l 2.729,0.909 c -1.04887,-1.34182 -1.38528,-5.30676 -2.43415,-6.64858 3.08365,0.30468 5.45485,3.23246 8.53849,3.53714 l -1.77942,-4.77642 c 10.57439,-0.65193 17.14878,6.69613 27.72317,6.0442 5.23921,-0.323 10.929,-0.52738 15.23606,2.47312 3.74278,2.60741 5.63743,7.12028 6.88058,11.50907 2.66917,9.42319 3.084,19.97876 -1.52619,28.61978 -4.61019,8.64102 -15.23665,14.46378 -24.52024,11.34355 z"
       transform="translate(-282.80629,-157.82514)"
       fill="#2f2e41"
       id="path54" />
    <path
       d="m 535.19371,741.82514 h 381 a 1,1 0 0 0 0,-2 h -381 a 1,1 0 0 0 0,2 z"
       transform="translate(-282.80629,-157.82514)"
       fill="#3f3d56"
       id="path56" />
  </g>
</svg>
