<svg width="41" height="41" viewBox="0 0 41 41" fill="none" xmlns="http://www.w3.org/2000/svg">
<rect width="41" height="41" rx="4" fill="#BB4430"/>
<path d="M13.8496 23V26C13.8496 27.657 16.8269 29 20.4996 29C24.1723 29 27.1496 27.657 27.1496 26V23C27.1496 24.657 24.1723 26 20.4996 26C16.8269 26 13.8496 24.657 13.8496 23Z" fill="#F2D4CE"/>
<path d="M13.8496 18V21C13.8496 22.657 16.8269 24 20.4996 24C24.1723 24 27.1496 22.657 27.1496 21V18C27.1496 19.657 24.1723 21 20.4996 21C16.8269 21 13.8496 19.657 13.8496 18Z" fill="#F2D4CE"/>
<path d="M27.1496 16C27.1496 17.657 24.1723 19 20.4996 19C16.8269 19 13.8496 17.657 13.8496 16C13.8496 14.343 16.8269 13 20.4996 13C24.1723 13 27.1496 14.343 27.1496 16Z" fill="#F2D4CE"/>
</svg>
