<?xml version="1.0" encoding="UTF-8" standalone="no"?>
<svg
   xmlns:dc="http://purl.org/dc/elements/1.1/"
   xmlns:cc="http://creativecommons.org/ns#"
   xmlns:rdf="http://www.w3.org/1999/02/22-rdf-syntax-ns#"
   xmlns:svg="http://www.w3.org/2000/svg"
   xmlns="http://www.w3.org/2000/svg"
   xmlns:sodipodi="http://sodipodi.sourceforge.net/DTD/sodipodi-0.dtd"
   xmlns:inkscape="http://www.inkscape.org/namespaces/inkscape"
   id="ba525f3b-7565-476d-a1a9-f6eeabefee00"
   data-name="Layer 1"
   width="250"
   height="151.71213"
   viewBox="0 0 250 151.71213"
   version="1.1"
   sodipodi:docname="diagram.svg"
   inkscape:version="1.0.1 (3bc2e813f5, 2020-09-07, custom)">
  <metadata
     id="metadata52">
    <rdf:RDF>
      <cc:Work
         rdf:about="">
        <dc:format>image/svg+xml</dc:format>
        <dc:type
           rdf:resource="http://purl.org/dc/dcmitype/StillImage" />
      </cc:Work>
    </rdf:RDF>
  </metadata>
  <defs
     id="defs50" />
  <sodipodi:namedview
     pagecolor="#ffffff"
     bordercolor="#666666"
     borderopacity="1"
     objecttolerance="10"
     gridtolerance="10"
     guidetolerance="10"
     inkscape:pageopacity="0"
     inkscape:pageshadow="2"
     inkscape:window-width="1920"
     inkscape:window-height="1058"
     id="namedview48"
     showgrid="false"
     inkscape:zoom="0.81595345"
     inkscape:cx="69.948914"
     inkscape:cy="122.87285"
     inkscape:window-x="0"
     inkscape:window-y="22"
     inkscape:window-maximized="0"
     inkscape:current-layer="ba525f3b-7565-476d-a1a9-f6eeabefee00" />
  <g
     id="g901"
     transform="matrix(0.35383928,0,0,0.35383928,1.0615178e-5,0)">
    <path
       d="m 862.452,235.62 h -607 a 8.72766,8.72766 0 0 0 -8.71972,8.72 v 411.32 a 8.72766,8.72766 0 0 0 8.71972,8.72 h 607 a 8.71244,8.71244 0 0 0 6.63037,-3.06 2.0459,2.0459 0 0 0 0.18995,-0.24 8.1667,8.1667 0 0 0 1.25,-2.11005 8.50722,8.50722 0 0 0 0.65966,-3.31 V 244.34 a 8.72953,8.72953 0 0 0 -8.72998,-8.72 z m 6.24024,420.04 a 6.17527,6.17527 0 0 1 -1.03028,3.42 6.44588,6.44588 0 0 1 -2.35986,2.12 6.1843,6.1843 0 0 1 -2.8501,0.69 h -607 a 6.23757,6.23757 0 0 1 -6.23,-6.23 V 244.34 a 6.23757,6.23757 0 0 1 6.23,-6.23 h 607 a 6.23944,6.23944 0 0 1 6.24024,6.23 z"
       transform="translate(-246.73231,-235.62)"
       fill="#3f3d56"
       id="path2" />
    <rect
       x="1.24265"
       y="34.949211"
       width="621.95679"
       height="2.49281"
       fill="#3f3d56"
       id="rect4" />
    <circle
       cx="22.431549"
       cy="18.6961"
       r="7.4784398"
       fill="#3f3d56"
       id="circle6" />
    <circle
       cx="43.93206"
       cy="18.6961"
       r="7.4784398"
       fill="#3f3d56"
       id="circle8" />
    <circle
       cx="65.432571"
       cy="18.6961"
       r="7.4784398"
       fill="#3f3d56"
       id="circle10" />
    <path
       d="m 321.78393,427.36614 h -22 a 4.505,4.505 0 0 1 -4.5,-4.5 v -22 a 4.505,4.505 0 0 1 4.5,-4.5 h 22 a 4.505,4.505 0 0 1 4.5,4.5 v 22 a 4.505,4.505 0 0 1 -4.5,4.5 z"
       transform="translate(-246.73231,-235.62)"
       fill="#b32f26"
       id="path12" />
    <path
       d="m 321.78393,484.36614 h -22 a 4.505,4.505 0 0 1 -4.5,-4.5 v -22 a 4.505,4.505 0 0 1 4.5,-4.5 h 22 a 4.505,4.505 0 0 1 4.5,4.5 v 22 a 4.505,4.505 0 0 1 -4.5,4.5 z"
       transform="translate(-246.73231,-235.62)"
       fill="#3f3d56"
       id="path14" />
    <path
       d="m 321.78393,541.36614 h -22 a 4.505,4.505 0 0 1 -4.5,-4.5 v -22 a 4.505,4.505 0 0 1 4.5,-4.5 h 22 a 4.505,4.505 0 0 1 4.5,4.5 v 22 a 4.505,4.505 0 0 1 -4.5,4.5 z"
       transform="translate(-246.73231,-235.62)"
       fill="#cccccc"
       id="path16" />
    <path
       d="m 465.78393,416.36614 h -106 a 4.5,4.5 0 1 1 0,-9 h 106 a 4.5,4.5 0 0 1 0,9 z"
       transform="translate(-246.73231,-235.62)"
       fill="#cccccc"
       id="path18" />
    <path
       d="m 465.78393,473.36614 h -106 a 4.5,4.5 0 1 1 0,-9 h 106 a 4.5,4.5 0 0 1 0,9 z"
       transform="translate(-246.73231,-235.62)"
       fill="#cccccc"
       id="path20" />
    <path
       d="m 465.78393,530.36614 h -106 a 4.5,4.5 0 1 1 0,-9 h 106 a 4.5,4.5 0 0 1 0,9 z"
       transform="translate(-246.73231,-235.62)"
       fill="#cccccc"
       id="path22" />
    <path
       d="m 829.55378,407.43591 a 10.09326,10.09326 0 0 1 1.41075,0.78731 l 44.8523,-19.1432 1.60093,-11.81526 17.92157,-0.10956 -1.05874,27.0982 -59.19986,15.65584 a 10.60791,10.60791 0 0 1 -0.44749,1.20835 10.2346,10.2346 0 1 1 -5.07946,-13.68168 z"
       transform="translate(-246.73231,-235.62)"
       fill="#ffb8b8"
       id="path24" />
    <polygon
       points="655.127,370.088 655.125,417.376 642.865,417.375 637.033,370.087 "
       fill="#ffb8b8"
       id="polygon26" />
    <path
       d="m 634.10773,413.87226 h 23.64387 v 14.88687 h -38.53073 v 0 a 14.88686,14.88686 0 0 1 14.88686,-14.88687 z"
       fill="#2f2e41"
       id="path28" />
    <polygon
       points="698.17,366.851 702.805,413.911 690.604,415.113 680.163,368.625 "
       fill="#ffb8b8"
       id="polygon30" />
    <path
       d="m 928.987,647.64055 h 23.64387 v 14.88687 h -38.53075 v 0 A 14.88686,14.88686 0 0 1 928.987,647.64055 Z"
       transform="rotate(-5.62529,-1587.9549,3048.3198)"
       fill="#2f2e41"
       id="path32" />
    <circle
       cx="658.53741"
       cy="66.92823"
       r="24.561029"
       fill="#ffb8b8"
       id="circle34" />
    <path
       d="m 886.85757,643.43243 a 4.47086,4.47086 0 0 1 -4.415,-3.69726 c -6.34571,-35.22559 -27.0879,-150.40528 -27.584,-153.5957 a 1.427,1.427 0 0 1 -0.0156,-0.22168 v -8.5879 a 1.489,1.489 0 0 1 0.27929,-0.87207 l 2.74024,-3.83789 a 1.47848,1.47848 0 0 1 1.14355,-0.625 c 15.62207,-0.73242 66.78418,-2.8789 69.25586,0.209 v 0 c 2.48242,3.10351 1.60547,12.50683 1.4043,14.36035 l 0.01,0.19336 22.98536,146.99512 a 4.51239,4.51239 0 0 1 -3.71485,5.13476 L 934.59,641.25275 a 4.52127,4.52127 0 0 1 -5.02539,-3.09278 c -4.44043,-14.18847 -19.32911,-61.918 -24.48926,-80.38672 a 0.49922,0.49922 0 0 0 -0.98047,0.13868 c 0.25781,17.60546 0.88086,62.52343 1.0957,78.03711 l 0.0234,1.67089 a 4.51811,4.51811 0 0 1 -4.09277,4.53614 l -13.84375,1.25781 c -0.14063,0.0127 -0.28125,0.0186 -0.41993,0.0186 z"
       transform="translate(-246.73231,-235.62)"
       fill="#2f2e41"
       id="path36" />
    <path
       id="e15ec395-f7cd-4347-89a2-a03d95a452a7"
       data-name="Path 99"
       d="m 889.68211,336.76678 c -4.28634,2.548 -6.85116,7.23043 -8.32276,11.9951 a 113.681,113.681 0 0 0 -4.88444,27.15943 l -1.55553,27.60021 -19.25508,73.1699 c 16.6887,14.1207 26.31542,10.91153 48.78049,-0.63879 22.46507,-11.55032 25.03221,3.85117 25.03221,3.85117 l 4.49235,-62.25839 6.41838,-68.03232 a 30.16418,30.16418 0 0 0 -4.86143,-4.67415 49.65848,49.65848 0 0 0 -42.44229,-8.99538 z"
       transform="translate(-246.73231,-235.62)"
       fill="#b3b3b3" />
    <path
       d="m 883.42783,422.21345 a 10.52612,10.52612 0 0 1 1.50061,0.70389 l 44.34832,-22.1972 0.736,-12.02551 18.2938,-1.26127 0.9804,27.4126 -59.26586,19.59937 a 10.4958,10.4958 0 1 1 -6.59329,-12.23188 z"
       transform="translate(-246.73231,-235.62)"
       fill="#ffb8b8"
       id="path39" />
    <path
       id="bf6aefed-5d84-44a4-8c4e-9d1f3daa58d8"
       data-name="Path 101"
       d="m 940.06674,349.92449 c 10.91151,3.85117 12.83354,45.57369 12.83354,45.57369 -12.83671,-7.06036 -28.24139,4.49318 -28.24139,4.49318 0,0 -3.20917,-10.91153 -7.06034,-25.03223 a 24.52987,24.52987 0 0 1 5.13436,-23.10625 c 0,0 6.42232,-5.78195 17.33383,-1.92839 z"
       transform="translate(-246.73231,-235.62)"
       fill="#b3b3b3" />
    <path
       id="f516f9fe-dc87-4aac-a802-2e179304beb7"
       data-name="Path 102"
       d="m 927.29244,309.0435 c -3.06,-2.44837 -7.23517,2.00173 -7.23517,2.00173 l -2.4484,-22.03349 c 0,0 -15.301,1.83291 -25.0935,-0.61161 -9.7925,-2.44452 -11.32255,8.87513 -11.32255,8.87513 a 78.58075,78.58075 0 0 1 -0.30583,-13.77092 c 0.61159,-5.50838 8.56839,-11.01675 22.6451,-14.68932 14.07671,-3.67257 21.42091,12.24098 21.42091,12.24098 9.79364,4.89575 5.39943,30.43589 2.33944,27.9875 z"
       transform="translate(-246.73231,-235.62)"
       fill="#2f2e41" />
    <path
       d="m 834.53589,470.86614 c 0.1582,-2.64728 0.248,-5.31293 0.248,-8 a 132.00012,132.00012 0 0 0 -132,-132 v 140 z"
       transform="translate(-246.73231,-235.62)"
       fill="#b32f26"
       id="path43" />
    <path
       d="m 692.78393,482.86614 v -140 a 132,132 0 1 0 131.752,140 z"
       transform="translate(-246.73231,-235.62)"
       fill="#3f3d56"
       id="path45" />
  </g>
</svg>
