<?xml version="1.0" encoding="UTF-8" standalone="no"?>
<svg
   xmlns:dc="http://purl.org/dc/elements/1.1/"
   xmlns:cc="http://creativecommons.org/ns#"
   xmlns:rdf="http://www.w3.org/1999/02/22-rdf-syntax-ns#"
   xmlns:svg="http://www.w3.org/2000/svg"
   xmlns="http://www.w3.org/2000/svg"
   xmlns:xlink="http://www.w3.org/1999/xlink"
   xmlns:sodipodi="http://sodipodi.sourceforge.net/DTD/sodipodi-0.dtd"
   xmlns:inkscape="http://www.inkscape.org/namespaces/inkscape"
   id="9a7f0d87-1824-4b3e-ab06-04e58600b515"
   data-name="Layer 1"
   width="250"
   height="182.53085"
   viewBox="0 0 249.99999 182.53085"
   version="1.1"
   sodipodi:docname="for-children-illustration.svg"
   inkscape:version="1.0.1 (3bc2e813f5, 2020-09-07, custom)">
  <metadata
     id="metadata510">
    <rdf:RDF>
      <cc:Work
         rdf:about="">
        <dc:format>image/svg+xml</dc:format>
        <dc:type
           rdf:resource="http://purl.org/dc/dcmitype/StillImage" />
      </cc:Work>
    </rdf:RDF>
  </metadata>
  <sodipodi:namedview
     pagecolor="#ffffff"
     bordercolor="#666666"
     borderopacity="1"
     objecttolerance="10"
     gridtolerance="10"
     guidetolerance="10"
     inkscape:pageopacity="0"
     inkscape:pageshadow="2"
     inkscape:window-width="1920"
     inkscape:window-height="1058"
     id="namedview508"
     showgrid="false"
     inkscape:zoom="1.0259699"
     inkscape:cx="-150.34298"
     inkscape:cy="91.279478"
     inkscape:window-x="0"
     inkscape:window-y="22"
     inkscape:window-maximized="0"
     inkscape:current-layer="9a7f0d87-1824-4b3e-ab06-04e58600b515" />
  <defs
     id="defs11">
    <linearGradient
       id="96fd64a0-6351-4330-b812-2613840b356c"
       x1="625.32001"
       y1="588.17999"
       x2="625.32001"
       y2="218.67"
       gradientUnits="userSpaceOnUse">
      <stop
         offset="0"
         stop-color="gray"
         stop-opacity="0.25"
         id="stop2" />
      <stop
         offset="0.54"
         stop-color="gray"
         stop-opacity="0.12"
         id="stop4" />
      <stop
         offset="1"
         stop-color="gray"
         stop-opacity="0.1"
         id="stop6" />
    </linearGradient>
    <linearGradient
       id="65aaeda9-82be-4b39-9919-e403ba36e3f2"
       x1="933.16998"
       y1="777.5"
       x2="933.16998"
       y2="311.67999"
       xlink:href="#96fd64a0-6351-4330-b812-2613840b356c" />
    <linearGradient
       id="05d1d1fb-9375-46f7-a562-a16a81ed75db"
       x1="187.32001"
       y1="814.44"
       x2="187.32001"
       y2="271.29001"
       xlink:href="#96fd64a0-6351-4330-b812-2613840b356c" />
    <linearGradient
       inkscape:collect="always"
       xlink:href="#96fd64a0-6351-4330-b812-2613840b356c"
       id="linearGradient1583"
       gradientUnits="userSpaceOnUse"
       x1="625.32001"
       y1="588.17999"
       x2="625.32001"
       y2="218.67" />
  </defs>
  <title
     id="title13">children</title>
  <g
     id="g1581"
     transform="matrix(0.22508983,0,0,0.22508983,0.00339074,0.00141678)">
    <ellipse
       cx="562.02002"
       cy="790.32001"
       rx="478.20001"
       ry="29.18"
       transform="rotate(-3.17,195.58965,1780.3177)"
       fill="#b32f26"
       opacity="0.1"
       id="ellipse15" />
    <path
       d="M 67.34,437.14 C 84.92,509.35 122.12,571.76 180.92,602 303.11,664.88 578.68,632.45 784.35,595.22 890.71,576 984.23,522.88 1052.16,448.07 Z"
       transform="translate(-55.35,-18.71)"
       fill="#b32f26"
       opacity="0.1"
       id="path17" />
    <path
       d="M 1145.86,97.26 H 1033 a 9.38,9.38 0 1 1 0,-18.75 h 19.5 a 9.38,9.38 0 1 1 0,-18.75 h -13.93 a 9.38,9.38 0 1 1 0,-18.75 h 58.9 c -13.08,-5.84 -28.31,-10 -46,-12.17 C 890.94,9 833.6,22.12 813.37,35.62 788.37,52.26 760.57,64.5 730.83,70.4 631.73,90.05 446.42,113.69 278.47,62.83 195,37.55 132.94,80.27 95.75,151.66 h 1069.71 c -1.4,-20.75 -5.58,-39.92 -13.26,-56.68 a 10,10 0 0 1 -6.34,2.28 z"
       transform="translate(-55.35,-18.71)"
       fill="#b32f26"
       opacity="0.1"
       id="path19" />
    <path
       d="m 743.63,325 -1.47,-0.09 -15.36,-0.87 -147.16,-8.27 -15.9,-0.9 L 329.4,301.71 263.72,298 253.33,297.42 244.1,296.9 57.77,286.43 a 458.86,458.86 0 0 0 4.38,126 l 156.79,5.51 12.43,0.45 2.2,0.07 74.43,2.59 4,0.13 8.58,0.3 75,2.64 10.28,0.37 35.82,1.26 h 0.68 l 5.27,0.19 17.95,0.63 v 0 l 15.75,0.55 30,1.05 h 0.63 l 2.67,0.1 2.84,0.1 h 0.62 l 47.82,1.68 13.4,0.48 h 0.56 l 6.45,0.22 v 0 l 1.2,0.05 H 588 l 5.67,0.2 17.31,0.61 v 0 l 6.5,0.23 8.35,0.29 h 0.31 l 11.46,0.41 33.14,1.17 9.12,0.31 h 1 l 44.18,1.55 25.66,0.9 31.93,1.13 5.12,0.18 8.27,0.29 30.06,1.05 226.75,8 a 446.55,446.55 0 0 0 68.83,-100.92 z m -426.34,70 a 9.94,9.94 0 0 1 -6.5,-2.4 v 0 a 9.48,9.48 0 0 1 -2.06,-2.49 9.11,9.11 0 0 1 -1.19,-4.48 8.94,8.94 0 0 1 1.61,-5.12 c 0,0 0,0 0,0 a 10.39,10.39 0 0 1 1.08,-1.29 9.89,9.89 0 0 1 7.06,-2.92 h 19.5 a 9.39,9.39 0 1 1 0,-18.76 h -13.93 a 9.1,9.1 0 0 1 -0.91,0 9.3610643,9.3610643 0 0 1 0.91,-18.7 H 435.7 a 9.38,9.38 0 1 1 0,18.74 h 13.93 a 9.39,9.39 0 1 1 0,18.76 h -19.5 a 9.38,9.38 0 1 1 0,18.74 z"
       transform="translate(-55.35,-18.71)"
       fill="#b32f26"
       opacity="0.1"
       id="path21" />
    <path
       d="m 1165.5,152.32 -778.36,18.19 -85.55,2 -217.77,5.09 C 70.65,210.12 61.93,246.88 57.92,285 h 1088.63 a 430.44,430.44 0 0 0 15.71,-68.45 c 3.24,-22.41 4.55,-44.06 3.24,-64.23 z m -888,82.87 H 258 a 9.59,9.59 0 0 1 9.75,9.37 c 0,0.19 0,0.38 0,0.57 a 9.32,9.32 0 0 1 -4.33,7.23 10,10 0 0 1 -5.4,1.58 H 145.18 a 9.38,9.38 0 1 1 0,-18.75 h 19.51 a 9.38,9.38 0 1 1 0,-18.75 h -13.93 a 9.38,9.38 0 1 1 0,-18.75 H 263.6 a 9.38,9.38 0 1 1 0,18.75 h 13.93 a 9.88,9.88 0 0 1 4.63,1.14 9.33,9.33 0 0 1 5.12,8.23 9.6,9.6 0 0 1 -9.75,9.38 z"
       transform="translate(-55.35,-18.71)"
       fill="#b32f26"
       opacity="0.1"
       id="path23" />
    <g
       opacity="0.1"
       id="g55">
      <path
         d="m 645.86,596.39 c 0,0 28.55,-67.63 81.86,-92.72 22.38,-10.53 40.88,-27.41 52.22,-48.73 A 182.39,182.39 0 0 0 793,423.33"
         transform="translate(-55.35,-18.71)"
         fill="none"
         stroke="#535461"
         stroke-miterlimit="10"
         stroke-width="2"
         id="path25" />
      <path
         d="m 826.52,407.33 c -5.55,6.72 -34.32,16.52 -34.32,16.52 0,0 3.47,-29.15 9,-35.86 a 16.62,16.62 0 0 1 22.72,-2.49 15.13,15.13 0 0 1 2.6,21.83 z"
         transform="translate(-55.35,-18.71)"
         fill="#b32f26"
         id="path27" />
      <path
         d="m 816.65,460.52 c -8.46,2.73 -38.15,-4.07 -38.15,-4.07 0,0 19.39,-22.65 27.85,-25.39 8.46,-2.74 17.63,1.65 20.47,9.78 a 15.4,15.4 0 0 1 -10.17,19.68 z"
         transform="translate(-55.35,-18.71)"
         fill="#b32f26"
         id="path29" />
      <path
         d="m 763.14,523.39 c -8.74,-1.74 -30.8,-22 -30.8,-22 0,0 28.66,-10.17 37.38,-8.39 a 15.55,15.55 0 0 1 12.53,18.37 c -1.81,8.37 -10.37,13.77 -19.11,12.02 z"
         transform="translate(-55.35,-18.71)"
         fill="#b32f26"
         id="path31" />
      <path
         d="m 711.51,562.2 c -8.92,-0.3 -34.23,-16.7 -34.23,-16.7 0,0 26.44,-14.66 35.36,-14.36 8.92,0.3 15.9,7.5 15.59,16.07 -0.31,8.57 -7.8,15.29 -16.72,14.99 z"
         transform="translate(-55.35,-18.71)"
         fill="#b32f26"
         id="path33" />
      <path
         d="m 750.87,437.45 c 1.14,8.51 20.47,31.21 20.47,31.21 0,0 12.73,-26.67 11.59,-35.18 -1.14,-8.51 -9.24,-14.52 -18.1,-13.43 -8.86,1.09 -15.1,8.89 -13.96,17.4 z"
         transform="translate(-55.35,-18.71)"
         fill="#b32f26"
         id="path35" />
      <path
         d="m 691.08,483.57 c 3.74,7.79 29.25,23.89 29.25,23.89 0,0 3.85,-29.11 0.11,-36.9 A 16.45,16.45 0 0 0 699,463 a 15.3,15.3 0 0 0 -7.92,20.57 z"
         transform="translate(-55.35,-18.71)"
         fill="#b32f26"
         id="path37" />
      <path
         d="m 639.37,536.06 c 2.31,8.29 24.63,28.3 24.63,28.3 0,0 8.91,-28.06 6.59,-36.35 -2.32,-8.29 -11.17,-13.21 -19.8,-11 a 15.48,15.48 0 0 0 -11.42,19.05 z"
         transform="translate(-55.35,-18.71)"
         fill="#b32f26"
         id="path39" />
      <path
         d="m 826.52,407.33 c -5.55,6.72 -34.32,16.52 -34.32,16.52 0,0 3.47,-29.15 9,-35.86 a 16.62,16.62 0 0 1 22.72,-2.49 15.13,15.13 0 0 1 2.6,21.83 z"
         transform="translate(-55.35,-18.71)"
         opacity="0.25"
         id="path41" />
      <path
         d="m 816.65,460.52 c -8.46,2.73 -38.15,-4.07 -38.15,-4.07 0,0 19.39,-22.65 27.85,-25.39 8.46,-2.74 17.63,1.65 20.47,9.78 a 15.4,15.4 0 0 1 -10.17,19.68 z"
         transform="translate(-55.35,-18.71)"
         opacity="0.25"
         id="path43" />
      <path
         d="m 763.14,523.39 c -8.74,-1.74 -30.8,-22 -30.8,-22 0,0 28.66,-10.17 37.38,-8.39 a 15.55,15.55 0 0 1 12.53,18.37 c -1.81,8.37 -10.37,13.77 -19.11,12.02 z"
         transform="translate(-55.35,-18.71)"
         opacity="0.25"
         id="path45" />
      <path
         d="m 711.51,562.2 c -8.92,-0.3 -34.23,-16.7 -34.23,-16.7 0,0 26.44,-14.66 35.36,-14.36 8.92,0.3 15.9,7.5 15.59,16.07 -0.31,8.57 -7.8,15.29 -16.72,14.99 z"
         transform="translate(-55.35,-18.71)"
         opacity="0.25"
         id="path47" />
      <path
         d="m 750.87,437.45 c 1.14,8.51 20.47,31.21 20.47,31.21 0,0 12.73,-26.67 11.59,-35.18 -1.14,-8.51 -9.24,-14.52 -18.1,-13.43 -8.86,1.09 -15.1,8.89 -13.96,17.4 z"
         transform="translate(-55.35,-18.71)"
         opacity="0.25"
         id="path49" />
      <path
         d="m 691.08,483.57 c 3.74,7.79 29.25,23.89 29.25,23.89 0,0 3.85,-29.11 0.11,-36.9 A 16.45,16.45 0 0 0 699,463 a 15.3,15.3 0 0 0 -7.92,20.57 z"
         transform="translate(-55.35,-18.71)"
         opacity="0.25"
         id="path51" />
      <path
         d="m 639.37,536.06 c 2.31,8.29 24.63,28.3 24.63,28.3 0,0 8.91,-28.06 6.59,-36.35 -2.32,-8.29 -11.17,-13.21 -19.8,-11 a 15.48,15.48 0 0 0 -11.42,19.05 z"
         transform="translate(-55.35,-18.71)"
         opacity="0.25"
         id="path53" />
    </g>
    <g
       opacity="0.1"
       id="g73">
      <path
         d="m 667.23,494 c 0,0 3.6,-72.91 45.24,-113.57 17.48,-17.07 29.11,-38.89 32.45,-62.62 a 179.44,179.44 0 0 0 1.44,-34"
         transform="translate(-55.35,-18.71)"
         fill="none"
         stroke="#535461"
         stroke-miterlimit="10"
         stroke-width="2"
         id="path57" />
      <path
         d="m 772.45,258 c -2.93,8.1 -26.69,26.52 -26.69,26.52 0,0 -6.76,-28.52 -3.86,-36.67 2.9,-8.15 12.14,-12.4 20.57,-9.58 a 15.4,15.4 0 0 1 9.98,19.73 z"
         transform="translate(-55.35,-18.71)"
         fill="#b32f26"
         id="path59" />
      <path
         d="m 781.48,311.36 c -7,5.28 -37.39,8.33 -37.39,8.33 0,0 10.47,-27.56 17.51,-32.83 a 16.6,16.6 0 0 1 22.69,2.7 15.13,15.13 0 0 1 -2.81,21.8 z"
         transform="translate(-55.35,-18.71)"
         fill="#b32f26"
         id="path61" />
      <path
         d="m 752.69,387.74 c -8.85,1.14 -36.66,-11 -36.66,-11 0,0 23.52,-18.71 32.36,-19.84 8.84,-1.13 17,4.83 18.17,13.33 1.17,8.5 -5.03,16.37 -13.87,17.51 z"
         transform="translate(-55.35,-18.71)"
         fill="#b32f26"
         id="path63" />
      <path
         d="m 717.36,440.81 c -8.52,2.56 -38.05,-4.85 -38.05,-4.85 0,0 19.89,-22.25 28.41,-24.81 8.52,-2.56 17.58,2 20.25,10.19 a 15.44,15.44 0 0 1 -10.61,19.47 z"
         transform="translate(-55.35,-18.71)"
         fill="#b32f26"
         id="path65" />
      <path
         d="m 711.46,310.57 c 4,7.66 30.08,22.91 30.08,22.91 0,0 2.81,-29.21 -1.2,-36.88 a 16.47,16.47 0 0 0 -21.7,-6.89 15.25,15.25 0 0 0 -7.18,20.86 z"
         transform="translate(-55.35,-18.71)"
         fill="#b32f26"
         id="path67" />
      <path
         d="m 671,373.14 c 6.21,6.16 35.83,13.21 35.83,13.21 0,0 -6.41,-28.68 -12.62,-34.84 a 16.63,16.63 0 0 0 -22.86,-0.34 15.11,15.11 0 0 0 -0.35,21.97 z"
         transform="translate(-55.35,-18.71)"
         fill="#b32f26"
         id="path69" />
      <path
         d="m 640.29,439.14 c 5,7.08 33,18.85 33,18.85 0,0 -1.29,-29.31 -6.29,-36.4 a 16.59,16.59 0 0 0 -22.47,-4 15.17,15.17 0 0 0 -4.24,21.55 z"
         transform="translate(-55.35,-18.71)"
         fill="#b32f26"
         id="path71" />
    </g>
    <ellipse
       cx="400.56"
       cy="687.60999"
       rx="18.049999"
       ry="2.48"
       fill="#b32f26"
       opacity="0.1"
       id="ellipse75" />
    <ellipse
       cx="331.42001"
       cy="694.62"
       rx="18.049999"
       ry="2.48"
       fill="#b32f26"
       opacity="0.1"
       id="ellipse77" />
    <ellipse
       cx="249.98"
       cy="685.13"
       rx="18.049999"
       ry="2.48"
       fill="#b32f26"
       opacity="0.1"
       id="ellipse79" />
    <ellipse
       cx="359.09"
       cy="714.58002"
       rx="12.83"
       ry="1.76"
       fill="#b32f26"
       opacity="0.1"
       id="ellipse81" />
    <ellipse
       cx="287.32999"
       cy="712.82001"
       rx="12.83"
       ry="1.76"
       fill="#b32f26"
       opacity="0.1"
       id="ellipse83" />
    <path
       d="m 386.38,712.77 c 0,0 25.31,-83 -4,-116.22 -21.9,-24.86 -46.76,-21.89 -57.89,-18.81 a 20.53,20.53 0 0 0 -13.28,11 c -3.89,8.4 -3.19,22 24.28,37.94 46,26.63 48.87,63.17 48.87,63.17 z"
       transform="translate(-55.35,-18.71)"
       fill="#b32f26"
       id="path85" />
    <path
       d="m 328.49,589.51 c 0,0 74.62,23.33 57.89,123.26"
       transform="translate(-55.35,-18.71)"
       fill="none"
       stroke="#565987"
       stroke-miterlimit="10"
       id="path87" />
    <path
       d="m 372.07,597.87 c 0,0 -10.27,6.93 -7,17.33"
       transform="translate(-55.35,-18.71)"
       fill="none"
       stroke="#565987"
       stroke-miterlimit="10"
       id="path89" />
    <path
       d="m 336,604 c 0,0 6.28,-6.39 13.92,-2.86"
       transform="translate(-55.35,-18.71)"
       fill="none"
       stroke="#565987"
       stroke-miterlimit="10"
       id="path91" />
    <path
       d="m 365.47,636.17 c 0,0 11,-5.6 13.88,1.41"
       transform="translate(-55.35,-18.71)"
       fill="none"
       stroke="#565987"
       stroke-miterlimit="10"
       id="path93" />
    <path
       d="m 392.76,647.84 c 0,0 -8.28,-0.66 -8.43,3.3"
       transform="translate(-55.35,-18.71)"
       fill="none"
       stroke="#565987"
       stroke-miterlimit="10"
       id="path95" />
    <path
       d="m 387.4,713.43 c 0,0 -29.64,-60.31 -37.79,-59 -3.86,0.63 -5.65,4.43 -6.45,8.26 a 24.29,24.29 0 0 0 1.61,14.68 c 4.23,9.63 15.51,27.99 42.63,36.06 z"
       transform="translate(-55.35,-18.71)"
       fill="#b32f26"
       id="path97" />
    <path
       d="m 349.83,665.89 c 0,0 31.17,45.11 37.17,47.11"
       transform="translate(-55.35,-18.71)"
       fill="none"
       stroke="#565987"
       stroke-miterlimit="10"
       id="path99" />
    <line
       x1="291.62"
       y1="654.21997"
       x2="298.88"
       y2="654.21997"
       fill="none"
       stroke="#565987"
       stroke-miterlimit="10"
       id="line101" />
    <line
       x1="300.32001"
       y1="670.72998"
       x2="311.70999"
       y2="671.21997"
       fill="none"
       stroke="#565987"
       stroke-miterlimit="10"
       id="line103" />
    <line
       x1="307.25"
       y1="657.52002"
       x2="306.01001"
       y2="663.45001"
       fill="none"
       stroke="#565987"
       stroke-miterlimit="10"
       id="line105" />
    <line
       x1="319.35999"
       y1="675.57001"
       x2="319.14001"
       y2="680.96002"
       fill="none"
       stroke="#565987"
       stroke-miterlimit="10"
       id="line107" />
    <path
       d="m 386.52,713.43 c 0,0 29.65,-60.31 37.8,-59 3.86,0.63 5.65,4.43 6.45,8.26 a 24.29,24.29 0 0 1 -1.61,14.68 C 425,687 413.65,705.36 386.52,713.43 Z"
       transform="translate(-55.35,-18.71)"
       fill="#b32f26"
       id="path109" />
    <path
       d="M 424.09,665.89 C 424.09,665.89 393,711 387,713"
       transform="translate(-55.35,-18.71)"
       fill="none"
       stroke="#565987"
       stroke-miterlimit="10"
       id="path111" />
    <line
       x1="371.60001"
       y1="654.21997"
       x2="364.34"
       y2="654.21997"
       fill="none"
       stroke="#565987"
       stroke-miterlimit="10"
       id="line113" />
    <line
       x1="362.89999"
       y1="670.72998"
       x2="351.51999"
       y2="671.21997"
       fill="none"
       stroke="#565987"
       stroke-miterlimit="10"
       id="line115" />
    <line
       x1="355.98001"
       y1="657.52002"
       x2="357.20999"
       y2="663.45001"
       fill="none"
       stroke="#565987"
       stroke-miterlimit="10"
       id="line117" />
    <line
       x1="343.87"
       y1="675.57001"
       x2="344.09"
       y2="680.96002"
       fill="none"
       stroke="#565987"
       stroke-miterlimit="10"
       id="line119" />
    <path
       d="m 335.62,727.52 a 5.18,5.18 0 0 1 -1.69,-2.55 2.25,2.25 0 0 1 1.18,-2.59 c 1.08,-0.42 2.24,0.33 3.12,1.09 0.88,0.76 1.88,1.62 3,1.46 a 4.63,4.63 0 0 1 -1.43,-4.32 1.83,1.83 0 0 1 0.4,-0.87 c 0.6,-0.65 1.69,-0.37 2.41,0.14 2.29,1.61 2.93,4.72 2.94,7.51 a 13.86,13.86 0 0 0 0,-3.09 3.17,3.17 0 0 1 1.17,-2.74 3.46,3.46 0 0 1 1.77,-0.42 3.67,3.67 0 0 1 2.88,0.82 2.87,2.87 0 0 1 -0.11,3.53 11.2,11.2 0 0 1 -3,2.39 6.56,6.56 0 0 0 -2.13,2 1.46,1.46 0 0 0 -0.16,0.36 h -6.45 a 18.28,18.28 0 0 1 -3.9,-2.72 z"
       transform="translate(-55.35,-18.71)"
       fill="#b32f26"
       id="path121" />
    <path
       d="m 448.59,703.23 a 5.18,5.18 0 0 1 -1.69,-2.55 2.25,2.25 0 0 1 1.18,-2.59 c 1.08,-0.42 2.24,0.33 3.12,1.09 0.88,0.76 1.88,1.62 3,1.46 a 4.61,4.61 0 0 1 -1.43,-4.32 1.83,1.83 0 0 1 0.4,-0.87 c 0.6,-0.65 1.69,-0.37 2.41,0.14 2.29,1.61 2.93,4.72 2.94,7.51 a 13.86,13.86 0 0 0 0,-3.09 3.18,3.18 0 0 1 1.16,-2.74 3.49,3.49 0 0 1 1.78,-0.42 3.68,3.68 0 0 1 2.88,0.82 2.86,2.86 0 0 1 -0.12,3.53 11,11 0 0 1 -3,2.39 6.43,6.43 0 0 0 -2.12,2 1.46,1.46 0 0 0 -0.16,0.36 h -6.45 a 18,18 0 0 1 -3.9,-2.72 z"
       transform="translate(-55.35,-18.71)"
       fill="#b32f26"
       id="path123" />
    <path
       d="m 410.94,727.52 a 5.18,5.18 0 0 1 -1.69,-2.55 2.25,2.25 0 0 1 1.18,-2.59 c 1.08,-0.42 2.24,0.33 3.12,1.09 0.88,0.76 1.88,1.62 3,1.46 a 4.61,4.61 0 0 1 -1.43,-4.32 1.83,1.83 0 0 1 0.4,-0.87 c 0.6,-0.65 1.69,-0.37 2.41,0.14 2.29,1.61 2.93,4.72 2.94,7.51 a 13.86,13.86 0 0 0 0,-3.09 3.18,3.18 0 0 1 1.16,-2.74 3.49,3.49 0 0 1 1.78,-0.42 3.68,3.68 0 0 1 2.88,0.82 2.86,2.86 0 0 1 -0.12,3.53 11,11 0 0 1 -3,2.39 6.43,6.43 0 0 0 -2.12,2 1.46,1.46 0 0 0 -0.16,0.36 h -6.45 a 18,18 0 0 1 -3.9,-2.72 z"
       transform="translate(-55.35,-18.71)"
       fill="#b32f26"
       id="path125" />
    <path
       d="m 304.16,678.42 c 0,0 -2.42,3.16 1.12,7.93 3.54,4.77 6.45,8.81 5.27,11.78 0,0 -5.33,-8.86 -9.68,-9 -4.35,-0.14 -1.48,-5.38 3.29,-10.71 z"
       transform="translate(-55.35,-18.71)"
       fill="#b32f26"
       id="path127" />
    <path
       d="m 304.16,678.42 a 3.74,3.74 0 0 0 -0.49,1 c -4.24,5 -6.49,9.62 -2.42,9.73 3.79,0.11 8.34,6.89 9.43,8.61 0,0.13 -0.08,0.26 -0.13,0.38 -0.05,0.12 -5.33,-8.86 -9.68,-9 -4.35,-0.14 -1.48,-5.39 3.29,-10.72 z"
       transform="translate(-55.35,-18.71)"
       opacity="0.1"
       id="path129" />
    <path
       d="m 299.67,682.45 c 0,1.11 0.12,2 0.27,2 0.15,0 0.28,-0.9 0.28,-2 0,-1.1 -0.15,-0.59 -0.31,-0.59 -0.16,0 -0.24,-0.53 -0.24,0.59 z"
       transform="translate(-55.35,-18.71)"
       fill="#ffd037"
       id="path131" />
    <path
       d="m 298.12,683.78 c 1,0.53 1.83,0.85 1.91,0.71 0.08,-0.14 -0.66,-0.67 -1.64,-1.2 -0.98,-0.53 -0.59,-0.15 -0.67,0 -0.08,0.15 -0.57,-0.05 0.4,0.49 z"
       transform="translate(-55.35,-18.71)"
       fill="#ffd037"
       id="path133" />
    <path
       d="m 316.94,678.42 c 0,0 2.41,3.16 -1.12,7.93 -3.53,4.77 -6.45,8.81 -5.27,11.78 0,0 5.33,-8.86 9.67,-9 4.34,-0.14 1.49,-5.38 -3.28,-10.71 z"
       transform="translate(-55.35,-18.71)"
       fill="#b32f26"
       id="path135" />
    <path
       d="m 316.94,678.42 a 4.15,4.15 0 0 1 0.49,1 c 4.23,5 6.49,9.62 2.42,9.73 -3.79,0.11 -8.34,6.89 -9.43,8.61 0,0.13 0.08,0.26 0.13,0.38 0.05,0.12 5.33,-8.86 9.67,-9 4.34,-0.14 1.49,-5.39 -3.28,-10.72 z"
       transform="translate(-55.35,-18.71)"
       opacity="0.1"
       id="path137" />
    <path
       d="m 321.43,682.45 c 0,1.11 -0.12,2 -0.28,2 -0.16,0 -0.28,-0.9 -0.28,-2 0,-1.1 0.16,-0.59 0.31,-0.59 0.15,0 0.25,-0.53 0.25,0.59 z"
       transform="translate(-55.35,-18.71)"
       fill="#ffd037"
       id="path139" />
    <path
       d="m 323,683.78 c -1,0.53 -1.83,0.85 -1.9,0.71 -0.07,-0.14 0.66,-0.67 1.64,-1.2 0.98,-0.53 0.59,-0.15 0.66,0 0.07,0.15 0.6,-0.05 -0.4,0.49 z"
       transform="translate(-55.35,-18.71)"
       fill="#ffd037"
       id="path141" />
    <path
       d="m 320.66,697.72 c 0,0 -6.76,-0.21 -8.8,-1.66 -2.04,-1.45 -10.4,-3.18 -10.9,-0.85 -0.5,2.33 -10.17,11.57 -2.53,11.63 7.64,0.06 17.74,-1.19 19.77,-2.43 2.03,-1.24 2.46,-6.69 2.46,-6.69 z"
       transform="translate(-55.35,-18.71)"
       fill="#a8a8a8"
       id="path143" />
    <path
       d="m 298.29,706 c 7.64,0.06 17.74,-1.19 19.77,-2.43 1.55,-0.94 2.17,-4.33 2.38,-5.89 h 0.22 c 0,0 -0.43,5.45 -2.46,6.69 -2.03,1.24 -12.14,2.49 -19.77,2.43 -2.21,0 -3,-0.8 -2.93,-2 0.31,0.78 1.15,1.2 2.79,1.2 z"
       transform="translate(-55.35,-18.71)"
       opacity="0.2"
       id="path145" />
    <rect
       x="230.50999"
       y="568.42999"
       width="17.67"
       height="39.490002"
       rx="8.8299999"
       ry="8.8299999"
       transform="rotate(72.57,224.40226,541.14259)"
       fill="#b32f26"
       id="rect147" />
    <path
       d="m 731,314.93 c 0,0 -3.1,-23.71 -19.75,-24.21 -16.65,-0.5 2.61,29.41 4.57,32.11 1.15,1.57 0.23,5.94 -0.72,9.31 a 69,69 0 0 0 -1.71,7.37 17.21,17.21 0 0 1 -3.76,8.53 42.67,42.67 0 0 0 -6.7,11.22 c 0,0 -4.9,0.21 -6.69,-1 -1.79,-1.21 -13.22,-5.38 -13.71,-4.71 -0.11,0.14 -0.42,0.2 -0.85,0.19 a 13.77,13.77 0 0 1 -2,-0.25 c -0.09,-0.56 -0.19,-1.12 -0.33,-1.7 0,0 -1.41,-0.61 -3,-1.47 0,0 0,0 0,-0.05 v -0.05 0 c 0.37,-0.94 0.61,-1.95 1,-2.87 v -0.08 0 a 4.45,4.45 0 0 1 1.27,-1.8 c 1.53,-1.23 3.74,-0.81 5.59,-1.42 a 6.44,6.44 0 0 0 0.61,-0.24 l 0.22,-0.13 0.34,-0.19 0.24,-0.17 0.27,-0.2 0.24,-0.21 a 2.39,2.39 0 0 1 0.23,-0.22 l 0.21,-0.25 0.21,-0.24 0.19,-0.27 c 0.06,-0.09 0.13,-0.17 0.18,-0.26 0.05,-0.09 0.12,-0.19 0.17,-0.29 l 0.16,-0.29 0.15,-0.3 0.13,-0.31 a 3.05,3.05 0 0 0 0.13,-0.32 c 0,-0.1 0.07,-0.21 0.11,-0.32 0.04,-0.11 0.06,-0.22 0.1,-0.33 0.04,-0.11 0,-0.21 0.08,-0.33 a 3.38,3.38 0 0 0 0.08,-0.34 l 0.06,-0.33 c 0,-0.12 0,-0.24 0.05,-0.36 0.05,-0.12 0,-0.21 0,-0.31 v -0.39 a 2.72,2.72 0 0 1 0,-0.28 c 0,-0.14 0,-0.28 0,-0.42 v -0.22 -0.49 c 0,0 0,-0.06 0,-0.09 a 10,10 0 0 0 -0.19,-1.22 c -0.46,-2 -1.37,-4.15 -0.74,-5.94 a 1.67,1.67 0 0 1 0.08,-0.2 3.13,3.13 0 0 1 0.3,-0.57 4.11,4.11 0 0 1 1.66,-1.37 c 0.58,-0.3 1.22,-0.53 1.82,-0.78 a 14,14 0 0 0 5.78,-4 v 0 a 9.24,9.24 0 0 0 2,-4.52 7.21,7.21 0 0 0 0,-2.27 c 0,-0.07 0,-0.14 0,-0.21 v 0 a 21.18,21.18 0 0 1 -0.9,-4 5.1,5.1 0 0 1 0.23,-1.57 q 0.12,-0.36 0.27,-0.72 l 0.08,-0.17 c 0.11,-0.23 0.23,-0.46 0.35,-0.68 a 0.75,0.75 0 0 0 0.07,-0.12 l 0.39,-0.62 0.09,-0.13 c 0.14,-0.22 0.3,-0.44 0.45,-0.66 0.37,-0.53 0.76,-1.05 1.12,-1.59 v 0 c 0.17,-0.25 0.33,-0.51 0.48,-0.77 v 0 c 0.15,-0.27 0.29,-0.53 0.42,-0.8 0,0 0,-0.09 0,-0.13 a 9,9 0 0 0 0.33,-0.86 l 0.09,-0.29 c 0.09,-0.33 0.17,-0.65 0.23,-1 a 2,2 0 0 1 0,-0.24 c 0,-0.3 0.08,-0.6 0.1,-0.9 a 1.5,1.5 0 0 1 0,-0.22 c 0,-0.35 0,-0.7 0,-1.06 a 2.35,2.35 0 0 0 0,-0.26 c 0,-0.35 0,-0.71 -0.07,-1.06 a 27.19,27.19 0 0 0 -0.66,-3.73 c -0.43,-1.79 -1.19,-3.84 -2.93,-4.32 a 7.16,7.16 0 0 0 -2.72,0.12 13.06,13.06 0 0 1 -8.08,-2.05 64.9,64.9 0 0 1 -6.85,-5.12 c -1.52,-1.19 -3.4,-2.37 -5.22,-1.78 a 14,14 0 0 0 -1.85,0.94 2.09,2.09 0 0 1 -0.4,0.12 9.57,9.57 0 0 1 -1.92,0.16 H 672 c -0.55,-1.76 -1.14,-3.5 -1.8,-5.22 -1.67,-4.37 -3.8,-8.76 -7.41,-11.64 a 29.85,29.85 0 0 0 -6.84,-3.73 c -7.33,-3.2 -15.39,-6.45 -23,-4.16 -3.37,1 -6.36,3 -9.29,5 l -12.29,8.39 -0.92,-0.28 c -1.8,-0.52 -3.66,-0.83 -4.74,-1.19 l -0.19,-0.06 c -3.46,-1.29 -6.92,-4.12 -7,-7.92 a 8.51,8.51 0 0 1 0.17,-1.75 28.14,28.14 0 0 1 1.13,-3.55 c 0.25,-0.68 0.46,-1.37 0.67,-2.06 l 0.2,-0.74 c 0.12,-0.44 0.23,-0.88 0.34,-1.32 l 0.21,-1 c 0.08,-0.36 0.14,-0.71 0.21,-1.07 0.07,-0.36 0.14,-0.76 0.19,-1.14 0,-0.17 0,-0.35 0.08,-0.53 0.15,-1.09 0.26,-2.18 0.32,-3.27 v 0 c 0,-0.58 0,-1.16 0.06,-1.75 0,-0.08 0,-0.17 0,-0.25 0,-0.59 0,-1.18 0,-1.77 v 0 0 a 41.06,41.06 0 0 0 -6.9,-21.7 13,13 0 0 0 -1.35,5.33 2,2 0 0 1 -0.2,1 1.3,1.3 0 0 1 -1.87,0.08 18.29,18.29 0 0 1 -1.4,-1.62 3.44,3.44 0 0 0 -4.17,-0.5 3.78,3.78 0 0 0 -1.53,4.05 15.73,15.73 0 0 0 -15.71,1 5.82,5.82 0 0 0 -2.71,3.44 v 0 a 4,4 0 0 0 0.47,2.79 c 0.85,1.66 2.5,3.16 3.58,4.86 -4.54,5.71 -6.54,14.12 -6.54,14.12 l -0.88,1.1 a 30.9,30.9 0 0 0 -5.64,4.47 c -1.23,1.34 -2.26,3.18 -1.88,5 l -15.26,19.15 c 0,0 -16.33,22.27 -18,27.31 -0.34,1 -7,8.74 3.09,18.15 10.09,9.41 12.08,10.42 13.55,13.62 0.86,1.87 7.44,5.28 12.77,7.79 l 1.86,0.87 c -0.43,5.54 2.15,12 9.94,19.44 a 13.4,13.4 0 0 1 0.23,2.67 c 0,6.55 2.94,17.4 2.94,17.4 0,0 4.16,6.55 -1.22,10.84 -5.38,4.29 -6.59,6.76 -3.28,10.24 l 0.1,0.1 -0.49,9.84 h -1.44 c 0,0 -13,9.07 -15.7,14.37 -2.7,5.3 -7.58,19.44 -7.58,19.44 0,0 -1,13.61 -2.45,15.63 -1.45,2.02 0,10.34 0,10.34 0,0 -0.25,12.86 2.93,15.89 3.18,3.03 2.21,10.59 2.21,10.59 a 35.79,35.79 0 0 0 0.56,4.89 c -3.41,-1 -9.44,-1.66 -10.48,6.21 a 84,84 0 0 0 -0.73,18 c 0,0 -2.94,13.23 -5.14,17 -2.2,3.77 -6.86,37.24 13.83,31.52 0,0 3.11,-0.89 5,-5.14 a 23.37,23.37 0 0 0 2.15,-2.68 c -0.08,6.53 1.72,12.05 8.09,10.7 0,0 3.66,-0.81 5.31,-8.51 a 79.34,79.34 0 0 0 9,-10.51 l 5.91,-14.74 v 0 l 0.45,-1.13 5.5,-5.9 a 148.45,148.45 0 0 0 28,5.88 68.89,68.89 0 0 0 8.4,0.38 64.68,64.68 0 0 0 14.5,-1.37 c 8.92,1.24 24.48,2.26 37.56,-2.79 19.58,-7.56 6.12,-24.21 2.69,-27.74 -3.43,-3.53 -14.25,-14 -15.12,-14.82 v -0.06 c 0,0 2,-60.52 -2.21,-62.28 -4.21,-1.76 -18.11,-16.65 -18.11,-16.65 l 1.47,-9.58 c 0,0 6.85,0.76 7.1,-5.3 0.25,-6.06 0,-15.13 0,-15.13 l 9,-16.14 c 0,0 10.9,-6.47 15.85,-8.66 0.26,0.17 0.54,0.35 0.85,0.52 5.38,3.08 16.9,6.46 20.92,5.7 5.39,-1 16.16,1.35 23,2 6.84,0.65 10,-6.21 9.3,-7 -0.7,-0.79 2.78,-8.51 2.78,-8.51 0,0 6.53,-31.61 5.06,-36.65 -1.47,-5.04 0.94,-14.03 0.94,-14.03 z M 555.16,517.75 c 0.57,0.28 1.16,0.55 1.77,0.82 a 95.61,95.61 0 0 0 9.82,3.48 l 6.12,2.27 c 0,0 -9.22,0.22 -13.82,0.45 a 13.58,13.58 0 0 1 -5.94,-2.75 10.2,10.2 0 0 1 2.05,-4.27 z m 92.47,-176.6 c -0.11,-0.3 -0.21,-0.62 -0.3,-0.94 0.84,-0.21 1.66,-0.45 2.48,-0.72 -0.55,0.63 -1.22,1.38 -2,2.19 -0.06,-0.18 -0.13,-0.35 -0.18,-0.53 z m -103,-25 c 0,0 4.37,-10.77 7.73,-18.15 q 0.2,0.89 0.45,1.77 c -0.14,0 -0.12,-0.16 0.46,1.35 v 0.08 a 22.13,22.13 0 0 0 9.2,11 20.38,20.38 0 0 0 4.36,2 c 0,-0.05 0,-0.1 0,-0.15 a 1.45,1.45 0 0 0 0,-0.29 1.1,1.1 0 0 0 0,-0.18 1.26,1.26 0 0 0 0,-0.28 l -0.06,-0.14 a 1.51,1.51 0 0 0 -0.15,-0.28 l -0.09,-0.1 a 0.7,0.7 0 0 0 -0.14,-0.16 c 0.68,0.43 1.37,0.84 2.06,1.26 0.15,0.08 0.29,0.18 0.44,0.27 0.71,0.41 1.42,0.8 2.14,1.19 l 0.52,0.3 c 0.85,0.45 1.72,0.89 2.59,1.31 l 0.13,0.06 1.08,0.5 1.7,0.77 a 3,3 0 0 0 1.78,0.35 2.84,2.84 0 0 0 1.08,-0.58 l 0.33,-0.25 c 2.07,-1.54 4.71,-1.94 7.07,-2.93 2.36,-0.99 4.71,-3.07 4.56,-5.7 a 6.05,6.05 0 0 0 -2.62,-4.24 c -1.35,-1 -2.91,-1.74 -4.28,-2.74 -2.53,-1.86 -4.29,-5.35 -3.49,-8.25 a 5.25,5.25 0 0 1 0.22,-0.63 l 0.06,-0.15 q 0.12,-0.25 0.27,-0.51 c 0,-0.05 0.06,-0.11 0.1,-0.17 a 6.56,6.56 0 0 1 1.14,-1.27 19,19 0 0 1 1.78,-1.32 l 12.06,-8.13 c 0.91,-0.62 1.82,-1.23 2.76,-1.8 v 0 a 27.35,27.35 0 0 1 2.49,-1.36 c 0.25,-0.11 0.5,-0.23 0.76,-0.33 l 0.5,-0.21 c 0.45,-0.17 0.9,-0.33 1.37,-0.47 0.25,-0.06 0.59,-0.12 1,-0.18 a 65.37,65.37 0 0 1 -5.15,11.59 9,9 0 0 0 -0.94,2.07 2.6,2.6 0 0 0 -0.11,0.62 6.18,6.18 0 0 0 0.56,2.6 c 0.7,1.88 1,3.28 2.59,4.4 0.42,0.3 0.81,0.58 1.15,0.87 0,0.3 -0.09,0.6 -0.13,0.9 a 38.88,38.88 0 0 0 -0.26,4.47 36.89,36.89 0 0 0 7,21.69 l -0.4,0.45 a 36.64,36.64 0 0 1 -7.37,6.55 c -0.32,0.2 -0.64,0.39 -1,0.57 a 11.29,11.29 0 0 1 -1.17,-2.55 3.14,3.14 0 0 1 -4,-1.76 c -1.42,-2.78 -5.83,0 -5.83,0 0,0 -10,-5.8 -10.52,-3.28 a 2.51,2.51 0 0 1 -0.57,1.06 l -0.59,-0.56 c 0,0 -2.3,0.76 -5.53,2.24 a 6.2,6.2 0 0 1 -3.6,-2.24 c -1,-1.3 -0.74,0.62 -0.11,4.08 l -0.08,0.05 -1.17,-0.43 c -6.91,-2.54 -23.35,-9.14 -24.12,-14.7 z m 112.92,25.16 c -0.45,-1.41 -2.63,-2.51 -4.26,-3.16 A 36,36 0 0 0 671.46,319 c 0.15,-0.37 0.29,-0.75 0.43,-1.13 0.29,-0.07 0.58,-0.12 0.86,-0.21 a 4.23,4.23 0 0 0 2.86,-2.1 4.71,4.71 0 0 0 0.29,-1.59 c 0.08,-1.21 0.13,-2.42 0.16,-3.63 v -0.17 a 90,90 0 0 0 -2.21,-22.07 l 1.08,0.89 v 0 c 0.42,0.35 0.84,0.7 1.25,1.06 0.41,0.36 0.71,0.65 1,1 l 0.16,0.16 c 0.32,0.32 0.63,0.65 0.92,1 a 1.13,1.13 0 0 1 0.1,0.13 11.86,11.86 0 0 1 0.73,1 l 0.25,0.39 q 0.29,0.46 0.54,1 l 0.1,0.2 a 10,10 0 0 1 0.4,1.08 l 0.09,0.25 c 0.09,0.32 0.16,0.64 0.23,1 0,0.15 0.07,0.29 0.1,0.44 0.06,0.34 0.1,0.69 0.14,1.05 0,0.12 0,0.25 0,0.38 0,0.33 0.05,0.67 0.07,1 0.02,0.33 0,0.43 0,0.64 a 44.92,44.92 0 0 1 -4.1,19.53 76.29,76.29 0 0 1 -10.63,16.85 22.41,22.41 0 0 0 -3.51,5.16 10.41,10.41 0 0 0 -0.39,1.11 c -1.72,-0.23 -4.38,-0.72 -4.82,-2.16 z"
       transform="translate(-55.35,-18.71)"
       fill="url(#96fd64a0-6351-4330-b812-2613840b356c)"
       id="path149"
       style="fill:url(#linearGradient1583)" />
    <path
       d="m 734.67,331.17 c 1.5,5 -5.17,36.33 -5.17,36.33 0,0 -3.5,7.71 -2.83,8.44 0.67,0.73 -2.5,7.56 -9.5,6.89 -7,-0.67 -18,-3 -23.5,-2 -4.11,0.75 -15.87,-2.6 -21.37,-5.65 -1.87,-1 -3,-2.05 -2.9,-2.85 0.43,-3.16 10.93,-17.5 10.93,-17.5 a 29.35,29.35 0 0 0 4.8,0.86 c 0.44,0 0.76,-0.05 0.87,-0.19 0.5,-0.67 12.17,3.5 14,4.67 1.83,1.17 6.83,0.95 6.83,0.95 a 42.17,42.17 0 0 1 6.84,-11.12 16.87,16.87 0 0 0 3.85,-8.46 65.8,65.8 0 0 1 1.74,-7.31 c 1,-3.34 1.91,-7.67 0.74,-9.23 -2,-2.67 -21.67,-32.33 -4.67,-31.83 17,0.5 20.17,24 20.17,24 0,0 -2.33,9 -0.83,14 z"
       transform="translate(-55.35,-18.71)"
       fill="#fbbebe"
       id="path151" />
    <path
       d="m 658,359.25 -14,6 -16.25,5 c 0,0 -37.25,-30.25 -27.75,-32.5 a 16.26,16.26 0 0 0 4.68,-2 36.94,36.94 0 0 0 7.53,-6.49 66.24,66.24 0 0 0 6.54,-8.47 c 0,0 36.75,-1.75 31,7 -2.24,3.41 -1.48,8.95 0.28,14.44 0.1,0.33 0.21,0.66 0.32,1 a 92.51,92.51 0 0 0 7.65,16.02 z"
       transform="translate(-55.35,-18.71)"
       fill="#fbbebe"
       id="path153" />
    <path
       d="m 565.92,527.61 c 0,0 -6.45,-6 -8.8,3.24 A 95,95 0 0 0 554.34,546 c 0,0 -3.56,10.89 -5.44,13.88 -1.88,2.99 -9.11,30.8 4.7,28 0,0 5.08,-1.08 6.07,-12.81 0.99,-11.73 9.53,-46.72 9.53,-46.72 z"
       transform="translate(-55.35,-18.71)"
       fill="#3f3d56"
       id="path155" />
    <path
       d="m 670.75,549.5 c -14,5.24 -30.74,3.89 -39.59,2.6 C 627.34,551.55 625,551 625,551 l -43.75,-4.5 -0.88,0.92 -5.62,5.85 -6.5,15.73 c 0,0 -17.5,24 -19.5,9.75 a 58.58,58.58 0 0 1 -0.37,-9.4 c 0.4,-15.19 4.37,-35.35 4.37,-35.35 l 39.75,-5.25 25,-13 0.27,-13.56 0.06,-3.33 0.17,-8.36 34,3.25 6,13.5 0.06,0.06 c 0.88,0.82 12.08,11.33 15.44,14.69 3.36,3.36 17.25,20 -2.75,27.5 z"
       transform="translate(-55.35,-18.71)"
       fill="#fbbebe"
       id="path157" />
    <path
       d="m 574.29,554.39 c 0,0 -17.85,0.75 -19,-2.45 l -5.53,13.19 c 0,0 16.25,6.25 18.5,3.87 z"
       transform="translate(-55.35,-18.71)"
       fill="#b32f26"
       id="path159" />
    <path
       d="m 543,513.75 c 0,0 -11.62,-5.75 -13.12,5.25 a 81.1,81.1 0 0 0 -0.75,17.88 c 0,0 -3,13.12 -5.25,16.87 -2.25,3.75 -7,36.92 14.12,31.25 0,0 7.75,-2.12 6.5,-15.75 -1.25,-13.63 3.84,-55.25 3.84,-55.25 z"
       transform="translate(-55.35,-18.71)"
       fill="#3f3d56"
       id="path161" />
    <path
       d="m 607.25,487.75 36.25,32 c 0,0 21,11.25 -4,30.5 0,0 -11.25,4.75 -28.5,3 a 153,153 0 0 1 -31.5,-6.75 c 0,0 -13,-2 -17.5,5 -4.5,7 -14.5,22.25 -14.5,22.25 0,0 -12.25,24.25 -20.25,-5.75 l 10.25,-29.25 c 0,0 0.5,-9.75 0,-12 -0.5,-2.25 6.75,-12.25 10.5,-9 3.75,3.25 8.75,7.75 13,7.5 4.25,-0.25 15,-0.5 15,-0.5 l -6.25,-2.25 c 0,0 -18,-5 -16.75,-8.75 1.25,-3.75 10,-22 10,-22 z"
       transform="translate(-55.35,-18.71)"
       opacity="0.1"
       id="path163" />
    <path
       d="m 637.5,550.25 a 39.64,39.64 0 0 1 -6.34,1.85 70.18,70.18 0 0 1 -22.16,1.15 156.08,156.08 0 0 1 -28.63,-5.83 c -1.84,-0.56 -2.87,-0.92 -2.87,-0.92 0,0 -13,-2 -17.5,5 -3,4.61 -8.31,12.79 -11.62,17.85 l -2.88,4.4 c 0,0 -12.25,24.25 -20.25,-5.75 l 10.25,-29.25 c 0,0 0.5,-9.75 0,-12 -0.34,-1.53 2.89,-6.62 6.17,-8.71 1.55,-1 3.12,-1.34 4.33,-0.29 a 49.2,49.2 0 0 0 8,6.09 9.58,9.58 0 0 0 5,1.41 c 4.25,-0.25 15,-0.5 15,-0.5 l -6.25,-2.25 a 97.89,97.89 0 0 1 -10,-3.45 c -3.89,-1.64 -7.29,-3.6 -6.72,-5.3 1.25,-3.75 10,-22 10,-22 l 44.25,-4 12.58,11.11 5.39,4.75 18.28,16.14 c 0,0 20.97,11.25 -4.03,30.5 z"
       transform="translate(-55.35,-18.71)"
       fill="#fbbebe"
       id="path165" />
    <path
       d="m 606,534 c 0,0 -9.5,-12.75 -32,-9.25"
       transform="translate(-55.35,-18.71)"
       fill="none"
       stroke="#000000"
       stroke-miterlimit="10"
       opacity="0.1"
       id="path167" />
    <path
       d="m 534.5,536.63 -7.25,16.62 c 0,0 8,18.38 23.5,15.63 l 9.53,-17.27 c 0,0 -21.52,-2.24 -25.78,-14.98 z"
       transform="translate(-55.35,-18.71)"
       opacity="0.1"
       id="path169" />
    <path
       d="m 533.5,537.63 -7.25,16.62 c 0,0 8,18.38 23.5,15.63 l 9.53,-17.27 c 0,0 -21.52,-2.24 -25.78,-14.98 z"
       transform="translate(-55.35,-18.71)"
       fill="#b32f26"
       id="path171" />
    <path
       d="m 675.25,374 a 17.89,17.89 0 0 0 -3,1.18 c -1.87,-1 -3,-2.05 -2.9,-2.85 0.43,-3.16 10.93,-17.5 10.93,-17.5 a 29.35,29.35 0 0 0 4.8,0.86 c 1.69,11.07 -6.76,17.6 -9.83,18.31 z"
       transform="translate(-55.35,-18.71)"
       opacity="0.1"
       id="path173" />
    <path
       d="m 658,360.25 -14,6 -16.25,5 c 0,0 -37.25,-30.25 -27.75,-32.5 a 16.26,16.26 0 0 0 4.68,-2 c 5.6,7.36 18.82,15 18.82,15 11.06,4 21.11,-3.3 26.53,-8.56 a 90.44,90.44 0 0 0 7.97,17.06 z"
       transform="translate(-55.35,-18.71)"
       opacity="0.1"
       id="path175" />
    <path
       d="m 673.25,374 c -3.25,0.75 -18,9.25 -18,9.25 l -9.25,16 c 0,0 0.25,9 0,15 -0.25,6 -7.25,5.25 -7.25,5.25 l -0.34,0.14 c -1.79,0.75 -10.19,4.28 -10.19,4.36 0,0.08 -17.22,-1.75 -17.22,-1.75 l -33.75,-5.5 c 0,0 -10.75,-0.5 -14.25,-4 l -0.1,-0.1 c -3.38,-3.45 -2.1,-5.94 3.35,-10.15 5.45,-4.21 1.25,-10.75 1.25,-10.75 0,0 -3,-10.75 -3,-17.25 0,-6.5 -3.25,-6.25 -3.25,-6.25 0,0 -2.25,0 7.75,-6.5 10,-6.5 -1.25,-36.75 2.25,-32.5 3.5,4.25 10,2 10.5,-0.5 0.5,-2.5 10.75,3.25 10.75,3.25 0,0 4.5,-2.75 6,0 a 3.26,3.26 0 0 0 4,1.75 c 2.5,8.25 21,19 21,19 16.5,6 30.75,-13.25 30.75,-13.25 0,0 5.5,1.5 6.25,3.77 0.75,2.27 7,2.16 7,2.16 0,0 7.5,0.82 7.75,3.07 0.25,2.25 7.5,5.25 7.5,5.25 3,12.25 -6.25,19.5 -9.5,20.25 z"
       transform="translate(-55.35,-18.71)"
       fill="#ffffff"
       id="path177" />
    <path
       d="m 638.75,417.5 -0.34,2.14 c -1.79,0.75 -10.19,4.28 -10.19,4.36 0,0.08 -17.22,-1.75 -17.22,-1.75 l -33.75,-5.5 c 0,0 -10.75,-0.5 -14.25,-4 l -0.1,-0.1 0.1,-1.9 5.5,-1 c 0,0 54,3 61.5,6.5 z"
       transform="translate(-55.35,-18.71)"
       opacity="0.1"
       id="path179" />
    <path
       d="m 658.06,507.31 c 0,1.24 -0.06,1.94 -0.06,1.94 0,0 -10.5,-16.25 -24.25,-8.25 a 17.63,17.63 0 0 1 -10.53,2.61 16.67,16.67 0 0 1 -5.45,-1.42 21.52,21.52 0 0 1 -7.52,-5.69 c 0,0 -24,5 -32.25,11.75 -8.25,6.75 -15,-2 -15,-2 0,0 -2.35,10.27 -5.28,12.8 -3.89,-1.64 -7.29,-3.6 -6.72,-5.3 1.25,-3.75 10,-22 10,-22 l 44.25,-4 12.58,11.11 0.17,-8.36 34,3.25 6,13.5 z"
       transform="translate(-55.35,-18.71)"
       opacity="0.1"
       id="path181" />
    <path
       d="m 568.5,411.75 c 0,0 54,3 61.5,6.5 l 8.75,1.25 -1.5,9.5 c 0,0 14.25,14.75 18.5,16.5 4.25,1.75 2.25,61.75 2.25,61.75 0,0 -10.5,-16.25 -24.25,-8.25 -13.75,8 -23.5,-4.5 -23.5,-4.5 0,0 -24,5 -32.25,11.75 -8.25,6.75 -15,-2 -15,-2 0,0 -2.75,12 -6,13.25 -3.25,1.25 -4,9.25 -4,9.25 0,0 -9,-1.75 -9,-4.5 0,-2.75 -0.25,-3.75 -2,-5.75 -1.75,-2 -2,-8.5 -2,-8.5 0,0 1,-7.5 -2.25,-10.5 -3.25,-3 -3,-15.75 -3,-15.75 0,0 -1.51,-8.25 0,-10.25 1.51,-2 2.5,-15.5 2.5,-15.5 0,0 5,-14 7.75,-19.25 2.75,-5.25 16,-14.25 16,-14.25 h 1.47 l 0.5,-9.75 z"
       transform="translate(-55.35,-18.71)"
       fill="#b32f26"
       id="path183" />
    <circle
       cx="572.97998"
       cy="412.54001"
       r="1.58"
       fill="#3f3d56"
       id="circle185" />
    <circle
       cx="564.56"
       cy="448.38"
       r="1.58"
       fill="#3f3d56"
       id="circle187" />
    <circle
       cx="575.65002"
       cy="436.20999"
       r="1.58"
       fill="#3f3d56"
       id="circle189" />
    <path
       d="m 565.33,424 h 2 c 0,0 -12,27.5 -12.66,19.83 -0.66,-7.67 10.66,-19.83 10.66,-19.83 z"
       transform="translate(-55.35,-18.71)"
       opacity="0.1"
       id="path191" />
    <path
       d="m 579.67,426 c 0,0 -13.67,21 -7,24 6.67,3 12.66,-23 12.66,-23 z"
       transform="translate(-55.35,-18.71)"
       opacity="0.1"
       id="path193" />
    <path
       d="m 597.83,438.12 c 0,0 5.17,31.88 11,38.05 5.83,6.17 -1,10.5 -1,10.5 0,0 20.5,1.83 27,3.16 6.5,1.33 16.5,-1.5 12.5,-4.16 -4,-2.66 -0.66,-31 -0.33,-32.34 0.33,-1.34 -12.83,24.58 -49.17,-15.21 z"
       transform="translate(-55.35,-18.71)"
       opacity="0.1"
       id="path195" />
    <path
       d="m 575.67,400.67 c 1.16,-0.5 19.83,-26.72 24.33,-24.61 4.5,2.11 -24.33,24.61 -24.33,24.61 z"
       transform="translate(-55.35,-18.71)"
       opacity="0.1"
       id="path197" />
    <path
       d="m 578,377.5 c 0,0 -7.5,11.5 -5.33,13.5 2.17,2 5.33,-13.5 5.33,-13.5 z"
       transform="translate(-55.35,-18.71)"
       opacity="0.1"
       id="path199" />
    <path
       d="m 588.07,334 c 0,0 7.6,15.17 5.43,18 -2.17,2.83 -5.43,-18 -5.43,-18 z"
       transform="translate(-55.35,-18.71)"
       opacity="0.1"
       id="path201" />
    <path
       d="m 673.33,354.83 c 0,0 -1.5,8.84 -3.5,9.17 -2,0.33 3.5,-9.17 3.5,-9.17 z"
       transform="translate(-55.35,-18.71)"
       opacity="0.1"
       id="path203" />
    <path
       d="m 637.33,357.67 c 0,0 21.17,5.18 22.84,6.34 1.67,1.16 -18.34,1.16 -22.84,-6.34 z"
       transform="translate(-55.35,-18.71)"
       opacity="0.1"
       id="path205" />
    <path
       d="m 715.33,372.67 c 0,0 -2.66,-10.34 -6.16,-10.17 -3.5,0.17 6.16,10.17 6.16,10.17 z"
       transform="translate(-55.35,-18.71)"
       opacity="0.1"
       id="path207" />
    <path
       d="m 706.1,305.37 c -1.3,2.69 -4.13,4.84 -4.09,7.83 0,1.42 0.71,2.73 1,4.13 a 8.34,8.34 0 0 1 -2,6.72 14.33,14.33 0 0 1 -5.93,4 c -1.31,0.51 -2.76,1 -3.56,2.13 -1.31,1.89 -0.17,4.41 0.37,6.65 0.86,3.61 -0.56,8.12 -4.09,9.24 -1.89,0.6 -4.15,0.19 -5.71,1.4 -1.56,1.21 -1.72,3.63 -2.69,5.43 a 6.22,6.22 0 0 1 -8.14,2.44 6.29,6.29 0 0 1 0.35,-2.72 5.12,5.12 0 0 1 -5.71,-2.33 6.82,6.82 0 0 1 0.05,-6 22.48,22.48 0 0 1 3.58,-5.12 75.42,75.42 0 0 0 10.86,-16.7 43.46,43.46 0 0 0 4.19,-19.36 14.81,14.81 0 0 0 -1.13,-5.78 14.34,14.34 0 0 0 -3.94,-4.78 c -0.83,-0.72 -1.71,-1.4 -2.57,-2.09 -0.6,-0.48 -1.2,-1 -1.77,-1.46 -0.78,-0.69 -3.88,-3.22 -3.63,-4.44 0.14,-0.7 2.24,-0.6 4.07,-0.62 a 9.93,9.93 0 0 0 2,-0.16 2,2 0 0 0 0.41,-0.12 15.75,15.75 0 0 1 1.89,-0.93 c 1.86,-0.58 3.78,0.59 5.33,1.77 a 66.21,66.21 0 0 0 7,5.07 13.68,13.68 0 0 0 8.25,2 7.47,7.47 0 0 1 2.78,-0.12 c 1.77,0.47 2.55,2.5 3,4.28 0.73,3.18 1.25,6.68 -0.17,9.64 z"
       transform="translate(-55.35,-18.71)"
       fill="#3f3d56"
       id="path209" />
    <path
       d="m 608,279.9 a 10.32,10.32 0 0 0 -1.14,0.2 18.43,18.43 0 0 0 -3.08,1.17 45.06,45.06 0 0 0 -5,3 l -12.32,8.06 a 10.15,10.15 0 0 0 -3,2.58 c -2.09,3.07 -0.13,7.46 2.9,9.62 1.4,1 3,1.7 4.37,2.72 a 6,6 0 0 1 2.68,4.2 c 0.15,2.61 -2.25,4.66 -4.66,5.65 -2.41,0.99 -5.11,1.38 -7.22,2.91 a 4.16,4.16 0 0 1 -1.44,0.82 3.16,3.16 0 0 1 -1.82,-0.35 75.56,75.56 0 0 1 -10.88,-5.61 1.47,1.47 0 0 1 0.45,1.57 21.72,21.72 0 0 1 -12.41,-31.65 c 1.29,-2.21 3,-4.2 4,-6.53 1,-2.33 1.38,-5.22 0,-7.35 -1,-1.49 -2.75,-2.49 -3.27,-4.2 -0.52,-1.71 0.56,-3.76 1.87,-5.15 2.89,-3 6.88,-4.8 10.07,-7.54 3.19,-2.74 5.6,-7.28 3.79,-11.07 -1.44,-3 -5.31,-5.23 -4.66,-8.5 A 5.79,5.79 0 0 1 570,231 a 16.47,16.47 0 0 1 16,-1 3.69,3.69 0 0 1 1.57,-4 3.59,3.59 0 0 1 4.26,0.49 18.35,18.35 0 0 0 1.42,1.61 1.37,1.37 0 0 0 1.91,-0.08 1.88,1.88 0 0 0 0.21,-1 12.56,12.56 0 0 1 1.38,-5.29 40.21,40.21 0 0 1 4.73,36.31 14.33,14.33 0 0 0 -1.33,5.25 c 0.11,3.77 3.64,6.57 7.18,7.85 l 0.19,0.06 c 1.11,0.36 3,0.67 4.84,1.18 2.42,0.67 4.75,1.69 5,3.6 0.54,3.11 -6.2,3.49 -9.36,3.92 z"
       transform="translate(-55.35,-18.71)"
       fill="#3f3d56"
       id="path211" />
    <path
       d="m 556.5,293.83 c -1.83,2 -11.33,24.5 -11.33,24.5 0.79,5.51 17.58,12.06 24.69,14.59 1.92,0.69 3.14,1.08 3.14,1.08 l 6.83,6 c 0,0 -7,38.67 -7.56,29.17 -0.56,-9.5 -12.94,-14.34 -12.94,-14.34 0,0 -3.24,-1.32 -7.12,-3.11 -5.44,-2.49 -12.16,-5.87 -13,-7.72 -1.5,-3.17 -3.5,-4.17 -13.84,-13.5 -10.34,-9.33 -3.5,-17 -3.16,-18 1.66,-5 18.33,-27.07 18.33,-27.07 L 564.67,256 c 0,0 6.66,-27.33 23.4,-16.67 16.74,10.66 -19.07,36.17 -19.07,36.17 0,0 -10.67,16.33 -12.5,18.33 z"
       transform="translate(-55.35,-18.71)"
       fill="#fbbebe"
       id="path213" />
    <path
       d="m 579.83,340 c 0,0 -7,38.67 -7.56,29.17 -0.56,-9.5 -12.94,-14.34 -12.94,-14.34 0,0 -3.24,-1.32 -7.12,-3.11 1.25,-8.86 10.47,-15.17 17.65,-18.8 1.92,0.69 3.14,1.08 3.14,1.08 z"
       transform="translate(-55.35,-18.71)"
       opacity="0.1"
       id="path215" />
    <path
       d="m 587.9,335.93 -7.33,-6.68 c 0,0 -47.42,15 -15.42,43.42 h 13.49 L 591,356.25 Z"
       transform="translate(-55.35,-18.71)"
       fill="#ffffff"
       id="path217" />
    <path
       d="m 650,342.19 c 0.1,0.33 0.21,0.66 0.32,1 a 36.05,36.05 0 0 1 -38.14,-13.95 66.24,66.24 0 0 0 6.54,-8.47 c 0,0 36.75,-1.75 31,7 -2.21,3.39 -1.45,8.93 0.28,14.42 z"
       transform="translate(-55.35,-18.71)"
       opacity="0.1"
       id="path219" />
    <path
       d="m 677.49,307.27 a 36,36 0 1 1 -36,-36 35.86,35.86 0 0 1 36,36 z"
       transform="translate(-55.35,-18.71)"
       fill="#fbbebe"
       id="path221" />
    <path
       d="m 677.49,307.27 a 35.86,35.86 0 0 1 -2.8,13.93 16.21,16.21 0 0 1 -6.13,0.1 3.63,3.63 0 0 1 -2.17,-1 4,4 0 0 1 -0.73,-2 q -0.57,-3.33 -1.12,-6.64 c -3.24,1.27 -7,0.33 -10,-1.37 -3,-1.7 -5.64,-4.07 -8.56,-6 -2.92,-1.93 -6.41,-3.3 -9.84,-2.68 a 16.64,16.64 0 0 0 -5.26,2.21 36.77,36.77 0 0 0 -9,6.73 c -1.82,2 -3.41,4.4 -5.93,5.31 a 6.28,6.28 0 0 1 -7.83,-4 c -0.53,-1.85 -0.17,-3.83 -0.39,-5.74 a 4.46,4.46 0 0 0 -1.91,-3.32 36,36 0 0 1 71.73,4.43 z"
       transform="translate(-55.35,-18.71)"
       opacity="0.1"
       id="path223" />
    <path
       d="m 607.67,305.16 c 0.22,1.91 -0.14,3.89 0.39,5.74 a 6.28,6.28 0 0 0 7.83,4 c 2.52,-0.91 4.11,-3.33 5.93,-5.31 a 36.77,36.77 0 0 1 9,-6.73 16.64,16.64 0 0 1 5.26,-2.21 c 3.43,-0.62 6.91,0.79 9.84,2.68 2.93,1.89 5.52,4.27 8.56,6 3.04,1.73 6.77,2.64 10,1.37 l 1.12,6.64 a 4,4 0 0 0 0.73,2 3.63,3.63 0 0 0 2.17,1 16.19,16.19 0 0 0 7.45,-0.43 4.28,4.28 0 0 0 2.92,-2.08 4.67,4.67 0 0 0 0.3,-1.58 86.71,86.71 0 0 0 -5.78,-37.48 c -1.71,-4.34 -3.89,-8.69 -7.57,-11.54 a 30.56,30.56 0 0 0 -7,-3.7 c -7.48,-3.17 -15.72,-6.4 -23.53,-4.13 -3.44,1 -6.49,3 -9.49,5 l -14,9.29 a 8.74,8.74 0 0 0 -2,1.65 9.54,9.54 0 0 0 -1.51,3.3 64,64 0 0 1 -5.74,12.88 6.39,6.39 0 0 0 -1.08,2.67 6.1,6.1 0 0 0 0.58,2.57 c 0.72,1.87 1,3.26 2.64,4.36 1.64,1.1 2.72,1.88 2.98,4.04 z"
       transform="translate(-55.35,-18.71)"
       fill="#3f3d56"
       id="path225" />
    <g
       opacity="0.1"
       id="g245">
      <path
         d="m 588.76,314.07 c -2.41,1 -5.11,1.38 -7.22,2.91 a 4.16,4.16 0 0 1 -1.44,0.82 3.16,3.16 0 0 1 -1.82,-0.35 74.78,74.78 0 0 1 -11,-5.71 1.45,1.45 0 0 1 0.6,1.67 A 22.06,22.06 0 0 1 554,300.58 c -0.8,-2.05 0.15,2.19 0,0 -0.22,3.19 -1.16,0 0,3 a 22.06,22.06 0 0 0 13.84,12.83 1.45,1.45 0 0 0 -0.6,-1.67 74.78,74.78 0 0 0 11,5.71 3.16,3.16 0 0 0 1.82,0.35 4.16,4.16 0 0 0 1.44,-0.82 c 2.11,-1.53 4.81,-1.93 7.22,-2.91 2.41,-0.98 4.81,-3 4.66,-5.65 a 4.2,4.2 0 0 0 -0.29,-1.27 7.77,7.77 0 0 1 -4.33,3.92 z"
         transform="translate(-55.35,-18.71)"
         id="path227" />
      <path
         d="m 600.17,260.3 a 6,6 0 0 0 0.18,1.27 25.84,25.84 0 0 1 1.15,-3.52 39,39 0 0 0 2.31,-14.8 38.69,38.69 0 0 1 -2.31,11.8 14.33,14.33 0 0 0 -1.33,5.25 z"
         transform="translate(-55.35,-18.71)"
         id="path229" />
      <path
         d="m 683.46,294.29 c -1.34,-2.87 -3.88,-4.78 -6.33,-6.72 0.28,1.19 0.53,2.39 0.76,3.6 2.2,1.74 4.37,3.55 5.57,6.12 a 14.48,14.48 0 0 1 1.12,5.49 c 0,-0.9 0,-1.8 0,-2.71 a 14.81,14.81 0 0 0 -1.12,-5.78 z"
         transform="translate(-55.35,-18.71)"
         id="path231" />
      <path
         d="m 571.43,242.14 c 0.3,-1.47 1.1,-0.83 0.44,-2.22 -1.09,-2.26 -3.55,-4.08 -4.42,-6.24 a 3.76,3.76 0 0 0 -0.24,0.74 c -0.65,3.27 2.78,4.71 4.22,7.72 0.21,0.43 -0.89,-2.14 0,0 z"
         transform="translate(-55.35,-18.71)"
         id="path233" />
      <path
         d="m 607.85,276.92 a 7.36,7.36 0 0 0 -1,0.18 28.9,28.9 0 0 0 -8.08,4.14 l -12.32,8.06 a 10.15,10.15 0 0 0 -3,2.58 5.45,5.45 0 0 0 -0.67,4.47 4.75,4.75 0 0 1 0.67,-1.47 10.15,10.15 0 0 1 3,-2.58 l 12.32,-8.06 a 29.53,29.53 0 0 1 7.86,-4.07 c 0.43,-1.08 0.84,-2.17 1.22,-3.25 z"
         transform="translate(-55.35,-18.71)"
         id="path235" />
      <path
         d="m 702.94,317.11 a 9.14,9.14 0 0 1 -1.92,3.94 14.33,14.33 0 0 1 -5.93,4 c -1.31,0.51 -2.76,1 -3.56,2.13 a 4.63,4.63 0 0 0 -0.39,3.77 3.1,3.1 0 0 1 0.39,-0.77 c 0.8,-1.16 2.25,-1.62 3.56,-2.13 a 14.33,14.33 0 0 0 5.93,-4 8.34,8.34 0 0 0 2,-6.72 c -0.02,-0.08 -0.02,-0.15 -0.08,-0.22 z"
         transform="translate(-55.35,-18.71)"
         id="path237" />
      <path
         d="m 706.1,302.37 c -1.3,2.69 -4.13,4.84 -4.09,7.83 a 5.78,5.78 0 0 0 0.23,1.48 c 0.69,-2.25 2.79,-4.1 3.86,-6.31 a 11,11 0 0 0 0.81,-6 9.37,9.37 0 0 1 -0.81,3 z"
         transform="translate(-55.35,-18.71)"
         id="path239" />
      <path
         d="m 666.39,319.3 a 3.63,3.63 0 0 0 2.17,1 16.19,16.19 0 0 0 7.45,-0.43 4.28,4.28 0 0 0 2.92,-2.08 4.67,4.67 0 0 0 0.3,-1.58 c 0.17,-2.46 0.22,-4.92 0.17,-7.38 0,1.46 -0.07,2.92 -0.17,4.38 a 4.67,4.67 0 0 1 -0.3,1.58 4.28,4.28 0 0 1 -2.92,2.08 16.19,16.19 0 0 1 -7.45,0.43 3.63,3.63 0 0 1 -2.17,-1 4,4 0 0 1 -0.73,-2 q -0.57,-3.33 -1.12,-6.64 c -3.24,1.27 -7,0.33 -10,-1.37 -3,-1.7 -5.64,-4.07 -8.56,-6 -2.92,-1.93 -6.41,-3.3 -9.84,-2.68 a 16.64,16.64 0 0 0 -5.26,2.21 36.77,36.77 0 0 0 -9,6.73 c -1.82,2 -3.41,4.4 -5.93,5.31 a 6.28,6.28 0 0 1 -7.83,-4 c -0.53,-1.85 -0.17,-3.83 -0.39,-5.74 -0.26,-2.18 -1.35,-3 -3,-4.08 -1.65,-1.08 -1.92,-2.49 -2.64,-4.36 -0.09,-0.24 -0.19,-0.5 -0.27,-0.75 a 3.75,3.75 0 0 0 -0.31,1.18 6.1,6.1 0 0 0 0.58,2.57 c 0.72,1.87 1,3.26 2.64,4.36 1.64,1.1 2.7,1.9 3,4.08 0.22,1.91 -0.14,3.89 0.39,5.74 a 6.28,6.28 0 0 0 7.83,4 c 2.52,-0.91 4.11,-3.33 5.93,-5.31 a 36.77,36.77 0 0 1 9,-6.73 16.64,16.64 0 0 1 5.26,-2.21 c 3.43,-0.62 6.91,0.79 9.84,2.68 2.93,1.89 5.52,4.27 8.56,6 3.04,1.73 6.77,2.64 10,1.37 q 0.56,3.32 1.12,6.64 a 4,4 0 0 0 0.73,2 z"
         transform="translate(-55.35,-18.71)"
         id="path241" />
      <path
         d="m 687.81,343.07 c -1.89,0.6 -4.15,0.19 -5.71,1.4 -1.56,1.21 -1.72,3.63 -2.69,5.43 a 6.22,6.22 0 0 1 -8.14,2.44 6.29,6.29 0 0 1 0.35,-2.72 5.12,5.12 0 0 1 -5.71,-2.33 5.24,5.24 0 0 1 -0.51,-1.31 6.15,6.15 0 0 0 0.51,4.31 5.12,5.12 0 0 0 5.71,2.33 6.29,6.29 0 0 0 -0.35,2.72 6.22,6.22 0 0 0 8.14,-2.44 c 1,-1.8 1.07,-4.17 2.69,-5.43 1.62,-1.26 3.82,-0.8 5.71,-1.4 3.33,-1.06 4.78,-5.12 4.21,-8.61 -0.4,2.54 -1.82,4.85 -4.21,5.61 z"
         transform="translate(-55.35,-18.71)"
         id="path243" />
    </g>
    <path
       d="m 612.38,272.39 a 35.92,35.92 0 0 1 -4.38,7.51 10.32,10.32 0 0 0 -1.14,0.2 18.43,18.43 0 0 0 -3.08,1.17 62.45,62.45 0 0 1 3.77,-10.06 c 1.1,0.36 2.99,0.67 4.83,1.18 z"
       transform="translate(-55.35,-18.71)"
       fill="#b32f26"
       id="path247" />
    <path
       d="m 679.52,292.51 c -0.83,-0.72 -1.71,-1.4 -2.57,-2.09 -0.5,-2 -1,-4.39 -1.33,-6.52 a 9.93,9.93 0 0 0 2,-0.16 27.53,27.53 0 0 1 1.9,8.77 z"
       transform="translate(-55.35,-18.71)"
       fill="#b32f26"
       id="path249" />
    <path
       d="m 1023.72,436.35 c 0.31,-0.15 0.61,-0.3 0.91,-0.47 -0.61,-0.12 -1.22,-0.26 -1.82,-0.41 -0.43,0.12 -0.87,0.21 -1.31,0.31 a 49.27,49.27 0 0 1 -22,-13.27 c -6.1,-6.43 -10.37,-14.85 -10.28,-23.6 0.07,-6.38 2.41,-12.6 2.34,-19 -0.07,-6.4 -3.79,-13.61 -10.31,-14.33 -2.27,-0.25 -4.54,0.34 -6.83,0.42 -2.29,0.08 -4.84,-0.52 -6,-2.41 -1,-1.63 -0.74,-3.75 -0.1,-5.56 1.74,-4.89 5.65,-8.84 7.33,-13.75 a 16.52,16.52 0 0 0 0.45,-9.06 c -0.58,-2.5 -1.91,-5 -4.24,-6.21 -3.86,-2 -8.45,0.32 -12.74,1.13 -7.34,1.4 -14.79,-1.79 -21.11,-5.69 -6.32,-3.9 -12.24,-8.64 -19.35,-10.93 a 46.57,46.57 0 0 0 -14.36,-1.86 c -3,0 -6.25,0.24 -8.46,2.19 -0.11,0.1 -0.19,0.21 -0.3,0.31 a 7.72,7.72 0 0 1 0.87,-1.75 6.22,6.22 0 0 0 -0.93,0.69 c -4.59,4.05 -1.38,11.78 -4.08,17.2 a 9,9 0 0 1 -1.1,1.68 13.21,13.21 0 0 0 1.78,-1.64 c -0.1,0.24 -0.19,0.48 -0.31,0.72 -1.55,3.12 -4.83,5 -8,6.54 -3.17,1.54 -6.62,2.95 -8.91,5.6 -0.06,0.06 -0.1,0.12 -0.16,0.19 a 9.8,9.8 0 0 1 1.6,-2.64 13.14,13.14 0 0 0 -1.81,1.69 c -2.51,2.91 -2.7,5.33 -1.58,7.19 0.8,2.13 3.24,3.64 6.09,4.43 -0.14,0.63 -0.27,1.26 -0.38,1.9 a 31.62,31.62 0 0 0 -0.38,4.8 c 0,14.76 10.62,27.11 24.84,30.24 0,0.64 -0.08,1.29 -0.16,2 -0.48,4.54 -1.88,9.46 -5.55,10.66 -3.43,-1.17 -10.3,4 -11.84,5.5 -1.54,1.5 -7,0.16 -12,0.33 -5,0.17 -6.69,-1.33 -6.69,-1.33 a 28.46,28.46 0 0 0 -0.18,8.16 c 0.52,5 -3.6,5.17 -3.6,5.17 0,0 0.86,7.17 -1,10.83 a 12.15,12.15 0 0 0 -1.37,6.85 c 0,0 5.83,-0.5 5.31,1.5 a 1.78,1.78 0 0 0 0.34,1.33 l -0.06,1.91 -0.79,26.42 -1.54,15.75 a 2.66,2.66 0 0 0 -1.72,1.58 c -1.39,3.16 -3.63,7.37 -5.39,10.59 -7.15,4.33 -17.89,12.36 -14.85,20.08 4.46,11.34 10.81,9.84 14.58,8.5 3.77,-1.34 10.51,-11.83 10.51,-11.83 0,0 2.23,-4.17 3.94,-4.17 a 22.18,22.18 0 0 0 2.73,-0.29 c 0,0.18 0,0.29 0,0.29 0,0 -3.6,14.17 -2.4,17.67 1.2,3.5 0.17,8 0.17,8 0,0 -1,10.33 0.34,13.67 1.34,3.34 -1.86,12.31 -1.86,12.31 0,0 0.92,0.28 2.51,0.67 -0.12,0.57 -0.26,1.2 -0.41,1.9 -2.1,9.93 -5.87,32.6 -1.58,51.26 0,0 2.4,10 2.74,12.68 0.34,2.68 2.4,5 1,11 -1.4,6 2.74,17.01 2.74,17.01 0,0 2.06,10.5 0.86,15.33 -1.2,4.83 12.52,59 12.52,59 l 2.24,-0.32 0.5,1.93 2.23,8.6 0.24,0.94 a 7.4,7.4 0 0 0 -4,2.52 c 0,0 -6,13.67 -13.55,17.5 -2,1 -4.45,2.34 -6.81,3.79 -6.74,4.12 -12.52,9.08 -2.7,9.21 10.76,0.14 28.44,0.71 34.78,0.92 1.35,0.73 3.62,1.15 7.15,1.08 17.66,-0.33 42.71,-2.17 43.23,-3.83 0.25,-0.81 -0.8,-2.53 -1.94,-4.08 -1.14,-1.55 -2.53,-3.09 -2.53,-3.09 l -0.51,-15.17 c 0,0 -1.44,-1.3 -3.67,-3.09 l -0.08,-1.06 -1.12,-14.63 -0.15,-2 a 5.77,5.77 0 0 0 2.1,-0.91 L 947,714.49 c 0,0 7.37,-25.33 -2.06,-50.17 0,0 -8.23,-17.16 -6,-23.33 l 0.35,-13.17 c 0,0 3.94,-15.51 5.83,-19.67 A 106.58,106.58 0 0 0 951,588.27 c 6.77,-10.74 5.66,-25 5.66,-25 l 4.8,-15 6.69,-19.16 c 0,0 1.89,-11.67 2.58,-14 0.69,-2.33 0,-15 0,-15 0,0 5.8,-46.2 0.95,-64.25 v -0.69 h 0.05 c 0,0 0,-0.38 0,-1 0.08,-0.09 5.28,-5.51 2.9,-7 -2,-1.24 -5.59,-6.78 -8.33,-10.09 -0.37,-0.43 -0.71,-0.82 -1,-1.17 a 34.29,34.29 0 0 0 8.25,-9.16 c 0.84,-1.37 1.87,-3 3.51,-3.07 a 4.43,4.43 0 0 1 2.45,0.81 c 12.57,7.53 14.59,26.36 27.84,32.69 a 19.78,19.78 0 0 0 17.69,-0.51 z m -100.56,301.14 -0.11,1 a 5.4,5.4 0 0 0 -1.25,0.62 c 0,0 -1.72,8.83 -2.75,9.5 a 8.28,8.28 0 0 0 -1.27,2.24 l -0.25,-0.45 c -0.08,0.18 -0.17,0.36 -0.25,0.55 l -0.46,-0.84 -0.13,-1 -2.86,-22.11 c -0.24,-3.23 -0.94,-13.93 0.08,-19.55 1.2,-6.67 1,-30 -6.69,-39.33 0,0 -3.6,-8.5 -0.34,-14 l 0.51,-34.68 1.2,-1.17 0.17,32 a 32.27,32.27 0 0 0 7.72,18.34 l 1.21,16.83 c 0,0 1,18.33 4.11,28.5 v 15.67 c 0,0 0.83,0.14 2.16,0.33 l -0.21,2 z"
       transform="translate(-55.35,-18.71)"
       fill="url(#65aaeda9-82be-4b39-9919-e403ba36e3f2)"
       id="path251"
       style="fill:url(#65aaeda9-82be-4b39-9919-e403ba36e3f2)" />
    <path
       d="m 943.5,403.17 -7.17,16 -2.65,1.55 -17.85,10.45 c 0,0 -22.5,-2.17 -23.16,-2.5 -0.66,-0.33 -1.72,-19.44 4.1,-23.46 a 3.84,3.84 0 0 1 1.05,-0.53 v 0 c 3.57,-1.2 4.93,-6.12 5.4,-10.66 0.07,-0.67 0.12,-1.32 0.15,-2 a 47.41,47.41 0 0 0 0,-6.38 c 0,0 5.46,-5.46 12,-11.11 11.59,-10 26.58,-20.55 20.83,-2.56 a 60.08,60.08 0 0 0 -2.34,9.94 c -0.12,0.79 -0.2,1.56 -0.26,2.29 -0.7,8.86 2.07,13.64 4.86,16.18 0.3,0.28 0.61,0.52 0.91,0.75 a 11,11 0 0 0 4.13,2.04 z"
       transform="translate(-55.35,-18.71)"
       fill="#cf6f80"
       id="path253" />
    <polygon
       points="840.65,723.83 838.48,715.23 836.98,709.29 858.57,709.29 861.35,731.42 861.48,732.46 858.98,733.62 842.15,729.79 "
       fill="#cf6f80"
       id="polygon255" />
    <path
       d="m 914.33,752.33 -16.83,-3.83 -1.5,-6 c 6.38,-1.91 15.67,3.46 15.67,3.46 -0.61,2.12 4.18,3.84 5,4.13 l 0.13,1 z"
       transform="translate(-55.35,-18.71)"
       opacity="0.1"
       id="path257" />
    <path
       d="m 922.33,760.5 -12.07,11.83 -4.26,4.17 -2.31,-0.08 c -4.35,-2.44 1.29,-8.37 5.06,-11.66 0.74,-0.65 1.41,-1.19 1.92,-1.59 2.7,-2.11 5.23,-8.12 6.85,-11.71 z"
       transform="translate(-55.35,-18.71)"
       opacity="0.1"
       id="path259" />
    <path
       d="m 917.52,751.46 4.81,9 -12.07,11.83 -4.26,4.21 -2.31,-0.08 c -4.35,-2.44 1.29,-8.37 5.06,-11.66 0.74,-0.65 1.41,-1.19 1.92,-1.59 2.7,-2.11 5.23,-8.12 6.85,-11.71 z"
       transform="translate(-55.35,-18.71)"
       opacity="0.1"
       id="path261" />
    <path
       d="m 944.5,752.33 -22.17,-7.5 0.66,-6.33 c 5.78,-2 15.83,5.27 21.2,9.68 z"
       transform="translate(-55.35,-18.71)"
       opacity="0.1"
       id="path263" />
    <path
       d="m 922.33,761.5 -12.07,11.83 -4.26,4.17 c 0,0 -23.17,-0.83 -36.07,-1 -9.54,-0.13 -3.93,-5.09 2.62,-9.21 2.3,-1.45 4.71,-2.79 6.62,-3.79 7.33,-3.83 13.16,-17.5 13.16,-17.5 5.5,-7 19.34,1 19.34,1 -0.67,2.33 5.16,4.17 5.16,4.17 z"
       transform="translate(-55.35,-18.71)"
       fill="#3f3d56"
       id="path265" />
    <path
       d="M 910.26,773.33 906,777.5 c 0,0 -23.17,-0.83 -36.07,-1 -9.54,-0.13 -3.93,-5.09 2.62,-9.21 3.53,0.8 7.08,2.5 8.28,6 z"
       transform="translate(-55.35,-18.71)"
       opacity="0.1"
       id="path267" />
    <polygon
       points="868.21,714.26 868.98,706.79 887.15,706.79 887.75,714.84 888.84,729.47 889.15,733.62 866.98,726.12 867.64,719.79 "
       fill="#cf6f80"
       id="polygon269" />
    <path
       d="m 952.67,774.67 c -0.5,1.66 -24.84,3.5 -42,3.83 -14.9,0.29 -6.83,-8.46 -1.92,-12.74 0.74,-0.65 1.41,-1.19 1.92,-1.59 3.83,-3 7.33,-13.84 8.33,-14.5 1,-0.66 2.67,-9.5 2.67,-9.5 7.5,-5.34 26.16,12.16 26.16,12.16 l 0.5,15.17 c 0,0 1.28,1.45 2.46,3.09 1.18,1.64 2.12,3.27 1.88,4.08 z"
       transform="translate(-55.35,-18.71)"
       fill="#3f3d56"
       id="path271" />
    <path
       d="m 952.67,774.67 c -0.5,1.66 -24.84,3.5 -42,3.83 -14.9,0.29 -6.83,-8.46 -1.92,-12.74 a 22.1,22.1 0 0 1 9.42,7.57 h 19.16 c 0,0 9.24,-1.34 13.46,-2.74 1.1,1.55 2.12,3.27 1.88,4.08 z"
       transform="translate(-55.35,-18.71)"
       opacity="0.1"
       id="path273" />
    <path
       d="m 913.79,728 c 0.11,1.83 0.21,3 0.21,3 l -20.17,2.94 -1.5,-5.94 z"
       transform="translate(-55.35,-18.71)"
       opacity="0.1"
       id="path275" />
    <path
       d="m 943.1,733.55 c -4.93,1.37 -15.28,0.05 -19.54,-0.58 l 0.77,-7.47 h 18.17 z"
       transform="translate(-55.35,-18.71)"
       opacity="0.1"
       id="path277" />
    <path
       d="m 944.17,665.33 c 9.16,24.84 2,50.17 2,50.17 L 945,730.67 c -4.17,3.33 -23.33,0 -23.33,0 V 715 c -3,-10.17 -4,-28.5 -4,-28.5 L 916.5,669.67 A 32.8,32.8 0 0 1 909,651.33 l -0.17,-32 -1.16,1.17 -0.5,34.67 c -3.17,5.5 0.33,14 0.33,14 7.5,9.33 7.67,32.66 6.5,39.33 -1.17,6.67 0,20.5 0,20.5 l -22.83,3.33 c 0,0 -13.34,-54.16 -12.17,-59 1.17,-4.84 -0.83,-15.33 -0.83,-15.33 0,0 -4,-11 -2.67,-17 1.33,-6 -0.67,-8.33 -1,-11 -0.33,-2.67 -2.67,-12.67 -2.67,-12.67 -4.16,-18.66 -0.5,-41.33 1.54,-51.26 0.65,-3.19 1.13,-5.07 1.13,-5.07 0,0 62,-18 72.5,-3 a 21.54,21.54 0 0 1 2.84,5.91 c 5.13,16.21 -3.89,41.58 -5.51,45.26 -1.83,4.16 -5.66,19.66 -5.66,19.66 L 938.33,642 c -2.16,6.17 5.84,23.33 5.84,23.33 z"
       transform="translate(-55.35,-18.71)"
       fill="#3f3d56"
       id="path279" />
    <circle
       cx="872.81"
       cy="671.46002"
       r="0.67000002"
       fill="#b32f26"
       id="circle281" />
    <circle
       cx="839.63"
       cy="688.17999"
       r="0.67000002"
       fill="#b32f26"
       id="circle283" />
    <circle
       cx="837.31"
       cy="677.63"
       r="0.67000002"
       fill="#b32f26"
       id="circle285" />
    <circle
       cx="841.89001"
       cy="678.46002"
       r="0.67000002"
       fill="#b32f26"
       id="circle287" />
    <circle
       cx="839.92999"
       cy="684.10999"
       r="0.67000002"
       fill="#b32f26"
       id="circle289" />
    <circle
       cx="869.97998"
       cy="682.46002"
       r="0.67000002"
       fill="#b32f26"
       id="circle291" />
    <circle
       cx="883.97998"
       cy="686.28998"
       r="0.67000002"
       fill="#b32f26"
       id="circle293" />
    <circle
       cx="888.47998"
       cy="681.78998"
       r="0.67000002"
       fill="#b32f26"
       id="circle295" />
    <circle
       cx="874.15002"
       cy="679.13"
       r="0.67000002"
       fill="#b32f26"
       id="circle297" />
    <circle
       cx="846.96002"
       cy="674.56"
       r="0.67000002"
       fill="#b32f26"
       id="circle299" />
    <circle
       cx="852.52002"
       cy="678.46002"
       r="0.67000002"
       fill="#b32f26"
       id="circle301" />
    <circle
       cx="842.96002"
       cy="695.38"
       r="0.67000002"
       fill="#b32f26"
       id="circle303" />
    <circle
       cx="845.26001"
       cy="703.46002"
       r="0.67000002"
       fill="#b32f26"
       id="circle305" />
    <circle
       cx="852.81"
       cy="706.28003"
       r="0.67000002"
       fill="#b32f26"
       id="circle307" />
    <circle
       cx="848.28998"
       cy="706.78998"
       r="0.67000002"
       fill="#b32f26"
       id="circle309" />
    <circle
       cx="844.28998"
       cy="710.59998"
       r="0.67000002"
       fill="#b32f26"
       id="circle311" />
    <circle
       cx="847.63"
       cy="683.44"
       r="0.67000002"
       fill="#b32f26"
       id="circle313" />
    <circle
       cx="847.63"
       cy="691.63"
       r="0.67000002"
       fill="#b32f26"
       id="circle315" />
    <circle
       cx="851.85999"
       cy="697.02002"
       r="0.67000002"
       fill="#b32f26"
       id="circle317" />
    <circle
       cx="848.02002"
       cy="699.45001"
       r="0.67000002"
       fill="#b32f26"
       id="circle319" />
    <circle
       cx="840.28998"
       cy="710.59998"
       r="0.67000002"
       fill="#b32f26"
       id="circle321" />
    <circle
       cx="852.15002"
       cy="700.85999"
       r="0.67000002"
       fill="#b32f26"
       id="circle323" />
    <circle
       cx="883.97998"
       cy="676.96002"
       r="0.67000002"
       fill="#b32f26"
       id="circle325" />
    <circle
       cx="877.40002"
       cy="686.28998"
       r="0.67000002"
       fill="#b32f26"
       id="circle327" />
    <circle
       cx="872.81"
       cy="700.12"
       r="0.67000002"
       fill="#b32f26"
       id="circle329" />
    <circle
       cx="871.31"
       cy="709.28998"
       r="0.67000002"
       fill="#b32f26"
       id="circle331" />
    <circle
       cx="879.15002"
       cy="680.46002"
       r="0.67000002"
       fill="#b32f26"
       id="circle333" />
    <circle
       cx="876.72998"
       cy="690.28998"
       r="0.67000002"
       fill="#b32f26"
       id="circle335" />
    <circle
       cx="878.72998"
       cy="697.69"
       r="0.67000002"
       fill="#b32f26"
       id="circle337" />
    <circle
       cx="868.22998"
       cy="705.21997"
       r="0.67000002"
       fill="#b32f26"
       id="circle339" />
    <circle
       cx="874.15002"
       cy="702.78998"
       r="0.67000002"
       fill="#b32f26"
       id="circle341" />
    <circle
       cx="872.15002"
       cy="704.78998"
       r="0.67000002"
       fill="#b32f26"
       id="circle343" />
    <circle
       cx="883.97998"
       cy="701.88"
       r="0.67000002"
       fill="#b32f26"
       id="circle345" />
    <circle
       cx="883.97998"
       cy="704.13"
       r="0.67000002"
       fill="#b32f26"
       id="circle347" />
    <circle
       cx="877.40002"
       cy="709.28998"
       r="0.67000002"
       fill="#b32f26"
       id="circle349" />
    <circle
       cx="875.47998"
       cy="711.27002"
       r="0.67000002"
       fill="#b32f26"
       id="circle351" />
    <circle
       cx="880.06"
       cy="705.21997"
       r="0.67000002"
       fill="#b32f26"
       id="circle353" />
    <circle
       cx="874.81"
       cy="708.63"
       r="0.67000002"
       fill="#b32f26"
       id="circle355" />
    <circle
       cx="886.46002"
       cy="700.12"
       r="0.67000002"
       fill="#b32f26"
       id="circle357" />
    <circle
       cx="887.81"
       cy="704.13"
       r="0.67000002"
       fill="#b32f26"
       id="circle359" />
    <circle
       cx="878.06"
       cy="702.78998"
       r="0.67000002"
       fill="#b32f26"
       id="circle361" />
    <circle
       cx="880.06"
       cy="709.59998"
       r="0.67000002"
       fill="#b32f26"
       id="circle363" />
    <circle
       cx="883.97998"
       cy="708.63"
       r="0.67000002"
       fill="#b32f26"
       id="circle365" />
    <circle
       cx="883.31"
       cy="711.27002"
       r="0.67000002"
       fill="#b32f26"
       id="circle367" />
    <circle
       cx="880.06"
       cy="711.94"
       r="0.67000002"
       fill="#b32f26"
       id="circle369" />
    <circle
       cx="883.31"
       cy="694.97998"
       r="0.67000002"
       fill="#b32f26"
       id="circle371" />
    <circle
       cx="837.38"
       cy="700.19"
       r="0.67000002"
       fill="#b32f26"
       id="circle373" />
    <circle
       cx="837.38"
       cy="702.44"
       r="0.67000002"
       fill="#b32f26"
       id="circle375" />
    <circle
       cx="839.85999"
       cy="698.44"
       r="0.67000002"
       fill="#b32f26"
       id="circle377" />
    <circle
       cx="841.88"
       cy="706.28003"
       r="0.67000002"
       fill="#b32f26"
       id="circle379" />
    <circle
       cx="841.21002"
       cy="702.44"
       r="0.67000002"
       fill="#b32f26"
       id="circle381" />
    <circle
       cx="837.38"
       cy="706.94"
       r="0.67000002"
       fill="#b32f26"
       id="circle383" />
    <circle
       cx="836.71002"
       cy="693.29999"
       r="0.67000002"
       fill="#b32f26"
       id="circle385" />
    <polygon
       points="855.32,540.79 850.48,543.63 852.15,594.63 853.98,593.29 "
       opacity="0.1"
       id="polygon387" />
    <path
       d="m 877.67,493.67 c 0,0 -11.5,-10.84 -14,-5 -2.5,5.84 -7.84,15.33 -7.84,15.33 l 12.67,12 c 0,0 2.17,-4.17 3.83,-4.17 a 54.81,54.81 0 0 0 6.5,-1 z"
       transform="translate(-55.35,-18.71)"
       fill="#cf6f80"
       id="path389" />
    <polygon
       points="809.98,468.46 811.48,452.62 812.25,426.2 812.48,418.29 830.15,429.96 822.48,487.62 819.6,483.21 "
       fill="#cf6f80"
       id="polygon391" />
    <path
       d="m 936.17,372 a 55.35,55.35 0 0 0 -2.6,12.23 30.93,30.93 0 0 1 -23.32,10.58 31.28,31.28 0 0 1 -7,-0.8 48.24,48.24 0 0 0 0.1,-8.34 c 0,0 41.82,-41.84 32.82,-13.67 z"
       transform="translate(-55.35,-18.71)"
       opacity="0.1"
       id="path393" />
    <path
       d="m 941.25,361.81 a 30.88,30.88 0 0 1 -7.42,20.13 31.23,31.23 0 0 1 -10.43,7.95 31,31 0 0 1 -44.15,-28.08 31.62,31.62 0 0 1 0.37,-4.8 31,31 0 0 1 61.63,4.8 z"
       transform="translate(-55.35,-18.71)"
       fill="#cf6f80"
       id="path395" />
    <path
       d="m 876.5,452.83 c -3.67,-3.12 -7.78,-5.91 -8.9,-7.92 l 0.23,-7.91 17.67,11.67 -7.67,57.66 -2.83,-4.41 c 0.16,-3 0.52,-5.84 1.22,-7.25 2,-4 0.5,-10.17 0.5,-12.17 0,-2 2.83,-5.17 2.66,-6.5 a 79.16,79.16 0 0 0 -1,-8.33 c -0.71,-3.17 2.62,-11 -1.88,-14.84 z"
       transform="translate(-55.35,-18.71)"
       opacity="0.1"
       id="path397" />
    <path
       d="M 949.84,563.91 V 564 c 0,0 -21.84,-3.5 -38.84,2.5 -13.94,4.92 -31.7,1.1 -37.63,-0.43 0.65,-3.19 1.13,-5.07 1.13,-5.07 0,0 62,-18 72.5,-3 a 21.54,21.54 0 0 1 2.84,5.91 z"
       transform="translate(-55.35,-18.71)"
       opacity="0.1"
       id="path399" />
    <path
       d="m 943.5,403.17 -7.17,16 -20.5,12 c 0,0 -22.5,-2.17 -23.16,-2.5 -0.66,-0.33 -1.72,-19.44 4.1,-23.46 -1.64,4.62 -3.43,14 8.73,14.79 a 50.46,50.46 0 0 0 32.93,-19.59 11.5,11.5 0 0 0 5.07,2.76 z"
       transform="translate(-55.35,-18.71)"
       opacity="0.1"
       id="path401" />
    <path
       d="m 970.17,435.17 -0.34,7.5 -20,119.33 c 0,0 -21.83,-3.5 -38.83,2.5 -17,6 -39.67,-1 -39.67,-1 0,0 3.17,-9 1.84,-12.33 -1.33,-3.33 -0.34,-13.67 -0.34,-13.67 0,0 1,-4.5 -0.16,-8 -1.16,-3.5 2.33,-17.67 2.33,-17.67 0,0 -0.83,-15.16 1.17,-19.16 2,-4 0.5,-10.17 0.5,-12.17 0,-2 2.83,-5.17 2.66,-6.5 a 79.16,79.16 0 0 0 -1,-8.33 c -0.66,-3.17 2.67,-11 -1.83,-14.84 -4.5,-3.84 -9.67,-7.16 -9.17,-9.16 0.5,-2 -5.16,-1.5 -5.16,-1.5 a 12.39,12.39 0 0 1 1.33,-6.84 c 1.83,-3.66 1,-10.83 1,-10.83 0,0 4,-0.17 3.5,-5.17 a 29.21,29.21 0 0 1 0.17,-8.16 c 0,0 1.66,1.5 6.5,1.33 4.84,-0.17 10.16,1.17 11.66,-0.33 1.5,-1.5 8.17,-6.67 11.5,-5.5 v 0 c -0.26,0.51 -8.23,16.34 7.68,17.32 a 50.45,50.45 0 0 0 33.84,-20.84 c 0,0 1.83,-2 7.83,4.51 6,6.51 11.16,4 11.16,4 l 6.67,0.5 c 0,0 -4.33,3.66 -1.67,6.16 a 17.3,17.3 0 0 1 1.57,1.75 c 2.67,3.31 6.18,8.85 8.1,10.09 2.32,1.51 -2.84,7.01 -2.84,7.01 z"
       transform="translate(-55.35,-18.71)"
       fill="#b32f26"
       id="path403" />
    <path
       d="m 864.17,496 c 0,0 -24.5,12 -20.17,23.33 4.33,11.33 10.5,9.84 14.17,8.5 C 861.84,526.49 868.5,516 868.5,516 Z"
       transform="translate(-55.35,-18.71)"
       fill="#cf6f80"
       id="path405" />
    <path
       d="m 933.25,428.93 c 0,1.07 -6.25,14.57 0,18.07 6.25,3.5 0,-18.07 0,-18.07 z"
       transform="translate(-55.35,-18.71)"
       opacity="0.1"
       id="path407" />
    <path
       d="m 884,424.25 c 0,0 -8.83,9.5 -5.17,10.5 3.66,1 5.17,-10.5 5.17,-10.5 z"
       transform="translate(-55.35,-18.71)"
       opacity="0.1"
       id="path409" />
    <path
       d="m 943.5,442.83 c 0,0 3.83,23.67 4,30.67 0.17,7 1.17,18.33 1.17,18.33 0,0 2.83,27 -1.5,38 -4.33,11 -3.67,23 -3.67,23 0,0 -12.67,24.67 -14.5,27.17 -1.83,2.5 1.5,26.17 14.83,16.17 13.33,-10 11.67,-31.84 11.67,-31.84 l 4.67,-15 6.5,-19.16 c 0,0 1.83,-11.67 2.5,-14 0.67,-2.33 0,-15 0,-15 0,0 7.83,-64.17 -2.67,-70.84 -10.5,-6.67 -23,12.5 -23,12.5 z"
       transform="translate(-55.35,-18.71)"
       fill="#cf6f80"
       id="path411" />
    <path
       d="m 943.5,451 c 0,0 15.67,-17.17 20.5,-15.67 4.83,1.5 6.17,0.84 6.17,0.84 0,0 0.66,-9.5 -6.5,-13 -7.16,-3.5 -15,-14.17 -21,-1.5 -6,12.67 0.83,29.33 0.83,29.33 z"
       transform="translate(-55.35,-18.71)"
       opacity="0.1"
       id="path413" />
    <path
       d="m 943.5,450 c 0,0 15.67,-17.17 20.5,-15.67 4.83,1.5 6.17,0.84 6.17,0.84 0,0 0.66,-9.5 -6.5,-13 -7.16,-3.5 -15,-14.17 -21,-1.5 -6,12.67 0.83,29.33 0.83,29.33 z"
       transform="translate(-55.35,-18.71)"
       fill="#b32f26"
       id="path415" />
    <path
       d="m 964.9,418.08 a 31.7,31.7 0 0 1 -3.63,2.71 27,27 0 0 1 -10.49,4 23.43,23.43 0 0 1 -9.46,-0.53 22.91,22.91 0 0 1 -7.64,-3.55 19.42,19.42 0 0 1 -5.79,-6.43 c -0.2,-0.36 -0.38,-0.72 -0.55,-1.08 -3.36,-7.08 -2.46,-15.51 -3.94,-23.32 -0.11,-0.55 -0.23,-1.11 -0.36,-1.66 a 27.19,27.19 0 0 0 -7.7,-13.67 c -5.35,-5.17 -12.56,-8.31 -20,-12.21 -4.33,-2.28 -8,-4.09 -12.92,-4.73 a 16.77,16.77 0 0 1 -2.83,-0.61 31,31 0 1 1 54.21,24.93 c -0.12,0.79 -0.2,1.56 -0.26,2.29 -0.7,8.86 2.07,13.64 4.86,16.18 0.3,0.28 0.61,0.52 0.91,0.75 0,0 1.83,-2 7.83,4.51 6,6.51 11.16,4 11.16,4 l 6.67,0.5 c 0,0 -4.33,3.66 -1.67,6.16 a 17.3,17.3 0 0 1 1.6,1.76 z"
       transform="translate(-55.35,-18.71)"
       opacity="0.1"
       id="path417" />
    <path
       d="m 876,344.25 c 2.23,-2.65 5.55,-4.07 8.66,-5.6 3.11,-1.53 6.3,-3.42 7.8,-6.54 2.62,-5.42 -0.5,-13.15 4,-17.21 2.15,-1.95 5.31,-2.19 8.21,-2.19 a 44.36,44.36 0 0 1 14,1.86 c 6.9,2.29 12.66,7 18.8,10.93 6.14,3.93 13.37,7.09 20.51,5.69 4.17,-0.81 8.62,-3.12 12.38,-1.13 2.26,1.2 3.55,3.71 4.12,6.21 a 17,17 0 0 1 -0.44,9.06 c -1.63,4.91 -5.44,8.86 -7.12,13.75 -0.62,1.81 -0.91,3.93 0.09,5.56 1.17,1.89 3.66,2.49 5.88,2.41 2.22,-0.08 4.42,-0.67 6.63,-0.42 6.34,0.72 10,7.95 10,14.33 0,6.38 -2.21,12.6 -2.28,19 -0.09,8.75 4.07,17.16 10,23.59 a 47.35,47.35 0 0 0 24.8,14.13 18.71,18.71 0 0 1 -17.19,0.51 c -12.87,-6.33 -14.84,-25.15 -27,-32.68 a 4.14,4.14 0 0 0 -2.38,-0.81 c -1.59,0.1 -2.59,1.7 -3.41,3.06 -4.59,7.67 -12.29,13.73 -21.13,15.06 -8.84,1.33 -18.58,-2.67 -22.89,-10.51 -4.31,-7.84 -2.76,-17.41 -4.85,-26.06 -3.63,-15 -15.37,-19.4 -27.67,-25.88 -4.33,-2.28 -8,-4.09 -12.92,-4.73 -6.27,-0.81 -12.11,-4.87 -6.6,-11.39 z"
       transform="translate(-55.35,-18.71)"
       fill="#512e4e"
       id="path419" />
    <g
       opacity="0.1"
       id="g427">
      <path
         d="m 894.07,329.35 c 2.36,-4.88 0.08,-11.63 2.86,-15.89 a 6.61,6.61 0 0 0 -0.91,0.69 c -4.45,4.05 -1.33,11.78 -3.95,17.2 A 9.44,9.44 0 0 1 891,333 a 10.62,10.62 0 0 0 3.07,-3.65 z"
         transform="translate(-55.35,-18.71)"
         id="path421" />
      <path
         d="m 1006.4,435.42 c -12.88,-6.33 -14.85,-25.15 -27.06,-32.69 a 4.19,4.19 0 0 0 -2.38,-0.81 c -1.28,0.08 -2.17,1.13 -2.9,2.25 a 2.51,2.51 0 0 1 0.9,-0.25 4.19,4.19 0 0 1 2.38,0.81 c 12.21,7.54 14.18,26.36 27.06,32.69 a 18.72,18.72 0 0 0 17.18,-0.51 c -0.59,-0.13 -1.19,-0.27 -1.78,-0.42 a 18.76,18.76 0 0 1 -13.4,-1.07 z"
         transform="translate(-55.35,-18.71)"
         id="path423" />
      <path
         d="m 952.42,420.05 c -8.83,1.33 -18.58,-2.68 -22.88,-10.51 -4.3,-7.83 -2.76,-17.42 -4.85,-26.06 -3.64,-15 -15.38,-19.4 -27.68,-25.88 -4.32,-2.29 -8,-4.09 -12.91,-4.73 -6,-0.79 -11.77,-4.73 -6.74,-11.07 a 12.15,12.15 0 0 0 -1.75,1.69 c -5.48,6.52 0.36,10.58 6.49,11.38 4.91,0.64 8.59,2.44 12.91,4.73 12.3,6.48 24,10.84 27.68,25.88 2.09,8.64 0.56,18.27 4.85,26.06 4.29,7.79 14.05,11.84 22.88,10.51 a 29.38,29.38 0 0 0 16.92,-9.42 28.7,28.7 0 0 1 -14.92,7.42 z"
         transform="translate(-55.35,-18.71)"
         id="path425" />
    </g>
    <path
       d="m 241.1,797 c -6.18,-0.71 -14.91,-6.78 -20.38,-11 2.72,-1.59 4.52,-2.69 4.52,-2.69 0,0 -13,-13.07 -11.43,-21.62 1.57,-8.55 -3.12,-47.51 -3.12,-47.51 0,0 -7.28,-5.53 -3.38,-19.61 3.9,-14.08 3.9,-17.6 3.9,-17.6 0,0 -2.34,-17.85 -0.78,-22.12 1.56,-4.27 1.57,-13.63 1.57,-13.63 l 3.11,-32.29 1.68,-12.08 c 2.83,9.26 7.57,15.38 15,10.18 17.16,-12.07 4.42,-51.54 4.42,-51.54 0,0 -2.21,-8.49 -3.76,-15.59 l 0.85,-2.26 c 0,0 -0.52,-8.79 3.9,-11.81 4.42,-3.02 0,-68.13 0,-68.13 l -1.47,-39.48 v 0 -1.17 A 36.58,36.58 0 0 0 216.8,386.3 l -1.06,-0.55 c -0.06,-0.36 -0.12,-0.72 -0.18,-1.1 -0.84,-5.12 -1.78,-11.28 -2.4,-17.38 -0.07,-0.66 -0.13,-1.31 -0.19,-2 C 230.8,360.8 244,345.09 244,326.38 a 38.88,38.88 0 0 0 -1.46,-10.57 c -0.07,-0.26 -0.15,-0.52 -0.23,-0.77 2.38,-2.38 4.33,-3.07 4.51,-1.52 0.26,2.26 2.21,-0.63 2.34,-2.89 0.13,-2.26 0.65,-0.63 2,-0.63 1.35,0 1.56,-2.39 -0.52,-3.64 -2.08,-1.25 0.39,-2.64 1,-2.89 0.61,-0.25 0.65,-2.64 0,-2.64 a 0.65,0.65 0 0 1 -0.23,-0.07 h -0.07 a 3.53,3.53 0 0 1 -0.33,-0.17 v 0 l -0.41,-0.26 -0.11,-0.07 -0.45,-0.32 v 0 c -1.19,-0.85 -2.56,-2 -2.56,-2 l 0.65,-0.5 c 0.65,-0.5 -0.78,-1.76 -2,-1.88 h -0.25 v 0 c -1.22,-0.19 -3.17,-0.89 -1.93,-1.47 0.28,-0.13 0.4,-0.28 0.42,-0.44 v 0 a 0.6,0.6 0 0 0 -0.22,-0.46 v 0 a 2.63,2.63 0 0 0 -0.6,-0.42 v 0 l -0.37,-0.17 v 0 l -0.36,-0.12 v 0 a 2.7,2.7 0 0 0 -0.39,-0.08 h -0.08 -0.36 -0.29 a 28.22,28.22 0 0 1 -4.91,-1.74 v -2.64 L 234.6,287 v 0 l -1.82,-0.8 0.65,-2.43 h -5.72 l 0.78,-2.14 -2.63,-0.51 -0.62,-0.12 v -1 l -3.51,-1.38 v -1.51 h -4.22 l 1.62,-1.26 h -3.25 c -8.49,-5.82 -32.4,-5.4 -41.93,-2.22 -9.53,3.18 -12.31,5.53 -25.3,32.85 -8.31,17.46 2.3,34.39 11.62,43.84 v 0 c 0.31,0.32 0.62,0.62 0.93,0.92 l 0.13,0.13 0.83,0.79 0.08,0.07 0.89,0.81 0.1,0.08 0.78,0.68 0.11,0.09 0.84,0.69 v 0 l 0.76,0.59 0.13,0.1 c 0.51,0.39 1,0.73 1.45,1 l 0.14,0.09 0.6,0.39 h 0.05 c 0.2,0.13 0.4,0.24 0.59,0.35 l 0.12,0.07 0.45,0.24 h 0.1 l 0.47,0.21 h 0.08 l 0.33,0.12 h 0.09 a 2.46,2.46 0 0 0 0.33,0.07 H 171 a 0.49,0.49 0 0 0 0.18,-0.08 12.47,12.47 0 0 1 3.86,-1.24 l 1,0.8 c 0.48,0.39 1,0.76 1.48,1.12 0.12,0.73 0.22,1.47 0.31,2.24 a 40.25,40.25 0 0 1 -0.94,14.64 c -0.1,0.37 -0.21,0.74 -0.32,1.11 a 19.68,19.68 0 0 0 -10.8,8.23 c -11.18,17.35 -16.12,27.66 -16.12,27.66 0,0 -1.65,11.71 -4.47,14.49 -2.82,2.78 5.2,52.54 5.2,52.54 0,0 -9.62,19.1 -1,22.5 8.62,3.4 -0.78,6.16 -0.78,6.16 0,0 2.6,5.78 -2.34,6.28 -4.94,0.5 -7.8,9.31 -7.8,9.31 l -15.33,16.59 3.86,1.32 c -0.33,0.52 -0.67,1.06 -1,1.67 -5.12,8.56 -12.86,26 -7.77,47 7.28,30.17 9.36,36.7 9.1,42 -0.26,5.3 8.31,26.15 6.23,30.92 -2.08,4.77 -3.24,21.37 0.33,25.65 3.57,4.28 -1.36,6.78 -1.36,6.78 0,0 5.32,6.29 2.66,10.56 -2.66,4.27 3.31,57.07 3.31,57.07 0,0 9.62,13.58 9.1,17.85 -0.52,4.27 -4.94,6.54 -1,8.3 3.94,1.76 2.34,4.27 2.34,4.27 l 1,0.08 c -0.89,0.8 -1.74,1.64 -2.52,2.49 a 23.58,23.58 0 0 0 -2.13,2.68 12.44,12.44 0 0 0 -0.88,1.56 c -3.5,7.7 5.82,13.58 5.82,13.58 v 0 h 1 0.24 0.36 0.51 0.23 0.84 v 0 c 9.05,0.36 34.63,1 46.69,-2 l 0.22,0.14 c 0,0 45.75,2.46 54.84,-3.83 9.09,-6.29 -4.43,-10.15 -14.05,-11.25 z m -46.85,2.21 -0.33,-0.05 -0.52,-0.09 h -0.37 l -0.58,-0.09 h -0.16 -0.08 c -0.43,-0.06 -0.86,-0.12 -1.28,-0.16 A 20.92,20.92 0 0 1 185.01,797 c -1.32,-0.59 -2.66,-1.3 -4,-2.06 l 2.64,-0.06 c 0.69,0 1.37,0 2,-0.07 l 1.19,-0.06 v 0 c 3,0 7.3,0.4 8.43,2.43 a 10.43,10.43 0 0 0 -1.02,2.02 z"
       transform="translate(-55.35,-18.71)"
       fill="url(#05d1d1fb-9375-46f7-a562-a16a81ed75db)"
       id="path429"
       style="fill:url(#05d1d1fb-9375-46f7-a562-a16a81ed75db)" />
    <path
       d="m 219,398.75 c -0.75,0 -59.75,11.25 -45,-8.75 a 35.87,35.87 0 0 0 6,-12.54 41.33,41.33 0 0 0 0.9,-14.56 A 51.35,51.35 0 0 0 176,346 c 0,0 48.75,-10.75 41,-2.5 -3.38,3.6 -3.29,14.59 -2.17,25.82 0.6,6.07 1.5,12.2 2.31,17.29 1.14,7.09 2.1,12.14 1.86,12.14 z"
       transform="translate(-55.35,-18.71)"
       fill="#ffccd0"
       id="path431" />
    <path
       d="m 169,783.22 c 0,0 15.25,14.06 24.5,15.16 9.25,1.1 22.25,5.09 13.5,11.34 -8.75,6.25 -52.75,3.81 -52.75,3.81 0,0 -10.19,-6.66 -4.75,-15.06 5.44,-8.4 19.5,-15.25 19.5,-15.25 z"
       transform="translate(-55.35,-18.71)"
       fill="#3f3d56"
       id="path433" />
    <path
       d="m 207,809.72 a 16.22,16.22 0 0 1 -5.48,2.13 c -14.65,3.49 -47.27,1.68 -47.27,1.68 0,0 -10.19,-6.66 -4.75,-15.06 5.44,-8.4 19.5,-15.25 19.5,-15.25 0,0 15.25,14.06 24.5,15.16 l 1.31,0.17 c 9.1,1.3 20.53,5.21 12.19,11.17 z"
       transform="translate(-55.35,-18.71)"
       opacity="0.1"
       id="path435" />
    <path
       d="m 207,809.72 a 16.22,16.22 0 0 1 -5.48,2.13 l -1,-0.05 c 0,0 -8.77,-5.72 -5.69,-13.25 9.08,1.3 20.51,5.21 12.17,11.17 z"
       transform="translate(-55.35,-18.71)"
       opacity="0.1"
       id="path437" />
    <path
       d="m 217.25,781.5 c 0,0 15.25,14 24.5,15.15 9.25,1.15 22.25,5.1 13.5,11.35 -8.75,6.25 -52.75,3.8 -52.75,3.8 0,0 -10.19,-6.65 -4.75,-15 5.44,-8.35 19.5,-15.3 19.5,-15.3 z"
       transform="translate(-55.35,-18.71)"
       fill="#3f3d56"
       id="path439" />
    <path
       d="m 217.25,781.5 c 0,0 15.25,14 24.5,15.15 9.25,1.15 22.25,5.1 13.5,11.35 -8.75,6.25 -52.75,3.8 -52.75,3.8 0,0 -10.19,-6.65 -4.75,-15 5.44,-8.35 19.5,-15.3 19.5,-15.3 z"
       transform="translate(-55.35,-18.71)"
       opacity="0.1"
       id="path441" />
    <path
       d="m 202.25,791.75 c -2,1.47 -6.8,2.24 -12.61,2.58 h -0.09 l -1.09,0.06 c -0.64,0 -1.3,0.06 -2,0.07 -14.63,0.47 -33.5,-1.21 -33.5,-1.21 0,0 1.5,-2.5 -2.25,-4.25 -3.75,-1.75 0.5,-4 1,-8.25 C 152.21,776.5 143,763 143,763 c 0,0 -5.75,-52.5 -3.19,-56.75 2.56,-4.25 -2.56,-10.5 -2.56,-10.5 0,0 4.75,-2.5 1.31,-6.75 -3.44,-4.25 -2.31,-20.75 -0.31,-25.5 2,-4.75 -6.25,-25.5 -6,-30.75 C 132.5,627.5 130.5,621 123.5,591 c -4.89,-21 2.55,-38.26 7.47,-46.78 a 47.34,47.34 0 0 1 3.78,-5.72 h 47.75 l 1.21,11.24 0.06,0.62 c 0.4,3.79 0.89,8.38 1.44,13.65 6.67,63.42 22.85,223.53 17.04,227.74 z"
       transform="translate(-55.35,-18.71)"
       fill="#3f3d56"
       id="path443" />
    <path
       d="m 202.25,791.75 c -2.17,1.57 -7.45,2.34 -13.79,2.64 a 33.69,33.69 0 0 0 -5,0.07 c 0,0 -0.75,-1.71 -9.75,-8 -9,-6.29 0,-20.5 0,-20.5 l -9.36,-38.25 c 0,0 -2.35,-10.21 -0.35,-16.21 2,-6 -4.31,-7.5 -4.31,-7.5 0,0 6.31,-4 0,-9.25 -6.31,-5.25 -7.19,-24.5 -7.19,-24.5 0,0 -9,-12 -5,-16 4,-4 -2.5,-13.5 -2.5,-13.5 0,0 -9.5,-15 -8.5,-20 1,-5 14.5,-3.25 10.5,-19.25 -4,-16 20.65,6 20.65,6 l 16.12,-57.14 c 5.23,49.44 24.77,236.83 18.48,241.39 z"
       transform="translate(-55.35,-18.71)"
       opacity="0.1"
       id="path445" />
    <path
       d="m 226.5,783 c 0,0 -27,17 -28.75,13.75 -1.09,-2 -5.18,-2.41 -8.11,-2.42 h -0.09 c -1.74,0 -3.05,0.13 -3.05,0.13 0,0 -0.75,-1.71 -9.75,-8 -9,-6.29 0,-20.5 0,-20.5 l -9.36,-38.25 c 0,0 -2.39,-10.21 -0.39,-16.21 2,-6 -4.31,-7.5 -4.31,-7.5 0,0 6.31,-4 0,-9.25 -6.31,-5.25 -7.19,-24.5 -7.19,-24.5 0,0 -9,-12 -5,-16 4,-4 -2.5,-13.5 -2.5,-13.5 0,0 -9.5,-15 -8.5,-20 1,-5 0,-4 -4,-20 -3,-12.06 4.76,-39.17 8.78,-51.79 1.31,-4.13 2.22,-6.71 2.22,-6.71 l 37.21,7.49 37.29,7.51 1,13.25 -0.28,2.1 -5,37 -3,32.11 c 0,0 0,9.25 -1.5,13.5 -1.5,4.25 0.75,22 0.75,22 0,0 0,3.5 -3.75,17.5 -3.75,14 3.25,19.5 3.25,19.5 0,0 4.5,38.75 3,47.25 -1.5,8.5 11.03,21.54 11.03,21.54 z"
       transform="translate(-55.35,-18.71)"
       fill="#3f3d56"
       id="path447" />
    <path
       d="m 171.63,690 c 3.75,0.63 23.12,1 18,3.38 -5.12,2.38 -18,-3.38 -18,-3.38 z"
       transform="translate(-55.35,-18.71)"
       opacity="0.1"
       id="path449" />
    <path
       d="m 169.5,702.63 c 1.5,-0.13 8.38,-3.13 10.25,-2.88 1.87,0.25 4.38,-0.53 6.63,0 2.25,0.53 6.46,2 4.1,2.89 -2.36,0.89 -7.3,0.12 -10.14,1 -2.84,0.88 -10.84,-1.01 -10.84,-1.01 z"
       transform="translate(-55.35,-18.71)"
       opacity="0.1"
       id="path451" />
    <path
       d="m 149,697.38 c 1,-0.13 8.75,-2.13 8.13,0 -0.62,2.13 -8.13,0 -8.13,0 z"
       transform="translate(-55.35,-18.71)"
       opacity="0.1"
       id="path453" />
    <path
       d="m 136.63,634.63 c 0.75,1 5.12,11 7.25,11 2.13,0 -7.25,-11 -7.25,-11 z"
       transform="translate(-55.35,-18.71)"
       opacity="0.1"
       id="path455" />
    <path
       d="m 217,343.5 c -3.38,3.6 -3.29,14.59 -2.17,25.82 a 40.09,40.09 0 0 1 -10.29,1.34 c -8.87,0 -9.57,-11.19 -16.2,-16.06 C 187.29,344.85 176,346 176,346 c 0,0 48.75,-10.75 41,-2.5 z"
       transform="translate(-55.35,-18.71)"
       opacity="0.1"
       id="path457" />
    <path
       d="m 244.54,328.66 a 40,40 0 1 1 -1.4,-10.51 40,40 0 0 1 1.4,10.51 z"
       transform="translate(-55.35,-18.71)"
       fill="#ffccd0"
       id="path459" />
    <path
       d="m 219,398.75 c -0.75,0 -59.75,11.25 -45,-8.75 a 35.87,35.87 0 0 0 6,-12.54 c 11.93,-3.81 26.55,2.54 26.55,2.54 l 6.75,5 a 23.22,23.22 0 0 1 3.89,1.61 c 1.09,7.09 2.05,12.14 1.81,12.14 z"
       transform="translate(-55.35,-18.71)"
       opacity="0.1"
       id="path461" />
    <path
       d="m 222,570.5 -0.28,2.1 c -1.59,0.54 -8.9,2.57 -26.38,-4.6 -2.81,-1.15 -6.28,-2.51 -10.13,-4 -12.41,-4.75 -28.89,-10.73 -40.93,-15 -5.77,-2.07 -10.52,-3.76 -13.31,-4.74 a 47.34,47.34 0 0 1 3.78,-5.72 h 47.75 l 1.21,11.24 37.29,7.47 z"
       transform="translate(-55.35,-18.71)"
       opacity="0.1"
       id="path463" />
    <path
       d="m 206.5,381 c 0,0 -26.5,-11.5 -37.25,5.75 -10.75,17.25 -15.5,27.5 -15.5,27.5 0,0 -1.5,11.5 -4.25,14.25 -2.75,2.75 5,52.25 5,52.25 0,0 -9.25,19 -1,22.37 8.25,3.37 -0.75,6.13 -0.75,6.13 0,0 2.5,5.75 -2.25,6.25 -4.75,0.5 -7.5,9.25 -7.5,9.25 l -14.75,16.5 c 0,0 48.17,17 67.09,24.75 18.92,7.75 25.91,4.75 26.66,4.5 0.75,-0.25 12.25,-31.75 12.25,-31.75 0,0 -0.5,-8.75 3.75,-11.75 4.25,-3 0,-67.75 0,-67.75 l -1.46,-40.43 A 36.55,36.55 0 0 0 218.33,388.25 25.32,25.32 0 0 0 213.25,386 Z"
       transform="translate(-55.35,-18.71)"
       fill="#b32f26"
       id="path465" />
    <path
       d="m 232.75,450 5.25,9.25 c 0,0 -42,12 -43.65,0.5 -0.25,-1.68 16.4,-15 16.4,-15 z"
       transform="translate(-55.35,-18.71)"
       fill="#b32f26"
       id="path467" />
    <path
       d="m 232.75,450 5.25,9.25 c 0,0 -42,12 -43.65,0.5 -0.25,-1.68 16.4,-15 16.4,-15 z"
       transform="translate(-55.35,-18.71)"
       opacity="0.1"
       id="path469" />
    <path
       d="m 161.25,500 c 0,0 20,-6.5 15.75,-1.25 -4.25,5.25 -15.75,1.25 -15.75,1.25 z"
       transform="translate(-55.35,-18.71)"
       opacity="0.1"
       id="path471" />
    <path
       d="m 184.07,501.46 c 0,0 10.23,12.78 12.68,8 2.45,-4.78 -12.68,-8 -12.68,-8 z"
       transform="translate(-55.35,-18.71)"
       opacity="0.1"
       id="path473" />
    <path
       d="m 243.14,318.15 a 25.88,25.88 0 0 0 -3.52,4.47 c -3.5,5.5 -6.12,5.63 -6.12,5.63 0,0 0,11.9 -1.62,13.14 -1.62,1.24 -10.88,-5.27 -11,-6.89 -0.12,-1.62 -11.43,-19.25 -16.34,3.12 l -0.92,18.13 c 0,0 -16.2,2 -24.49,3.81 a 40,40 0 1 1 64,-41.41 z"
       transform="translate(-55.35,-18.71)"
       opacity="0.1"
       id="path475" />
    <path
       d="m 217.5,278.38 h 3.13 l -1.57,1.25 h 4.07 v 1.5 l 3.37,1.37 v 1 l 3.13,0.63 -0.75,2.12 h 5.5 l -0.63,2.41 3.75,1.72 V 293 c 0,0 3.75,1.75 5,1.75 1.25,0 3.32,1.13 2,1.75 -1.32,0.62 1,1.38 2.09,1.5 1.09,0.12 2.5,1.38 1.87,1.88 l -0.62,0.5 c 0,0 3.37,2.87 4,2.87 0.63,0 0.62,2.38 0,2.63 -0.62,0.25 -3,1.62 -1,2.87 2,1.25 1.75,3.63 0.5,3.63 -1.25,0 -1.75,-1.63 -1.88,0.62 -0.13,2.25 -2,5.13 -2.25,2.88 -0.25,-2.25 -4.12,0.25 -7.62,5.75 -3.5,5.5 -6.13,5.62 -6.13,5.62 0,0 0,11.9 -1.62,13.14 -1.62,1.24 -10.88,-5.26 -11,-6.89 -0.12,-1.63 -11.43,-19.25 -16.34,3.13 l -0.91,18.12 c 0,0 -27,3.38 -29.13,5.25 -2.13,1.87 -34.17,-24 -21.67,-51.17 12.5,-27.17 15.17,-29.5 24.34,-32.66 9.17,-3.16 32.2,-3.59 40.37,2.21 z"
       transform="translate(-55.35,-18.71)"
       fill="#3f3d56"
       id="path477" />
    <path
       d="m 196.5,454.25 c 0,0 -0.25,20.25 -2,25.25 -1.75,5 12,51.75 12,51.75 0,0 11,24.65 9,32.25 -2,7.6 0.75,56.25 17.25,44.25 16.5,-12 4.25,-51.25 4.25,-51.25 0,0 -5.25,-21.86 -5.25,-24.55 0,-2.69 -5.5,-43.2 -5.5,-43.2 0,0 -4.25,-13.25 -3,-21.25 1.25,-8 1.75,-22.75 1.75,-22.75 z"
       transform="translate(-55.35,-18.71)"
       fill="#ffccd0"
       id="path479" />
    <path
       d="m 213.25,416.25 c 0,0 -20.06,6.5 -20.9,24.25 -0.84,17.75 0,19.25 0,19.25 0,0 29.9,-15 43.65,-0.5 L 234.59,420 Z"
       transform="translate(-55.35,-18.71)"
       opacity="0.1"
       id="path481" />
    <path
       d="m 215.25,416.25 c 0,0 -20.06,6.5 -20.9,24.25 -0.84,17.75 0,19.25 0,19.25 0,0 29.9,-15 43.65,-0.5 L 236.59,420 Z"
       transform="translate(-55.35,-18.71)"
       fill="#b32f26"
       id="path483" />
    <g
       opacity="0.1"
       id="g501">
      <path
         d="m 242.22,294.73 c -0.45,0.56 1.41,1.16 2.41,1.27 a 1.63,1.63 0 0 1 0.3,0.07 c 0.07,-0.61 -1.43,-1.32 -2.43,-1.32 z"
         transform="translate(-55.35,-18.71)"
         id="path485" />
      <path
         d="m 235.5,291 c 0,0 0.92,0.43 2,0.86 v -1.48 l -2,-0.92 z"
         transform="translate(-55.35,-18.71)"
         id="path487" />
      <path
         d="m 246.39,298 -0.51,0.41 c 0,0 1.15,1 2.24,1.8 l 0.38,-0.3 c 0.63,-0.5 -0.75,-1.75 -1.87,-1.88 z"
         transform="translate(-55.35,-18.71)"
         id="path489" />
      <polygon
         points="176.51,267.54 176.4,267.96 178.65,268.98 179.02,267.54 "
         id="polygon491" />
      <path
         d="m 202.54,334.63 -0.91,18.12 c 0,0 -27,3.38 -29.13,5.25 -0.66,0.59 -4.25,-1.54 -8.49,-5.57 5.06,5.31 9.72,8.25 10.49,7.57 2.13,-1.87 29.13,-5.25 29.13,-5.25 l 0.91,-18.12 c 2.87,-13.12 8,-12.49 11.68,-9.4 -3.68,-4.33 -10.22,-8.23 -13.68,7.4 z"
         transform="translate(-55.35,-18.71)"
         id="path493" />
      <path
         d="m 250.88,308.75 c -2,-1.25 0.37,-2.62 1,-2.87 0.63,-0.25 0.62,-2.63 0,-2.63 a 4.65,4.65 0 0 1 -1.54,-0.91 c 0,0.66 -0.13,1.4 -0.46,1.54 -0.63,0.25 -3,1.62 -1,2.87 2,1.25 1.75,3.63 0.5,3.63 -1.25,0 -1.75,-1.63 -1.88,0.62 -0.13,2.25 -2,5.13 -2.25,2.88 -0.25,-2.25 -4.12,0.25 -7.62,5.75 -3.5,5.5 -6.13,5.62 -6.13,5.62 0,0 0,11.9 -1.62,13.14 -1.13,0.85 -5.87,-2 -8.75,-4.34 1.47,2.18 9.26,7.47 10.75,6.34 1.49,-1.13 1.62,-13.14 1.62,-13.14 0,0 2.63,-0.12 6.13,-5.62 3.5,-5.5 7.37,-8 7.62,-5.75 0.25,2.25 2.13,-0.63 2.25,-2.88 0.12,-2.25 0.63,-0.62 1.88,-0.62 1.25,0 1.5,-2.38 -0.5,-3.63 z"
         transform="translate(-55.35,-18.71)"
         id="path495" />
      <polygon
         points="171.75,264.91 171.52,265.54 174.23,265.54 174.27,265.42 "
         id="polygon497" />
      <polygon
         points="167.77,261.23 167.77,260.92 167,260.92 "
         id="polygon499" />
    </g>
    <path
       d="M 248.66,588.06 C 248.66,588.06 331,463 428,534 525,605 548.83,650 629.92,625 711.01,600 708,550.86 772,568.93 c 64,18.07 86.17,-41.1 86.17,-41.1"
       transform="translate(-55.35,-18.71)"
       fill="none"
       stroke="#b32f26"
       stroke-miterlimit="10"
       stroke-width="4"
       id="path503" />
    <rect
       x="849.33002"
       y="502.51001"
       width="17.67"
       height="39.490002"
       rx="8.8299999"
       ry="8.8299999"
       transform="rotate(23.32,875.84228,378.81729)"
       fill="#b32f26"
       id="rect505" />
  </g>
</svg>
