<?xml version="1.0" encoding="UTF-8" standalone="no"?>
<svg
   xmlns:dc="http://purl.org/dc/elements/1.1/"
   xmlns:cc="http://creativecommons.org/ns#"
   xmlns:rdf="http://www.w3.org/1999/02/22-rdf-syntax-ns#"
   xmlns:svg="http://www.w3.org/2000/svg"
   xmlns="http://www.w3.org/2000/svg"
   xmlns:sodipodi="http://sodipodi.sourceforge.net/DTD/sodipodi-0.dtd"
   xmlns:inkscape="http://www.inkscape.org/namespaces/inkscape"
   id="f7e01b52-fe13-4534-b7fc-d479bcd2a427"
   data-name="Layer 1"
   width="250"
   height="204.23074"
   viewBox="0 0 250 204.23074"
   version="1.1"
   sodipodi:docname="for-students-illustration.svg"
   inkscape:version="1.0.1 (3bc2e813f5, 2020-09-07, custom)">
  <metadata
     id="metadata129">
    <rdf:RDF>
      <cc:Work
         rdf:about="">
        <dc:format>image/svg+xml</dc:format>
        <dc:type
           rdf:resource="http://purl.org/dc/dcmitype/StillImage" />
      </cc:Work>
    </rdf:RDF>
  </metadata>
  <defs
     id="defs127" />
  <sodipodi:namedview
     pagecolor="#ffffff"
     bordercolor="#666666"
     borderopacity="1"
     objecttolerance="10"
     gridtolerance="10"
     guidetolerance="10"
     inkscape:pageopacity="0"
     inkscape:pageshadow="2"
     inkscape:window-width="1920"
     inkscape:window-height="1058"
     id="namedview125"
     showgrid="false"
     inkscape:zoom="1.0360758"
     inkscape:cx="-147.66712"
     inkscape:cy="102.13396"
     inkscape:window-x="0"
     inkscape:window-y="22"
     inkscape:window-maximized="0"
     inkscape:current-layer="f7e01b52-fe13-4534-b7fc-d479bcd2a427" />
  <title
     id="title2">exams</title>
  <g
     id="g1014"
     transform="matrix(0.2543508,0,0,0.2543508,-3.6576425e-4,-0.00556626)">
    <path
       d="m 1067.54,514 c 0,0.61 0,1.22 0,1.82 q -0.16,15.78 -1.87,31.48 a 1.11,1.11 0 0 1 0,0.19 c -0.09,0.87 -0.19,1.73 -0.29,2.6 -0.17,1.47 -0.35,2.93 -0.55,4.4 a 316.48,316.48 0 0 1 -11.53,52.79 v 0 a 284.68,284.68 0 0 1 -30.1,66.28 q -5.92,9.5 -12.61,18.39 v 0 c -2.38,3.14 -4.81,6.21 -7.32,9.23 q -2.64,3.17 -5.38,6.24 l -1.14,1.26 a 296.69,296.69 0 0 1 -31,29.46 c -18,14.92 -37.38,27.9 -57.07,39.94 -1.12,0.69 -2.25,1.37 -3.38,2 a 1.65,1.65 0 0 1 -0.25,0.15 c -26.76,16.18 -54.51,30.78 -83.1,42.47 -31.3,12.83 -63.62,22.16 -96.78,26.24 -46.22,5.68 -93,1.06 -138.94,-6.88 a 902.93,902.93 0 0 1 -113,-27 l -6.1,-1.91 q -4.74,-1.51 -9.47,-3.08 -28.57,-9.45 -56.5,-21 A 742.68,742.68 0 0 1 267.83,717.48 q -8,-5.38 -15.77,-11 -10.86,-7.82 -21.46,-16.1 L 226.24,687 a 448.26,448.26 0 0 1 -51.82,-47.59 c -21.52,-23.42 -39.91,-49.84 -52,-80 q -2.86,-7.11 -5.24,-14.49 l -0.15,-0.49 c -0.8,-2.5 -1.54,-5 -2.22,-7.6 q -1.5,-5.58 -2.63,-11.3 c -0.16,-0.73 -0.3,-1.46 -0.43,-2.2 a 189.21,189.21 0 0 1 -3.15,-38.93 180,180 0 0 1 4,-34 v 0 a 153.38,153.38 0 0 1 11.33,-33.57 v 0 a 121,121 0 0 1 17.33,-26.73 v 0 a 102.23,102.23 0 0 1 16.33,-15.26 c 10.85,-8.08 22.88,-13.71 35.35,-18.16 v 0 c 5.86,-2.1 11.8,-3.94 17.77,-5.65 4.23,-1.22 8.48,-2.38 12.71,-3.52 l 12.48,-3.37 c 8,-2.18 16,-4.42 23.88,-6.84 21.48,-6.56 42.53,-14.5 62,-26.34 3.08,-1.87 6.22,-3.92 9.36,-6.12 4,-2.78 7.94,-5.8 11.84,-9.06 v 0 c 3.94,-3.3 7.8,-6.83 11.48,-10.57 0.57,-0.58 1.13,-1.16 1.69,-1.75 3,-3.16 5.91,-6.47 8.61,-9.91 1.32,-1.68 2.6,-3.39 3.82,-5.13 1.69,-2.41 3.29,-4.86 4.77,-7.38 v 0 c 7.42,-12.6 12,-26.5 11.46,-41.15 a 63.3,63.3 0 0 0 -0.65,-7.21 c -1.3,-8.83 -2.55,-17.45 -3.47,-25.88 -3.86,-34.87 -2.23,-66.49 23.94,-96.2 32.54,-36.93 83.61,-44.46 130.1,-41.51 134.41,8.5 256.77,85.24 364.3,176.6 q 13.95,11.84 27.56,24 3.43,3.06 6.87,6.16 c 17,15.31 33.74,31.19 49.33,48.2 1.26,1.38 2.52,2.76 3.76,4.15 0.76,0.86 1.53,1.71 2.28,2.58 q 7.29,8.25 14.15,16.9 a 320.16,320.16 0 0 1 32.32,49 278.17,278.17 0 0 1 28.38,86.67 v 0 a 308.82,308.82 0 0 1 3.43,33.17 c 0.17,3.27 0.28,6.55 0.34,9.82 0,1.05 0,2.09 0,3.14 0.1,1.52 0.1,3 0.09,4.52 z"
       transform="translate(-108.55,-48.49)"
       fill="#b32f26"
       opacity="0.1"
       id="path4" />
    <polygon
       points="406.98,444.74 393.98,448.74 377.98,733.53 393.98,733.74 "
       fill="#3f3d56"
       id="polygon6" />
    <rect
       x="136.98"
       y="593.03003"
       width="198"
       height="43"
       fill="#b32f26"
       id="rect8" />
    <path
       d="m 456.53,679.51 v 27 H 252 q -10.86,-7.82 -21.46,-16.1 v -10.9 z"
       transform="translate(-108.55,-48.49)"
       fill="#3f3d56"
       id="path10" />
    <path
       d="m 497.37,618.06 c -0.56,2.59 -1.29,5.15 -2.06,7.7 -2.27,7.37 -5,14.64 -5.53,22.3 -0.71,10.12 2,21.89 -5,29.24 -1.8,1.9 -4.15,3.32 -5.76,5.35 a 9.37,9.37 0 0 0 -0.68,1 c -1.44,2.38 -1.61,5.28 -1.63,8 a 140,140 0 0 0 1.13,17.35 c 2.37,19.8 7.05,39.64 0.9,58.33 a 89.92,89.92 0 0 1 -3.89,9.51 c -3,6.6 -6.27,13.11 -7.25,20.26 -0.72,5.3 -0.5,10.76 -0.54,16.15 q -4.74,-1.51 -9.47,-3.08 -28.57,-9.45 -56.5,-21 c 0.05,-0.27 0.1,-0.55 0.14,-0.82 1.43,-8.9 -0.53,-18 -2.91,-26.68 -5,-18.39 -12.08,-36.6 -16.27,-55.12 a 139.48,139.48 0 0 1 -3.31,-22 c -0.12,-1.66 -0.19,-3.33 -0.2,-5 -0.05,-2.18 0,-4.36 0.09,-6.56 0.21,-4.39 0.4,-9.6 -3.11,-12.27 -1.93,-1.45 -4.48,-1.7 -6.73,-2.58 -4.34,-1.69 -7.31,-5.61 -10.75,-8.75 a 14.09,14.09 0 0 0 -12.59,-3.7 c -22.48,5.15 -39,24.22 -59.92,33.86 -0.81,0.38 -1.62,0.74 -2.44,1.08 a 35.55,35.55 0 0 0 -7.67,3.92 8.74,8.74 0 0 0 -3.44,4.85 c -0.53,2.12 -0.07,4.34 0.19,6.52 a 33.29,33.29 0 0 1 -0.45,10.63 32.45,32.45 0 0 1 -1.07,4 c -0.8,2.37 -1.87,4.69 -2.89,7 q -8,-5.38 -15.77,-11 -10.86,-7.82 -21.46,-16.1 L 226.24,687 a 448.26,448.26 0 0 1 -51.82,-47.59 c 2.13,-6 5.21,-11.58 6.69,-17.73 0.84,-3.53 1.15,-7.2 2.31,-10.63 a 38.22,38.22 0 0 1 5.52,-9.9 134,134 0 0 1 30.74,-30.76 c 12.39,-8.88 26.7,-16 37.85,-26.08 A 59.73,59.73 0 0 0 269.1,530.6 c 0.19,-0.31 0.37,-0.64 0.53,-1 a 20.75,20.75 0 0 0 1.79,-5.72 c 0.8,-4.48 0.68,-9.4 1.08,-13.7 a 146.13,146.13 0 0 0 41.13,1.24 c 15.95,-1.79 31.55,-6.22 47.5,-7.94 1.2,-0.14 2.41,-0.25 3.62,-0.35 5.11,-0.41 10.23,-0.5 15.36,-0.44 4.29,0 8.58,0.19 12.87,0.33 l 47.23,1.6 c 5.23,0.18 10.57,0.38 15.44,2.29 5.78,2.27 10.41,6.79 14.12,11.76 0.47,0.64 0.94,1.28 1.38,1.94 a 61,61 0 0 1 7.28,14.39 c 0.19,0.52 0.37,1 0.54,1.57 0.45,1.39 0.84,2.79 1.19,4.21 0.27,1.11 0.51,2.22 0.73,3.34 1.1,5.54 1.75,11.2 3.49,16.55 0.12,0.39 0.25,0.78 0.39,1.16 2.09,5.86 5.56,11.11 8.18,16.74 a 62.17,62.17 0 0 1 4.3,12.73 62.91,62.91 0 0 1 0.12,26.76 z"
       transform="translate(-108.55,-48.49)"
       fill="#35323e"
       id="path12" />
    <path
       d="m 353.81,260.19 c -4.22,-3.36 -10.34,-0.9 -15.28,1.27 a 98.09,98.09 0 0 1 -12.76,4.61 5.39,5.39 0 0 1 -2.8,0.29 c -2,-0.48 -2.84,-2.85 -4.33,-4.29 -2.59,-2.49 -6.83,-1.9 -10.17,-0.55 -3.34,1.35 -6.64,3.3 -10.22,3 -3.82,-0.3 -7.14,-3.12 -11,-3.21 -6.8,-0.16 -12.51,8.22 -18.94,6 -3.92,-1.35 -7,-6.45 -10.86,-5 -3,1.14 -3.27,5.29 -5.08,8 -2.13,3.16 -6.28,4.05 -9.83,5.45 -11.19,4.42 -18.6,16.89 -17.14,28.83 0.81,6.59 4,12.63 6.11,18.92 6.26,18.29 4.11,38.92 12,56.56 1,-0.94 1.56,-1.29 2.53,-2.22 a 23.14,23.14 0 0 0 -1.35,16.6 c 0.83,2.77 2.18,5.35 3.2,8.06 a 72.24,72.24 0 0 1 2.56,9.3 l 8.7,38.38 c 3.4,15 6.81,30 7.4,45.36 a 132.38,132.38 0 0 1 -2.28,29.8 c 15.76,-2.61 30.18,-9.6 46.15,-9.51 5.86,0 11.67,1 17.48,1.8 a 359.84,359.84 0 0 0 51.13,3.47 20.3,20.3 0 0 0 7.84,-1.1 c 2.2,-0.94 4,-2.61 6.08,-3.82 4.07,-2.4 9,-3 13.69,-3 21.39,-0.39 42,7.44 63.25,10.2 8.39,-17.61 8.89,-38.71 2.45,-57.12 -1.91,-5.47 -4.48,-10.8 -5.24,-16.55 a 83.72,83.72 0 0 1 -0.24,-10.63 77.11,77.11 0 0 0 -4.83,-26.58 c -1.24,-3.33 -2.73,-6.72 -2.6,-10.27 0.13,-3.55 1.88,-6.86 3.6,-10 3.49,-6.4 7,-12.86 11.93,-18.26 5.05,-5.58 11.37,-9.83 17.62,-14 l 15.43,-10.36 c -2.11,-13.33 -4.83,-27.37 -10.48,-39.63 -5.65,-12.26 -14.1,-23.53 -25.53,-30.7 a 84.36,84.36 0 0 0 -12.06,-6 c -5.84,-2.46 -11.92,-4.63 -18.25,-5 -7.2,-0.41 -14.29,1.52 -21.4,2.72 -22.38,3.77 -48.72,3.31 -66.48,-10.82 z"
       transform="translate(-108.55,-48.49)"
       fill="#b32f26"
       id="path14" />
    <path
       d="m 522.53,491.51 -7.34,9.27 -13.84,17.47 -16,20.19 -4.47,5.64 h -8.67 l -214.69,0.25 -134.45,0.15 h -6 c -0.8,-2.5 -1.54,-5 -2.22,-7.6 q -1.5,-5.58 -2.63,-11.3 c -0.16,-0.73 -0.3,-1.46 -0.43,-2.2 l 48.78,-31.89 18.34,-0.1 v 0 l 56.1,-0.32 v 0 l 31.33,-0.18 h 5.72 3.59 v 0 l 20.88,-0.11 v 0 l 159.14,-0.91 v 0 l 8.14,-0.05 v 0 h 3.53 l 9.35,-0.05 34.79,-0.2 6.68,-2.54 0.49,0.52 z"
       transform="translate(-108.55,-48.49)"
       fill="#3f3d56"
       id="path16" />
    <path
       d="m 519.53,486.51 -0.83,1 -5.46,6.43 -11.24,13.27 -23.57,27.79 -208.8,-5.33 -157.45,-4 c -0.16,-0.73 -0.3,-1.46 -0.43,-2.2 a 189.21,189.21 0 0 1 -3.15,-38.93 l 17.46,-8.94 4,-2.06 31.13,-16 27.32,-14 71.26,9.26 15.78,2.05 7.14,0.92 10.45,1.36 0.88,0.12 163.87,21.25 18.11,2.35 10.63,1.38 32.76,4.26 z"
       transform="translate(-108.55,-48.49)"
       fill="#504f60"
       id="path18" />
    <path
       d="m 485.53,534.51 -0.17,3.93 -1,22.19 -5.38,122 -1.14,26.37 -3,67.84 -1.69,38.32 -6.1,-1.91 q -4.74,-1.51 -9.47,-3.08 l 14.63,-266 0.31,-5.58 6.44,-2 z"
       transform="translate(-108.55,-48.49)"
       fill="#3f3d56"
       id="path20" />
    <path
       d="m 123.53,534.22 -0.45,10.27 -0.66,15 q -2.86,-7.11 -5.24,-14.49 l -0.15,-0.49 c -0.8,-2.5 -1.54,-5 -2.22,-7.6 z"
       transform="translate(-108.55,-48.49)"
       fill="#3f3d56"
       id="path22" />
    <ellipse
       cx="276.48001"
       cy="272.53"
       rx="46"
       ry="62"
       fill="#a1616a"
       id="ellipse24" />
    <ellipse
       cx="276.48001"
       cy="272.53"
       rx="46"
       ry="62"
       opacity="0.1"
       id="ellipse26" />
    <circle
       cx="282.98001"
       cy="235.03"
       r="64"
       fill="#a1616a"
       id="circle28" />
    <path
       d="m 392.8,184.88 a 81.94,81.94 0 0 0 -11.61,1.77 c -10.12,2.46 -18.87,7.92 -27.39,13.28 -3.82,2.41 -7.75,4.92 -10.12,8.46 -4.26,6.35 -2.61,14.43 -5,21.48 -1.24,3.62 -3.52,6.87 -5.45,10.24 -5.31,9.24 -8.09,19.39 -10.82,29.44 -0.56,2.08 -0.72,4.9 1.55,5.7 a 6.25,6.25 0 0 0 3.88,-0.44 c 7.17,-2.37 16.28,-3.05 21.6,1.76 5.32,4.81 4.87,13.34 11.2,17 7.25,4.23 18.57,-0.88 25.15,4.11 2.82,2.14 3.84,5.57 6.15,8.15 5.38,6 15.73,5.71 24.34,4.5 4.94,-0.7 11,-1.17 14,2.3 1.44,1.64 1.85,3.89 3.52,5.37 3,2.68 8.49,1.32 11.42,-1.43 2.93,-2.75 4.33,-6.47 6.77,-9.56 4.75,-6 13.1,-9.27 18,-15.2 4.1,-5 5.34,-11.26 6.46,-17.3 l 4.17,-22.39 c 1.69,-9.08 3.23,-19 -1.88,-27 -1.82,-2.88 -4.43,-5.36 -6,-8.34 -1.05,-2 -1.64,-4.11 -2.86,-6 a 24.91,24.91 0 0 0 -5.13,-5.18 l -9.87,-8.17 a 83,83 0 0 0 -10.79,-8 C 430,181.22 408.9,183.38 392.8,184.88 Z"
       transform="translate(-108.55,-48.49)"
       fill="#464353"
       id="path30" />
    <path
       d="m 182,349.74 c -2.37,2.52 -4.56,5.24 -7.1,7.6 a 86,86 0 0 1 -7,5.6 q -5.88,4.4 -11.5,9.11 a 64.41,64.41 0 0 0 -10.54,10.53 c -5.34,7.17 -7.87,16.09 -12.87,23.5 -4.42,6.57 -10.65,11.76 -15.14,18.28 a 28.28,28.28 0 0 0 -4.32,9.07 42.14,42.14 0 0 0 -0.89,9.59 c -0.09,5.28 -0.17,10.62 0.91,15.79 1.08,5.17 3.45,10.25 7.51,13.64 3.77,3.15 8.64,4.6 13.41,5.8 2.46,0.61 5.12,1.18 7.46,0.21 a 12.3,12.3 0 0 0 4.34,-3.66 l 12.17,-14 c 8.14,-9.4 16.6,-19 27.77,-24.5 3.5,-1.71 7.19,-3 10.7,-4.66 14.88,-7.17 25.4,-21.85 29.48,-37.85 1,-3.91 1.64,-7.9 2.29,-11.89 l 1.76,-10.94 a 3.49,3.49 0 0 0 0,-1.67 3.6,3.6 0 0 0 -1.28,-1.52 212.12,212.12 0 0 1 -23.74,-22.4 c -1.74,-1.92 -3.37,-4.55 -5.38,-6.16 -2.52,-2 -2.33,-1.85 -5.36,0 A 64.27,64.27 0 0 0 182,349.74 Z"
       transform="translate(-108.55,-48.49)"
       fill="#a1616a"
       id="path32" />
    <path
       d="m 265.25,422.54 a 1.88,1.88 0 1 0 -3.38,1.64 l -1,0.49 29.82,61.12 5.39,-2.63 L 266.26,422 Z"
       transform="translate(-108.55,-48.49)"
       fill="#3f3d56"
       id="path34" />
    <path
       d="m 182,349.74 c -2.37,2.52 -4.56,5.24 -7.1,7.6 a 86,86 0 0 1 -7,5.6 q -5.88,4.4 -11.5,9.11 a 64.41,64.41 0 0 0 -10.54,10.53 c -5.34,7.17 -7.87,16.09 -12.87,23.5 -4.42,6.57 -10.65,11.76 -15.14,18.28 a 28.28,28.28 0 0 0 -4.32,9.07 42.14,42.14 0 0 0 -0.89,9.59 c -0.09,5.28 -0.17,10.62 0.91,15.79 1.08,5.17 3.45,10.25 7.51,13.64 3.77,3.15 8.64,4.6 13.41,5.8 2.46,0.61 5.12,1.18 7.46,0.21 a 12.3,12.3 0 0 0 4.34,-3.66 l 12.17,-14 c 8.14,-9.4 16.6,-19 27.77,-24.5 3.5,-1.71 7.19,-3 10.7,-4.66 14.88,-7.17 25.4,-21.85 29.48,-37.85 1,-3.91 1.64,-7.9 2.29,-11.89 l 1.76,-10.94 a 3.49,3.49 0 0 0 0,-1.67 3.6,3.6 0 0 0 -1.28,-1.52 212.12,212.12 0 0 1 -23.74,-22.4 c -1.74,-1.92 -3.37,-4.55 -5.38,-6.16 -2.52,-2 -2.33,-1.85 -5.36,0 A 64.27,64.27 0 0 0 182,349.74 Z"
       transform="translate(-108.55,-48.49)"
       opacity="0.04"
       id="path36" />
    <path
       d="m 526.74,462.38 c -0.1,6.38 -0.35,12.95 -3,18.77 -1.14,2.52 -2.91,5 -5.56,5.83 a 12.94,12.94 0 0 1 -4.89,0.18 176.67,176.67 0 0 0 -58.49,4.64 c 5.1,-10.2 2.17,-22.43 3.58,-33.75 0.39,-3.09 1.1,-6.13 1.37,-9.23 1,-11 -3.71,-21.68 -5.87,-32.54 a 72.8,72.8 0 0 1 0,-28.48 19,19 0 0 1 2.45,-6.85 16.08,16.08 0 0 1 5.62,-4.89 c 8.1,-4.61 17.65,-5.14 26.75,-4.53 6.13,0.41 18.42,-0.17 23.53,3.6 5.59,4.13 7.36,18 8.87,24.41 a 206.48,206.48 0 0 1 4.6,29.87 c 0.98,10.96 1.19,21.97 1.04,32.97 z"
       transform="translate(-108.55,-48.49)"
       fill="#a1616a"
       id="path38" />
    <polygon
       points="150.98,436.03 59.98,436.03 95.98,460.03 257.98,454.03 "
       fill="#ffffff"
       id="polygon40" />
    <path
       d="m 216,293.83 c -5.91,5.21 -10.92,11.35 -16.52,16.9 -7.68,7.62 -16.41,14.1 -25.1,20.55 a 18.68,18.68 0 0 1 13,13.1 c 0.38,1.47 0.57,3 1,4.44 1,3.41 3.2,6.35 5.56,9 10.14,11.43 24.33,19.89 30.31,34 a 3.14,3.14 0 0 0 1.2,1.7 2.63,2.63 0 0 0 1.55,0.18 c 5.41,-0.57 9.55,-4.93 13,-9.17 7.2,-9 13.45,-18.94 17,-29.92 3.55,-10.98 4.12,-23.12 0.25,-34 -1.93,-5.42 -4.91,-10.4 -7.87,-15.33 q -3.89,-6.47 -7.76,-12.92 c -1.35,-2.27 -3.07,-6.88 -5.72,-8 -5.72,-2.46 -16.23,5.8 -19.9,9.47 z"
       transform="translate(-108.55,-48.49)"
       fill="#b32f26"
       id="path42" />
    <path
       d="m 510.54,358.46 8.51,20 a 61.83,61.83 0 0 0 -55.9,7.75 c -4.85,3.47 -9.3,7.83 -11.49,13.37 a 5.84,5.84 0 0 1 -5.79,-2.27 11.61,11.61 0 0 1 -2.14,-6.12 c -0.79,-7.68 2.12,-15.21 5,-22.39 1.34,-3.36 2.72,-6.79 5.1,-9.52 2.38,-2.73 5.54,-4.53 8.7,-6.23 a 193.74,193.74 0 0 1 31.55,-13.94 c 4.6,-1.49 9.42,-1.46 12,2.84 2.99,5.13 2.12,11.05 4.46,16.51 z"
       transform="translate(-108.55,-48.49)"
       fill="#b32f26"
       id="path44" />
    <path
       d="m 168.74,418.47 c 2.13,1.7 4,3.71 6.19,5.33 a 44.22,44.22 0 0 0 7.36,4.13 l 9.86,4.74 a 55.25,55.25 0 0 0 9.55,3.88 c 4.22,1.13 8.65,1.24 12.89,2.29 5.35,1.32 10.24,4.07 15.51,5.66 5.27,1.59 11.44,1.85 15.84,-1.46 2.75,-2.07 4.83,-5.49 8.24,-6 2.2,-0.29 4.32,0.77 6.28,1.8 l 25.66,13.49 c 3.46,1.82 7.12,3.84 8.93,7.31 1.81,3.47 0.59,8.74 -3.22,9.64 a 35.18,35.18 0 0 1 -4,0.23 c -1.32,0.16 -2.76,0.94 -2.94,2.27 a 4.56,4.56 0 0 0 0.63,2.35 c 1.15,2.64 1.49,5.8 0.15,8.36 -1.34,2.56 -4.63,4.15 -7.26,3 0.45,3.87 -3.76,6.58 -7.51,7.61 -9.46,2.59 -19.49,1 -29.16,-0.64 -3.8,-0.64 -7.66,-1.3 -11.12,-3 -1.66,-0.81 -3.2,-1.85 -4.88,-2.6 -4.61,-2.05 -9.85,-1.78 -14.89,-1.69 -23.31,0.41 -46.42,-3.91 -69.34,-8.21 -4.25,-0.8 -8.62,-1.65 -12.25,-4 -7,-4.56 -9.6,-13.92 -8.45,-22.2 1.15,-8.28 5.35,-15.78 9.48,-23.06 l 5.35,-9.43 a 12.14,12.14 0 0 1 2.88,-3.8 c 7.87,-6.01 23.48,-1.42 30.22,4 z"
       transform="translate(-108.55,-48.49)"
       fill="#a1616a"
       id="path46" />
    <path
       d="m 168.74,418.47 c 2.13,1.7 4,3.71 6.19,5.33 a 44.22,44.22 0 0 0 7.36,4.13 l 9.86,4.74 a 55.25,55.25 0 0 0 9.55,3.88 c 4.22,1.13 8.65,1.24 12.89,2.29 5.35,1.32 10.24,4.07 15.51,5.66 5.27,1.59 11.44,1.85 15.84,-1.46 2.75,-2.07 4.83,-5.49 8.24,-6 2.2,-0.29 4.32,0.77 6.28,1.8 l 25.66,13.49 c 3.46,1.82 7.12,3.84 8.93,7.31 1.81,3.47 0.59,8.74 -3.22,9.64 a 35.18,35.18 0 0 1 -4,0.23 c -1.32,0.16 -2.76,0.94 -2.94,2.27 a 4.56,4.56 0 0 0 0.63,2.35 c 1.15,2.64 1.49,5.8 0.15,8.36 -1.34,2.56 -4.63,4.15 -7.26,3 0.45,3.87 -3.76,6.58 -7.51,7.61 -9.46,2.59 -19.49,1 -29.16,-0.64 -3.8,-0.64 -7.66,-1.3 -11.12,-3 -1.66,-0.81 -3.2,-1.85 -4.88,-2.6 -4.61,-2.05 -9.85,-1.78 -14.89,-1.69 -23.31,0.41 -46.42,-3.91 -69.34,-8.21 -4.25,-0.8 -8.62,-1.65 -12.25,-4 -7,-4.56 -9.6,-13.92 -8.45,-22.2 1.15,-8.28 5.35,-15.78 9.48,-23.06 l 5.35,-9.43 a 12.14,12.14 0 0 1 2.88,-3.8 c 7.87,-6.01 23.48,-1.42 30.22,4 z"
       transform="translate(-108.55,-48.49)"
       opacity="0.04"
       id="path48" />
    <path
       d="m 474,435.75 c -5.21,2.46 -11.19,2.7 -16.63,4.59 -5.44,1.89 -10.06,5.29 -15.05,8.06 -13,7.26 -28,10 -42.73,12.61 -8.93,1.6 -18,3.2 -27,2.82 -12.18,-0.52 -23.88,-4.58 -35.68,-7.64 -11.8,-3.06 -24.39,-5.12 -36.08,-1.68 a 40.61,40.61 0 0 0 -26.5,25.43 c -2.45,7.19 -2.79,14.94 -2.32,22.52 2.46,1.81 5.9,-0.7 7.24,-3.45 1.34,-2.75 2.07,-6.12 4.67,-7.72 4.51,1.53 5.61,7.54 9.33,10.51 2.32,1.86 5.42,2.35 8.37,2.77 l 15.2,2.16 c 3.66,0.52 7.91,0.87 10.56,-1.71 1.29,-1.25 2,-3 3.18,-4.34 2.42,-2.68 6.46,-3.14 10.06,-2.78 11.24,1.12 21.78,8.41 32.94,6.68 3.84,-0.59 7.41,-2.23 11.07,-3.52 21.69,-7.66 45.79,-3 68.36,-7.39 8.61,-1.67 16.9,-4.63 25.09,-7.75 4.45,-1.69 8.95,-3.46 12.75,-6.32 a 26.84,26.84 0 0 0 10.36,-23.81 27.22,27.22 0 0 0 -9.61,-17.64 c -1.76,-1.5 -4.07,-4.37 -6.18,-5.31 -4.03,-1.77 -7.98,1.3 -11.4,2.91 z"
       transform="translate(-108.55,-48.49)"
       fill="#a1616a"
       id="path50" />
    <g
       opacity="0.1"
       id="g56">
      <path
         d="m 444.78,308 c -1.67,-1.48 -2.08,-3.73 -3.52,-5.37 -3,-3.47 -9.06,-3 -14,-2.3 -8.61,1.21 -19,1.49 -24.34,-4.5 -2.31,-2.58 -3.33,-6 -6.15,-8.15 -6.58,-5 -17.9,0.12 -25.15,-4.11 -6.33,-3.69 -5.92,-12.25 -11.2,-17 -5.28,-4.75 -14.43,-4.13 -21.6,-1.76 a 6.25,6.25 0 0 1 -3.88,0.44 c -2.27,-0.8 -2.11,-3.62 -1.55,-5.7 2.73,-10.05 5.51,-20.2 10.82,-29.44 1.93,-3.37 4.21,-6.62 5.45,-10.24 2.17,-6.34 1.06,-13.51 3.91,-19.51 -3.06,2 -6,4.18 -7.89,7 -4.26,6.35 -2.61,14.43 -5,21.48 -1.24,3.62 -3.52,6.87 -5.45,10.24 -5.31,9.24 -8.09,19.39 -10.82,29.44 -0.56,2.08 -0.72,4.9 1.55,5.7 a 6.25,6.25 0 0 0 3.88,-0.44 c 7.17,-2.37 16.28,-3.05 21.6,1.76 5.32,4.81 4.87,13.34 11.2,17 7.25,4.23 18.57,-0.88 25.15,4.11 2.82,2.14 3.84,5.57 6.15,8.15 5.38,6 15.73,5.71 24.34,4.5 4.94,-0.7 11,-1.17 14,2.3 1.44,1.64 1.85,3.89 3.52,5.37 3,2.68 8.49,1.32 11.42,-1.43 A 30.32,30.32 0 0 0 452,309 c -2.6,0.79 -5.37,0.67 -7.22,-1 z"
         transform="translate(-108.55,-48.49)"
         id="path52" />
      <path
         d="m 463,297 a 28.41,28.41 0 0 0 -1.79,2.59 c 3.84,-2.74 7.91,-5.3 10.78,-8.79 a 21.22,21.22 0 0 0 2,-2.88 C 470,290.78 465.84,293.41 463,297 Z"
         transform="translate(-108.55,-48.49)"
         id="path54" />
    </g>
    <polygon
       points="570.48,446.53 556.48,446.53 559.48,733.53 573.48,731.53 "
       fill="#3f3d56"
       id="polygon58" />
    <polygon
       points="654.48,498.53 640.48,498.53 643.48,785.53 657.48,783.53 "
       fill="#3f3d56"
       id="polygon60" />
    <path
       d="m 1010.56,692 v 0 l -0.06,-5.51 v -3.28 l -0.53,-50.48 -0.83,-78.92 L 1009,547 h -14 l 0.07,6.56 0.44,42.27 0.19,18.3 v 0 l 0.16,14.82 0.26,25.62 0.16,15.11 v 0 1.6 l 0.21,19.86 0.18,17.51 1.14,-1.26 q 2.75,-3.07 5.38,-6.24 z"
       transform="translate(-108.55,-48.49)"
       fill="#3f3d56"
       id="path62" />
    <polygon
       points="692.98,630.09 802.98,630.09 868.98,634.08 900.42,612.56 894.98,575.6 870.98,545.03 624.98,545.03 616.98,556.99 624.98,611.48 "
       fill="#b32f26"
       id="polygon64" />
    <path
       d="m 725.53,605.48 -4,33.22 c 0,0 -21,65.13 148,61.14 169,-3.99 140,-17.28 140,-17.28 l -1,-38.54 c 0,0 5.89,18.24 -80,15.77 -85.89,-2.47 -166,-10.45 -166,-10.45 0,0 -30,5.31 -37,-43.86 z"
       transform="translate(-108.55,-48.49)"
       fill="#3f3d56"
       id="path66" />
    <path
       d="m 866.33,307.72 c -9.64,4.39 -16.94,12.9 -21.83,22.31 -4.89,9.41 -7.64,19.74 -10.35,30 -2.86,10.82 -5.73,21.67 -7.21,32.76 -2.64,19.72 -0.66,40.45 8.4,58.16 9.06,17.71 25.8,32 45.4,35.41 7.57,1.33 15.35,1.06 23,0.27 a 187,187 0 0 0 40.61,-8.95 c 13.75,-4.65 28.06,-11.81 34.18,-25 3.55,-7.65 3.85,-16.37 3.68,-24.79 A 263.72,263.72 0 0 0 971.9,360.1 c -1.85,-6.4 -4,-12.85 -7.92,-18.24 -3.92,-5.39 -9.28,-9.34 -14.75,-13 -23.39,-15.75 -54.13,-34.22 -82.9,-21.14 z"
       transform="translate(-108.55,-48.49)"
       fill="#fbbebe"
       id="path68" />
    <path
       d="m 866.33,307.72 c -9.64,4.39 -16.94,12.9 -21.83,22.31 -4.89,9.41 -7.64,19.74 -10.35,30 -2.86,10.82 -5.73,21.67 -7.21,32.76 -2.64,19.72 -0.66,40.45 8.4,58.16 9.06,17.71 25.8,32 45.4,35.41 7.57,1.33 15.35,1.06 23,0.27 a 187,187 0 0 0 40.61,-8.95 c 13.75,-4.65 28.06,-11.81 34.18,-25 3.55,-7.65 3.85,-16.37 3.68,-24.79 A 263.72,263.72 0 0 0 971.9,360.1 c -1.85,-6.4 -4,-12.85 -7.92,-18.24 -3.92,-5.39 -9.28,-9.34 -14.75,-13 -23.39,-15.75 -54.13,-34.22 -82.9,-21.14 z"
       transform="translate(-108.55,-48.49)"
       opacity="0.05"
       id="path70" />
    <path
       d="m 855.5,433.59 a 45.39,45.39 0 0 0 10,10 c 9.52,6.58 21.74,7.47 33.3,7.83 9.28,0.28 19.92,-0.25 25.74,-7.49 2.62,-3.26 3.8,-7.42 4.86,-11.47 a 508.79,508.79 0 0 0 13.9,-75.77 l 26.48,0.09 c 11.46,49.07 10.52,100.08 9.52,150.47 l -1.45,73.48 -17.06,-1.81 c -40.51,-4.29 -81.08,-8.58 -121.81,-9.32 a 696.78,696.78 0 0 0 -71.52,2.36 L 804.61,461.5 c 4.82,-14.36 9.69,-28.91 10.82,-44 1.63,-21.89 -4.51,-45 4,-65.25 0.68,-1.63 1.54,-3.32 3.09,-4.17 1.55,-0.85 3.51,-0.64 5.29,-0.41 3.36,0.45 13.63,0 16.07,2.15 3.6,3.12 1.22,3.59 -0.05,8.62 -2.27,9 -4.42,17.33 -4.39,26.71 0.03,17.03 5.31,35.01 16.06,48.44 z"
       transform="translate(-108.55,-48.49)"
       fill="#b32f26"
       id="path72" />
    <path
       d="m 1010.56,692 v 0 q 6.69,-8.88 12.61,-18.39 c -2,-4.28 -4.2,-8.46 -5.95,-12.83 -2.68,-6.7 -4.22,-13.8 -5.74,-20.85 q -0.78,-3.6 -1.55,-7.2 c -5.6,-26.11 -10.86,-52.59 -11.95,-79.06 q -0.15,-3.3 -0.19,-6.6 c 0,-0.32 0,-0.63 0,-1 0,-2.41 0,-4.82 0,-7.22 0.12,-6 0.5,-12.05 1.19,-18.07 0.13,-1.18 0.28,-2.36 0.44,-3.54 0,-0.26 0.06,-0.51 0.1,-0.77 l 68,-2.48 v 0 l 5.72,-0.21 c 3.93,-0.14 8.09,-0.36 11.33,-2.59 5.45,-3.74 6.09,-11.41 6,-18 a 267.16,267.16 0 0 0 -5.64,-49.55 c -2.58,-12.26 -6.26,-24.79 -14.52,-34.21 -6.78,-7.74 -16.6,-13.37 -20.13,-23 -1.31,-3.58 -1.64,-7.51 -3.34,-10.93 -1.7,-3.42 -4.51,-5.93 -7.16,-8.57 a 119.33,119.33 0 0 1 -22.9,-31.72 c -4.05,-8.16 -8.44,-17.16 -13.73,-22.8 -0.26,-0.29 -0.52,-0.56 -0.79,-0.82 -4.5,-4.45 -9.65,-6.4 -15.75,-3.37 a 20.17,20.17 0 0 0 -3.12,1.94 v 0 a 38,38 0 0 0 -5.93,5.64 135,135 0 0 0 -16.13,23 127.83,127.83 0 0 0 -8.24,18 124.1,124.1 0 0 0 -4.45,15 c -0.86,3.77 -1.54,7.58 -2.08,11.4 -2,14.36 -2,29 -1.72,43.54 0.3,13.36 0.89,26.75 2.1,40.06 q 0.45,4.83 1,9.65 1.1,9.53 2.72,19 c 0.43,2.41 0.87,4.82 1.36,7.22 0.12,0.64 0.25,1.28 0.38,1.91 l 0.06,0.27 a 162.47,162.47 0 0 1 3.07,16.91 q 0.12,1.07 0.18,2.13 a 82.33,82.33 0 0 1 -0.08,9.81 c -0.23,3.86 -0.59,7.71 -0.77,11.57 0,0.68 0,1.35 -0.07,2 -0.05,1.95 0,3.9 0,5.85 a 92.72,92.72 0 0 0 1.66,13.89 89.85,89.85 0 0 0 8.65,24.44 c 0.38,0.72 0.77,1.43 1.16,2.13 5.07,9.06 11.47,17.37 16.16,26.64 a 115,115 0 0 1 9,26.21 q 1,4.49 1.9,9 c 0.93,4.8 1.76,9.64 2.61,14.48 0.08,0.48 0.17,1 0.26,1.44 1.13,6.42 2.32,12.81 3.85,19.08 0.89,3.65 1.89,7.25 3.06,10.79 z"
       transform="translate(-108.55,-48.49)"
       fill="#464353"
       id="path74" />
    <path
       d="m 997.2,613.18 c 0,0.9 -0.06,1.8 -0.1,2.71 a 128.18,128.18 0 0 1 -1.21,13.11 85.29,85.29 0 0 1 -4.33,17.39 58.64,58.64 0 0 1 -5.16,10.61 48.92,48.92 0 0 1 -6.42,8.27 c -6,6.24 -14.64,8.23 -23,10.86 a 56.62,56.62 0 0 0 -11.09,4.53 c -0.63,0.35 -1.25,0.73 -1.85,1.13 l -10.46,6.93 c -3.26,2.15 -6.59,4.38 -8.83,7.57 a 16.3,16.3 0 0 0 -1,1.69 38.32,38.32 0 0 0 -3.08,9.24 c -5.44,22.66 -10.89,45.34 -14.62,68.34 -0.25,1.52 -0.49,3.05 -0.75,4.58 l -0.09,0.48 a 2.49,2.49 0 0 0 -0.16,-0.33 c -26.76,16.18 -54.51,30.78 -83.1,42.47 l -6.21,-52 a 62.9,62.9 0 0 1 -0.64,-12.78 c 0.59,-6.73 3.33,-13.11 4.07,-19.82 a 33.77,33.77 0 0 0 -3.57,-19.07 c -1.18,-2.28 -2.66,-4.52 -2.93,-7.07 -0.27,-2.55 1.2,-4.88 3.76,-5.14 2,-2.22 2.16,-5.25 1.57,-8.25 a 24,24 0 0 0 -1.4,-4.57 c -1.7,-4.18 -3.85,-8.73 -2.39,-13 a 4.86,4.86 0 0 0 0.5,-2.5 0.41,0.41 0 0 0 0,-0.16 c -0.34,-1.12 -1.67,-1.61 -2.36,-2.56 -1.3,-1.77 0,-4.18 0.8,-6.22 a 23.73,23.73 0 0 0 1.34,-6.81 c 0.11,-1.29 0.19,-2.59 0.33,-3.87 a 39,39 0 0 1 0.93,-5.14 40.57,40.57 0 0 1 16.43,-23.52 c 3.89,-2.62 8.22,-4.53 12.19,-7 a 111.66,111.66 0 0 0 11.62,-9 q 13.21,-11 27.47,-20.74 a 347,347 0 0 1 31.72,-19.26 q 3.5,-1.89 7,-3.68 3.81,-2 7.67,-3.79 c 8.24,-3.93 17.59,-2.46 26.7,0.16 3.82,1.09 7.59,2.39 11.23,3.57 a 52,52 0 0 1 10.2,4.58 c 8.07,4.74 14.74,11.74 17.51,20.58 a 1.09,1.09 0 0 1 0,0.17 c 1.76,5.54 1.87,11.48 1.71,17.31 z"
       transform="translate(-108.55,-48.49)"
       fill="#f86d70"
       id="path76" />
    <path
       d="m 997.2,613.18 c 0,0.9 -0.06,1.8 -0.1,2.71 a 128.18,128.18 0 0 1 -1.21,13.11 85.29,85.29 0 0 1 -4.33,17.39 58.64,58.64 0 0 1 -5.16,10.61 48.92,48.92 0 0 1 -6.42,8.27 c -6,6.24 -14.64,8.23 -23,10.86 a 56.62,56.62 0 0 0 -11.09,4.53 c -0.63,0.35 -1.25,0.73 -1.85,1.13 l -10.46,6.93 c -3.26,2.15 -6.59,4.38 -8.83,7.57 a 16.3,16.3 0 0 0 -1,1.69 38.32,38.32 0 0 0 -3.08,9.24 c -5.44,22.66 -10.89,45.34 -14.62,68.34 -0.25,1.52 -0.49,3.05 -0.75,4.58 l -0.09,0.48 a 2.49,2.49 0 0 0 -0.16,-0.33 c -26.76,16.18 -54.51,30.78 -83.1,42.47 l -6.21,-52 a 62.9,62.9 0 0 1 -0.64,-12.78 c 0.59,-6.73 3.33,-13.11 4.07,-19.82 a 33.77,33.77 0 0 0 -3.57,-19.07 c -1.18,-2.28 -2.66,-4.52 -2.93,-7.07 -0.27,-2.55 1.2,-4.88 3.76,-5.14 2,-2.22 2.16,-5.25 1.57,-8.25 a 24,24 0 0 0 -1.4,-4.57 c -1.7,-4.18 -3.85,-8.73 -2.39,-13 a 4.86,4.86 0 0 0 0.5,-2.5 0.41,0.41 0 0 0 0,-0.16 c -0.34,-1.12 -1.67,-1.61 -2.36,-2.56 -1.3,-1.77 0,-4.18 0.8,-6.22 a 23.73,23.73 0 0 0 1.34,-6.81 c 0.11,-1.29 0.19,-2.59 0.33,-3.87 a 39,39 0 0 1 0.93,-5.14 40.57,40.57 0 0 1 16.43,-23.52 c 3.89,-2.62 8.22,-4.53 12.19,-7 a 111.66,111.66 0 0 0 11.62,-9 q 13.21,-11 27.47,-20.74 a 347,347 0 0 1 31.72,-19.26 q 3.5,-1.89 7,-3.68 3.81,-2 7.67,-3.79 c 8.24,-3.93 17.59,-2.46 26.7,0.16 3.82,1.09 7.59,2.39 11.23,3.57 a 52,52 0 0 1 10.2,4.58 c 8.07,4.74 14.74,11.74 17.51,20.58 a 1.09,1.09 0 0 1 0,0.17 c 1.76,5.54 1.87,11.48 1.71,17.31 z"
       transform="translate(-108.55,-48.49)"
       opacity="0.1"
       id="path78" />
    <path
       d="m 902.25,447.54 a 1.88,1.88 0 1 0 -3.38,1.64 l -1,0.49 29.82,61.12 5.39,-2.63 L 903.26,447 Z"
       transform="translate(-108.55,-48.49)"
       fill="#3f3d56"
       id="path80" />
    <circle
       cx="830.97998"
       cy="271.03"
       r="64"
       fill="#fbbebe"
       id="circle82" />
    <path
       d="m 1024,279.9 a 85,85 0 0 0 -2.26,-15.09 c -3.76,-16.17 -10.63,-32.09 -22.46,-43.7 a 87.56,87.56 0 0 0 -2.61,-8.39 1.59,1.59 0 0 0 -0.07,-0.2 93.9,93.9 0 0 0 -15.1,-26.77 c -3.75,-4.66 -8.61,-9.26 -14.59,-9.44 -1.68,-0.06 -3.46,0.23 -5,-0.54 a 9,9 0 0 1 -2.79,-2.86 26.19,26.19 0 0 0 -25.36,-9.49 l -0.62,0.13 c -0.35,0.07 -0.7,0.15 -1,0.24 -0.3,0.09 -0.84,0.24 -1.26,0.37 q 0.69,1.14 1.35,2.31 1.78,3.17 3.3,6.48 1.26,2.76 2.33,5.61 c -10.24,1.17 -18.58,8.44 -26.2,15.36 l -17.94,16.28 a 0.76,0.76 0 0 0 -0.09,0.09 l -0.52,0.5 c -0.13,0.13 -0.26,0.26 -0.38,0.4 a 0.86,0.86 0 0 0 -0.13,0.14 c -0.15,0.16 -0.29,0.33 -0.43,0.5 a 7.54,7.54 0 0 0 -0.67,1 3.67,3.67 0 0 0 -0.26,0.47 1,1 0 0 0 -0.07,0.15 3.69,3.69 0 0 0 -0.17,0.42 0.14,0.14 0 0 0 0,0.06 2.33,2.33 0 0 0 -0.07,0.25 3,3 0 0 0 0.17,2.12 l 11.83,0.13 h 1.39 c 0.06,1.58 0.11,3.17 0.17,4.75 a 67.39,67.39 0 0 0 -5.4,4.5 58.64,58.64 0 0 0 -5.27,5.56 c -10.67,12.89 -16.24,29.54 -16.8,46.3 0,0.52 0,1 0,1.54 0,1.53 0,3.06 0,4.58 0,1 0.09,2 0.17,3 a 7.49,7.49 0 0 0 1,3.71 3.44,3.44 0 0 0 0.28,0.36 6.9,6.9 0 0 0 2.12,1.56 l 0.86,0.42 v 0 c 0.43,0.21 0.84,0.41 1.24,0.64 3.77,2.13 6,6.24 9.43,8.88 0.2,0.15 0.4,0.3 0.6,0.43 l 0.45,0.3 0.28,0.18 0.38,0.22 a 8.14,8.14 0 0 0 0.77,0.41 v 0 l 0.48,0.24 h 0.08 v 0 c 0.4,0.18 0.8,0.35 1.21,0.5 l 0.57,0.2 0.17,0.06 c 0.16,0.05 0.33,0.11 0.5,0.15 q 0.51,0.15 1,0.27 l 1,0.22 c 0.39,0.07 0.79,0.14 1.19,0.19 l 0.59,0.08 0.6,0.06 q 1.43,0.13 2.88,0.15 v 0 a 72,72 0 0 0 9.07,-0.63 l 25.52,-3 c 5.79,-0.67 11.7,-1.34 17.41,-0.16 4.84,1 9.3,3.3 14,4.93 1.06,0.37 2.12,0.71 3.19,1 0.39,0.11 0.79,0.23 1.19,0.33 l 0.55,0.14 1.28,0.31 c 0.46,0.11 0.92,0.22 1.38,0.31 0.65,0.14 1.29,0.26 1.94,0.38 0.44,0.09 0.89,0.16 1.34,0.24 h 0.09 l 1.28,0.2 h 0.31 v 0 l 0.95,0.13 c 0.46,0.07 0.92,0.13 1.39,0.18 q 1.53,0.19 3.06,0.33 c 1.65,0.16 3.31,0.28 5,0.38 l 1.66,0.1 1.66,0.08 5,0.22 h 0.22 0.7 a 25.8,25.8 0 0 0 6.22,-0.32 c 0.36,-0.07 0.71,-0.15 1.06,-0.25 0.35,-0.1 0.64,-0.2 1,-0.32 3.75,-1.44 6.49,-4.75 8.39,-8.29 0.4,-0.75 0.77,-1.5 1.11,-2.27 0.34,-0.77 0.65,-1.55 0.93,-2.33 0.35,-1 0.65,-1.95 0.91,-2.95 0.08,-0.27 0.15,-0.54 0.21,-0.82 0.06,-0.28 0.2,-0.83 0.28,-1.25 0.25,-1.15 0.44,-2.31 0.58,-3.48 0,-0.37 0.09,-0.75 0.13,-1.12 0.09,-1 0.16,-1.93 0.2,-2.91 0,-0.74 0,-1.49 0,-2.24 -0.01,-0.81 -0.08,-1.88 -0.08,-2.91 z m -25.64,-59.7 c -0.81,-0.76 -1.64,-1.49 -2.48,-2.18 a 10.33,10.33 0 0 1 2.47,2.18 z"
       transform="translate(-108.55,-48.49)"
       fill="#464353"
       id="path84" />
    <path
       d="m 816.7,316 c -7.53,-0.93 -15,-4.23 -22.43,-2.61 -4.65,1 -8.65,3.89 -12.37,6.86 a 150.41,150.41 0 0 0 -34.77,39.75 21,21 0 0 0 -3.21,7.52 c -0.48,3.12 0.37,6.29 1.38,9.28 6.84,20.21 21.47,37.09 28.13,57.36 7,21.32 4.57,44.62 -0.59,66.46 a 277.75,277.75 0 0 1 -30.84,76.7 43.74,43.74 0 0 1 -7.1,9.72 c -3.64,3.5 -8.53,6 -10.69,10.58 -1,2 -1.29,4.28 -2,6.42 -2,6 -6.84,11.14 -7.31,17.47 -0.35,4.83 1.94,9.4 3.33,14 a 38.58,38.58 0 0 1 -0.71,24.1 c -5.07,13.9 -18.33,26.54 -14.48,40.83 8.59,-2.47 18.11,-5.68 22.16,-13.65 1.43,-2.82 2.14,-6.18 4.55,-8.24 4.81,-4.09 13,-0.39 18.11,-4.15 3.86,-2.86 4,-8.72 2.28,-13.22 -1.72,-4.5 -4.68,-8.46 -6,-13.09 -2.3,-8.35 1.38,-17.18 0.7,-25.81 -0.32,-4 -1.55,-7.83 -1.64,-11.81 -0.17,-7.73 4.11,-15 9.8,-20.25 5.69,-5.25 12.72,-8.73 19.64,-12.16 l 26.16,-13 c 9.49,-4.7 19.89,-10.43 23,-20.55 1.18,-3.79 1.19,-7.83 1.25,-11.79 0.89,-60.51 16.05,-119.8 31.12,-178.41 2.34,-9.08 4.72,-18.2 8.2,-26.92 3.48,-8.72 10.29,-15.72 13.76,-23.82 C 856,301.21 837.61,318.62 816.7,316 Z"
       transform="translate(-108.55,-48.49)"
       fill="#464353"
       id="path86" />
    <path
       d="m 960.91,695.61 c 2.31,14 3.72,28.3 4.82,42.53 -18,14.92 -37.38,27.9 -57.07,39.94 -1.12,0.69 -2.25,1.37 -3.38,2 l -0.09,0.48 a 2.49,2.49 0 0 0 -0.16,-0.33 15.05,15.05 0 0 0 -7.52,-7.42 q -11.07,-23.25 -22.12,-46.5 c -4,-8.37 -8,-16.82 -10,-25.85 0,-0.19 -0.09,-0.39 -0.12,-0.58 -1.52,-7 -1.87,-14.27 -2.88,-21.36 a 61.7,61.7 0 0 0 -2.73,-11.94 c -1.2,-3.45 -2.85,-6.8 -4.31,-10.17 -1.8,-4.16 -3.31,-8.37 -3.38,-12.86 0,-1.43 0.09,-3 -0.61,-4.2 a 10.89,10.89 0 0 0 -2.73,-2.64 10.41,10.41 0 0 1 -3.36,-9.51 c -6,0.31 -9.38,6.76 -11.79,12.23 a 66.68,66.68 0 0 1 -8.56,15 28.45,28.45 0 0 1 -9.48,7.89 c -0.33,0.16 -0.66,0.32 -1,0.46 -8.35,3.68 -18.1,2.38 -27.15,0.72 -7.91,-1.45 -16.09,-3.25 -22.45,-8.17 l -0.68,-0.54 a 29.37,29.37 0 0 1 -5,-5.34 c -5.33,-7.28 -7.69,-16.87 -9,-26 -0.12,-0.86 -0.24,-1.72 -0.35,-2.58 a 96.17,96.17 0 0 1 -0.75,-19.48 c 0.12,-1.6 0.29,-3.2 0.5,-4.79 0.14,-1 0.29,-2.08 0.46,-3.12 a 0.28,0.28 0 0 1 0,-0.09 c 0.26,-1.65 0.54,-3.31 0.82,-5 1,-5.67 2,-11.49 5,-16.37 a 31,31 0 0 1 7.36,-7.88 c 1.08,-0.85 2.19,-1.66 3.31,-2.44 1.82,-1.26 3.69,-2.46 5.59,-3.59 a 96.62,96.62 0 0 1 15,-7.3 c 1.24,-0.48 2.5,-0.93 3.76,-1.36 a 29.51,29.51 0 0 1 15.28,-1.21 80.41,80.41 0 0 0 13.68,0.8 c 11.73,-0.23 23.51,-2.47 35.22,-3.92 16.26,-2 33.73,-2.24 47.91,6 0.68,0.39 1.34,0.8 2,1.23 7,4.58 12.64,11 17.19,18.17 1,1.51 1.87,3.06 2.73,4.63 a 117.93,117.93 0 0 1 5.37,11.1 13.8,13.8 0 0 1 1.49,6 7.79,7.79 0 0 1 -0.16,1.18 c -0.27,1.42 -0.81,2.8 -1,4.24 -0.63,5.45 4,10 5.73,15.19 1.12,3.38 1,7 1.63,10.56 0.91,5 3.36,9.5 5.56,14 a 175.06,175.06 0 0 1 8.9,22.37 c 1.74,5.33 3.23,10.74 4.54,16.2 q 0.64,2.63 1.21,5.27 c 1.09,4.84 1.98,9.58 2.77,14.35 z"
       transform="translate(-108.55,-48.49)"
       fill="#f86d70"
       id="path88" />
    <polygon
       points="956.25,505.99 940.17,505.79 900.55,505.27 889.43,505.13 886.55,505.09 869.86,504.88 846.34,504.57 796.44,503.92 709.85,502.8 678.6,502.4 666.06,502.24 654.52,502.09 647.33,501.99 640.52,501.9 590.03,501.25 576.03,501.07 572.98,501.03 571,495.92 556.61,458.81 553.98,452.03 555.98,444.03 564.98,450.03 570.52,450.72 661.73,462.06 678.85,464.19 715.15,468.71 750.71,473.13 764.65,474.86 847.14,485.12 870.19,487.99 889.27,490.36 957.11,498.8 958.98,499.03 958.98,506.03 957.69,506.01 "
       fill="#3f3d56"
       id="polygon90" />
    <polygon
       points="958.98,448.03 555.98,444.03 573.98,491.03 958.98,499.03 "
       fill="#504f60"
       id="polygon92" />
    <polygon
       points="589.98,496.03 575.98,496.03 578.98,783.03 592.98,781.03 "
       fill="#3f3d56"
       id="polygon94" />
    <path
       d="m 1066.24,554.49 h -1.44 a 316.48,316.48 0 0 1 -11.53,52.79 l -4.55,-53 -0.19,-2.26 16.82,-1.94 0.56,-0.06 z"
       transform="translate(-108.55,-48.49)"
       fill="#3f3d56"
       id="path96" />
    <polygon
       points="832.98,453.03 902.98,472.03 756.48,475.03 710.98,460.03 "
       fill="#ffffff"
       id="polygon98" />
    <path
       d="m 827.76,462.2 a 9.82,9.82 0 0 0 -4,2.85 10.56,10.56 0 0 0 -1.49,4.54 l -2.46,14.67 a 6.49,6.49 0 0 0 0.19,4.07 c 0.64,1.23 2.5,1.87 3.43,0.85 -0.12,2.87 0.13,5.93 1.8,8.27 1.67,2.34 5.17,3.57 7.53,1.94 a 4.88,4.88 0 0 0 7.35,1.14 c -1.42,0.48 -1.52,2.65 -0.51,3.75 a 6.53,6.53 0 0 0 4.08,1.63 99.79,99.79 0 0 0 51.9,-6.53 c 1.55,-0.64 -2.53,-19.75 -2.94,-21.71 -1,-4.61 -1.5,-10.24 -5.39,-13.34 -9.3,-7.42 -25.82,-8.88 -37.15,-8 a 64,64 0 0 0 -22.34,5.87 z"
       transform="translate(-108.55,-48.49)"
       fill="#fbbebe"
       id="path100" />
    <path
       d="m 976.82,464.42 c -36.17,0.69 -73.09,1.28 -107.61,-9.55 a 73,73 0 0 1 -0.66,38.87 l 169.12,14 c 7.17,0.59 36.9,3.95 43.89,2.26 6.99,-1.69 -58.65,-23.31 -56,-30 7.29,-18.43 31.71,-29.23 14.12,-29.92 -22.2,-0.88 -40.49,13.92 -62.86,14.34 z"
       transform="translate(-108.55,-48.49)"
       opacity="0.1"
       id="path102" />
    <path
       d="m 977.82,466.42 c -36.17,0.69 -73.09,1.28 -107.61,-9.55 a 73,73 0 0 1 -0.66,38.87 l 169.12,14 c 7.17,0.59 36.9,4 43.89,2.26 6.99,-1.74 5.35,-10.31 8,-17 7.29,-18.43 -32.29,-42.23 -49.88,-42.92 -22.2,-0.88 -40.49,13.92 -62.86,14.34 z"
       transform="translate(-108.55,-48.49)"
       fill="#464353"
       id="path104" />
    <path
       d="m 920.31,469.2 a 9.79,9.79 0 0 1 4,2.85 10.71,10.71 0 0 1 1.5,4.54 l 2.46,14.67 a 6.56,6.56 0 0 1 -0.19,4.07 c -0.64,1.23 -2.51,1.87 -3.43,0.85 0.11,2.87 -0.13,5.93 -1.8,8.27 -1.67,2.34 -5.17,3.57 -7.54,1.94 a 4.88,4.88 0 0 1 -7.35,1.14 c 1.42,0.48 1.53,2.65 0.52,3.75 a 6.56,6.56 0 0 1 -4.09,1.63 99.75,99.75 0 0 1 -51.89,-6.53 c -1.55,-0.64 2.52,-19.75 2.94,-21.71 1,-4.61 1.5,-10.24 5.39,-13.34 9.29,-7.42 25.82,-8.88 37.15,-8 a 64,64 0 0 1 22.33,5.87 z"
       transform="translate(-108.55,-48.49)"
       fill="#fbbebe"
       id="path106" />
    <path
       d="m 681.31,437.35 c -3.32,4.28 -6.65,8.65 -8.79,13.64 -4.09,9.52 -3.49,20.3 -2.81,30.64 0.19,3 0.43,6.06 2,8.55 a 14.44,14.44 0 0 0 5.22,4.45 c 8.66,4.92 18.8,6.39 28.7,7.49 q 22.74,2.52 45.64,3.07 c 37.82,0.92 76.22,-2.17 113.06,6.4 -4.56,-6.93 -4.55,-16.1 -2,-24 2.55,-7.9 7.46,-14.78 12.27,-21.55 -16.86,-5.34 -34.94,3 -52.6,2.17 -18.13,-0.85 -34.91,-11.33 -53.06,-11.32 -3.9,0 -7.87,0.49 -11.66,-0.45 -3.79,-0.94 -7.46,-3.8 -7.81,-7.69 4.84,1.09 9.43,-3.05 11.43,-7.59 2,-4.54 2.36,-9.67 4.3,-14.24 4.83,-11.37 17.88,-16.64 26,-26 1.28,-1.48 2.49,-3.23 2.45,-5.19 a 8.12,8.12 0 0 0 -2,-4.47 c -6.75,-9 -16.92,-14 -25.37,-21 -2.94,-2.44 -8.87,-11.64 -12.17,-12.49 -6.12,-1.57 -11.31,7.27 -15.29,11.58 q -30.14,32.75 -57.51,68 z"
       transform="translate(-108.55,-48.49)"
       fill="#464353"
       id="path108" />
    <path
       d="m 882.39,434.81 a 33.1,33.1 0 0 1 6.69,6.63 11.42,11.42 0 0 1 2.09,8.94 13.36,13.36 0 0 1 8.33,-13.83 z"
       transform="translate(-108.55,-48.49)"
       opacity="0.07"
       id="path110" />
    <g
       opacity="0.1"
       id="g120">
      <path
         d="m 937.85,172.57 a 86.87,86.87 0 0 0 -4.06,-9.15 24.52,24.52 0 0 0 -2.92,0.75 84.57,84.57 0 0 1 4.63,8.83 c 0.77,-0.2 1.55,-0.34 2.35,-0.43 z"
         transform="translate(-108.55,-48.49)"
         id="path112" />
      <path
         d="m 995.87,212 c 0.27,0.22 0.53,0.47 0.79,0.7 a 1.46,1.46 0 0 0 -0.07,-0.19 q -0.34,-0.25 -0.72,-0.51 z"
         transform="translate(-108.55,-48.49)"
         id="path114" />
      <path
         d="m 902.91,216.4 c 0.52,-0.41 1,-0.84 1.56,-1.24 l -0.16,-4.75 -10.68,-0.11 c -1.73,1.59 -3.57,3.87 -2.55,6 z"
         transform="translate(-108.55,-48.49)"
         id="path116" />
      <path
         d="m 1019.67,296.36 c -1.9,3.54 -4.64,6.86 -8.39,8.29 -2.89,1.1 -6.07,1 -9.16,0.86 -10.54,-0.43 -21.26,-0.9 -31.22,-4.39 -4.66,-1.64 -9.12,-3.93 -14,-4.94 -5.71,-1.18 -11.62,-0.51 -17.41,0.17 l -25.52,3 c -7.53,0.88 -15.92,1.54 -21.93,-3.08 -3.44,-2.64 -5.66,-6.75 -9.43,-8.87 -1.59,-0.9 -3.48,-1.48 -4.51,-3 a 7.49,7.49 0 0 1 -1,-3.71 c -0.08,-1.05 -0.13,-2.1 -0.17,-3.15 a 84.63,84.63 0 0 0 0.17,9.15 7.49,7.49 0 0 0 1,3.71 c 1,1.51 2.92,2.09 4.51,3 3.77,2.12 6,6.23 9.43,8.87 6,4.62 14.4,4 21.93,3.08 l 25.52,-3 c 5.79,-0.68 11.7,-1.35 17.41,-0.17 4.84,1 9.3,3.3 14,4.94 10,3.49 20.68,4 31.22,4.39 3.09,0.13 6.27,0.24 9.16,-0.86 3.75,-1.43 6.49,-4.75 8.39,-8.29 3.68,-6.85 4.71,-14.62 4.32,-22.45 a 39.06,39.06 0 0 1 -4.32,16.45 z"
         transform="translate(-108.55,-48.49)"
         id="path118" />
    </g>
    <path
       d="m 937.56,179 14,13 c 0,0 -12,-5 -14,-13 z"
       transform="translate(-108.55,-48.49)"
       opacity="0.1"
       id="path122" />
  </g>
</svg>
