<svg width="41" height="41" viewBox="0 0 41 41" fill="none" xmlns="http://www.w3.org/2000/svg">
<rect width="41" height="41" rx="4" fill="#b32f26"/>
<path fill-rule="evenodd" clip-rule="evenodd" d="M13.9004 16C13.9004 15.4696 14.1006 14.9609 14.4569 14.5858C14.8132 14.2107 15.2965 14 15.8004 14H19.6004L21.5004 16H25.3004C25.8043 16 26.2876 16.2107 26.6439 16.5858C27.0002 16.9609 27.2004 17.4696 27.2004 18V19H19.6004C18.8445 19 18.1196 19.3161 17.5851 19.8787C17.0507 20.4413 16.7504 21.2044 16.7504 22V23.5C16.7504 23.8978 16.6003 24.2794 16.333 24.5607C16.0658 24.842 15.7033 25 15.3254 25C14.9475 25 14.585 24.842 14.3178 24.5607C14.0505 24.2794 13.9004 23.8978 13.9004 23.5V16Z" fill="#F2D4CE"/>
<path d="M17.7004 22C17.7004 21.4696 17.9006 20.9609 18.2569 20.5858C18.6132 20.2107 19.0965 20 19.6004 20H27.2004C27.7043 20 28.1876 20.2107 28.5439 20.5858C28.9002 20.9609 29.1004 21.4696 29.1004 22V24C29.1004 24.5304 28.9002 25.0391 28.5439 25.4142C28.1876 25.7893 27.7043 26 27.2004 26H13.9004H15.8004C16.3043 26 16.7876 25.7893 17.1439 25.4142C17.5002 25.0391 17.7004 24.5304 17.7004 24V22Z" fill="#F2D4CE"/>
</svg>
