<?xml version="1.0" encoding="UTF-8" standalone="no"?><svg xmlns="http://www.w3.org/2000/svg" width="512" height="512" viewBox="0 0 135.465 135.474"><g fill="#BB4430" transform="matrix(15.68354 0 0 15.68354 -35.937 -19.463)"><circle cx="5.467" cy="5.56" r=".425"/><circle cx="6.977" cy="-2.945" r=".425" transform="rotate(60)"/><circle cx=".367" cy="-8.505" r=".425" transform="rotate(120)"/><circle cx="-7.753" cy="-5.56" r=".425" transform="scale(-1)"/><circle cx="-9.263" cy="2.945" r=".425" transform="rotate(-120)"/><circle cx="-2.653" cy="8.505" r=".425" transform="rotate(-60)"/></g><g fill="none" stroke="#BB4430" stroke-width=".4" transform="matrix(15.68354 0 0 15.68354 -35.937 -19.463)"><circle cx="6.61" cy="2.373" r=".932"/><circle cx="8.12" cy="-6.132" r=".932" transform="rotate(60)"/><circle cx="1.51" cy="-11.692" r=".932" transform="rotate(120)"/><circle cx="-6.61" cy="-8.747" r=".932" transform="scale(-1)"/><circle cx="-8.12" cy="-.242" r=".932" transform="rotate(-120)"/><circle cx="-1.51" cy="5.317" r=".932" transform="rotate(-60)"/></g></svg>