<?xml version="1.0" encoding="UTF-8" standalone="no"?>
<svg
   xmlns:dc="http://purl.org/dc/elements/1.1/"
   xmlns:cc="http://creativecommons.org/ns#"
   xmlns:rdf="http://www.w3.org/1999/02/22-rdf-syntax-ns#"
   xmlns:svg="http://www.w3.org/2000/svg"
   xmlns="http://www.w3.org/2000/svg"
   xmlns:sodipodi="http://sodipodi.sourceforge.net/DTD/sodipodi-0.dtd"
   xmlns:inkscape="http://www.inkscape.org/namespaces/inkscape"
   width="250"
   height="50.315289"
   viewBox="0 0 66.14527 13.313348"
   version="1.1"
   id="svg44"
   sodipodi:docname="logo.svg"
   inkscape:version="1.0.1 (3bc2e813f5, 2020-09-07, custom)">
  <metadata
     id="metadata50">
    <rdf:RDF>
      <cc:Work
         rdf:about="">
        <dc:format>image/svg+xml</dc:format>
        <dc:type
           rdf:resource="http://purl.org/dc/dcmitype/StillImage" />
      </cc:Work>
    </rdf:RDF>
  </metadata>
  <defs
     id="defs48" />
  <sodipodi:namedview
     pagecolor="#ffffff"
     bordercolor="#666666"
     borderopacity="1"
     objecttolerance="10"
     gridtolerance="10"
     guidetolerance="10"
     inkscape:pageopacity="0"
     inkscape:pageshadow="2"
     inkscape:window-width="1920"
     inkscape:window-height="1058"
     id="namedview46"
     showgrid="false"
     inkscape:zoom="5.3643874"
     inkscape:cx="90.289168"
     inkscape:cy="8.8839593"
     inkscape:window-x="0"
     inkscape:window-y="22"
     inkscape:window-maximized="0"
     inkscape:current-layer="svg44" />
  <g
     id="g896"
     transform="matrix(2.3262883,0,0,2.3262883,6.7186779e-4,0)">
    <g
       fill="#b32f26"
       transform="matrix(0.55374,0,0,0.55374,-1.506,-0.217)"
       id="g14">
      <circle
         cx="5.467"
         cy="5.5599999"
         r="0.42500001"
         id="circle2" />
      <circle
         cx="6.9770002"
         cy="-2.9449999"
         r="0.42500001"
         transform="rotate(60)"
         id="circle4" />
      <circle
         cx="0.36700001"
         cy="-8.5050001"
         r="0.42500001"
         transform="rotate(120)"
         id="circle6" />
      <circle
         cx="-7.7529998"
         cy="-5.5599999"
         r="0.42500001"
         transform="scale(-1)"
         id="circle8" />
      <circle
         cx="-9.2629995"
         cy="2.9449999"
         r="0.42500001"
         transform="rotate(-120)"
         id="circle10" />
      <circle
         cx="-2.6530001"
         cy="8.5050001"
         r="0.42500001"
         transform="rotate(-60)"
         id="circle12" />
    </g>
    <g
       fill="none"
       stroke="#4d4d4d"
       stroke-width="0.4"
       transform="matrix(0.55374,0,0,0.55374,-1.506,-0.217)"
       id="g28">
      <circle
         cx="6.6100001"
         cy="2.3729999"
         r="0.93199998"
         id="circle16" />
      <circle
         cx="8.1199999"
         cy="-6.132"
         r="0.93199998"
         transform="rotate(60)"
         id="circle18" />
      <circle
         cx="1.51"
         cy="-11.692"
         r="0.93199998"
         transform="rotate(120)"
         id="circle20" />
      <circle
         cx="-6.6100001"
         cy="-8.7469997"
         r="0.93199998"
         transform="scale(-1)"
         id="circle22" />
      <circle
         cx="-8.1199999"
         cy="-0.242"
         r="0.93199998"
         transform="rotate(-120)"
         id="circle24" />
      <circle
         cx="-1.51"
         cy="5.3169999"
         r="0.93199998"
         transform="rotate(-60)"
         id="circle26" />
    </g>
    <g
       font-weight="400"
       font-family="Michroma"
       letter-spacing="0"
       word-spacing="0"
       fill="#b32f26"
       id="g42">
      <g
         aria-label="Pro"
         style="line-height:1.25;-inkscape-font-specification:'Michroma, Normal';font-variant-ligatures:normal;font-variant-caps:normal;font-variant-numeric:normal;font-variant-east-asian:normal"
         font-size="2.668px"
         stroke-width="0.208"
         id="g32">
        <path
           d="m 5.32,0.042 h 1.503 q 0.187,0 0.314,0.017 0.13,0.015 0.213,0.048 0.083,0.032 0.127,0.08 0.046,0.049 0.067,0.114 0.02,0.065 0.023,0.146 0.004,0.08 0.004,0.178 0,0.102 -0.005,0.188 Q 7.562,0.899 7.536,0.969 7.511,1.039 7.456,1.092 7.401,1.144 7.298,1.179 7.196,1.214 7.038,1.232 6.882,1.251 6.653,1.251 H 5.57 V 2.043 H 5.32 Z m 0.25,1 h 1.083 q 0.166,0 0.28,-0.005 Q 7.047,1.031 7.122,1.015 7.196,0.999 7.236,0.971 7.276,0.941 7.295,0.895 7.315,0.848 7.317,0.783 7.321,0.717 7.321,0.625 7.321,0.541 7.317,0.479 7.315,0.419 7.295,0.377 7.277,0.335 7.236,0.31 7.196,0.285 7.122,0.272 7.047,0.258 6.932,0.254 6.82,0.25 6.653,0.25 H 5.57 Z M 9.114,1.03 Q 9.114,0.937 9.099,0.875 9.086,0.813 9.036,0.776 8.985,0.74 8.884,0.724 8.785,0.71 8.614,0.71 8.445,0.71 8.34,0.74 8.234,0.768 8.174,0.822 8.114,0.875 8.092,0.949 8.072,1.024 8.072,1.115 V 2.044 H 7.822 V 0.542 h 0.25 V 0.78 Q 8.085,0.74 8.12,0.692 8.155,0.642 8.227,0.601 8.298,0.558 8.412,0.529 8.526,0.5 8.697,0.5 q 0.195,0 0.318,0.035 0.122,0.034 0.19,0.102 0.069,0.067 0.092,0.166 0.025,0.099 0.025,0.228 z M 9.447,1.282 Q 9.447,1.052 9.497,0.9 9.547,0.75 9.656,0.66 9.766,0.572 9.94,0.537 10.114,0.5 10.364,0.5 q 0.25,0 0.425,0.037 0.175,0.035 0.284,0.124 0.11,0.088 0.16,0.24 0.049,0.15 0.049,0.381 0,0.23 -0.05,0.383 -0.05,0.152 -0.159,0.242 -0.11,0.09 -0.284,0.128 -0.174,0.036 -0.425,0.036 -0.25,0 -0.424,-0.036 Q 9.765,1.997 9.656,1.907 9.546,1.817 9.496,1.665 9.447,1.513 9.447,1.282 Z m 0.25,0 q 0,0.125 0.01,0.218 0.009,0.092 0.033,0.158 0.026,0.067 0.072,0.109 0.046,0.041 0.12,0.066 0.074,0.025 0.18,0.034 0.107,0.01 0.252,0.01 0.126,0 0.223,-0.006 0.1,-0.007 0.172,-0.028 0.074,-0.02 0.127,-0.058 0.052,-0.04 0.083,-0.106 0.033,-0.066 0.047,-0.163 0.015,-0.097 0.015,-0.234 0,-0.134 -0.015,-0.228 Q 11.002,0.959 10.969,0.895 10.938,0.831 10.886,0.795 10.833,0.757 10.759,0.739 10.686,0.719 10.587,0.714 10.49,0.709 10.364,0.709 10.239,0.709 10.14,0.714 10.043,0.719 9.968,0.739 9.895,0.757 9.843,0.795 9.791,0.831 9.759,0.895 9.727,0.959 9.712,1.054 9.697,1.148 9.697,1.282 Z"
           style="-inkscape-font-specification:'Michroma, Normal';font-variant-ligatures:normal;font-variant-caps:normal;font-variant-numeric:normal;font-variant-east-asian:normal"
           id="path30" />
      </g>
      <g
         aria-label="Students"
         style="line-height:1.25;-inkscape-font-specification:'Michroma, Normal';font-variant-ligatures:normal;font-variant-caps:normal;font-variant-numeric:normal;font-variant-east-asian:normal"
         font-size="2.668px"
         stroke-width="0.167"
         id="g36">
        <path
           d="m 13.517,0.917 q 0.206,0 0.353,0.017 0.147,0.017 0.248,0.05 0.101,0.034 0.161,0.083 0.06,0.05 0.093,0.113 0.032,0.063 0.041,0.141 0.01,0.078 0.01,0.17 0,0.09 -0.016,0.171 -0.016,0.08 -0.058,0.146 -0.041,0.067 -0.113,0.119 -0.072,0.052 -0.182,0.088 -0.111,0.037 -0.267,0.055 -0.155,0.02 -0.364,0.02 H 13.09 Q 12.902,2.09 12.761,2.075 12.621,2.061 12.519,2.032 12.417,2.002 12.351,1.958 12.284,1.913 12.244,1.853 12.205,1.791 12.189,1.715 12.174,1.636 12.174,1.543 h 0.25 q 0,0.117 0.034,0.183 0.034,0.067 0.112,0.1 0.078,0.033 0.204,0.042 0.128,0.008 0.316,0.008 h 0.333 q 0.219,0 0.364,-0.02 0.144,-0.022 0.23,-0.067 0.086,-0.046 0.121,-0.119 0.036,-0.074 0.036,-0.18 0,-0.105 -0.025,-0.175 -0.024,-0.07 -0.095,-0.112 -0.07,-0.042 -0.2,-0.06 -0.129,-0.017 -0.337,-0.017 h -0.344 q -0.23,0 -0.393,-0.017 Q 12.617,1.092 12.506,1.06 12.396,1.028 12.329,0.981 12.262,0.933 12.227,0.871 12.193,0.811 12.183,0.736 q -0.01,-0.075 -0.01,-0.163 0,-0.091 0.015,-0.17 0.017,-0.077 0.061,-0.14 Q 12.294,0.199 12.37,0.15 12.447,0.1 12.567,0.068 12.688,0.034 12.857,0.017 13.027,0 13.257,0 h 0.25 q 0.187,0 0.328,0.014 0.14,0.013 0.242,0.043 0.102,0.029 0.168,0.073 0.068,0.043 0.107,0.105 0.04,0.06 0.056,0.136 0.016,0.077 0.016,0.171 h -0.25 Q 14.174,0.425 14.14,0.358 14.106,0.292 14.028,0.259 13.949,0.225 13.822,0.218 13.694,0.208 13.507,0.208 h -0.25 q -0.25,0 -0.412,0.019 -0.162,0.017 -0.256,0.058 -0.093,0.042 -0.13,0.112 -0.036,0.07 -0.036,0.176 0,0.065 0.009,0.116 0.009,0.051 0.036,0.09 0.029,0.038 0.08,0.064 0.05,0.026 0.134,0.043 0.083,0.017 0.203,0.025 0.121,0.006 0.288,0.006 z m 2.699,0.459 q 0,0.191 -0.03,0.32 -0.032,0.128 -0.106,0.205 -0.073,0.077 -0.193,0.11 -0.12,0.032 -0.296,0.032 -0.17,0 -0.287,-0.026 Q 15.188,1.991 15.117,1.928 15.045,1.866 15.014,1.761 14.983,1.657 14.983,1.501 V 0.748 h -0.31 V 0.542 h 0.31 v -0.41 h 0.25 v 0.41 h 0.942 V 0.748 H 15.233 V 1.5 q 0,0.125 0.018,0.193 0.02,0.067 0.061,0.099 0.042,0.031 0.11,0.036 0.069,0.005 0.168,0.005 0.078,0 0.14,-0.002 0.062,-0.003 0.107,-0.016 0.047,-0.014 0.08,-0.042 0.032,-0.028 0.052,-0.079 0.02,-0.05 0.03,-0.128 0.009,-0.078 0.009,-0.191 z m 0.585,-0.834 v 0.834 q 0,0.14 0.021,0.236 0.021,0.095 0.084,0.153 0.062,0.059 0.177,0.085 0.114,0.026 0.302,0.026 0.203,0 0.332,-0.03 0.13,-0.03 0.205,-0.085 0.074,-0.054 0.101,-0.131 0.03,-0.077 0.03,-0.17 V 0.541 h 0.25 v 1.5 h -0.25 v -0.25 q -0.02,0.041 -0.062,0.09 -0.043,0.049 -0.13,0.09 -0.085,0.042 -0.222,0.07 -0.135,0.03 -0.337,0.03 -0.168,0 -0.29,-0.021 Q 16.892,2.03 16.808,1.991 16.725,1.951 16.674,1.892 16.623,1.833 16.596,1.757 16.568,1.678 16.559,1.583 16.55,1.488 16.55,1.375 l 10e-4,-0.834 z m 2.71,1.529 q -0.25,0 -0.424,-0.036 -0.175,-0.036 -0.284,-0.125 -0.11,-0.089 -0.16,-0.238 -0.049,-0.15 -0.049,-0.377 0,-0.235 0.05,-0.388 0.05,-0.154 0.159,-0.244 0.109,-0.09 0.284,-0.126 Q 19.26,0.5 19.51,0.5 q 0.177,0 0.297,0.019 0.12,0.018 0.196,0.045 0.077,0.027 0.116,0.06 0.04,0.031 0.058,0.059 V 0.042 h 0.25 v 2 h -0.25 V 1.82 L 20.115,1.894 Q 20.06,1.948 19.994,1.98 19.927,2.013 19.807,2.043 19.687,2.071 19.51,2.071 Z m 0,-0.195 q 0.125,0 0.223,-0.005 0.098,-0.007 0.172,-0.026 0.074,-0.02 0.125,-0.058 0.052,-0.039 0.085,-0.102 0.032,-0.064 0.047,-0.158 0.015,-0.095 0.015,-0.228 0,-0.138 -0.015,-0.235 Q 20.148,0.967 20.116,0.902 20.083,0.835 20.031,0.797 19.981,0.76 19.906,0.74 19.832,0.72 19.734,0.714 19.636,0.709 19.511,0.709 q -0.146,0 -0.252,0.009 -0.106,0.009 -0.18,0.032 -0.075,0.024 -0.121,0.066 -0.046,0.041 -0.072,0.106 -0.025,0.066 -0.034,0.158 -0.008,0.091 -0.008,0.215 0,0.122 0.008,0.214 0.01,0.09 0.034,0.155 0.026,0.064 0.072,0.105 0.046,0.042 0.12,0.065 0.075,0.024 0.18,0.033 0.107,0.01 0.253,0.01 z m 2.126,0.195 q -0.25,0 -0.424,-0.033 Q 21.038,2.002 20.929,1.918 20.819,1.833 20.769,1.691 20.72,1.549 20.72,1.334 q 0,-0.246 0.05,-0.406 0.05,-0.162 0.159,-0.257 0.11,-0.095 0.284,-0.133 0.174,-0.038 0.424,-0.038 0.179,0 0.31,0.026 0.13,0.026 0.223,0.076 0.094,0.05 0.151,0.12 0.06,0.07 0.092,0.148 0.034,0.077 0.045,0.181 0.013,0.105 0.013,0.22 l -0.02,0.084 h -1.48 q 0,0.172 0.033,0.283 0.034,0.11 0.112,0.16 0.078,0.05 0.206,0.065 0.128,0.013 0.315,0.013 0.172,0 0.284,-0.01 0.114,-0.01 0.18,-0.037 0.067,-0.027 0.093,-0.075 0.027,-0.05 0.027,-0.128 h 0.25 q 0,0.121 -0.043,0.207 -0.041,0.085 -0.14,0.138 -0.097,0.052 -0.257,0.076 -0.159,0.024 -0.394,0.024 z m 0,-1.362 q -0.125,0 -0.224,0.005 Q 21.316,0.719 21.241,0.737 21.168,0.754 21.116,0.788 21.064,0.821 21.032,0.866 21,0.911 20.985,0.993 20.97,1.073 20.97,1.188 h 1.251 Q 22.221,1.036 22.189,0.95 22.156,0.862 22.086,0.806 22.016,0.75 21.905,0.73 21.794,0.709 21.637,0.709 Z m 2.669,1.334 V 1.209 q 0,-0.14 -0.021,-0.234 Q 24.264,0.878 24.201,0.819 24.139,0.761 24.024,0.735 23.91,0.709 23.722,0.709 q -0.203,0 -0.334,0.03 -0.129,0.03 -0.203,0.084 -0.074,0.055 -0.103,0.132 -0.027,0.077 -0.027,0.17 v 0.918 h -0.25 V 0.542 h 0.25 v 0.25 q 0.027,-0.064 0.078,-0.11 0.05,-0.046 0.115,-0.079 0.064,-0.032 0.138,-0.052 0.074,-0.02 0.148,-0.031 0.075,-0.012 0.144,-0.016 0.07,-0.004 0.127,-0.004 0.167,0 0.287,0.021 0.121,0.021 0.205,0.061 0.084,0.04 0.135,0.1 0.05,0.06 0.078,0.14 0.029,0.078 0.038,0.176 0.01,0.096 0.01,0.211 L 24.556,2.043 Z M 26.35,1.376 q 0,0.191 -0.032,0.32 -0.03,0.128 -0.105,0.205 -0.073,0.077 -0.193,0.11 -0.12,0.032 -0.296,0.032 -0.17,0 -0.286,-0.026 Q 25.322,1.991 25.25,1.928 25.179,1.866 25.147,1.761 25.116,1.657 25.116,1.501 V 0.748 H 24.807 V 0.542 h 0.309 v -0.41 h 0.25 v 0.41 h 0.942 V 0.748 H 25.366 V 1.5 q 0,0.125 0.018,0.193 0.02,0.067 0.062,0.099 0.041,0.031 0.109,0.036 0.07,0.005 0.168,0.005 0.078,0 0.14,-0.002 0.062,-0.003 0.108,-0.016 0.047,-0.014 0.08,-0.042 0.032,-0.028 0.051,-0.079 0.021,-0.05 0.03,-0.128 0.01,-0.078 0.01,-0.191 z m 1.209,-0.017 q 0.146,0 0.249,0.005 0.103,0.004 0.172,0.016 0.07,0.01 0.11,0.027 0.04,0.017 0.062,0.05 0.02,0.033 0.026,0.067 0.006,0.033 0.006,0.076 0,0.047 -0.006,0.086 -0.006,0.038 -0.028,0.069 -0.022,0.031 -0.065,0.053 -0.043,0.022 -0.117,0.038 -0.074,0.016 -0.185,0.024 -0.11,0.006 -0.266,0.006 -0.172,0 -0.285,-0.01 Q 27.12,1.856 27.053,1.829 26.987,1.802 26.959,1.754 26.933,1.704 26.933,1.626 h -0.25 q 0,0.118 0.042,0.2 0.043,0.083 0.14,0.135 0.098,0.05 0.257,0.074 0.16,0.023 0.395,0.023 0.188,0 0.328,-0.011 0.142,-0.01 0.244,-0.033 0.102,-0.023 0.168,-0.06 0.068,-0.038 0.107,-0.088 0.039,-0.052 0.055,-0.119 0.015,-0.068 0.015,-0.152 0,-0.085 -0.015,-0.149 Q 28.403,1.381 28.364,1.334 28.326,1.286 28.262,1.245 28.198,1.205 28.101,1.185 28.003,1.166 27.869,1.158 27.736,1.15 27.559,1.15 h -0.25 q -0.102,0 -0.172,-0.007 -0.07,-0.008 -0.11,-0.023 -0.04,-0.014 -0.061,-0.041 -0.02,-0.028 -0.027,-0.07 -0.006,-0.042 -0.006,-0.087 0,-0.075 0.034,-0.118 0.034,-0.043 0.113,-0.064 0.079,-0.02 0.206,-0.026 0.128,-0.005 0.315,-0.005 0.172,0 0.285,0.01 0.113,0.01 0.18,0.035 0.066,0.025 0.092,0.07 0.027,0.044 0.027,0.114 h 0.25 q 0,-0.113 -0.037,-0.195 Q 28.36,0.661 28.265,0.607 28.171,0.552 28.009,0.527 27.848,0.5 27.6,0.5 q -0.25,0 -0.424,0.022 -0.175,0.023 -0.284,0.073 -0.11,0.05 -0.16,0.13 -0.049,0.08 -0.049,0.197 0,0.086 0.016,0.16 0.016,0.074 0.053,0.124 0.038,0.05 0.102,0.08 0.065,0.03 0.162,0.047 0.097,0.015 0.231,0.02 0.135,0.006 0.312,0.006 z"
           style="-inkscape-font-specification:'Michroma, Normal';font-variant-ligatures:normal;font-variant-caps:normal;font-variant-numeric:normal;font-variant-east-asian:normal"
           id="path34" />
      </g>
      <g
         aria-label="Cottbus"
         style="line-height:1.25;-inkscape-font-specification:'Michroma, Normal';font-variant-ligatures:normal;font-variant-caps:normal;font-variant-numeric:normal;font-variant-east-asian:normal"
         font-size="4.002px"
         stroke-width="0.299"
         id="g40">
        <path
           d="M 8.57,3.597 Q 8.57,3.362 8.519,3.225 8.469,3.088 8.351,3.018 8.234,2.948 8.042,2.928 7.852,2.908 7.572,2.908 H 6.694 q -0.25,0 -0.422,0.016 Q 6.102,2.938 5.99,2.983 5.879,3.028 5.818,3.112 5.758,3.196 5.73,3.335 5.703,3.473 5.699,3.677 q -0.004,0.2 -0.004,0.482 0,0.282 0.004,0.485 0.006,0.201 0.033,0.34 0.028,0.139 0.086,0.223 0.06,0.084 0.172,0.129 0.112,0.045 0.282,0.06 0.172,0.014 0.422,0.014 h 0.877 q 0.22,0 0.377,-0.012 Q 8.107,5.387 8.218,5.355 8.329,5.324 8.398,5.269 8.466,5.215 8.503,5.133 8.543,5.048 8.556,4.933 8.57,4.816 8.57,4.66 H 8.945 Q 8.945,4.847 8.922,5 8.898,5.15 8.838,5.27 8.778,5.387 8.679,5.473 8.579,5.559 8.427,5.615 8.275,5.67 8.064,5.695 7.853,5.723 7.571,5.723 H 6.694 Q 6.35,5.723 6.114,5.68 5.879,5.639 5.726,5.555 5.574,5.469 5.49,5.34 5.408,5.21 5.369,5.037 5.332,4.863 5.326,4.644 5.32,4.425 5.32,4.159 5.32,3.894 5.326,3.675 5.332,3.455 5.369,3.282 5.408,3.108 5.489,2.979 5.574,2.85 5.726,2.766 5.879,2.68 6.113,2.639 6.35,2.596 6.693,2.596 h 0.878 q 0.282,0 0.493,0.027 0.21,0.026 0.363,0.08 0.153,0.053 0.252,0.135 0.1,0.082 0.159,0.194 0.06,0.111 0.084,0.252 0.023,0.14 0.023,0.313 z M 9.258,4.519 Q 9.258,4.173 9.332,3.946 9.406,3.72 9.57,3.586 9.735,3.454 9.996,3.401 q 0.262,-0.055 0.637,-0.055 0.376,0 0.638,0.055 0.261,0.053 0.426,0.186 0.164,0.133 0.238,0.36 0.074,0.226 0.074,0.572 0,0.346 -0.074,0.574 -0.074,0.23 -0.238,0.364 -0.165,0.135 -0.426,0.191 -0.262,0.055 -0.638,0.055 -0.375,0 -0.637,-0.055 Q 9.735,5.592 9.57,5.457 9.406,5.322 9.332,5.093 9.258,4.865 9.258,4.519 Z m 0.375,0 q 0,0.188 0.014,0.326 0.013,0.139 0.05,0.239 0.04,0.1 0.108,0.162 0.068,0.062 0.18,0.1 0.111,0.037 0.27,0.05 0.16,0.014 0.378,0.014 0.188,0 0.335,-0.008 0.148,-0.01 0.258,-0.04 0.111,-0.032 0.19,-0.089 0.077,-0.058 0.124,-0.158 0.05,-0.1 0.07,-0.244 0.024,-0.147 0.024,-0.352 0,-0.201 -0.023,-0.342 Q 11.589,4.034 11.541,3.938 11.493,3.843 11.415,3.788 11.337,3.731 11.225,3.704 11.116,3.674 10.968,3.667 10.821,3.659 10.633,3.659 10.446,3.659 10.297,3.667 10.151,3.675 10.039,3.704 9.93,3.731 9.852,3.788 9.774,3.843 9.725,3.938 9.678,4.034 9.655,4.177 9.633,4.317 9.633,4.519 Z m 5.003,0.141 q 0,0.287 -0.047,0.48 -0.047,0.192 -0.158,0.307 -0.11,0.115 -0.29,0.164 -0.18,0.05 -0.443,0.05 -0.256,0 -0.43,-0.04 Q 13.094,5.582 12.986,5.488 12.879,5.394 12.832,5.238 12.785,5.082 12.785,4.848 v -1.13 h -0.463 v -0.31 h 0.463 V 2.793 h 0.375 v 0.616 h 1.413 V 3.718 H 13.16 v 1.13 q 0,0.187 0.028,0.288 0.029,0.102 0.092,0.149 0.062,0.047 0.164,0.055 0.103,0.007 0.252,0.007 0.117,0 0.209,-0.003 0.094,-0.004 0.162,-0.024 0.07,-0.021 0.12,-0.062 0.048,-0.043 0.077,-0.12 0.032,-0.076 0.045,-0.191 0.014,-0.117 0.014,-0.287 z m 2.689,0 q 0,0.287 -0.047,0.48 -0.047,0.192 -0.158,0.307 -0.11,0.115 -0.29,0.164 -0.18,0.05 -0.443,0.05 -0.256,0 -0.43,-0.04 Q 15.783,5.582 15.675,5.488 15.568,5.394 15.521,5.238 15.474,5.082 15.474,4.848 v -1.13 h -0.463 v -0.31 h 0.463 V 2.793 h 0.375 v 0.616 h 1.413 V 3.718 H 15.85 v 1.13 q 0,0.187 0.028,0.288 0.029,0.102 0.092,0.149 0.062,0.047 0.164,0.055 0.103,0.007 0.252,0.007 0.117,0 0.209,-0.003 0.094,-0.004 0.162,-0.024 0.07,-0.021 0.12,-0.062 0.048,-0.043 0.077,-0.12 Q 16.986,5.062 16.999,4.947 17.013,4.83 17.013,4.66 Z M 19.2,5.703 q -0.269,0 -0.449,-0.037 Q 18.574,5.631 18.461,5.59 18.347,5.547 18.288,5.457 18.23,5.365 18.2,5.314 V 5.66 H 17.825 V 2.658 H 18.2 v 0.964 q 0.026,-0.041 0.084,-0.088 0.06,-0.049 0.174,-0.09 0.116,-0.043 0.295,-0.07 0.18,-0.028 0.448,-0.028 0.375,0 0.637,0.057 0.262,0.057 0.426,0.194 0.164,0.136 0.238,0.367 0.075,0.229 0.075,0.574 0,0.34 -0.075,0.565 -0.074,0.225 -0.238,0.358 -0.164,0.133 -0.426,0.187 -0.262,0.055 -0.637,0.055 z m 0,-0.293 q 0.22,0 0.378,-0.014 0.16,-0.013 0.272,-0.049 0.111,-0.035 0.18,-0.097 0.07,-0.063 0.107,-0.159 0.039,-0.097 0.05,-0.232 0.014,-0.137 0.014,-0.32 0,-0.184 -0.013,-0.321 Q 20.176,4.081 20.137,3.985 20.1,3.888 20.029,3.825 19.961,3.761 19.849,3.725 19.739,3.688 19.578,3.675 19.42,3.661 19.201,3.661 q -0.188,0 -0.334,0.01 Q 18.72,3.679 18.609,3.71 18.497,3.741 18.419,3.8 18.343,3.858 18.294,3.956 18.245,4.054 18.222,4.198 18.2,4.343 18.2,4.544 q 0,0.2 0.022,0.342 0.023,0.141 0.072,0.237 0.049,0.096 0.125,0.154 0.078,0.057 0.19,0.086 0.111,0.03 0.258,0.04 0.146,0.007 0.334,0.007 z m 2.192,-2.001 v 1.25 q 0,0.21 0.03,0.354 0.032,0.143 0.126,0.23 0.094,0.089 0.266,0.128 0.172,0.039 0.453,0.039 0.305,0 0.498,-0.045 0.196,-0.045 0.307,-0.127 0.112,-0.082 0.153,-0.197 0.043,-0.116 0.043,-0.256 V 3.409 h 0.375 V 5.66 H 23.268 V 5.285 Q 23.24,5.345 23.176,5.42 23.111,5.492 22.982,5.555 22.853,5.617 22.648,5.66 22.445,5.703 22.142,5.703 21.89,5.703 21.708,5.672 21.528,5.642 21.401,5.584 21.276,5.524 21.2,5.435 21.124,5.347 21.083,5.232 21.042,5.115 21.028,4.972 21.014,4.83 21.014,4.66 l 0.002,-1.251 z m 4.064,1.225 q 0.22,0 0.374,0.008 0.154,0.006 0.258,0.023 0.105,0.016 0.166,0.042 0.06,0.025 0.092,0.076 0.03,0.049 0.039,0.1 0.01,0.048 0.01,0.113 0,0.07 -0.01,0.129 Q 26.377,5.181 26.344,5.228 26.31,5.275 26.246,5.308 26.181,5.342 26.07,5.365 25.959,5.389 25.792,5.4 25.628,5.41 25.394,5.41 25.136,5.41 24.966,5.396 24.798,5.381 24.698,5.34 24.598,5.299 24.558,5.226 24.518,5.152 24.518,5.035 h -0.375 q 0,0.178 0.063,0.3 0.064,0.124 0.21,0.202 0.147,0.076 0.386,0.111 0.24,0.036 0.592,0.036 0.281,0 0.492,-0.018 0.213,-0.016 0.366,-0.049 0.152,-0.035 0.252,-0.09 0.101,-0.056 0.16,-0.133 0.059,-0.078 0.082,-0.177 0.024,-0.102 0.024,-0.23 0,-0.126 -0.024,-0.222 Q 26.723,4.667 26.664,4.597 26.607,4.525 26.512,4.464 26.416,4.404 26.269,4.374 26.123,4.345 25.921,4.334 25.722,4.322 25.456,4.322 H 25.083 Q 24.929,4.32 24.823,4.31 24.72,4.298 24.659,4.277 24.599,4.255 24.567,4.214 24.536,4.173 24.527,4.11 24.518,4.046 24.518,3.98 q 0,-0.114 0.051,-0.178 0.051,-0.065 0.168,-0.096 0.117,-0.031 0.309,-0.04 0.192,-0.007 0.473,-0.007 0.258,0 0.426,0.016 0.17,0.013 0.27,0.052 0.1,0.038 0.138,0.104 0.041,0.066 0.041,0.172 h 0.376 q 0,-0.17 -0.057,-0.293 -0.057,-0.123 -0.2,-0.203 -0.14,-0.082 -0.382,-0.122 -0.24,-0.039 -0.612,-0.039 -0.375,0 -0.637,0.034 -0.262,0.033 -0.426,0.109 -0.164,0.074 -0.239,0.195 -0.074,0.12 -0.074,0.296 0,0.129 0.024,0.24 0.023,0.11 0.08,0.186 0.056,0.074 0.152,0.119 0.098,0.045 0.242,0.07 0.147,0.024 0.348,0.031 0.202,0.008 0.467,0.008 z"
           style="-inkscape-font-specification:'Michroma, Normal';font-variant-ligatures:normal;font-variant-caps:normal;font-variant-numeric:normal;font-variant-east-asian:normal"
           id="path38" />
      </g>
    </g>
  </g>
</svg>
