<?xml version="1.0" encoding="UTF-8" standalone="no"?>
<svg
   xmlns:dc="http://purl.org/dc/elements/1.1/"
   xmlns:cc="http://creativecommons.org/ns#"
   xmlns:rdf="http://www.w3.org/1999/02/22-rdf-syntax-ns#"
   xmlns:svg="http://www.w3.org/2000/svg"
   xmlns="http://www.w3.org/2000/svg"
   xmlns:sodipodi="http://sodipodi.sourceforge.net/DTD/sodipodi-0.dtd"
   xmlns:inkscape="http://www.inkscape.org/namespaces/inkscape"
   width="107.468"
   height="21.629"
   viewBox="0 0 28.434 5.723"
   version="1.1"
   id="svg44"
   sodipodi:docname="logo.svg"
   inkscape:version="1.0.1 (3bc2e813f5, 2020-09-07)">
  <metadata
     id="metadata50">
    <rdf:RDF>
      <cc:Work
         rdf:about="">
        <dc:format>image/svg+xml</dc:format>
        <dc:type
           rdf:resource="http://purl.org/dc/dcmitype/StillImage" />
        <dc:title></dc:title>
      </cc:Work>
    </rdf:RDF>
  </metadata>
  <defs
     id="defs48" />
  <sodipodi:namedview
     pagecolor="#2d2d2d"
     bordercolor="#666666"
     borderopacity="1"
     objecttolerance="10"
     gridtolerance="10"
     guidetolerance="10"
     inkscape:pageopacity="0"
     inkscape:pageshadow="2"
     inkscape:window-width="1920"
     inkscape:window-height="1058"
     id="namedview46"
     showgrid="false"
     inkscape:zoom="30.345558"
     inkscape:cx="7.6226155"
     inkscape:cy="10.682099"
     inkscape:window-x="0"
     inkscape:window-y="22"
     inkscape:window-maximized="0"
     inkscape:current-layer="svg44" />
  <g
     fill="#b32f26"
     transform="matrix(.55374 0 0 .55374 -1.506 -.217)"
     id="g14">
    <circle
       cx="5.467"
       cy="5.56"
       r=".425"
       id="circle2" />
    <circle
       cx="6.977"
       cy="-2.945"
       r=".425"
       transform="rotate(60)"
       id="circle4" />
    <circle
       cx=".367"
       cy="-8.505"
       r=".425"
       transform="rotate(120)"
       id="circle6" />
    <circle
       cx="-7.753"
       cy="-5.56"
       r=".425"
       transform="scale(-1)"
       id="circle8" />
    <circle
       cx="-9.263"
       cy="2.945"
       r=".425"
       transform="rotate(-120)"
       id="circle10" />
    <circle
       cx="-2.653"
       cy="8.505"
       r=".425"
       transform="rotate(-60)"
       id="circle12" />
  </g>
  <g
     id="g893">
    <circle
       cx="2.1542215"
       cy="1.0970249"
       r="0.51608568"
       id="circle16"
       style="fill:none;stroke:#f9f9ff;stroke-width:0.221496;stroke-opacity:1" />
    <circle
       cx="3.5554411"
       cy="-2.1997993"
       r="0.51608568"
       transform="rotate(60)"
       id="circle18"
       style="fill:none;stroke:#f9f9ff;stroke-width:0.221496;stroke-opacity:1" />
    <circle
       cx="1.4012198"
       cy="-5.061594"
       r="0.51608568"
       transform="rotate(120)"
       id="circle20"
       style="fill:none;stroke:#f9f9ff;stroke-width:0.221496;stroke-opacity:1" />
    <circle
       cx="-2.1542215"
       cy="-4.6265635"
       r="0.51608568"
       transform="scale(-1)"
       id="circle22"
       style="fill:none;stroke:#f9f9ff;stroke-width:0.221496;stroke-opacity:1" />
    <circle
       cx="-3.5554411"
       cy="-1.3297393"
       r="0.51608568"
       transform="rotate(-120)"
       id="circle24"
       style="fill:none;stroke:#f9f9ff;stroke-width:0.221496;stroke-opacity:1" />
    <circle
       cx="-1.4012198"
       cy="1.5315013"
       r="0.51608568"
       transform="rotate(-60)"
       id="circle26"
       style="fill:none;stroke:#f9f9ff;stroke-width:0.221496;stroke-opacity:1" />
  </g>
  <g
     font-weight="400"
     font-family="Michroma"
     letter-spacing="0"
     word-spacing="0"
     fill="#b32f26"
     id="g42">
    <g
       aria-label="Pro"
       style="line-height:1.25;-inkscape-font-specification:'Michroma, Normal';font-variant-ligatures:normal;font-variant-caps:normal;font-variant-numeric:normal;font-variant-east-asian:normal"
       font-size="2.668"
       stroke-width=".208"
       id="g32">
      <path
         d="M5.32.042h1.503q.187 0 .314.017.13.015.213.048.083.032.127.08.046.049.067.114.02.065.023.146.004.08.004.178 0 .102-.005.188-.004.086-.03.156-.025.07-.08.123-.055.052-.158.087-.102.035-.26.053-.156.019-.385.019H5.57v.792h-.25zm.25 1h1.083q.166 0 .28-.005.114-.006.189-.022.074-.016.114-.044.04-.03.059-.076.02-.047.022-.112.004-.066.004-.158 0-.084-.004-.146-.002-.06-.022-.102Q7.277.335 7.236.31q-.04-.025-.114-.038-.075-.014-.19-.018Q6.82.25 6.653.25H5.57zM9.114 1.03q0-.093-.015-.155-.013-.062-.063-.099Q8.985.74 8.884.724 8.785.71 8.614.71q-.169 0-.274.03-.106.028-.166.082-.06.053-.082.127-.02.075-.02.166v.929h-.25V.542h.25V.78q.013-.04.048-.088.035-.05.107-.091.071-.043.185-.072Q8.526.5 8.697.5q.195 0 .318.035.122.034.19.102.069.067.092.166.025.099.025.228zM9.447 1.282q0-.23.05-.382.05-.15.159-.24.11-.088.284-.123.174-.037.424-.037t.425.037q.175.035.284.124.11.088.16.24.049.15.049.381 0 .23-.05.383-.05.152-.159.242-.11.09-.284.128-.174.036-.425.036-.25 0-.424-.036-.175-.038-.284-.128-.11-.09-.16-.242-.049-.152-.049-.383zm.25 0q0 .125.01.218.009.092.033.158.026.067.072.109.046.041.12.066t.18.034q.107.01.252.01.126 0 .223-.006.1-.007.172-.028.074-.02.127-.058.052-.04.083-.106.033-.066.047-.163.015-.097.015-.234 0-.134-.015-.228-.014-.095-.047-.159-.031-.064-.083-.1-.053-.038-.127-.056-.073-.02-.172-.025-.097-.005-.223-.005-.125 0-.224.005-.097.005-.172.025-.073.018-.125.056-.052.036-.084.1-.032.064-.047.159-.015.094-.015.228z"
         style="-inkscape-font-specification:'Michroma, Normal';font-variant-ligatures:normal;font-variant-caps:normal;font-variant-numeric:normal;font-variant-east-asian:normal"
         id="path30" />
    </g>
    <g
       aria-label="Students"
       style="line-height:1.25;-inkscape-font-specification:'Michroma, Normal';font-variant-ligatures:normal;font-variant-caps:normal;font-variant-numeric:normal;font-variant-east-asian:normal"
       font-size="2.668"
       stroke-width=".167"
       id="g36">
      <path
         d="M13.517.917q.206 0 .353.017t.248.05q.101.034.161.083.06.05.093.113.032.063.041.141.01.078.01.17 0 .09-.016.171-.016.08-.058.146-.041.067-.113.119-.072.052-.182.088-.111.037-.267.055-.155.02-.364.02h-.333q-.188 0-.329-.015-.14-.014-.242-.043-.102-.03-.168-.074-.067-.045-.107-.105-.039-.062-.055-.138-.015-.079-.015-.172h.25q0 .117.034.183.034.067.112.1t.204.042q.128.008.316.008h.333q.219 0 .364-.02.144-.022.23-.067.086-.046.121-.119.036-.074.036-.18 0-.105-.025-.175-.024-.07-.095-.112-.07-.042-.2-.06-.129-.017-.337-.017h-.344q-.23 0-.393-.017t-.274-.049q-.11-.032-.177-.079-.067-.048-.102-.11-.034-.06-.044-.135-.01-.075-.01-.163 0-.091.015-.17.017-.077.061-.14.045-.064.121-.113.077-.05.197-.082.121-.034.29-.051.17-.017.4-.017h.25q.187 0 .328.014.14.013.242.043.102.029.168.073.068.043.107.105.04.06.056.136.016.077.016.171h-.25q0-.117-.034-.184-.034-.066-.112-.099-.079-.034-.206-.041-.128-.01-.315-.01h-.25q-.25 0-.412.019-.162.017-.256.058-.093.042-.13.112-.036.07-.036.176 0 .065.009.116.009.051.036.09.029.038.08.064.05.026.134.043.083.017.203.025.121.006.288.006zM16.216 1.376q0 .191-.03.32-.032.128-.106.205-.073.077-.193.11-.12.032-.296.032-.17 0-.287-.026-.116-.026-.187-.089-.072-.062-.103-.167-.031-.104-.031-.26V.748h-.31V.542h.31v-.41h.25v.41h.942v.206h-.942V1.5q0 .125.018.193.02.067.061.099.042.031.11.036.069.005.168.005.078 0 .14-.002.062-.003.107-.016.047-.014.08-.042.032-.028.052-.079.02-.05.03-.128.009-.078.009-.191zM16.801.542v.834q0 .14.021.236.021.095.084.153.062.059.177.085.114.026.302.026.203 0 .332-.03.13-.03.205-.085.074-.054.101-.131.03-.077.03-.17V.541h.25v1.5h-.25v-.25q-.02.041-.062.09-.043.049-.13.09-.085.042-.222.07-.135.03-.337.03-.168 0-.29-.021-.12-.02-.204-.059-.083-.04-.134-.099-.051-.059-.078-.135-.028-.079-.037-.174-.009-.095-.009-.208l.001-.834zM19.511 2.071q-.25 0-.424-.036-.175-.036-.284-.125-.11-.089-.16-.238-.049-.15-.049-.377 0-.235.05-.388.05-.154.159-.244t.284-.126Q19.26.5 19.51.5q.177 0 .297.019.12.018.196.045.077.027.116.06.04.031.058.059V.042h.25v2h-.25V1.82l-.062.074q-.055.054-.121.086-.067.033-.187.063-.12.028-.297.028zm0-.195q.125 0 .223-.005.098-.007.172-.026.074-.02.125-.058.052-.039.085-.102.032-.064.047-.158.015-.095.015-.228 0-.138-.015-.235-.015-.097-.047-.162-.033-.067-.085-.105-.05-.037-.125-.057-.074-.02-.172-.026-.098-.005-.223-.005-.146 0-.252.009-.106.009-.18.032-.075.024-.121.066-.046.041-.072.106-.025.066-.034.158-.008.091-.008.215 0 .122.008.214.01.09.034.155.026.064.072.105.046.042.12.065.075.024.18.033.107.01.253.01zM21.637 2.071q-.25 0-.424-.033-.175-.036-.284-.12-.11-.085-.16-.227-.049-.142-.049-.357 0-.246.05-.406.05-.162.159-.257.11-.095.284-.133.174-.038.424-.038.179 0 .31.026.13.026.223.076.094.05.151.12.06.07.092.148.034.077.045.181.013.105.013.22l-.02.084h-1.48q0 .172.033.283.034.11.112.16t.206.065q.128.013.315.013.172 0 .284-.01.114-.01.18-.037.067-.027.093-.075.027-.05.027-.128h.25q0 .121-.043.207-.041.085-.14.138-.097.052-.257.076-.159.024-.394.024zm0-1.362q-.125 0-.224.005-.097.005-.172.023-.073.017-.125.051-.052.033-.084.078-.032.045-.047.127-.015.08-.015.195h1.251q0-.152-.032-.238-.033-.088-.103-.144-.07-.056-.181-.076-.111-.021-.268-.021zM24.306 2.043v-.834q0-.14-.021-.234-.021-.097-.084-.156-.062-.058-.177-.084-.114-.026-.302-.026-.203 0-.334.03-.129.03-.203.084-.074.055-.103.132-.027.077-.027.17v.918h-.25V.542h.25v.25q.027-.064.078-.11.05-.046.115-.079.064-.032.138-.052.074-.02.148-.031.075-.012.144-.016.07-.004.127-.004.167 0 .287.021.121.021.205.061.084.04.135.1.05.06.078.14.029.078.038.176.01.096.01.211l-.002.834zM26.35 1.376q0 .191-.032.32-.03.128-.105.205-.073.077-.193.11-.12.032-.296.032-.17 0-.286-.026-.116-.026-.188-.089-.071-.062-.103-.167-.031-.104-.031-.26V.748h-.309V.542h.309v-.41h.25v.41h.942v.206h-.942V1.5q0 .125.018.193.02.067.062.099.041.031.109.036.07.005.168.005.078 0 .14-.002.062-.003.108-.016.047-.014.08-.042.032-.028.051-.079.021-.05.03-.128.01-.078.01-.191zM27.559 1.359q.146 0 .249.005.103.004.172.016.07.01.11.027.04.017.062.05.02.033.026.067.006.033.006.076 0 .047-.006.086-.006.038-.028.069-.022.031-.065.053-.043.022-.117.038-.074.016-.185.024-.11.006-.266.006-.172 0-.285-.01-.112-.01-.179-.037-.066-.027-.094-.075-.026-.05-.026-.128h-.25q0 .118.042.2.043.083.14.135.098.05.257.074.16.023.395.023.188 0 .328-.011.142-.01.244-.033.102-.023.168-.06.068-.038.107-.088.039-.052.055-.119.015-.068.015-.152 0-.085-.015-.149-.016-.065-.055-.112-.038-.048-.102-.089-.064-.04-.161-.06-.098-.019-.232-.027-.133-.008-.31-.008h-.25q-.102 0-.172-.007-.07-.008-.11-.023-.04-.014-.061-.041-.02-.028-.027-.07-.006-.042-.006-.087 0-.075.034-.118T27.08.74q.079-.02.206-.026.128-.005.315-.005.172 0 .285.01.113.01.18.035.066.025.092.07.027.044.027.114h.25q0-.113-.037-.195-.038-.082-.133-.136-.094-.055-.256-.08Q27.848.5 27.6.5q-.25 0-.424.022-.175.023-.284.073-.11.05-.16.13-.049.08-.049.197 0 .086.016.16.016.074.053.124.038.05.102.08.065.03.162.047.097.015.231.02.135.006.312.006z"
         style="-inkscape-font-specification:'Michroma, Normal';font-variant-ligatures:normal;font-variant-caps:normal;font-variant-numeric:normal;font-variant-east-asian:normal"
         id="path34" />
    </g>
    <g
       aria-label="Cottbus"
       style="line-height:1.25;-inkscape-font-specification:'Michroma, Normal';font-variant-ligatures:normal;font-variant-caps:normal;font-variant-numeric:normal;font-variant-east-asian:normal"
       font-size="4.002"
       stroke-width=".299"
       id="g40">
      <path
         d="M8.57 3.597q0-.235-.051-.372-.05-.137-.168-.207-.117-.07-.309-.09-.19-.02-.47-.02h-.878q-.25 0-.422.016-.17.014-.282.059-.111.045-.172.129-.06.084-.088.223-.027.138-.031.342-.004.2-.004.482t.004.485q.006.201.033.34.028.139.086.223.06.084.172.129.112.045.282.06.172.014.422.014h.877q.22 0 .377-.012.159-.011.27-.043.111-.031.18-.086.068-.054.105-.136.04-.085.053-.2.014-.117.014-.273h.375q0 .187-.023.34-.024.15-.084.27-.06.117-.159.203-.1.086-.252.142-.152.055-.363.08-.211.028-.493.028h-.877q-.344 0-.58-.043-.235-.041-.388-.125-.152-.086-.236-.215-.082-.13-.121-.303-.037-.174-.043-.393-.006-.219-.006-.485 0-.265.006-.484.006-.22.043-.393.039-.174.12-.303.085-.129.237-.213.153-.086.387-.127.237-.043.58-.043h.878q.282 0 .493.027.21.026.363.08.153.053.252.135.1.082.159.194.06.111.084.252.023.14.023.313zM9.258 4.519q0-.346.074-.573.074-.226.238-.36.165-.132.426-.185.262-.055.637-.055.376 0 .638.055.261.053.426.186.164.133.238.36.074.226.074.572t-.074.574q-.074.23-.238.364-.165.135-.426.191-.262.055-.638.055-.375 0-.637-.055-.261-.056-.426-.191-.164-.135-.238-.364-.074-.228-.074-.574zm.375 0q0 .188.014.326.013.139.05.239.04.1.108.162t.18.1q.111.037.27.05.16.014.378.014.188 0 .335-.008.148-.01.258-.04.111-.032.19-.089.077-.058.124-.158.05-.1.07-.244.024-.147.024-.352 0-.201-.023-.342-.022-.143-.07-.239-.048-.095-.126-.15-.078-.057-.19-.084-.109-.03-.257-.037-.147-.008-.335-.008-.187 0-.336.008-.146.008-.258.037-.109.027-.187.084-.078.055-.127.15-.047.096-.07.239-.022.14-.022.342zM14.636 4.66q0 .287-.047.48-.047.192-.158.307-.11.115-.29.164-.18.05-.443.05-.256 0-.43-.04-.174-.039-.282-.133-.107-.094-.154-.25t-.047-.39v-1.13h-.463v-.31h.463v-.615h.375v.616h1.413v.309H13.16v1.13q0 .187.028.288.029.102.092.149.062.047.164.055.103.007.252.007.117 0 .209-.003.094-.004.162-.024.07-.021.12-.062.048-.043.077-.12.032-.076.045-.191.014-.117.014-.287zM17.325 4.66q0 .287-.047.48-.047.192-.158.307-.11.115-.29.164-.18.05-.443.05-.256 0-.43-.04-.174-.039-.282-.133-.107-.094-.154-.25t-.047-.39v-1.13h-.463v-.31h.463v-.615h.375v.616h1.413v.309H15.85v1.13q0 .187.028.288.029.102.092.149.062.047.164.055.103.007.252.007.117 0 .209-.003.094-.004.162-.024.07-.021.12-.062.048-.043.077-.12.032-.076.045-.191.014-.117.014-.287zM19.2 5.703q-.269 0-.449-.037-.177-.035-.29-.076-.114-.043-.173-.133-.058-.092-.088-.143v.346h-.375V2.658h.375v.964q.026-.041.084-.088.06-.049.174-.09.116-.043.295-.07.18-.028.448-.028.375 0 .637.057t.426.194q.164.136.238.367.075.229.075.574 0 .34-.075.565-.074.225-.238.358-.164.133-.426.187-.262.055-.637.055zm0-.293q.22 0 .378-.014.16-.013.272-.049.111-.035.18-.097.07-.063.107-.159.039-.097.05-.232.014-.137.014-.32 0-.184-.013-.321-.012-.137-.051-.233-.037-.097-.108-.16-.068-.064-.18-.1-.11-.037-.271-.05-.158-.014-.377-.014-.188 0-.334.01-.147.008-.258.039-.112.031-.19.09-.076.058-.125.156t-.072.242q-.022.145-.022.346 0 .2.022.342.023.141.072.237.049.096.125.154.078.057.19.086.111.03.258.04.146.007.334.007zM21.392 3.409v1.25q0 .21.03.354.032.143.126.23.094.089.266.128.172.039.453.039.305 0 .498-.045.196-.045.307-.127.112-.082.153-.197.043-.116.043-.256V3.409h.375V5.66h-.375v-.375q-.028.06-.092.135-.065.072-.194.135-.129.062-.334.105-.203.043-.506.043-.252 0-.434-.031-.18-.03-.307-.088-.125-.06-.201-.149-.076-.088-.117-.203-.041-.117-.055-.26-.014-.142-.014-.312l.002-1.251zM25.456 4.634q.22 0 .374.008.154.006.258.023.105.016.166.042.06.025.092.076.03.049.039.1.01.048.01.113 0 .07-.01.129-.008.056-.041.103-.034.047-.098.08-.065.034-.176.057-.111.024-.278.035-.164.01-.398.01-.258 0-.428-.014-.168-.015-.268-.056t-.14-.114q-.04-.074-.04-.191h-.375q0 .178.063.3.064.124.21.202.147.076.386.111.24.036.592.036.281 0 .492-.018.213-.016.366-.049.152-.035.252-.09.101-.056.16-.133.059-.078.082-.177.024-.102.024-.23 0-.126-.024-.222-.023-.098-.082-.168-.057-.072-.152-.133-.096-.06-.243-.09-.146-.029-.348-.04-.199-.012-.465-.012h-.373q-.154-.002-.26-.012-.103-.012-.164-.033-.06-.022-.092-.063-.031-.041-.04-.104-.009-.064-.009-.13 0-.114.051-.178.051-.065.168-.096.117-.031.309-.04.192-.007.473-.007.258 0 .426.016.17.013.27.052.1.038.138.104.041.066.041.172h.376q0-.17-.057-.293-.057-.123-.2-.203-.14-.082-.382-.122-.24-.039-.612-.039-.375 0-.637.034-.262.033-.426.109-.164.074-.239.195-.074.12-.074.296 0 .129.024.24.023.11.08.186.056.074.152.119.098.045.242.07.147.024.348.031.202.008.467.008z"
         style="-inkscape-font-specification:'Michroma, Normal';font-variant-ligatures:normal;font-variant-caps:normal;font-variant-numeric:normal;font-variant-east-asian:normal"
         id="path38" />
    </g>
  </g>
</svg>
