<?xml version="1.0" encoding="UTF-8" standalone="no"?>
<svg
   xmlns:dc="http://purl.org/dc/elements/1.1/"
   xmlns:cc="http://creativecommons.org/ns#"
   xmlns:rdf="http://www.w3.org/1999/02/22-rdf-syntax-ns#"
   xmlns:svg="http://www.w3.org/2000/svg"
   xmlns="http://www.w3.org/2000/svg"
   xmlns:xlink="http://www.w3.org/1999/xlink"
   xmlns:sodipodi="http://sodipodi.sourceforge.net/DTD/sodipodi-0.dtd"
   xmlns:inkscape="http://www.inkscape.org/namespaces/inkscape"
   id="6b5bbc3a-7ba8-40c4-8b79-fdc85beb38a1"
   data-name="Layer 1"
   width="250"
   height="201.65657"
   viewBox="0 0 250 201.65657"
   version="1.1"
   sodipodi:docname="no-script-warning-illustration.svg"
   inkscape:version="1.0.1 (3bc2e813f5, 2020-09-07, custom)">
  <metadata
     id="metadata205">
    <rdf:RDF>
      <cc:Work
         rdf:about="">
        <dc:format>image/svg+xml</dc:format>
        <dc:type
           rdf:resource="http://purl.org/dc/dcmitype/StillImage" />
      </cc:Work>
    </rdf:RDF>
  </metadata>
  <sodipodi:namedview
     pagecolor="#ffffff"
     bordercolor="#666666"
     borderopacity="1"
     objecttolerance="10"
     gridtolerance="10"
     guidetolerance="10"
     inkscape:pageopacity="0"
     inkscape:pageshadow="2"
     inkscape:window-width="1920"
     inkscape:window-height="1058"
     id="namedview203"
     showgrid="false"
     inkscape:zoom="0.70657175"
     inkscape:cx="-32.781944"
     inkscape:cy="157.3998"
     inkscape:window-x="0"
     inkscape:window-y="22"
     inkscape:window-maximized="0"
     inkscape:current-layer="6b5bbc3a-7ba8-40c4-8b79-fdc85beb38a1" />
  <defs
     id="defs10">
    <linearGradient
       id="fb7ae7e0-1793-4d3b-a6c6-7b51ed07a232"
       x1="86.900002"
       y1="457.32001"
       x2="402.79999"
       y2="457.32001"
       gradientUnits="userSpaceOnUse">
      <stop
         offset="0"
         stop-color="gray"
         stop-opacity="0.25"
         id="stop2" />
      <stop
         offset="0.54"
         stop-color="gray"
         stop-opacity="0.12"
         id="stop4" />
      <stop
         offset="1"
         stop-color="gray"
         stop-opacity="0.1"
         id="stop6" />
    </linearGradient>
    <linearGradient
       id="26387a05-323e-43c3-b271-53af00551daf"
       x1="3013.29"
       y1="358.28"
       x2="3255.1001"
       y2="358.28"
       gradientTransform="matrix(-1,0,0,1,3342,0)"
       xlink:href="#fb7ae7e0-1793-4d3b-a6c6-7b51ed07a232" />
    <linearGradient
       inkscape:collect="always"
       xlink:href="#fb7ae7e0-1793-4d3b-a6c6-7b51ed07a232"
       id="linearGradient1126"
       gradientUnits="userSpaceOnUse"
       x1="86.900002"
       y1="457.32001"
       x2="402.79999"
       y2="457.32001" />
  </defs>
  <title
     id="title12">warning</title>
  <g
     id="g1124"
     transform="scale(0.24218938)">
    <ellipse
       cx="530.98999"
       cy="416.32001"
       rx="466.48001"
       ry="416.32001"
       fill="#b32f26"
       opacity="0.1"
       id="ellipse14" />
    <ellipse
       cx="172"
       cy="629.28003"
       rx="172"
       ry="26.66"
       fill="#b32f26"
       opacity="0.1"
       id="ellipse16" />
    <ellipse
       cx="254.67"
       cy="769.13"
       rx="66.900002"
       ry="13.82"
       fill="#b32f26"
       opacity="0.1"
       id="ellipse18" />
    <ellipse
       cx="711.79999"
       cy="715.96002"
       rx="66.900002"
       ry="13.82"
       fill="#b32f26"
       opacity="0.1"
       id="ellipse20" />
    <ellipse
       cx="484.79001"
       cy="699.75"
       rx="108.79"
       ry="18.43"
       fill="#b32f26"
       opacity="0.1"
       id="ellipse22" />
    <ellipse
       cx="805.34003"
       cy="608.52002"
       rx="226.91"
       ry="35.540001"
       fill="#b32f26"
       opacity="0.1"
       id="ellipse24" />
    <path
       d="m 130.91,580.17 a 63.14,63.14 0 0 0 3.29,63.39 c 2,3 3.84,5.16 5.31,5.73 7.05,2.77 21.17,9.58 21.17,9.58 l 34,-13.36 c 0,0 5.52,-29.2 10.74,-54.27 v 0 c 3.56,-17.1 7,-32.27 8.41,-34.93 3.52,-6.55 0,-77.86 0,-77.86 0,0 -34,-2.28 -43.35,23.93 l -4.09,8 z"
       transform="translate(-83.88,-33.68)"
       fill="#a8a8a8"
       id="path26" />
    <path
       d="m 176.05,588.05 c 20.67,23.69 29.39,3.2 29.39,3.2 v 0 0 c 3.56,-17.1 7,-32.27 8.41,-34.93 3.52,-6.55 0,-77.86 0,-77.86 0,0 -34,-2.28 -43.35,23.93 l -4.09,8 c -2.62,20.97 -5.21,60.61 9.64,77.66 z"
       transform="translate(-83.88,-33.68)"
       fill="#ffffff"
       opacity="0.1"
       id="path28" />
    <path
       d="m 180.59,654.08 120,-13.86 L 322,499.34 305.81,462.75 a 148.26,148.26 0 0 0 -28,-42.24 c -8.15,-8.59 -18,-16.85 -28.36,-21 a 42.56,42.56 0 0 0 -4.33,-1.48 11.21,11.21 0 0 0 -10,1.77 c -14.8,10.49 -20.09,55.09 -21.8,76.56 a 239.6,239.6 0 0 1 -3.57,26.29 z"
       transform="translate(-83.88,-33.68)"
       fill="#a8a8a8"
       id="path30" />
    <path
       d="m 260.48,497.82 -25,61.5 c 13.1,-9.58 32.51,-61.75 32.51,-61.75 l 17.39,59.48 -13.86,-62.69 a 196.07,196.07 0 0 0 1.76,-41.14 c -1.1,-15.74 -15.87,-41 -23.89,-53.72 a 42.56,42.56 0 0 0 -4.33,-1.48 11.21,11.21 0 0 0 -10,1.77 c 6.3,12.65 22.05,44.28 26.85,53.68 6.09,11.84 -1.43,44.35 -1.43,44.35 z"
       transform="translate(-83.88,-33.68)"
       fill="#ffffff"
       opacity="0.1"
       id="path32" />
    <path
       d="M 280.89,658.87 H 346 a 19.75,19.75 0 0 0 19.73,-20.75 c -1.44,-27.92 -5.09,-77.7 -13.77,-109.3 -4.69,-17.05 -10.14,-26 -15.14,-30.41 a 14.77,14.77 0 0 0 -8.61,-4.05 11.3,11.3 0 0 0 -7,1.7 C 309.12,507.65 295,568.64 295,568.64 Z"
       transform="translate(-83.88,-33.68)"
       fill="#a8a8a8"
       id="path34" />
    <path
       d="m 341,604.78 c 2.68,7.43 3.74,16 0,24.35 l -14.51,7.17 c 0,0 -39,-16.53 -34.26,-50.41 0,0 1.28,-7 14.71,-6.46 A 38.07,38.07 0 0 1 341,604.78 Z"
       transform="translate(-83.88,-33.68)"
       fill="#ffffff"
       opacity="0.1"
       id="path36" />
    <path
       d="m 325.5,515.72 c -0.45,-11.88 6,-16 11.33,-17.31 a 14.77,14.77 0 0 0 -8.61,-4.05 22.86,22.86 0 0 0 -7.51,12 l -13.6,66.29 c 0,0 19.15,-37.02 18.39,-56.93 z"
       transform="translate(-83.88,-33.68)"
       fill="#ffffff"
       opacity="0.1"
       id="path38" />
    <path
       d="m 263.76,568.14 32.24,44.1 5.59,36.4 -20.72,10.23 -29.87,6.6 a 28.71,28.71 0 0 1 -8.77,0.57 l -81.51,-7.17 11.09,-25.71 38.3,-53.77 z"
       transform="translate(-83.88,-33.68)"
       fill="#a8a8a8"
       id="path40" />
    <path
       d="m 251.28,553 c 0,0 22,1.51 13.74,39.31 -8.26,37.8 -93.25,40.83 -93.25,40.83 0,0 18.06,-32 45.84,-54.93 3.12,-2.57 6.13,-5.25 9,-8.11 6.39,-6.39 18.61,-17.62 24.67,-17.1 z"
       transform="translate(-83.88,-33.68)"
       fill="#ffffff"
       opacity="0.1"
       id="path42" />
    <path
       d="m 271.07,581.5 c 0,0 29.81,27.13 27,68.88"
       transform="translate(-83.88,-33.68)"
       opacity="0.1"
       id="path44" />
    <path
       d="m 321.22,496.06 c 0,0 -31.28,41.6 -34.79,105.61"
       transform="translate(-83.88,-33.68)"
       opacity="0.1"
       id="path46" />
    <path
       d="m 213.86,478.43 c 0,0 15.14,68.75 -22.66,120.57"
       transform="translate(-83.88,-33.68)"
       opacity="0.1"
       id="path48" />
    <path
       d="m 489.61,733.05 h 163.14 a 9.14,9.14 0 0 0 8,-13.47 L 579.22,568.1 a 9.13,9.13 0 0 0 -16.08,0 l -81.57,151.48 a 9.14,9.14 0 0 0 8.04,13.47 z m 91.95,-27.68 H 560.8 v -20.75 h 20.76 z m 0,-34.59 H 560.8 v -41.51 h 20.76 z"
       transform="translate(-83.88,-33.68)"
       fill="#464353"
       id="path50" />
    <path
       d="m 489.61,733.05 h 163.14 a 9.14,9.14 0 0 0 8,-13.47 L 579.22,568.1 a 9.13,9.13 0 0 0 -16.08,0 l -81.57,151.48 a 9.14,9.14 0 0 0 8.04,13.47 z m 91.95,-27.68 H 560.8 v -20.75 h 20.76 z m 0,-34.59 H 560.8 v -41.51 h 20.76 z"
       transform="translate(-83.88,-33.68)"
       opacity="0.1"
       id="path52" />
    <path
       d="m 489.61,738.05 h 163.14 a 9.14,9.14 0 0 0 8,-13.47 L 579.22,573.1 a 9.13,9.13 0 0 0 -16.08,0 l -81.57,151.48 a 9.14,9.14 0 0 0 8.04,13.47 z m 91.95,-27.68 H 560.8 v -20.75 h 20.76 z m 0,-34.59 H 560.8 v -41.51 h 20.76 z"
       transform="translate(-83.88,-33.68)"
       fill="#464353"
       id="path54" />
    <path
       d="m 400,656.47 a 11.2,11.2 0 0 0 -2.31,-1.12 c -2.68,-1 -5.54,-1.26 -8.22,-2.22 a 11.77,11.77 0 0 1 -4.13,-2.44 c -0.2,-0.2 -0.39,-0.4 -0.57,-0.61 1,-0.63 1.91,-1.26 2.9,-1.85 a 34.36,34.36 0 0 0 -12.06,-12 c 1.61,-2.37 5.24,-2.18 7.36,-4.09 a 7,7 0 0 0 2,-3.93 c 0.79,-3.93 -0.19,-8 -1.17,-11.87 -1.9,-7.57 -3.82,-15.19 -6.9,-22.35 a 88.07,88.07 0 0 1 -3.74,-9.06 c -2.59,-8.62 -0.78,-18 -2.74,-26.81 -0.63,-2.83 -1.65,-5.75 -0.94,-8.55 1.09,-4.34 5.94,-6.91 7,-11.25 3.84,-15.45 4.53,-31.48 6.71,-47.25 A 60.81,60.81 0 0 0 384,482 c 0,-3.19 -0.57,-6.35 -0.8,-9.53 -0.62,-8.93 1.17,-17.85 1.94,-26.77 a 28,28 0 0 1 3.63,8.95 36.13,36.13 0 0 1 0.21,8.88 41.71,41.71 0 0 1 -0.63,5.91 c -0.49,2.32 -1.35,4.54 -1.92,6.86 a 21.21,21.21 0 0 0 0.95,13.76 c 1.36,3 4.35,5.78 7.46,4.88 2.15,-0.62 3.45,-2.76 4.41,-4.79 3,-6.36 4.67,-13.73 2.65,-20.49 -1.33,-4.5 -4.25,-8.57 -4.52,-13.27 a 34.3,34.3 0 0 1 0.44,-5.61 c 1.25,-10.86 -1.45,-21.77 -2.05,-32.69 -0.16,-2.89 0.1,-6.48 -0.55,-9.55 -0.08,-0.37 -0.17,-0.74 -0.28,-1.09 a 2.34,2.34 0 0 1 0.72,0.33 6.52,6.52 0 0 0 -0.14,-5.59 14.21,14.21 0 0 1 -0.94,-1.76 c -0.38,-1 -0.31,-2.16 -0.78,-3.12 a 13.31,13.31 0 0 0 -1,-1.45 c -1.29,-1.87 -1.36,-4.29 -1.39,-6.56 q -0.23,-17.76 -1,-35.48 c -0.27,-6 -0.61,-12.14 -2.71,-17.77 a 26.64,26.64 0 0 0 -9.4,-12.47 21.9,21.9 0 0 0 -2.11,-1.32 7.32,7.32 0 0 0 0.6,-2.7 6.46,6.46 0 0 0 0,-0.88 l -0.06,-0.5 v 0 a 21.1,21.1 0 0 0 -2,-6 16.86,16.86 0 0 1 -1.91,-6.56 10.19,10.19 0 0 1 0.07,-1.24 v 0 c 0.34,-2.88 1.84,-5.58 2.37,-8.46 a 14.51,14.51 0 0 0 0.22,-2.71 c 0,-0.31 0,-0.63 0,-0.95 a 27.26,27.26 0 0 0 -3.21,-10.1 c -0.5,-1 -1,-2 -1.56,-3 -0.26,-1.87 -0.55,-3.74 -0.84,-5.6 -0.16,-1.08 -0.33,-2.16 -0.56,-3.23 q -0.17,-0.8 -0.39,-1.56 c 1.55,-1.46 0.65,-3.6 -0.34,-5.58 -1.91,-3.76 -1.51,-8.25 -2.32,-12.39 a 37.44,37.44 0 0 0 -2.94,-8.32 18.54,18.54 0 0 0 -3.19,-5.24 19.56,19.56 0 0 0 -4.13,-3 13.15,13.15 0 0 0 -4.1,-1.85 c -0.91,-0.18 -1.84,-0.17 -2.74,-0.38 a 8.68,8.68 0 0 1 -1.68,-0.61 11.43,11.43 0 0 0 -3.59,-1.31 8,8 0 0 0 -3.46,0.66 12.73,12.73 0 0 1 -3.72,1 c -0.45,0 -0.93,0 -1.41,0 a 3.13,3.13 0 0 0 -1.91,0.46 7.22,7.22 0 0 0 -0.82,0.84 11.07,11.07 0 0 1 -2.41,1.65 23.75,23.75 0 0 0 -11.66,20.3 10.06,10.06 0 0 1 -0.29,3.29 c -0.29,0.84 -0.86,1.57 -1.1,2.43 A 6.82,6.82 0 0 0 317,263 c 0.08,1.17 0.2,2.33 0.33,3.5 v 0 a 7.36,7.36 0 0 0 -1.46,3.23 v 0 a 4.41,4.41 0 0 0 -0.09,0.62 v 0.08 0 c -0.11,2.09 0.92,4 1.52,6 A 21.32,21.32 0 0 1 317,288.2 c -0.73,2.63 -1.77,5.35 -2,8 v 0 c 0,0.06 0,0.12 0,0.18 a 9.67,9.67 0 0 0 0.46,4 c 0.33,0.91 0.82,1.76 1.12,2.68 1.06,3.26 -0.48,6.68 -2.52,9.54 v 0 c -0.32,0.45 -0.65,0.88 -1,1.3 h 0.05 l -0.05,0.05 2.08,1.47 c -0.61,0.32 -1.22,0.67 -1.84,1 a 18.92,18.92 0 0 0 -6.78,2.51 27.56,27.56 0 0 0 -5.5,3.66 23.33,23.33 0 0 0 -4.34,6 75.41,75.41 0 0 0 -3.68,7.76 24.3,24.3 0 0 0 -1.88,6.73 c -0.86,1.83 -1.57,3.8 -2.36,5.57 -0.4,0.91 -0.79,1.82 -1.18,2.73 l -34.42,-84.28 -5.34,2.22 0.42,1 -1.11,0.47 1.51,3.68 c -0.22,0.15 -0.44,0.3 -0.65,0.46 l -0.28,0.22 -0.56,0.44 -0.28,0.23 -0.57,0.48 -0.21,0.18 -0.71,0.65 v 0 c -0.76,0.69 -1.49,1.42 -2.2,2.15 l -1.83,1.89 -0.35,0.37 -0.61,0.62 -0.34,0.35 -0.87,0.87 -0.06,0.06 -0.54,0.52 -0.34,0.32 c -0.14,0.14 -0.29,0.27 -0.44,0.4 l -0.42,0.39 -0.68,0.58 -0.2,0.18 -0.93,0.74 a 26.07,26.07 0 0 1 -4,2.57 c -5.47,2.83 -11.26,5.2 -16.6,8.23 a 47.8,47.8 0 0 0 -8.22,5.76 c -3.53,3.13 -6.52,7 -10.61,9.27 l -0.45,0.24 c -7.24,3.72 -15.77,1.49 -24,1.33 -1.23,0 -2.44,0 -3.64,0.08 -6.68,0.52 -12.79,3.23 -18.7,6.53 -4.16,2.33 -8.22,4.95 -12.3,7.32 -2.58,1.49 -5.17,3.11 -7.77,4.77 -6.6,4.19 -13.28,8.59 -20.19,11.76 -6.42,2.94 -13,4.81 -20,4.45 H 89 c -0.67,0 -1.34,-0.09 -2,-0.17 -0.65,5.25 3.55,9.48 6.35,14.1 a 14.29,14.29 0 0 1 2.37,6.68 12,12 0 0 1 -0.2,2.68 c -0.56,3.24 -2.06,6.42 -1.65,9.68 a 11.21,11.21 0 0 0 2.13,5.26 c 1.78,2.54 4.25,4.8 5.93,7.45 2.54,4 3.2,8.87 4.19,13.58 a 28.57,28.57 0 0 0 3.29,9.41 c 2.16,3.48 5.46,6 8.56,8.67 0.57,0.49 1.13,1 1.67,1.5 0.4,0.36 0.79,0.74 1.16,1.13 3.63,3.71 6.33,9.43 4.14,14.07 -0.07,0.16 -0.15,0.3 -0.23,0.45 a 4,4 0 0 0 0.55,0.33 c 2.79,1.36 6.29,-0.82 8.58,-3.13 1.13,-1.13 2.2,-2.33 3.24,-3.55 2.79,-3.1 5.35,-6.46 8,-9.68 0.72,-0.87 1.44,-1.72 2.18,-2.56 a 37,37 0 0 1 9.88,-8 36.29,36.29 0 0 1 6.06,-2.46 c 3.1,-1 6.3,-1.74 9.41,-2.72 A 77.31,77.31 0 0 0 185,406.4 190.55,190.55 0 0 0 205,394 l 1,-0.65 a 34.28,34.28 0 0 0 5.95,-4.75 c 0.32,-0.35 0.63,-0.71 0.92,-1.08 1.56,-2 2.57,-4.37 4,-6.45 a 20.75,20.75 0 0 1 5.61,-5.41 c 6.17,-4.15 14.36,-5.73 21.69,-8 h 0.08 a 84.3,84.3 0 0 0 34.17,-20.29 l 5.48,13.42 q -0.85,2.38 -1.61,4.81 c -1.22,4 -2.22,8.12 -4.61,11.5 a 8.58,8.58 0 0 0 -1.74,3.09 10,10 0 0 1 -0.41,2.48 c -0.34,0.68 -1.05,1.13 -1.34,1.83 -0.42,1 0.13,2.29 -0.43,3.23 a 5.08,5.08 0 0 1 -0.95,1 C 271.38,390 271,392 271,393.82 a 17.83,17.83 0 0 1 -0.45,5.52 13.15,13.15 0 0 1 1.29,-0.67 6,6 0 0 0 -0.11,1 11.14,11.14 0 0 0 0.35,2.81 22.19,22.19 0 0 0 2.92,5.84 41.5,41.5 0 0 0 3.13,4.5 41,41 0 0 0 6.62,5.92 l 10.08,7.78 -1,4.21 c -2.2,8.82 -4.42,17.75 -4.53,26.85 a 115.7,115.7 0 0 0 0.81,12.89 l 0.87,8.78 c 0.7,7.07 1.4,14.14 2.17,21.21 0.49,4.47 1,9 2.58,13.22 2.38,6.41 -0.25,13.65 0.76,20.43 0.8,5.31 2.38,10.8 0.79,15.93 -0.64,2 -1.76,3.92 -2.58,5.9 -2.05,4.92 -2.26,10.39 -2.43,15.72 a 66.81,66.81 0 0 0 0.51,14 c 0.86,4.78 2.76,9.47 2.39,14.32 -0.52,6.89 -5.56,12.78 -6.17,19.67 -0.49,5.49 1.9,10.8 4.47,15.67 1.89,3.59 -0.75,8.23 -1.75,12.18 -2,7.75 1.32,15.85 5.37,22.72 a 1.12,1.12 0 0 0 0.51,0.54 c 0.46,0.17 0.89,-0.29 1.19,-0.68 0.3,-0.39 0.39,-0.48 0.6,-0.71 0,0.31 0.06,0.62 0.08,0.92 0,0.65 0.05,1.3 0.05,2 a 20.1,20.1 0 0 0 1.36,7.4 13.07,13.07 0 0 0 0.56,1.34 6.18,6.18 0 0 0 1,1.61 6.11,6.11 0 0 0 4,1.68 c 3.32,0.36 6.66,-0.33 10,-0.62 3.52,-0.3 7.05,-0.17 10.58,-0.25 a 1.53,1.53 0 0 0 0.79,-0.17 1.35,1.35 0 0 0 0.45,-0.72 8,8 0 0 0 0.17,-3.94 27.94,27.94 0 0 0 -0.75,-3.13 c -0.47,-1.65 -0.9,-3.31 -1.31,-5 -0.08,-0.31 -0.15,-0.62 -0.22,-0.93 l 0.16,0.07 q 3.23,-7.26 6.47,-14.52 c 1.09,-2.45 2.2,-5.1 1.66,-7.73 -0.39,-1.88 -1.59,-3.47 -2.44,-5.19 -2,-4.06 -2.08,-8.8 -2.11,-13.34 l -0.12,-25.72 c 5,-6.36 8.09,-13.93 10,-21.83 a 70.61,70.61 0 0 1 0.59,34 31.67,31.67 0 0 0 -0.95,5.18 c -0.39,7.13 5.16,13.17 6.64,20.15 a 4.54,4.54 0 0 1 0.11,1.64 6.15,6.15 0 0 1 -0.82,1.9 c -2.66,4.87 -2.37,10.75 -2,16.29 l 1.17,0.19 a 3.1,3.1 0 0 0 1.24,1.22 v 0 a 6.12,6.12 0 0 0 1.55,0.64 38.18,38.18 0 0 0 5.83,0.89 c 2.82,0.28 5.65,0.56 8.48,0.74 1.12,0.07 2.24,0.13 3.36,0.16 a 33.55,33.55 0 0 1 4.7,0.33 34,34 0 0 1 5,1.45 c 7.29,2.44 15.45,3.83 22.51,0.79 a 10.14,10.14 0 0 0 4.11,-2.91 4.84,4.84 0 0 0 -1.21,-7.52 z M 303.28,371.4 c 1.06,2.11 2.12,4.21 3,6.4 1.73,4.24 2.78,9 1.68,13.42 -0.32,1.3 -2.41,2.3 -2.4,3.64 a 3,3 0 0 0 -0.16,0.31 l -6.53,-16 a 57.08,57.08 0 0 1 4.41,-7.77 z m -7.17,34 a 27.67,27.67 0 0 1 -3.54,-6.11 c -0.12,-0.27 -0.25,-0.53 -0.37,-0.8 a 2.4,2.4 0 0 0 0.95,-0.71 c 1,-1.26 0.46,-3.1 0.61,-4.72 a 10.2,10.2 0 0 1 1.59,-4 l 6.13,15 q -0.93,2.44 -1.74,4.93 a 35,35 0 0 1 -3.63,-3.59 z"
       transform="translate(-83.88,-33.68)"
       fill="url(#fb7ae7e0-1793-4d3b-a6c6-7b51ed07a232)"
       id="path56"
       style="fill:url(#linearGradient1126)" />
    <path
       d="m 317.69,270.4 c -0.11,2.09 0.93,4 1.54,6 a 21.23,21.23 0 0 1 -0.29,11.74 c -1.12,4 -3,8.23 -1.57,12.14 0.33,0.92 0.83,1.76 1.13,2.68 1.24,3.8 -1.06,7.8 -3.58,10.91 l 9.89,6.93 a 11.37,11.37 0 0 0 5,2.39 c 1.85,0.22 4,-0.77 4.38,-2.59 0.13,-0.62 0,-1.27 0.12,-1.9 a 5.16,5.16 0 0 1 2.77,-3.84 9.06,9.06 0 0 1 4.79,-0.89 c 6.07,0.33 11.23,4.32 16.75,6.88 a 67.38,67.38 0 0 0 11.27,3.74 c 2.19,0.57 4.62,1.09 6.6,0 1.98,-1.09 2.89,-3.62 2.74,-5.91 a 19.33,19.33 0 0 0 -2.1,-6.51 16.56,16.56 0 0 1 -1.93,-6.55 c 0,-3.36 1.84,-6.42 2.46,-9.72 0.87,-4.69 -0.9,-9.46 -3.06,-13.72 -2.16,-4.26 -4.78,-8.36 -5.83,-13 a 19,19 0 0 0 -1.09,-4.11 9.36,9.36 0 0 0 -2,-2.68 c -3.71,-3.67 -9,-5.41 -14.18,-5.79 -5.18,-0.38 -10.41,0.47 -15.55,1.36 a 32.51,32.51 0 0 0 -5.77,1.37 36.65,36.65 0 0 0 -7.59,4.11 c -2.34,1.62 -4.75,3.99 -4.9,6.96 z"
       transform="translate(-83.88,-33.68)"
       fill="#464353"
       id="path58" />
    <g
       opacity="0.1"
       id="g68">
      <path
         d="m 375.17,303.57 c 0,0.3 0,0.6 0.06,0.89 0.31,-2.93 1.85,-5.68 2.4,-8.61 a 14.22,14.22 0 0 0 0.19,-3.56 c 0,0.52 -0.1,1 -0.19,1.56 -0.63,3.3 -2.5,6.36 -2.46,9.72 z"
         transform="translate(-83.88,-33.68)"
         id="path60" />
      <path
         d="m 319.9,280.4 a 17.91,17.91 0 0 0 -0.67,-6 34.78,34.78 0 0 1 -1.45,-4.66 c 0,0.21 -0.08,0.41 -0.09,0.62 -0.11,2.09 0.93,4 1.54,6 a 16.89,16.89 0 0 1 0.67,4.04 z"
         transform="translate(-83.88,-33.68)"
         id="path62" />
      <path
         d="m 379.14,318.13 a 5.72,5.72 0 0 1 -2.68,4.41 c -2,1.09 -4.41,0.57 -6.6,0 a 66.52,66.52 0 0 1 -11.27,-3.75 c -5.52,-2.55 -10.68,-6.54 -16.75,-6.87 a 9.06,9.06 0 0 0 -4.79,0.89 5.16,5.16 0 0 0 -2.77,3.84 c -0.07,0.63 0,1.28 -0.12,1.9 -0.39,1.82 -2.53,2.81 -4.38,2.59 a 11.37,11.37 0 0 1 -5,-2.39 l -8.89,-6.24 c -0.33,0.45 -0.66,0.89 -1,1.3 l 9.89,6.94 a 11.37,11.37 0 0 0 5,2.39 c 1.85,0.22 4,-0.77 4.38,-2.59 0.13,-0.62 0,-1.27 0.12,-1.9 a 5.16,5.16 0 0 1 2.77,-3.84 9.06,9.06 0 0 1 4.79,-0.89 c 6.07,0.33 11.23,4.32 16.75,6.87 a 66.52,66.52 0 0 0 11.27,3.75 c 2.19,0.57 4.62,1.09 6.6,0 1.98,-1.09 2.89,-3.62 2.74,-5.91 -0.01,-0.17 -0.04,-0.33 -0.06,-0.5 z"
         transform="translate(-83.88,-33.68)"
         id="path64" />
      <path
         d="m 318.5,302.91 a 7.74,7.74 0 0 1 0.27,1.23 7.25,7.25 0 0 0 -0.27,-3.23 c -0.3,-0.92 -0.8,-1.76 -1.13,-2.68 a 8.36,8.36 0 0 1 -0.46,-2.07 9.4,9.4 0 0 0 0.46,4.07 c 0.33,0.92 0.83,1.77 1.13,2.68 z"
         transform="translate(-83.88,-33.68)"
         id="path66" />
    </g>
    <path
       d="m 330.24,682.36 a 1.31,1.31 0 0 1 -0.46,0.72 1.53,1.53 0 0 1 -0.79,0.17 c -3.56,0.08 -7.12,0 -10.67,0.25 -3.36,0.29 -6.73,1 -10.08,0.62 a 5.17,5.17 0 0 1 -5,-3.29 13.07,13.07 0 0 1 -0.56,-1.34 19.91,19.91 0 0 1 -1.37,-7.4 c 0,-0.67 0,-1.32 0,-2 a 15.17,15.17 0 0 0 -0.29,-2.18 3.31,3.31 0 0 1 0.1,-2.53 c 1.42,-2.59 4.85,-3.11 7.49,-3.31 a 61.85,61.85 0 0 1 18.25,1.34 c 0.47,2.3 1,4.58 1.56,6.86 q 0.62,2.51 1.32,5 a 28,28 0 0 1 0.76,3.13 8,8 0 0 1 -0.26,3.96 z"
       transform="translate(-83.88,-33.68)"
       fill="#464353"
       id="path70" />
    <path
       d="m 330.24,682.36 a 1.31,1.31 0 0 1 -0.46,0.72 1.53,1.53 0 0 1 -0.79,0.17 c -3.56,0.08 -7.12,0 -10.67,0.25 -3.36,0.29 -6.73,1 -10.08,0.62 a 5.17,5.17 0 0 1 -5,-3.29 13.07,13.07 0 0 1 -0.56,-1.34 h 1.28 c 4.21,0 8.43,-0.15 12.64,-0.15 1.27,0 2.55,-0.06 3.81,-0.21 1.26,-0.15 2.29,-0.36 3.44,-0.5 a 47.13,47.13 0 0 1 5.18,-0.21 h 1.42 a 8,8 0 0 1 -0.21,3.94 z"
       transform="translate(-83.88,-33.68)"
       opacity="0.06"
       id="path72" />
    <path
       d="m 403.89,663.79 a 10.23,10.23 0 0 1 -4.14,2.91 c -7.12,3 -15.35,1.65 -22.7,-0.79 a 34.58,34.58 0 0 0 -5.05,-1.45 34,34 0 0 0 -4.73,-0.33 c -1.13,0 -2.26,-0.09 -3.39,-0.16 -2.86,-0.18 -5.71,-0.46 -8.55,-0.74 a 38.63,38.63 0 0 1 -5.88,-0.89 6.25,6.25 0 0 1 -1.57,-0.64 v 0 a 2.41,2.41 0 0 1 -1.44,-2.15 c 0.08,-1.27 1.4,-2 2.56,-2.55 10.29,-4.45 21.47,-6.38 32.57,-7.93 a 13.05,13.05 0 0 0 3.27,-1 c 1.25,-0.5 1.38,0.32 2,1.24 a 7.71,7.71 0 0 0 1,1.18 11.9,11.9 0 0 0 4.16,2.44 c 2.7,1 5.59,1.27 8.29,2.22 a 11.35,11.35 0 0 1 2.33,1.12 4.82,4.82 0 0 1 1.22,7.52 z"
       transform="translate(-83.88,-33.68)"
       fill="#464353"
       id="path74" />
    <path
       d="m 403.89,663.79 a 10.23,10.23 0 0 1 -4.14,2.91 c -7.12,3 -15.35,1.65 -22.7,-0.79 a 34.58,34.58 0 0 0 -5.05,-1.45 34,34 0 0 0 -4.73,-0.33 c -1.13,0 -2.26,-0.09 -3.39,-0.16 0.92,-0.87 1.86,-1.72 2.82,-2.54 a 8.4,8.4 0 0 1 2.37,-1.56 6.86,6.86 0 0 1 3.37,-0.23 c 5.72,0.79 10.86,4.8 16.63,4.45 a 20.46,20.46 0 0 0 7.65,-2.47 13.35,13.35 0 0 0 5,-3.56 5.77,5.77 0 0 0 0.93,-1.79 4.82,4.82 0 0 1 1.22,7.52 z"
       transform="translate(-83.88,-33.68)"
       opacity="0.06"
       id="path76" />
    <path
       d="m 401.88,490 c -1,2 -2.28,4.17 -4.44,4.79 -3.14,0.9 -6.16,-1.92 -7.53,-4.88 a 21.08,21.08 0 0 1 -1,-13.76 c 0.57,-2.31 1.44,-4.53 1.93,-6.85 a 41.72,41.72 0 0 0 0.64,-5.91 36.13,36.13 0 0 0 -0.21,-8.88 c -1.61,-8.59 -9,-15 -11.46,-23.44 -1.24,-4.21 -1.18,-8.69 -1.11,-13.08 a 13.45,13.45 0 0 1 0.34,-3.3 5.15,5.15 0 0 1 0.3,-0.86 c 1.65,-3.66 6.54,-4.16 9.94,-6.29 1.88,-1.17 6.15,-4.94 7.73,-1.5 a 11.31,11.31 0 0 1 0.76,2.39 c 0.65,3.06 0.39,6.65 0.55,9.54 0.61,10.92 3.33,21.82 2.07,32.68 a 34.09,34.09 0 0 0 -0.44,5.6 c 0.27,4.7 3.21,8.77 4.56,13.27 2.08,6.77 0.41,14.14 -2.63,20.48 z"
       transform="translate(-83.88,-33.68)"
       fill="#fbbebe"
       id="path78" />
    <path
       d="m 397.82,408.45 a 3.37,3.37 0 0 0 -2.3,0 l -6.77,2 a 41.92,41.92 0 0 0 -6.91,2.51 16.21,16.21 0 0 0 -2.75,1.71 5.15,5.15 0 0 1 0.3,-0.86 c 1.65,-3.66 6.54,-4.16 9.94,-6.29 1.88,-1.17 6.15,-4.94 7.73,-1.5 a 11.31,11.31 0 0 1 0.76,2.43 z"
       transform="translate(-83.88,-33.68)"
       opacity="0.1"
       id="path80" />
    <path
       d="m 398.26,407.69 a 3.06,3.06 0 0 0 -2.74,-0.22 l -6.77,2 a 41.92,41.92 0 0 0 -6.91,2.51 15.88,15.88 0 0 0 -3.29,2.14 c -3.16,-5.49 -4,-12 -4.58,-18.3 -0.32,-3.67 -0.56,-7.35 -0.7,-11 a 49.34,49.34 0 0 1 0.16,-7.88 c 0.38,-3 1.25,-5.93 1.79,-8.91 a 40.66,40.66 0 0 0 0.62,-5.28 51.63,51.63 0 0 0 -0.53,-11.59 71.84,71.84 0 0 0 -2.78,-12 c -0.64,-1.79 -1.41,-3.52 -2.11,-5.28 l -0.24,-0.62 a 72.9,72.9 0 0 1 -3.09,-9.91 c -0.32,-1.38 -0.34,-2.83 -1.4,-3.77 a 18.82,18.82 0 0 1 3,-0.12 q 0.3,0 0.6,0 a 22.43,22.43 0 0 1 11.44,4 26.73,26.73 0 0 1 9.48,12.54 c 2.11,5.63 2.46,11.75 2.73,17.76 q 0.81,17.72 1,35.46 c 0,2.27 0.1,4.69 1.4,6.56 a 13.39,13.39 0 0 1 1,1.45 c 0.47,1 0.4,2.11 0.78,3.12 a 15.77,15.77 0 0 0 0.95,1.76 6.45,6.45 0 0 1 0.19,5.58 z"
       transform="translate(-83.88,-33.68)"
       fill="#464353"
       id="path82" />
    <path
       d="m 331.7,290.31 c -1,-0.33 -2,-0.68 -3,-1 l 2.08,0.16 a 4.2,4.2 0 0 1 0.92,0.84 z"
       transform="translate(-83.88,-33.68)"
       fill="#fbbebe"
       id="path84" />
    <path
       d="m 372.65,326.4 c -0.2,0.68 -0.4,1.36 -0.62,2 a 38.22,38.22 0 0 1 -1.85,4.81 22.38,22.38 0 0 1 -4.73,6.86 6.28,6.28 0 0 1 -2.36,1.56 7.5,7.5 0 0 1 -2.32,0.22 q -4,0 -8,-0.12 a 28.42,28.42 0 0 1 -6.18,-0.61 22.07,22.07 0 0 1 -6.3,-2.84 c -7.47,-4.62 -13.61,-11.66 -16.24,-20 -0.33,-1.06 -0.56,-2.33 0.17,-3.16 a 3.87,3.87 0 0 1 2.55,-0.87 h 0.12 a 16.11,16.11 0 0 0 6.09,-2.09 6.26,6.26 0 0 0 2.78,-2.84 7.66,7.66 0 0 0 -0.09,-4.42 l -2.22,-10.08 a 10.44,10.44 0 0 0 -1.77,-4.49 c 0.65,0.23 1.3,0.44 2,0.62 6.18,1.67 12.94,0.66 19,2.85 2.32,0.85 4.64,2.38 5.34,4.76 1.17,4 -2.74,8.15 -1.62,12.15 0.75,2.72 3.52,4.29 6,5.56 l 1.67,0.85 4.63,2.35 0.64,0.32 0.1,0.05 c 1.46,0.74 3,1.66 3.51,3.23 a 6,6 0 0 1 -0.3,3.33 z"
       transform="translate(-83.88,-33.68)"
       fill="#fbbebe"
       id="path86" />
    <path
       d="m 384.85,349.88 a 21.59,21.59 0 0 1 -1.84,7.4 30.23,30.23 0 0 0 -3.15,13 c -0.77,13.5 -5.9,29.57 1.45,40.91 0.18,0.28 0.36,0.56 0.53,0.85 a 15.88,15.88 0 0 0 -3.29,2.14 c -3.16,-5.49 -4,-12 -4.58,-18.3 -0.32,-3.67 -0.56,-7.35 -0.7,-11 a 49.34,49.34 0 0 1 0.16,-7.88 c 0.38,-3 1.25,-5.93 1.79,-8.91 a 40.66,40.66 0 0 0 0.62,-5.28 51.63,51.63 0 0 0 -0.53,-11.59 71.84,71.84 0 0 0 -2.78,-12 c -0.64,-1.79 -1.41,-3.52 -2.11,-5.28 l -0.24,-0.62 a 22.38,22.38 0 0 1 -4.73,6.86 6.28,6.28 0 0 1 -2.36,1.56 7.5,7.5 0 0 1 -2.32,0.22 q -4,0 -8,-0.12 a 28.42,28.42 0 0 1 -6.18,-0.61 22.07,22.07 0 0 1 -6.3,-2.84 c -7.47,-4.62 -13.61,-11.66 -16.24,-20 -0.33,-1.06 -0.56,-2.33 0.17,-3.16 a 3.87,3.87 0 0 1 2.55,-0.87 h 0.12 l 9,11.13 a 18,18 0 0 1 2.6,3.89 2.32,2.32 0 0 0 0.8,1.19 2.05,2.05 0 0 0 1,0.18 c 8.45,0 19.71,0 28.16,0 a 7.31,7.31 0 0 0 -1.24,-4.21 c -0.26,0.06 -0.61,0.08 -0.07,-0.08 a 28.34,28.34 0 0 0 -3.1,-9.27 6.45,6.45 0 0 0 -0.31,-0.58 10.66,10.66 0 0 1 -1.48,-3.24 5.4,5.4 0 0 1 3.28,0 c 1.23,0.53 1.87,1.86 2.41,3.09 0.46,1 0.92,2.07 1.33,3.12 0,0.11 0.1,0.23 0.14,0.34 a 22.64,22.64 0 0 1 1.66,6.49 c 0.06,0.82 0.26,1.86 0.94,2.13 a 0.89,0.89 0 0 0 0.34,0.08 3.78,3.78 0 0 1 4.09,1 9,9 0 0 1 2,3.94 21.56,21.56 0 0 0 1.42,4.24 c 1.29,2.46 -0.68,3.56 1.65,5.07 a 8.12,8.12 0 0 1 2.74,2.46 7.68,7.68 0 0 1 0.6,4.55 z"
       transform="translate(-83.88,-33.68)"
       opacity="0.1"
       id="path88" />
    <path
       d="m 326.77,663.45 c 0.47,2.3 1,4.58 1.56,6.86 l -0.06,0.14 c -4.57,-2 -9.25,-4.09 -14.24,-4.53 -4.63,-0.4 -9.66,0.85 -12.81,4.21 a 15.17,15.17 0 0 0 -0.29,-2.18 3.31,3.31 0 0 1 0.1,-2.53 c 1.42,-2.59 4.85,-3.11 7.49,-3.31 a 61.85,61.85 0 0 1 18.25,1.34 z"
       transform="translate(-83.88,-33.68)"
       opacity="0.1"
       id="path90" />
    <path
       d="m 366.16,328.37 c 0.47,0 0.3,0 0.07,0.08 -0.23,0.08 -0.61,0.08 -0.07,-0.08 z"
       transform="translate(-83.88,-33.68)"
       opacity="0.1"
       id="path92" />
    <path
       d="m 387.89,650.49 a 86.86,86.86 0 0 0 -12.52,9.69 13.11,13.11 0 0 1 -3.95,2.89 11.54,11.54 0 0 1 -4.76,0.49 162,162 0 0 1 -18.78,-1.86 v 0 a 2.41,2.41 0 0 1 -1.44,-2.15 c 0.08,-1.27 1.4,-2 2.56,-2.55 10.29,-4.45 21.47,-6.38 32.57,-7.93 a 13.05,13.05 0 0 0 3.27,-1 c 1.25,-0.5 1.38,0.32 2,1.24 a 7.71,7.71 0 0 0 1.05,1.18 z"
       transform="translate(-83.88,-33.68)"
       opacity="0.1"
       id="path94" />
    <path
       d="m 314.52,316.77 c 1.47,1.31 3.15,2.37 4.64,3.64 4,3.39 6.52,8.13 9,12.75 a 8.34,8.34 0 0 1 -4.59,0.31 32.92,32.92 0 0 0 0.39,13.37 12.4,12.4 0 0 0 -4.47,5.55 37.1,37.1 0 0 0 -1.46,7 q -2.16,15.61 -4.34,31.22 a 4.84,4.84 0 0 1 -1,2.81 5.39,5.39 0 0 0 -0.76,0.75 4.15,4.15 0 0 0 -0.35,2.15 c -0.06,0.73 -0.54,1.6 -1.27,1.5 a 1.58,1.58 0 0 1 -0.89,-0.58 20.42,20.42 0 0 1 -2,-2.48 c -5.9,11.32 -8.74,23.52 -11.86,35.9 -2.23,8.82 -4.46,17.74 -4.57,26.84 a 115.68,115.68 0 0 0 0.81,12.88 l 0.88,8.78 c 0.71,7.06 1.42,14.13 2.19,21.19 0.5,4.48 1,9 2.61,13.22 2.4,6.41 -0.26,13.64 0.76,20.42 0.8,5.31 2.39,10.8 0.79,15.92 -0.64,2.05 -1.76,3.92 -2.6,5.9 -2.06,4.92 -2.27,10.39 -2.45,15.72 a 66,66 0 0 0 0.52,14 c 0.86,4.79 2.79,9.48 2.41,14.32 -0.53,6.89 -5.61,12.78 -6.23,19.66 -0.49,5.49 1.92,10.79 4.51,15.66 1.91,3.59 -0.75,8.23 -1.76,12.18 -2,7.74 1.33,15.84 5.41,22.71 a 1.09,1.09 0 0 0 0.52,0.54 c 0.47,0.17 0.89,-0.29 1.2,-0.68 3.07,-3.94 8.51,-5.43 13.5,-5 4.99,0.43 9.66,2.49 14.24,4.53 L 334.79,655 c 1.1,-2.45 2.22,-5.1 1.67,-7.73 -0.39,-1.88 -1.6,-3.47 -2.46,-5.19 -2,-4.06 -2.1,-8.79 -2.12,-13.34 l -0.12,-25.7 c 5.06,-6.36 8.15,-13.92 10.1,-21.82 a 70,70 0 0 1 0.6,34 30.85,30.85 0 0 0 -1,5.18 c -0.39,7.13 5.2,13.16 6.69,20.14 a 4.33,4.33 0 0 1 0.12,1.64 6.18,6.18 0 0 1 -0.83,1.9 c -2.68,4.86 -2.39,10.75 -2,16.29 a 162.33,162.33 0 0 0 21.21,2.27 11.92,11.92 0 0 0 4.76,-0.49 13.14,13.14 0 0 0 3.95,-2.9 87.22,87.22 0 0 1 14.87,-11.25 34.62,34.62 0 0 0 -12.15,-12 c 1.61,-2.37 5.28,-2.18 7.42,-4.08 a 7,7 0 0 0 2,-3.94 c 0.8,-3.92 -0.19,-8 -1.18,-11.85 -1.92,-7.58 -3.85,-15.19 -7,-22.35 a 85.88,85.88 0 0 1 -3.76,-9.05 c -2.62,-8.62 -0.79,-18 -2.77,-26.81 -0.64,-2.82 -1.67,-5.73 -0.95,-8.54 1.1,-4.33 6,-6.9 7.08,-11.24 3.87,-15.45 4.56,-31.46 6.76,-47.23 a 60.68,60.68 0 0 0 0.79,-9.11 c 0,-3.19 -0.57,-6.35 -0.8,-9.53 -0.9,-12.73 3.17,-25.43 2.13,-38.15 a 48,48 0 0 0 -7.52,-22 c -7.35,-11.35 -2.22,-27.41 -1.45,-40.91 a 30.08,30.08 0 0 1 3.14,-13 21.33,21.33 0 0 0 1.85,-7.4 7.65,7.65 0 0 0 -0.56,-4.67 7.89,7.89 0 0 0 -2.73,-2.46 c -2.33,-1.52 -0.36,-2.62 -1.65,-5.08 a 21.34,21.34 0 0 1 -1.42,-4.24 8.92,8.92 0 0 0 -2,-3.93 3.78,3.78 0 0 0 -4.09,-1 c -0.95,0 -1.21,-1.26 -1.29,-2.21 -0.27,-3.48 -1.71,-6.75 -3.12,-9.95 -0.54,-1.23 -1.18,-2.56 -2.41,-3.09 a 5.51,5.51 0 0 0 -3.29,0 10.63,10.63 0 0 0 1.49,3.25 28.24,28.24 0 0 1 3.4,9.84 c -1,0.3 1,0 0,0 a 7,7 0 0 1 1.31,4.29 c -8.44,0 -19.7,0 -28.15,0 a 2,2 0 0 1 -1,-0.18 2.4,2.4 0 0 1 -0.81,-1.19 17.33,17.33 0 0 0 -2.6,-3.88 L 325,314.1 a 2.5,2.5 0 0 0 -0.85,-0.77 2.3,2.3 0 0 0 -1.25,0 c -3.21,0.47 -5.58,1.81 -8.38,3.44 z"
       transform="translate(-83.88,-33.68)"
       fill="#b32f26"
       id="path96" />
    <path
       d="m 350.05,482.21 a 9.54,9.54 0 0 1 4.87,1.26 4.91,4.91 0 0 1 2.42,4.22 c -0.11,1.89 -1.56,3.39 -2.61,5 a 13.4,13.4 0 0 0 -1.54,3.16 1.27,1.27 0 0 0 -0.08,0.81 c 0.12,0.38 0.53,0.57 0.88,0.74 a 7.51,7.51 0 0 1 4.41,6.56 c -0.09,3.9 -3.9,7.06 -3.69,11 a 22.62,22.62 0 0 0 0.42,2.44 18.64,18.64 0 0 1 -1.35,9.89 c -1.21,3.14 -2.86,6.09 -4.16,9.2 -3.51,8.45 -4.27,17.81 -4,27 0.21,6.24 -2,12.18 -4,18.12 a 260.46,260.46 0 0 0 0.9,-36 c -0.14,-3.26 -0.55,-6.34 -0.4,-9.61 0.24,-5.19 3.14,-9.91 3.88,-15 0.42,-2.91 0.14,-5.87 0.21,-8.81 0.14,-6 1.77,-11.92 1.88,-17.94 0.14,-4.25 -0.25,-8.63 1.96,-12.04 z"
       transform="translate(-83.88,-33.68)"
       opacity="0.1"
       id="path98" />
    <path
       d="m 308.32,318.91 a 27.42,27.42 0 0 0 -5.54,3.66 23.6,23.6 0 0 0 -4.38,6 76.64,76.64 0 0 0 -3.71,7.76 c -1.41,3.44 -2.58,7.25 -1.61,10.84 0.88,3.25 3.37,5.78 5.09,8.67 1.72,2.89 2.73,6.28 4.05,9.45 1.76,4.23 4.17,8.17 5.91,12.41 1.74,4.24 2.79,9 1.69,13.41 -0.32,1.3 -2.43,2.31 -2.43,3.64 0,2.2 3.18,4.59 5.29,5.23 2.43,0.75 5.08,-0.37 7.07,-2 3.65,-2.89 5.87,-7.22 7.51,-11.58 2.64,-7 4.05,-14.43 5.32,-21.81 0.92,-5.42 1.78,-10.85 2.27,-16.31 0.45,-4.92 0.59,-10 -0.71,-14.72 a 25,25 0 0 0 -6.83,-11.36 c -2.6,-2.5 -6.86,-5.86 -10.64,-5.95 -2.99,-0.01 -5.79,1.25 -8.35,2.66 z"
       transform="translate(-83.88,-33.68)"
       fill="#464353"
       id="path100" />
    <path
       d="m 336.75,439.46 a 4.78,4.78 0 0 1 -2.23,3.33 13.13,13.13 0 0 1 -3.81,1.56 c -2.68,0.78 -5.52,1.5 -8.23,0.81 a 16.52,16.52 0 0 1 -5.78,-3.29 l -30.28,-23.18 a 40.89,40.89 0 0 1 -6.67,-5.92 42.63,42.63 0 0 1 -3.16,-4.49 22,22 0 0 1 -2.94,-5.84 10.69,10.69 0 0 1 -0.36,-2.81 5.29,5.29 0 0 1 0.64,-2.57 c 0.73,-1.22 2.29,-1.47 3.57,-1.81 a 37.46,37.46 0 0 1 13.17,-1 1.79,1.79 0 0 1 1.78,1.21 c 0.67,1.23 1.25,2.51 1.85,3.79 a 27.4,27.4 0 0 0 3.57,6.11 51.54,51.54 0 0 0 4.45,4.29 c 3.2,3 5.82,6.6 9.23,9.36 3.95,3.19 8.75,5.1 13.25,7.45 4.5,2.35 8.94,5.4 11.2,9.95 a 5.83,5.83 0 0 1 0.75,3.05 z"
       transform="translate(-83.88,-33.68)"
       fill="#fbbebe"
       id="path102" />
    <path
       d="m 371.8,277.74 a 24.76,24.76 0 1 1 -0.69,-5.8 24.66,24.66 0 0 1 0.69,5.8 z"
       transform="translate(-83.88,-33.68)"
       opacity="0.1"
       id="path104" />
    <path
       d="m 371.8,276.74 a 24.76,24.76 0 1 1 -0.69,-5.8 24.66,24.66 0 0 1 0.69,5.8 z"
       transform="translate(-83.88,-33.68)"
       fill="#fbbebe"
       id="path106" />
    <path
       d="m 294.3,399.21 c -1.14,0.73 -2.83,0.49 -4.24,0.17 -5.56,-1.24 -11.7,-2.13 -16.77,0.25 a 5.29,5.29 0 0 1 0.64,-2.57 c 0.73,-1.22 2.29,-1.47 3.57,-1.81 a 37.46,37.46 0 0 1 13.17,-1 1.79,1.79 0 0 1 1.78,1.21 c 0.67,1.19 1.25,2.47 1.85,3.75 z"
       transform="translate(-83.88,-33.68)"
       opacity="0.1"
       id="path108" />
    <path
       d="m 283.85,365.54 c -1.23,4 -2.24,8.11 -4.65,11.5 a 8.5,8.5 0 0 0 -1.76,3.08 9.6,9.6 0 0 1 -0.41,2.48 c -0.34,0.68 -1.06,1.13 -1.35,1.83 -0.43,1 0.13,2.29 -0.44,3.23 a 4.8,4.8 0 0 1 -0.95,1 c -1.36,1.26 -1.7,3.27 -1.73,5.13 -0.03,1.86 0.15,3.76 -0.46,5.51 5.28,-3.15 12,-2.21 18,-0.87 1.67,0.37 3.74,0.65 4.82,-0.69 1.08,-1.34 0.46,-3.1 0.61,-4.71 0.2,-2.1 1.64,-3.84 2.53,-5.75 1,-2.15 1.34,-4.55 2.11,-6.79 1.59,-4.71 5,-8.55 7.19,-13 a 12.49,12.49 0 0 0 1.42,-4.94 14.74,14.74 0 0 0 -1.71,-6.41 87.68,87.68 0 0 0 -7.4,-13.21 c -1.27,-1.87 -3.46,-5.33 -5.43,-2.34 -1.6,2.41 -2.6,5.48 -3.78,8.12 a 148.62,148.62 0 0 0 -6.61,16.83 z"
       transform="translate(-83.88,-33.68)"
       fill="#464353"
       id="path110" />
    <path
       d="m 374.08,326.72 a 20.21,20.21 0 0 1 -16.18,-6.39 2.48,2.48 0 0 1 -0.72,-1.17 2.35,2.35 0 0 1 0.46,-1.64 c 1.2,-1.85 3.27,-3.07 4.23,-5.06 0.96,-1.99 0.63,-4.28 0.72,-6.46 0.16,-3.91 1.7,-7.78 1.83,-11.63 a 12.15,12.15 0 0 0 -0.22,-2.94 18.43,18.43 0 0 1 -0.84,-4.43 c 0.13,-2.93 2.77,-5.21 3.21,-8.1 0.57,-3.68 -2.48,-6.88 -5.55,-9 a 33.07,33.07 0 0 0 -7.56,-3.91 24.61,24.61 0 0 0 -5.08,-1.23 19.8,19.8 0 0 0 -9.57,1.07 15.63,15.63 0 0 0 -3.56,1.9 4.82,4.82 0 0 0 -1.59,1.65 5.37,5.37 0 0 0 -0.42,2.39 c -0.06,4.09 0.4,8.44 -1.55,12 -1,1.91 -2.7,3.46 -3.53,5.48 a 9.11,9.11 0 0 0 -0.63,2.63 26.5,26.5 0 0 0 -0.15,2.82 c -0.06,5.27 0,10.83 2.68,15.4 a 40.15,40.15 0 0 1 2.57,4.31 4.91,4.91 0 0 1 -0.25,4.79 5.45,5.45 0 0 1 -2,1.5 16,16 0 0 1 -12.79,0.46 16.21,16.21 0 0 0 3.78,-18.08 10.67,10.67 0 0 1 -1.38,-4 10.15,10.15 0 0 1 1,-3.66 20,20 0 0 0 0.61,-11.72 c -0.61,-2.38 -1.67,-4.68 -1.86,-7.13 a 21.57,21.57 0 0 1 0.24,-5.54 18,18 0 0 1 12.33,-14.19 c 0.51,-0.17 1,-0.33 1.56,-0.47 a 33.26,33.26 0 0 1 7.39,-0.79 c 5.55,-0.18 11.18,-0.34 16.53,1.11 a 22.18,22.18 0 0 1 8.56,4.4 15.45,15.45 0 0 1 4.14,5.47 19,19 0 0 1 1.17,3.78 c 0.23,1.07 0.4,2.15 0.57,3.23 1.21,7.69 2.42,15.53 1.13,23.21 -0.51,3 -1.4,6 -1.8,9.06 -0.97,7.05 0.78,14.06 2.52,20.88 z"
       transform="translate(-83.88,-33.68)"
       fill="#464353"
       id="path112" />
    <circle
       cx="254.67"
       cy="301.06"
       r="1.86"
       fill="#ffffff"
       id="circle114" />
    <circle
       cx="286.06"
       cy="300.17999"
       r="1.86"
       fill="#ffffff"
       id="circle116" />
    <path
       d="m 338.55,240.74 -4,-7.55 a 7.31,7.31 0 0 1 0.83,-0.84 3.17,3.17 0 0 1 1.93,-0.46 z"
       transform="translate(-83.88,-33.68)"
       opacity="0.1"
       id="path118" />
    <path
       d="m 349.58,231.54 -4.53,6.7 -2.58,-7.35 a 8.18,8.18 0 0 1 3.49,-0.66 11.6,11.6 0 0 1 3.62,1.31 z"
       transform="translate(-83.88,-33.68)"
       opacity="0.1"
       id="path120" />
    <g
       opacity="0.1"
       id="g138">
      <path
         d="m 332.38,317.22 a 5.45,5.45 0 0 1 -2,1.5 16.07,16.07 0 0 1 -11.37,0.95 15.57,15.57 0 0 1 -1.42,1.51 16,16 0 0 0 12.79,-0.46 5.45,5.45 0 0 0 2,-1.5 4.31,4.31 0 0 0 0.64,-3.46 3.55,3.55 0 0 1 -0.64,1.46 z"
         transform="translate(-83.88,-33.68)"
         id="path122" />
      <path
         d="m 321.53,283.73 a 19.7,19.7 0 0 1 0.57,4 19.93,19.93 0 0 0 -0.57,-6 c -0.61,-2.38 -1.67,-4.68 -1.86,-7.13 0,-0.31 0,-0.62 -0.05,-0.94 a 22.31,22.31 0 0 0 0.05,2.94 c 0.19,2.45 1.25,4.75 1.86,7.13 z"
         transform="translate(-83.88,-33.68)"
         id="path124" />
      <path
         d="m 373.29,296.81 a 43.75,43.75 0 0 0 0.54,-8 41.68,41.68 0 0 1 -0.54,6 c -0.51,3 -1.4,6 -1.8,9.06 a 31.56,31.56 0 0 0 -0.23,4.95 29.52,29.52 0 0 1 0.23,-2.95 c 0.4,-3.06 1.29,-6.03 1.8,-9.06 z"
         transform="translate(-83.88,-33.68)"
         id="path126" />
      <path
         d="m 321.33,301.1 a 16.44,16.44 0 0 1 -1.26,-3.09 4.52,4.52 0 0 0 -0.12,1.1 10.67,10.67 0 0 0 1.38,4 15.11,15.11 0 0 1 1.25,5.3 15.5,15.5 0 0 0 -1.25,-7.31 z"
         transform="translate(-83.88,-33.68)"
         id="path128" />
      <path
         d="m 364.2,291.39 a 13.07,13.07 0 0 1 0.19,1.38 c 0,-0.15 0,-0.29 0,-0.44 a 12.15,12.15 0 0 0 -0.22,-2.94 c -0.22,-1.05 -0.58,-2.09 -0.75,-3.15 a 4.43,4.43 0 0 0 -0.09,0.72 18.43,18.43 0 0 0 0.87,4.43 z"
         transform="translate(-83.88,-33.68)"
         id="path130" />
      <path
         d="m 357.9,318.29 a 5.27,5.27 0 0 1 -0.43,-0.51 2.07,2.07 0 0 0 -0.29,1.34 2.48,2.48 0 0 0 0.72,1.17 20.21,20.21 0 0 0 16.18,6.39 c -0.17,-0.66 -0.34,-1.31 -0.5,-2 a 20.18,20.18 0 0 1 -15.68,-6.39 z"
         transform="translate(-83.88,-33.68)"
         id="path132" />
      <path
         d="m 366.55,277 a 0.43,0.43 0 0 1 0,-0.11 c 0.57,-3.68 -2.48,-6.88 -5.55,-9 a 33.07,33.07 0 0 0 -7.56,-3.91 24.61,24.61 0 0 0 -5.08,-1.23 19.8,19.8 0 0 0 -9.57,1.07 15.63,15.63 0 0 0 -3.56,1.9 4.82,4.82 0 0 0 -1.59,1.65 5.37,5.37 0 0 0 -0.42,2.39 c 0,0.69 0,1.38 0,2.08 v -0.08 a 5.37,5.37 0 0 1 0.42,-2.39 4.82,4.82 0 0 1 1.59,-1.65 15.63,15.63 0 0 1 3.56,-1.9 19.8,19.8 0 0 1 9.57,-1.07 24.61,24.61 0 0 1 5.08,1.23 33.07,33.07 0 0 1 7.56,3.91 c 2.55,1.72 5.06,4.2 5.55,7.11 z"
         transform="translate(-83.88,-33.68)"
         id="path134" />
      <path
         d="m 331.69,281.79 c -1,1.91 -2.7,3.46 -3.53,5.48 a 9.11,9.11 0 0 0 -0.63,2.63 26.5,26.5 0 0 0 -0.15,2.82 c 0,0.85 0,1.71 0,2.57 0,-0.19 0,-0.38 0,-0.57 a 26.5,26.5 0 0 1 0.15,-2.82 9.11,9.11 0 0 1 0.63,-2.63 c 0.83,-2 2.49,-3.57 3.53,-5.48 1.61,-3 1.58,-6.45 1.55,-9.88 a 16.68,16.68 0 0 1 -1.55,7.88 z"
         transform="translate(-83.88,-33.68)"
         id="path136" />
    </g>
    <path
       d="m 371.59,270.41 a 2.91,2.91 0 0 1 -0.48,0.53 4.58,4.58 0 0 1 -1.17,0.7 c -2.91,1.26 -2.79,-2.85 -4.31,-4.26 a 5.17,5.17 0 0 0 -3.38,-1 q -4.39,-0.22 -8.79,-0.39 c -4.89,-0.18 -9.77,-0.27 -14.65,-0.16 q -3.51,0.06 -7,0.29 c -2.7,0.18 -5.6,0.53 -7.9,1.81 a 8.37,8.37 0 0 0 -2.11,1.65 c -0.55,0.6 -1.13,1.36 -1.89,1.5 a 18,18 0 0 1 12.33,-14.19 24.75,24.75 0 0 1 34,4.25 15.45,15.45 0 0 1 4.14,5.47 19,19 0 0 1 1.21,3.8 z"
       transform="translate(-83.88,-33.68)"
       opacity="0.1"
       id="path140" />
    <path
       d="m 369.94,269.64 c -2.91,1.26 -2.79,-2.85 -4.31,-4.26 a 5.17,5.17 0 0 0 -3.38,-1 266.53,266.53 0 0 0 -30.44,-0.26 c -3.61,0.24 -7.57,0.78 -10,3.46 -0.62,0.68 -1.27,1.56 -2.2,1.53 -0.31,-2 -0.53,-4.08 -0.68,-6.13 a 6.82,6.82 0 0 1 0.12,-2.3 c 0.25,-0.86 0.82,-1.59 1.11,-2.43 a 9.74,9.74 0 0 0 0.3,-3.28 23.7,23.7 0 0 1 11.66,-20.16 10.59,10.59 0 0 0 2.43,-1.64 7.31,7.31 0 0 1 0.83,-0.84 3.17,3.17 0 0 1 1.93,-0.46 c 0.48,0 1,0 1.42,0 a 12.91,12.91 0 0 0 3.75,-1 8.18,8.18 0 0 1 3.49,-0.66 11.6,11.6 0 0 1 3.62,1.31 8.77,8.77 0 0 0 1.69,0.61 c 0.91,0.21 1.85,0.2 2.76,0.38 a 13.47,13.47 0 0 1 4.14,1.84 19.75,19.75 0 0 1 4.16,3 18.41,18.41 0 0 1 3.22,5.24 37.53,37.53 0 0 1 3,8.32 c 0.81,4.14 0.41,8.62 2.33,12.38 1.17,2.36 2.24,4.98 -0.95,6.35 z"
       transform="translate(-83.88,-33.68)"
       fill="#fed253"
       id="path142" />
    <path
       d="m 319.25,266.5 c 0,0 20.73,-18.86 51.6,-3.22 0,0 -34.85,-7.93 -51.6,3.22 z"
       transform="translate(-83.88,-33.68)"
       opacity="0.1"
       id="path144" />
    <path
       d="m 93.37,362.87 c -2.82,-4.62 -7.06,-8.85 -6.4,-14.09 7.76,0.89 15.12,-1 22.23,-4.29 7.11,-3.29 13.71,-7.56 20.37,-11.75 2.62,-1.65 5.23,-3.27 7.83,-4.77 4.12,-2.36 8.21,-5 12.4,-7.31 6,-3.3 12.12,-6 18.86,-6.52 a 34.4,34.4 0 0 1 3.67,-0.09 c 8.3,0.16 16.9,2.39 24.2,-1.33 l 0.45,-0.24 c 4.14,-2.27 7.15,-6.13 10.7,-9.26 a 47.79,47.79 0 0 1 8.29,-5.76 c 5.39,-3 11.23,-5.4 16.74,-8.23 a 25.39,25.39 0 0 0 4,-2.56 l 0.94,-0.75 0.21,-0.18 c 0.23,-0.19 0.46,-0.38 0.68,-0.58 l 0.43,-0.38 0.44,-0.4 0.34,-0.32 0.55,-0.52 0.06,-0.07 0.87,-0.86 0.35,-0.35 0.61,-0.63 0.36,-0.36 c 0.61,-0.63 1.22,-1.27 1.84,-1.89 0.62,-0.62 1.46,-1.46 2.21,-2.15 v 0 l 0.72,-0.64 0.21,-0.18 0.58,-0.48 0.27,-0.23 0.57,-0.44 0.28,-0.22 c 0.28,-0.21 0.57,-0.41 0.86,-0.61 a 6.26,6.26 0 0 1 0.84,-0.49 l -1.87,-4.53 5.38,-2.22 74.2,180.05 -5.39,2.22 -42.44,-103 -0.3,0.3 a 85.2,85.2 0 0 1 -35.09,20.88 h -0.08 c -7.39,2.23 -15.66,3.81 -21.88,7.95 a 21,21 0 0 0 -5.65,5.41 c -1.46,2.08 -2.48,4.45 -4,6.45 -0.29,0.37 -0.61,0.73 -0.93,1.07 a 34.77,34.77 0 0 1 -6,4.76 l -0.95,0.65 a 194.48,194.48 0 0 1 -20.1,12.39 79.3,79.3 0 0 1 -12.49,5.2 c -3.13,1 -6.36,1.73 -9.49,2.72 a 37.16,37.16 0 0 0 -6.11,2.46 c -5.3,2.77 -9.37,7.11 -13.22,11.74 -3.37,4.06 -6.57,8.36 -10.27,12.06 -2.32,2.3 -5.85,4.48 -8.65,3.13 l -0.57,-0.33 c 0.09,-0.15 0.16,-0.3 0.24,-0.46 2.21,-4.63 -0.51,-10.35 -4.17,-14.06 -0.38,-0.39 -0.77,-0.77 -1.17,-1.13 -0.4,-0.36 -1.12,-1 -1.69,-1.5 -3.13,-2.69 -6.46,-5.19 -8.63,-8.66 a 28.25,28.25 0 0 1 -3.32,-9.41 c -1,-4.71 -1.67,-9.56 -4.23,-13.57 -1.68,-2.65 -4.18,-4.91 -6,-7.45 a 11.35,11.35 0 0 1 -2.2,-5.14 c -0.41,-3.25 1.1,-6.43 1.67,-9.67 a 12.07,12.07 0 0 0 0.21,-2.68 14.19,14.19 0 0 0 -2.37,-6.7 z"
       transform="translate(-83.88,-33.68)"
       fill="url(#26387a05-323e-43c3-b271-53af00551daf)"
       id="path146"
       style="fill:url(#26387a05-323e-43c3-b271-53af00551daf)" />
    <rect
       x="284.70001"
       y="262.54999"
       width="5.73"
       height="191.47"
       transform="rotate(157.6,248.93984,333.15057)"
       fill="#d6d8e1"
       id="rect148" />
    <path
       d="m 103.85,393.88 c 2.51,3.95 3.18,8.71 4.15,13.34 a 28.1,28.1 0 0 0 3.27,9.26 c 2.14,3.41 5.41,5.87 8.48,8.51 0.56,0.49 1.12,1 1.66,1.48 0.39,0.35 0.78,0.73 1.15,1.1 3.6,3.65 6.27,9.28 4.1,13.83 a 3.81,3.81 0 0 1 -0.23,0.45 4.57,4.57 0 0 0 0.55,0.32 c 2.76,1.34 6.23,-0.8 8.51,-3.07 3.64,-3.64 6.79,-7.86 10.1,-11.85 3.78,-4.56 7.79,-8.83 13,-11.55 a 36,36 0 0 1 6,-2.42 c 3.07,-1 6.25,-1.71 9.33,-2.67 A 78.53,78.53 0 0 0 186.2,405.5 192.53,192.53 0 0 0 206,393.31 l 0.94,-0.64 a 34.35,34.35 0 0 0 5.9,-4.67 c 0.32,-0.34 0.63,-0.69 0.92,-1.06 1.54,-2 2.55,-4.29 4,-6.34 a 20.66,20.66 0 0 1 5.56,-5.32 c 6.12,-4.07 14.24,-5.63 21.51,-7.82 h 0.08 a 83.94,83.94 0 0 0 34.5,-20.53 5.62,5.62 0 0 0 1.73,-2.54 c 0.31,-1.41 -0.45,-2.81 -1.18,-4.05 -0.85,-1.46 -1.68,-2.92 -2.5,-4.4 a 196.49,196.49 0 0 1 -9.86,-20.73 c -0.63,-1.56 -1.24,-3.11 -1.83,-4.68 q -2.27,-6 -4.14,-12.17 c -0.41,-1.36 -0.81,-2.73 -1.19,-4.1 -0.07,-0.26 -0.15,-0.54 -0.22,-0.84 -1.66,-6.67 -3.88,-22.28 -10.72,-17.61 a 39.57,39.57 0 0 0 -5.65,4.91 c -1.33,1.35 -2.63,2.74 -4,4.08 a 40.44,40.44 0 0 1 -3.53,3.09 25.93,25.93 0 0 1 -4,2.52 c -5.43,2.78 -11.17,5.11 -16.46,8.09 a 46.79,46.79 0 0 0 -8.16,5.66 c -3.49,3.08 -6.45,6.88 -10.52,9.11 l -0.44,0.24 c -7.18,3.65 -15.63,1.46 -23.8,1.3 a 35.91,35.91 0 0 0 -3.6,0.09 c -6.63,0.5 -12.69,3.16 -18.55,6.41 -4.12,2.28 -8.14,4.86 -12.19,7.19 -2.56,1.47 -5.12,3.06 -7.7,4.69 -6.54,4.12 -13.17,8.44 -20,11.56 -7,3.18 -14.23,5.08 -21.86,4.21 -0.65,5.15 3.51,9.31 6.29,13.85 a 13.75,13.75 0 0 1 2.35,6.57 11.61,11.61 0 0 1 -0.19,2.63 c -0.56,3.19 -2,6.31 -1.64,9.52 a 11.05,11.05 0 0 0 2.15,5.03 c 1.74,2.49 4.19,4.72 5.85,7.32 z"
       transform="translate(-83.88,-33.68)"
       fill="#f86d70"
       id="path150" />
    <path
       d="m 307.16,414.71 c 0,0 8.76,7.64 17.64,11.71 8.88,4.07 3,18.67 3,18.67 0,0 -9.41,2.16 -16,-7 -6.59,-9.16 -4.64,-23.38 -4.64,-23.38 z"
       transform="translate(-83.88,-33.68)"
       fill="#fbbebe"
       id="path152" />
    <path
       d="m 779.2,544.76 c 0,0 -23.2,30.53 -42.45,30.78 -19.25,0.25 -30.55,12.86 -21.41,20.74 9.14,7.88 108.74,-4.5 108.74,-4.5 0,0 0.94,-37.52 -7.69,-43 -8.63,-5.48 -37.19,-4.02 -37.19,-4.02 z"
       transform="translate(-83.88,-33.68)"
       fill="#444176"
       id="path154" />
    <path
       d="m 1028.65,581.41 c 0,0 3.55,24.18 -7.42,40.67 -10.97,16.49 19.82,22.85 19.82,22.85 0,0 22.37,6.23 24,-15.87 1.63,-22.1 1.1,-39 -1,-40.8 -2.1,-1.8 -3.85,-14.23 -3.85,-14.23 z"
       transform="translate(-83.88,-33.68)"
       fill="#444176"
       id="path156" />
    <path
       d="m 677.45,627.08 c 0,0 -0.81,-78.21 76.58,-110 l 17.97,-34.19 8.62,-21 a 51.1,51.1 0 0 1 36.09,-30.46 l 13.94,-3.13 4.31,-18.16 a 51.08,51.08 0 0 1 40.81,-38.54 142.91,142.91 0 0 1 25.7,-2.4 22.12,22.12 0 0 1 18.79,11 v 0 c 0,0 73.32,-0.81 76.57,39.11 0,0 7.34,36.65 17.93,43.17 0,0 17.92,-4.07 35.84,22 l 19.55,66.8 c 0,0 51.32,48.06 35.84,92 0,0 -21.18,30.14 -128.71,9.77 0,0 -114.86,35 -176,-13 -0.01,0.06 -101.83,19.61 -123.83,-12.97 z"
       transform="translate(-83.88,-33.68)"
       fill="#a8a8a8"
       id="path158" />
    <path
       d="m 728.77,614.86 c 0,0 16.3,-22.81 15.48,-39.11 -0.82,-16.3 3.84,-56 3.84,-56"
       transform="translate(-83.88,-33.68)"
       fill="none"
       stroke="#000000"
       stroke-miterlimit="10"
       opacity="0.1"
       id="path160" />
    <path
       d="m 788.24,553.76 c 0,0 16.29,-30.14 14.66,-46.43 0,0 17.11,-31 30.14,-28.52"
       transform="translate(-83.88,-33.68)"
       fill="none"
       stroke="#000000"
       stroke-miterlimit="10"
       opacity="0.1"
       id="path162" />
    <path
       d="m 877.85,468.22 c 0,0 44.8,-16.29 47.25,-29.32"
       transform="translate(-83.88,-33.68)"
       fill="none"
       stroke="#000000"
       stroke-miterlimit="10"
       opacity="0.1"
       id="path164" />
    <path
       d="m 894.14,505.7 c 0,0 47.25,-21.18 47.25,-26.89 H 965 c 0,0 34.22,44.81 30.15,64.36"
       transform="translate(-83.88,-33.68)"
       fill="none"
       stroke="#000000"
       stroke-miterlimit="10"
       opacity="0.1"
       id="path166" />
    <path
       d="m 949.54,538.28 c 0,0 -45.62,-3.26 -61.92,9.78 -16.3,13.04 -45.62,19.55 -45.62,19.55 0,0 -17.11,36.66 -23.63,43.17 -6.52,6.51 -17.11,29.33 -17.11,29.33"
       transform="translate(-83.88,-33.68)"
       fill="none"
       stroke="#000000"
       stroke-miterlimit="10"
       opacity="0.1"
       id="path168" />
    <path
       d="m 949.54,581.46 c 0,0 4.88,17.1 11.4,26.88 6.52,9.78 16.29,44.8 16.29,44.8"
       transform="translate(-83.88,-33.68)"
       fill="none"
       stroke="#000000"
       stroke-miterlimit="10"
       opacity="0.1"
       id="path170" />
    <path
       d="m 1026.11,631.15 c 0,0 10.34,28.77 19.43,29.05"
       transform="translate(-83.88,-33.68)"
       fill="none"
       stroke="#000000"
       stroke-miterlimit="10"
       opacity="0.1"
       id="path172" />
    <path
       d="m 958.38,507.66 c 0,0 26.86,7.26 38.09,24.85 11.23,17.59 45.53,33.54 45.53,33.54"
       transform="translate(-83.88,-33.68)"
       fill="none"
       stroke="#000000"
       stroke-miterlimit="10"
       opacity="0.1"
       id="path174" />
    <path
       d="m 969.9,421 c 0,0 0,37.47 10.59,37.47 10.59,0 34.22,4.07 34.22,4.07"
       transform="translate(-83.88,-33.68)"
       fill="none"
       stroke="#000000"
       stroke-miterlimit="10"
       opacity="0.1"
       id="path176" />
    <path
       d="m 918,376.5 c 0,0 -2.71,64.73 -16.56,81.49"
       transform="translate(-83.88,-33.68)"
       fill="none"
       stroke="#000000"
       stroke-miterlimit="10"
       opacity="0.1"
       id="path178" />
    <g
       opacity="0.05"
       id="g186">
      <path
         d="m 1068.47,550.5 -19.55,-66.8 c -17.92,-26.07 -35.84,-22 -35.84,-22 -10.59,-6.52 -17.92,-43.18 -17.92,-43.18 -3.26,-39.92 -76.58,-39.1 -76.58,-39.1 v 0 a 22.12,22.12 0 0 0 -18.83,-11 c -3.46,0 -7,0.11 -10.54,0.4 q 3,0.3 5.75,0.85 l 5.7,9.78 c 0,0 73.31,-0.82 76.57,39.1 0,0 7.34,36.66 17.93,43.18 0,0 17.92,-4.08 35.84,22 l 19.55,66.8 c 0,0 51.32,48.06 35.84,92 0,0 -10.45,14.87 -53.92,16.67 58.61,2.15 71.84,-16.67 71.84,-16.67 15.48,-43.97 -35.84,-92.03 -35.84,-92.03 z"
         transform="translate(-83.88,-33.68)"
         id="path180" />
      <path
         d="M 781.72,639.29 A 380.38,380.38 0 0 1 729.53,645 c 20.41,0.78 41.64,-1.43 55.32,-3.31 -1.06,-0.81 -2.1,-1.59 -3.13,-2.4 z"
         transform="translate(-83.88,-33.68)"
         id="path182" />
      <path
         d="m 957.68,652.33 a 334.57,334.57 0 0 1 -76.92,12.16 c 37.55,1.36 73.12,-6.47 87.78,-10.23 -3.54,-0.59 -7.13,-1.26 -10.86,-1.93 z"
         transform="translate(-83.88,-33.68)"
         id="path184" />
    </g>
    <path
       d="m 306.73,779.39 c 0,0 22.41,-0.69 29.16,-5.5 6.75,-4.81 34.46,-10.55 36.14,-2.84 1.68,7.71 33.67,38.35 8.37,38.56 -25.3,0.21 -58.77,-3.94 -65.51,-8.05 -6.74,-4.11 -8.16,-22.17 -8.16,-22.17 z"
       transform="translate(-83.88,-33.68)"
       fill="#a8a8a8"
       id="path188" />
    <path
       d="m 380.86,806.92 c -25.3,0.21 -58.78,-3.94 -65.52,-8 -5.13,-3.13 -7.18,-14.35 -7.86,-19.52 h -0.75 c 0,0 1.42,18.07 8.16,22.17 6.74,4.1 40.22,8.25 65.51,8.05 7.31,-0.06 9.83,-2.66 9.69,-6.51 -1.01,2.32 -3.8,3.77 -9.23,3.81 z"
       transform="translate(-83.88,-33.68)"
       opacity="0.2"
       id="path190" />
    <path
       d="m 853.07,723.19 c 0,0 -26.39,-5.28 -33.42,-12.32 -7.03,-7.04 -38.7,-19.34 -42.22,-10.55 -3.52,8.79 -47.49,38.7 -17.59,44 29.9,5.3 70.36,7 79.16,3.52 8.8,-3.48 14.07,-24.65 14.07,-24.65 z"
       transform="translate(-83.88,-33.68)"
       fill="#a8a8a8"
       id="path192" />
    <path
       d="m 759.84,741 c 29.91,5.27 70.36,7 79.16,3.51 6.69,-2.68 11.35,-15.55 13.19,-21.54 l 0.88,0.19 c 0,0 -5.28,21.1 -14.07,24.62 -8.79,3.52 -49.25,1.76 -79.16,-3.52 -8.63,-1.52 -11.1,-5.1 -10.17,-9.62 0.74,2.98 3.75,5.25 10.17,6.36 z"
       transform="translate(-83.88,-33.68)"
       opacity="0.2"
       id="path194" />
    <path
       d="m 600.38,148.53 h -6.28 a 4.4,4.4 0 0 0 0,-8.8 h -50.88 a 4.4,4.4 0 0 0 0,8.8 h 6.28 a 4.4,4.4 0 0 0 0,8.79 h -8.79 a 4.4,4.4 0 0 0 0,8.8 h 50.88 a 4.4,4.4 0 0 0 0,-8.8 h 8.79 a 4.4,4.4 0 1 0 0,-8.79 z"
       transform="translate(-83.88,-33.68)"
       fill="#b32f26"
       opacity="0.1"
       id="path196" />
    <path
       d="m 798,303.34 h -6.28 a 4.4,4.4 0 0 0 0,-8.79 h -50.93 a 4.4,4.4 0 1 0 0,8.79 h 6.28 a 4.4,4.4 0 0 0 0,8.79 h -8.79 a 4.4,4.4 0 1 0 0,8.8 h 50.87 a 4.4,4.4 0 0 0 0,-8.8 H 798 a 4.4,4.4 0 1 0 0,-8.79 z"
       transform="translate(-83.88,-33.68)"
       fill="#b32f26"
       opacity="0.1"
       id="path198" />
    <path
       d="m 505.17,274.7 h -6.28 a 4.4,4.4 0 1 0 0,-8.79 H 448 a 4.4,4.4 0 1 0 0,8.79 h 6.28 a 4.4,4.4 0 1 0 0,8.79 h -8.8 a 4.4,4.4 0 0 0 0,8.8 h 50.88 a 4.4,4.4 0 0 0 0,-8.8 h 8.79 a 4.4,4.4 0 1 0 0,-8.79 z"
       transform="translate(-83.88,-33.68)"
       fill="#b32f26"
       opacity="0.1"
       id="path200" />
  </g>
</svg>
