<?xml version="1.0" encoding="UTF-8" standalone="no"?>
<svg
   xmlns:dc="http://purl.org/dc/elements/1.1/"
   xmlns:cc="http://creativecommons.org/ns#"
   xmlns:rdf="http://www.w3.org/1999/02/22-rdf-syntax-ns#"
   xmlns:svg="http://www.w3.org/2000/svg"
   xmlns="http://www.w3.org/2000/svg"
   xmlns:sodipodi="http://sodipodi.sourceforge.net/DTD/sodipodi-0.dtd"
   xmlns:inkscape="http://www.inkscape.org/namespaces/inkscape"
   id="a47bc909-72c0-4996-baf1-6f4140acb8df"
   data-name="Layer 1"
   width="250"
   height="220.74898"
   viewBox="0 0 250 220.74898"
   version="1.1"
   sodipodi:docname="online-information.svg"
   inkscape:version="1.0.1 (3bc2e813f5, 2020-09-07, custom)">
  <metadata
     id="metadata51">
    <rdf:RDF>
      <cc:Work
         rdf:about="">
        <dc:format>image/svg+xml</dc:format>
        <dc:type
           rdf:resource="http://purl.org/dc/dcmitype/StillImage" />
      </cc:Work>
    </rdf:RDF>
  </metadata>
  <defs
     id="defs49" />
  <sodipodi:namedview
     pagecolor="#ffffff"
     bordercolor="#666666"
     borderopacity="1"
     objecttolerance="10"
     gridtolerance="10"
     guidetolerance="10"
     inkscape:pageopacity="0"
     inkscape:pageshadow="2"
     inkscape:window-width="1920"
     inkscape:window-height="1058"
     id="namedview47"
     showgrid="false"
     inkscape:zoom="1.4620651"
     inkscape:cx="-13.595822"
     inkscape:cy="133.11484"
     inkscape:window-x="0"
     inkscape:window-y="22"
     inkscape:window-maximized="0"
     inkscape:current-layer="a47bc909-72c0-4996-baf1-6f4140acb8df" />
  <g
     id="g898"
     transform="scale(0.38791993)">
    <path
       d="M 837.76318,506.37231 H 295.423 a 16.51866,16.51866 0 0 1 -16.5,-16.5 v -305.7998 h 575.34018 v 305.7998 a 16.51867,16.51867 0 0 1 -16.5,16.5 z"
       transform="translate(-277.76855,-165.47095)"
       fill="#e6e6e6"
       id="path2" />
    <path
       d="M 816.18017,474.78882 H 317.00561 a 8.50958,8.50958 0 0 1 -8.5,-8.5 V 224.155 a 8.50958,8.50958 0 0 1 8.5,-8.5 h 499.17456 a 8.50951,8.50951 0 0 1 8.5,8.5 v 242.13382 a 8.50951,8.50951 0 0 1 -8.5,8.5 z"
       transform="translate(-277.76855,-165.47095)"
       fill="#ffffff"
       id="path4" />
    <path
       d="M 855.41772,195.21851 H 277.76855 v -13.24756 a 16.51867,16.51867 0 0 1 16.5,-16.5 h 544.64917 a 16.51867,16.51867 0 0 1 16.5,16.5 z"
       transform="translate(-277.76855,-165.47095)"
       fill="#b32f26"
       id="path6" />
    <path
       d="m 435.07983,382.07983 h -88.84546 a 8.50958,8.50958 0 0 1 -8.5,-8.5 V 315.1731 a 8.50958,8.50958 0 0 1 8.5,-8.5 h 88.84546 a 8.5095,8.5095 0 0 1 8.5,8.5 v 58.40673 a 8.5095,8.5095 0 0 1 -8.5,8.5 z"
       transform="translate(-277.76855,-165.47095)"
       fill="#e6e6e6"
       id="path8" />
    <path
       d="M 790.72387,316.12866 H 510.009 a 4.72778,4.72778 0 1 1 0,-9.45556 h 280.71487 a 4.72778,4.72778 0 0 1 0,9.45556 z"
       transform="translate(-277.76855,-165.47095)"
       fill="#e6e6e6"
       id="path10" />
    <path
       d="M 790.72387,349.94946 H 510.009 a 4.72754,4.72754 0 1 1 0,-9.45508 h 280.71487 a 4.72754,4.72754 0 0 1 0,9.45508 z"
       transform="translate(-277.76855,-165.47095)"
       fill="#e6e6e6"
       id="path12" />
    <path
       d="M 790.72387,383.77075 H 510.009 a 4.72778,4.72778 0 1 1 0,-9.45556 h 280.71487 a 4.72778,4.72778 0 0 1 0,9.45556 z"
       transform="translate(-277.76855,-165.47095)"
       fill="#e6e6e6"
       id="path14" />
    <polygon
       points="419.55,509.023 419.548,556.311 407.288,556.311 401.456,509.023 "
       fill="#a0616a"
       id="polygon16" />
    <path
       d="m 398.53106,552.80763 h 23.64387 v 14.88687 h -38.53072 v 0 a 14.88686,14.88686 0 0 1 14.88685,-14.88687 z"
       fill="#2f2e41"
       id="path18" />
    <polygon
       points="470.55,509.023 470.548,556.311 458.288,556.311 452.456,509.023 "
       fill="#a0616a"
       id="polygon20" />
    <path
       d="m 449.53106,552.80763 h 23.64387 v 14.88687 h -38.53072 v 0 a 14.88686,14.88686 0 0 1 14.88685,-14.88687 z"
       fill="#2f2e41"
       id="path22" />
    <path
       d="m 746.75526,710.91364 h -12.47973 a 4.5264,4.5264 0 0 1 -4.48438,-4.12793 L 719.21523,579.38727 a 1.49993,1.49993 0 0 0 -2.98414,-0.0527 l -15.1892,127.61133 a 4.50246,4.50246 0 0 1 -4.46851,3.96778 h -15.324 a 4.50533,4.50533 0 0 1 -4.49781,-4.47559 c -0.0337,-8.01563 -0.0884,-16.08984 -0.14306,-24.165 -0.48633,-71.92187 -0.98926,-146.292 14.02856,-175.42773 l 0.137,-0.26563 54.19239,-0.92676 0.136,0.29786 c 16.39624,35.83007 11.41968,115.875 6.60694,193.2832 l -0.46314,7.459 a 4.50686,4.50686 0 0 1 -4.491,4.22065 z"
       transform="translate(-277.76855,-165.47095)"
       fill="#2f2e41"
       id="path24" />
    <circle
       cx="443.31366"
       cy="219.86366"
       r="24.561029"
       fill="#a0616a"
       id="circle26" />
    <path
       d="m 687.59706,511.0943 0.67676,-28.16016 -4.87232,-21.97168 a 35.41574,35.41574 0 0 1 7.87525,-31.11816 34.87749,34.87749 0 0 1 29.21948,-12.11523 h 2.5e-4 q 0.53064,0.041 1.064,0.0889 a 35.02345,35.02345 0 0 1 24.13135,12.90723 35.43053,35.43053 0 0 1 7.76416,26.57422 l -5.89429,51.5166 z"
       transform="translate(-277.76855,-165.47095)"
       fill="#b32f26"
       id="path28" />
    <path
       d="m 666.73325,561.56408 a 10.05578,10.05578 0 0 0 0.52738,-15.41031 l 13.82828,-32.95084 -18.25062,3.42765 -10.33354,30.76518 a 10.11027,10.11027 0 0 0 14.2285,14.16832 z"
       transform="translate(-277.76855,-165.47095)"
       fill="#a0616a"
       id="path30" />
    <path
       d="m 771.0768,565.51366 a 10.05582,10.05582 0 0 1 0.35026,-15.41536 l -11.93106,-33.68424 18.026,4.4605 8.56637,31.30329 a 10.11027,10.11027 0 0 1 -15.01158,13.33581 z"
       transform="translate(-277.76855,-165.47095)"
       fill="#a0616a"
       id="path32" />
    <path
       d="m 668.9286,545.41754 a 4.50175,4.50175 0 0 1 -1.83911,-0.39258 l -10.52075,-4.71289 a 4.49406,4.49406 0 0 1 -2.44409,-5.48535 l 17.6477,-54.81933 6.82007,-41.29981 a 11.09066,11.09066 0 1 1 21.74121,4.335 l -10.36547,44.292 -16.73462,54.89542 a 4.49738,4.49738 0 0 1 -4.30494,3.1875 z"
       transform="translate(-277.76855,-165.47095)"
       fill="#b32f26"
       id="path34" />
    <path
       d="M 769.29091,545.41754 A 4.49738,4.49738 0 0 1 764.986,542.23 l -16.7261,-54.86422 -10.374,-44.32324 a 11.09067,11.09067 0 1 1 21.74121,-4.335 l 6.83765,41.37207 17.63037,54.74707 a 4.49444,4.49444 0 0 1 -2.44434,5.48535 L 771.13,545.025 a 4.50175,4.50175 0 0 1 -1.83909,0.39254 z"
       transform="translate(-277.76855,-165.47095)"
       fill="#b32f26"
       id="path36" />
    <path
       d="m 721.58714,358.18541 c -6.82592,-2.95688 -15.743,0.7224 -18.49775,7.63236 -1.71446,4.30049 -1.19131,9.151 -0.24607,13.68316 0.94524,4.53216 2.29287,9.055 2.148,13.6824 -0.14487,4.6274 -2.138,9.5386 -6.24293,11.67936 -2.45278,1.27913 -5.3218,1.42137 -7.98081,2.18427 -2.65901,0.7629 -5.40346,2.54653 -5.78641,5.28618 -0.57932,4.14451 4.448,7.30118 4.41447,11.48585 -0.0356,4.43388 -5.57661,7.06694 -6.2948,11.44242 a 7.59532,7.59532 0 0 0 2.929,6.75 19.90727,19.90727 0 0 0 6.88422,3.33272 118.80963,118.80963 0 0 0 59.2554,3.37627 c 3.91827,-0.78155 7.951,-1.83834 10.99547,-4.42573 3.04447,-2.58739 4.78579,-7.11653 3.03581,-10.70836 -2.62352,-5.38475 -10.95329,-5.69164 -13.85626,-10.931 -1.74133,-3.14282 -0.93971,-7.0012 -0.57307,-10.57543 0.94687,-9.23058 3.13144,-20.01391 0.83832,-29.00512 -2.07178,-8.12333 -6.5704,-18.62032 -13,-24 -4.61353,-3.86016 -13.42156,-2.10141 -19.31795,-0.91059 z"
       transform="translate(-277.76855,-165.47095)"
       fill="#2f2e41"
       id="path38" />
    <path
       d="m 921.23145,734.52905 h -350 a 1,1 0 0 1 0,-2 h 350 a 1,1 0 0 1 0,2 z"
       transform="translate(-277.76855,-165.47095)"
       fill="#cccccc"
       id="path40" />
    <path
       d="m 884.37762,711.75751 c -14.41968,19.311 -44.352,21.34351 -44.352,21.34351 0,0 -6.55353,-29.27679 7.86615,-48.58777 14.41968,-19.31098 44.352,-21.34357 44.352,-21.34357 0,0 6.55347,29.2768 -7.86615,48.58783 z"
       transform="translate(-277.76855,-165.47095)"
       fill="#e6e6e6"
       id="path42" />
    <path
       d="m 810.9209,719.017 c 9.51507,12.74273 29.2666,14.084 29.2666,14.084 0,0 4.32446,-19.31891 -5.19062,-32.06165 -9.51508,-12.74274 -29.2666,-14.084 -29.2666,-14.084 0,0 -4.32446,19.31895 5.19062,32.06165 z"
       transform="translate(-277.76855,-165.47095)"
       fill="#e6e6e6"
       id="path44" />
  </g>
</svg>
