<?xml version="1.0" encoding="UTF-8" standalone="no"?>
<svg
   xmlns:dc="http://purl.org/dc/elements/1.1/"
   xmlns:cc="http://creativecommons.org/ns#"
   xmlns:rdf="http://www.w3.org/1999/02/22-rdf-syntax-ns#"
   xmlns:svg="http://www.w3.org/2000/svg"
   xmlns="http://www.w3.org/2000/svg"
   xmlns:sodipodi="http://sodipodi.sourceforge.net/DTD/sodipodi-0.dtd"
   xmlns:inkscape="http://www.inkscape.org/namespaces/inkscape"
   id="b05a6369-67c7-4001-9b85-a83fbbd225d4"
   data-name="Layer 1"
   width="250"
   height="180.59129"
   viewBox="0 0 250 180.59129"
   version="1.1"
   sodipodi:docname="online-learning.svg"
   inkscape:version="1.0.1 (3bc2e813f5, 2020-09-07, custom)">
  <metadata
     id="metadata135">
    <rdf:RDF>
      <cc:Work
         rdf:about="">
        <dc:format>image/svg+xml</dc:format>
        <dc:type
           rdf:resource="http://purl.org/dc/dcmitype/StillImage" />
      </cc:Work>
    </rdf:RDF>
  </metadata>
  <defs
     id="defs133" />
  <sodipodi:namedview
     pagecolor="#ffffff"
     bordercolor="#666666"
     borderopacity="1"
     objecttolerance="10"
     gridtolerance="10"
     guidetolerance="10"
     inkscape:pageopacity="0"
     inkscape:pageshadow="2"
     inkscape:window-width="1920"
     inkscape:window-height="1058"
     id="namedview131"
     showgrid="false"
     inkscape:zoom="1.6644104"
     inkscape:cx="-28.531794"
     inkscape:cy="87.600429"
     inkscape:window-x="0"
     inkscape:window-y="22"
     inkscape:window-maximized="0"
     inkscape:current-layer="b05a6369-67c7-4001-9b85-a83fbbd225d4" />
  <g
     id="g1024"
     transform="scale(0.36127168)">
    <path
       d="M 945,696.10473 H 255 a 1,1 0 0 1 0,-2 h 690 a 1,1 0 0 1 0,2 z"
       transform="translate(-254,-200.06165)"
       fill="#cccccc"
       id="path2" />
    <path
       d="m 876.70437,521.703 h -406 a 6.5,6.5 0 1 0 0,13 h 11.5 v 155.5 a 6.5,6.5 0 0 0 13,0 l 0.0988,-155.5 h 355.90122 v 155.5 a 6.5,6.5 0 0 0 13,0 V 538.13036 l 1.89111,-3.42737 h 10.60889 a 6.5,6.5 0 1 0 0,-13 z"
       transform="translate(-254,-200.06165)"
       fill="#cccccc"
       id="path4" />
    <path
       d="M 695.79406,525.10473 H 572.81224 a 8.992,8.992 0 0 1 -8.98182,-8.98182 v -67.70909 a 8.992,8.992 0 0 1 8.98182,-8.98182 h 122.98182 a 8.992,8.992 0 0 1 8.98182,8.98182 v 67.70909 a 8.992,8.992 0 0 1 -8.98182,8.98182 z"
       transform="translate(-254,-200.06165)"
       fill="#3f3d56"
       id="path6" />
    <path
       d="M 695.79338,446.34472 H 572.81292 a 2.07422,2.07422 0 0 0 -2.06983,2.07 v 67.71 a 2.07427,2.07427 0 0 0 2.06983,2.07 h 122.98046 a 2.07427,2.07427 0 0 0 2.06983,-2.07 v -67.71 a 2.07422,2.07422 0 0 0 -2.06983,-2.07 z"
       transform="translate(-254,-200.06165)"
       fill="#ffffff"
       id="path8" />
    <path
       d="m 644.792,494.28284 c 0,0 -14.72226,-3.39247 -22.81951,2.827 -8.09725,6.21947 10.30559,20.3548 10.30559,20.3548 z"
       transform="translate(-254,-200.06165)"
       fill="#2f2e41"
       id="path10" />
    <circle
       cx="381.0242"
       cy="273.92426"
       r="13.88708"
       fill="#a0616a"
       id="circle12" />
    <path
       d="m 624.28574,454.49178 a 9.89807,9.89807 0 0 1 9.12642,-4.85578 19.3971,19.3971 0 0 1 5.51548,1.5439 l 9.07827,3.54127 c 2.34912,0.91634 4.92191,2.03879 5.94127,4.34508 0.9461,2.14055 0.24023,4.61266 -0.47431,6.84123 l -3.39653,10.5933 a 32.24633,32.24633 0 0 0 -1.92474,-6.99768 10.83489,10.83489 0 0 0 -4.70439,-5.36393 c -2.35809,-1.2097 -5.13745,-1.18465 -7.78466,-1.05725 -3.74914,0.18043 -7.82552,0.65742 -10.48931,3.30181 a 10.89524,10.89524 0 0 0 -2.76456,5.39929 32.50033,32.50033 0 0 0 -0.57974,6.11164 50.669,50.669 0 0 1 -3.86936,-8.29541 20.52464,20.52464 0 0 1 -1.43767,-6.71481 9.44392,9.44392 0 0 1 2.16458,-6.387 6.19534,6.19534 0 0 1 6.23051,-1.96094 z"
       transform="translate(-254,-200.06165)"
       fill="#2f2e41"
       id="path14" />
    <path
       d="m 668.183,506.3247 a 2.47182,2.47182 0 0 0 -2.06982,-1.79 0.85977,0.85977 0 0 0 -0.1001,-0.06 l -20.73141,-11.6182 a 2.63677,2.63677 0 0 0 -3.52833,0.9082 l -5.66992,9.18006 -8.54,-8.54 -0.13574,-0.13581 a 2.6365,2.6365 0 0 0 -3.37646,-0.29528 l -17.03809,11.93109 c -0.0298,0 -0.0601,0.01 -0.0898,0.01 a 3.63267,3.63267 0 0 0 -3.03028,3.39 l -0.43994,8.89 h 68.04 z"
       transform="translate(-254,-200.06165)"
       fill="#b32f26"
       id="path16" />
    <path
       d="M 706.1577,516.81382 H 693.03042 A 1.38183,1.38183 0 0 0 691.6486,515.432 h -4.14545 a 1.38184,1.38184 0 0 0 -1.38182,1.38182 h -4.14545 a 1.38184,1.38184 0 0 0 -1.38182,-1.38182 h -4.14546 a 1.38183,1.38183 0 0 0 -1.38181,1.38182 h -4.14546 a 1.38183,1.38183 0 0 0 -1.38182,-1.38182 h -4.14545 a 1.38184,1.38184 0 0 0 -1.38182,1.38182 h -4.14545 A 1.38184,1.38184 0 0 0 658.485,515.432 h -4.14546 a 1.38183,1.38183 0 0 0 -1.38181,1.38182 h -4.14546 A 1.38183,1.38183 0 0 0 647.43045,515.432 H 643.285 a 1.38183,1.38183 0 0 0 -1.38182,1.38182 h -4.14548 a 1.38184,1.38184 0 0 0 -1.38182,-1.38182 h -4.14546 a 1.38184,1.38184 0 0 0 -1.38182,1.38182 h -4.14545 a 1.38183,1.38183 0 0 0 -1.38182,-1.38182 h -4.14545 a 1.38183,1.38183 0 0 0 -1.38182,1.38182 h -4.14546 a 1.38183,1.38183 0 0 0 -1.38181,-1.38182 h -4.14546 a 1.38184,1.38184 0 0 0 -1.38182,1.38182 h -4.14545 a 1.38184,1.38184 0 0 0 -1.38182,-1.38182 h -4.14545 a 1.38183,1.38183 0 0 0 -1.38182,1.38182 h -4.14546 A 1.38183,1.38183 0 0 0 592.1577,515.432 h -4.14546 a 1.38184,1.38184 0 0 0 -1.38182,1.38182 H 582.485 a 1.38184,1.38184 0 0 0 -1.38182,-1.38182 h -4.14548 a 1.38183,1.38183 0 0 0 -1.38182,1.38182 H 562.4486 a 4.14546,4.14546 0 0 0 0,8.29091 h 143.7091 a 4.145455,4.145455 0 0 0 0,-8.29091 z"
       transform="translate(-254,-200.06165)"
       fill="#3f3d56"
       id="path18" />
    <path
       d="m 541.07906,492.73994 v 27.52572 h -68.96225 a 13.77119,13.77119 0 1 1 0,-27.52572 z"
       transform="translate(-254,-200.06165)"
       fill="#f2f2f2"
       id="path20" />
    <path
       d="m 542.773,520.05392 a 1.05909,1.05909 0 0 1 -1.05868,1.05868 h -70.8258 a 14.503935,14.503935 0 1 1 0,-29.00787 h 70.8258 a 1.05868,1.05868 0 0 1 0,2.11736 h -70.8258 a 12.38658,12.38658 0 0 0 0,24.77315 h 70.8258 a 1.0591,1.0591 0 0 1 1.05868,1.05868 z"
       transform="translate(-254,-200.06165)"
       fill="#b32f26"
       id="path22" />
    <path
       d="m 541.07906,499.092 h -74.10771 a 0.21174,0.21174 0 1 1 0,-0.42347 h 74.10771 a 0.21174,0.21174 0 0 1 0,0.42347 z"
       transform="translate(-254,-200.06165)"
       fill="#cccccc"
       id="path24" />
    <path
       d="m 541.07906,504.1737 h -74.10771 a 0.21174,0.21174 0 1 1 0,-0.42347 h 74.10771 a 0.21174,0.21174 0 0 1 0,0.42347 z"
       transform="translate(-254,-200.06165)"
       fill="#cccccc"
       id="path26" />
    <path
       d="m 541.07906,509.25537 h -74.10771 a 0.21174,0.21174 0 1 1 0,-0.42347 h 74.10771 a 0.21174,0.21174 0 0 1 0,0.42347 z"
       transform="translate(-254,-200.06165)"
       fill="#cccccc"
       id="path28" />
    <path
       d="m 541.07906,514.337 h -74.10771 a 0.21174,0.21174 0 1 1 0,-0.42347 h 74.10771 a 0.21174,0.21174 0 0 1 0,0.42347 z"
       transform="translate(-254,-200.06165)"
       fill="#cccccc"
       id="path30" />
    <path
       d="m 528.07906,463.73994 v 27.52572 h -68.96225 a 13.77119,13.77119 0 1 1 0,-27.52572 z"
       transform="translate(-254,-200.06165)"
       fill="#f2f2f2"
       id="path32" />
    <path
       d="m 529.773,491.05392 a 1.05909,1.05909 0 0 1 -1.05868,1.05868 h -70.8258 a 14.503935,14.503935 0 1 1 0,-29.00787 h 70.8258 a 1.05868,1.05868 0 0 1 0,2.11736 h -70.8258 a 12.38658,12.38658 0 0 0 0,24.77315 h 70.8258 a 1.0591,1.0591 0 0 1 1.05868,1.05868 z"
       transform="translate(-254,-200.06165)"
       fill="#3f3d56"
       id="path34" />
    <path
       d="m 528.07906,470.092 h -74.10771 a 0.21174,0.21174 0 1 1 0,-0.42347 h 74.10771 a 0.21174,0.21174 0 0 1 0,0.42347 z"
       transform="translate(-254,-200.06165)"
       fill="#cccccc"
       id="path36" />
    <path
       d="m 528.07906,475.1737 h -74.10771 a 0.21174,0.21174 0 1 1 0,-0.42347 h 74.10771 a 0.21174,0.21174 0 0 1 0,0.42347 z"
       transform="translate(-254,-200.06165)"
       fill="#cccccc"
       id="path38" />
    <path
       d="m 528.07906,480.25537 h -74.10771 a 0.21174,0.21174 0 1 1 0,-0.42347 h 74.10771 a 0.21174,0.21174 0 0 1 0,0.42347 z"
       transform="translate(-254,-200.06165)"
       fill="#cccccc"
       id="path40" />
    <path
       d="m 528.07906,485.337 h -74.10771 a 0.21174,0.21174 0 1 1 0,-0.42347 h 74.10771 a 0.21174,0.21174 0 0 1 0,0.42347 z"
       transform="translate(-254,-200.06165)"
       fill="#cccccc"
       id="path42" />
    <path
       d="m 608.30315,618.10473 v -24 a 4.00008,4.00008 0 0 0 -4,-4 h -91 a 4.00008,4.00008 0 0 0 -4,4 v 24 z"
       transform="translate(-254,-200.06165)"
       fill="#cccccc"
       id="path44" />
    <rect
       x="255.30315"
       y="427.04309"
       width="99"
       height="31"
       fill="#cccccc"
       id="rect46" />
    <path
       d="m 509.30315,667.10473 v 24 a 4.00008,4.00008 0 0 0 4,4 h 91 a 4.00008,4.00008 0 0 0 4,-4 v -24 z"
       transform="translate(-254,-200.06165)"
       fill="#cccccc"
       id="path48" />
    <circle
       cx="304.30316"
       cy="405.04309"
       r="3"
       fill="#ffffff"
       id="circle50" />
    <circle
       cx="304.30316"
       cy="445.04309"
       r="3"
       fill="#ffffff"
       id="circle52" />
    <circle
       cx="304.46393"
       cy="484.19608"
       r="3"
       fill="#ffffff"
       id="circle54" />
    <path
       d="m 597.07906,562.73994 v 27.52572 h -68.96225 a 13.77119,13.77119 0 1 1 0,-27.52572 z"
       transform="translate(-254,-200.06165)"
       fill="#f2f2f2"
       id="path56" />
    <path
       d="m 598.773,590.05392 a 1.05909,1.05909 0 0 1 -1.05868,1.05868 h -70.8258 a 14.50394,14.50394 0 1 1 0,-29.00787 h 70.8258 a 1.05868,1.05868 0 0 1 0,2.11736 h -70.8258 a 12.38658,12.38658 0 0 0 0,24.77315 h 70.8258 a 1.0591,1.0591 0 0 1 1.05868,1.05868 z"
       transform="translate(-254,-200.06165)"
       fill="#3f3d56"
       id="path58" />
    <path
       d="m 597.07906,569.092 h -74.10771 a 0.21174,0.21174 0 1 1 0,-0.42347 h 74.10771 a 0.21174,0.21174 0 0 1 0,0.42347 z"
       transform="translate(-254,-200.06165)"
       fill="#cccccc"
       id="path60" />
    <path
       d="m 597.07906,574.1737 h -74.10771 a 0.21174,0.21174 0 1 1 0,-0.42347 h 74.10771 a 0.21174,0.21174 0 0 1 0,0.42347 z"
       transform="translate(-254,-200.06165)"
       fill="#cccccc"
       id="path62" />
    <path
       d="m 597.07906,579.25537 h -74.10771 a 0.21174,0.21174 0 1 1 0,-0.42347 h 74.10771 a 0.21174,0.21174 0 0 1 0,0.42347 z"
       transform="translate(-254,-200.06165)"
       fill="#cccccc"
       id="path64" />
    <path
       d="m 597.07906,584.337 h -74.10771 a 0.21174,0.21174 0 1 1 0,-0.42347 h 74.10771 a 0.21174,0.21174 0 0 1 0,0.42347 z"
       transform="translate(-254,-200.06165)"
       fill="#cccccc"
       id="path66" />
    <path
       d="m 504.11035,383.08308 v -175.5 a 7.53,7.53 0 0 1 7.52143,-7.52143 h 138.72857 a 7.53005,7.53005 0 0 1 7.52143,7.52143 v 175.5 a 7.53,7.53 0 0 1 -7.52143,7.52142 H 511.63178 a 7.53,7.53 0 0 1 -7.52143,-7.52142 z m 7.52143,-181.35 a 5.85656,5.85656 0 0 0 -5.85,5.85 v 175.5 a 5.85657,5.85657 0 0 0 5.85,5.85 h 138.72857 a 5.85658,5.85658 0 0 0 5.85,-5.85 v -175.5 a 5.85657,5.85657 0 0 0 -5.85,-5.85 z"
       transform="translate(-254,-200.06165)"
       fill="#e6e6e6"
       id="path68" />
    <path
       d="m 588.77549,280.65936 v -36.03569 a 3.7649,3.7649 0 0 1 3.76072,-3.76072 h 30.537 a 3.7649,3.7649 0 0 1 3.76072,3.76072 v 36.03569 a 3.76489,3.76489 0 0 1 -3.76072,3.76071 h -30.537 a 3.76489,3.76489 0 0 1 -3.76072,-3.76071 z"
       transform="translate(-254,-200.06165)"
       fill="#b32f26"
       id="path70" />
    <path
       d="M 529.43978,297.37364 V 261.338 a 3.76489,3.76489 0 0 1 3.76071,-3.76071 h 30.537 a 3.76489,3.76489 0 0 1 3.76071,3.76071 v 36.03569 a 3.7649,3.7649 0 0 1 -3.76071,3.76072 h -30.537 a 3.7649,3.7649 0 0 1 -3.76071,-3.76077 z"
       transform="translate(-254,-200.06165)"
       fill="#cccccc"
       id="path72" />
    <path
       d="m 577.07549,348.35221 v -36.03569 a 3.7649,3.7649 0 0 1 3.76072,-3.76071 h 30.537 a 3.7649,3.7649 0 0 1 3.76072,3.76071 v 36.03569 a 3.7649,3.7649 0 0 1 -3.76072,3.76072 h -30.537 a 3.7649,3.7649 0 0 1 -3.76072,-3.76072 z"
       transform="translate(-254,-200.06165)"
       fill="#ff6584"
       id="path74" />
    <path
       d="M 759.56292,513.10473 H 728.143 a 1.94143,1.94143 0 0 0 -0.85986,0.2 l -7.93018,3.97 a 1.44516,1.44516 0 0 0 0,2.66 l 7.93018,3.97 a 1.94143,1.94143 0 0 0 0.85986,0.2 h 31.41993 a 1.64908,1.64908 0 0 0 1.74023,-1.53 v -7.93994 a 1.64908,1.64908 0 0 0 -1.74024,-1.53006 z"
       transform="translate(-254,-200.06165)"
       fill="#3f3d56"
       id="path76" />
    <path
       d="m 761.30315,514.63476 v 7.93994 a 1.64908,1.64908 0 0 1 -1.74023,1.53 h -6.25977 v -11 h 6.25977 a 1.64908,1.64908 0 0 1 1.74023,1.53006 z"
       transform="translate(-254,-200.06165)"
       fill="#b32f26"
       id="path78" />
    <path
       d="m 759.3265,453.70453 a 11.00278,11.00278 0 0 1 14.8905,6.9146 10.58813,10.58813 0 0 1 0.32019,1.435 l 43.93794,21.78816 10.16835,-6.73853 12.65178,14.56532 -15.52592,12.60982 a 11.1485,11.1485 0 0 1 -13.30125,0.513 l -44.57918,-30.82819 a 10.51075,10.51075 0 0 1 -1.01489,0.3701 11.00314,11.00314 0 0 1 -14.01048,-8.56076 10.70772,10.70772 0 0 1 -0.16253,-1.33951 11.036,11.036 0 0 1 6.62549,-10.72901 z"
       transform="translate(-254,-200.06165)"
       fill="#ffb8b8"
       id="path80" />
    <path
       d="m 850.84106,587.8533 h -48.00977 c 0,1.38 -49.48,2.5 -49.48,2.5 a 12.85953,12.85953 0 0 0 -2.10986,2 12.41025,12.41025 0 0 0 -2.90039,8 v 2 a 12.5046,12.5046 0 0 0 12.5,12.5 h 90 a 12.51088,12.51088 0 0 0 12.5,-12.5 v -2 a 12.51735,12.51735 0 0 0 -12.49998,-12.5 z"
       transform="translate(-254,-200.06165)"
       fill="#3f3d56"
       id="path82" />
    <rect
       x="798.61749"
       y="614.35669"
       width="13"
       height="84"
       transform="rotate(180,678.1175,556.32589)"
       fill="#3f3d56"
       id="rect84" />
    <path
       d="m 761.6175,697.9 c 0,1.40463 19.69947,0.54331 44,0.54331 24.30053,0 44,0.86132 44,-0.54331 0,-1.40463 -19.69947,-12.54331 -44,-12.54331 -24.30053,0 -44,11.1387 -44,12.54331 z"
       transform="translate(-254,-200.06165)"
       fill="#3f3d56"
       id="path86" />
    <polygon
       points="519.355,456.196 519.353,487.993 507.094,487.992 501.261,456.195 "
       fill="#ffb8b8"
       id="polygon88" />
    <path
       d="m 776.47983,699.93835 -39.53052,-10e-4 v -0.5 a 15.38605,15.38605 0 0 1 15.38647,-15.38623 h 10e-4 l 24.1438,10e-4 z"
       transform="translate(-254,-200.06165)"
       fill="#2f2e41"
       id="path90" />
    <path
       d="M 755.01663,668.33665 730.57571,613.529 a 20.086,20.086 0 0 1 8.8186,-25.78418 l 53.01343,-28.42773 24.19116,-2.05762 22.3147,-2.02832 0.16089,0.27246 c 0.20581,0.34766 5.00366,8.63477 1.7605,17.72168 -2.46,6.89258 -8.85889,12.27637 -19.0188,16.00195 -23.71436,8.69532 -51.10913,16.127 -61.78638,18.918 a 3.45079,3.45079 0 0 0 -2.21118,1.75977 3.49812,3.49812 0 0 0 -0.19629,2.79883 l 22.70654,51.01464 a 4.49992,4.49992 0 0 1 -3.80932,6.0293 l -16.96656,1.23535 q -0.21606,0.0205 -0.43017,0.0205 a 4.49688,4.49688 0 0 1 -4.1062,-2.66699 z"
       transform="translate(-254,-200.06165)"
       fill="#2f2e41"
       id="path92" />
    <polygon
       points="525.355,456.196 525.353,487.993 513.094,487.992 507.261,456.195 "
       fill="#ffb8b8"
       id="polygon94" />
    <path
       d="m 782.47983,699.93835 -39.53052,-10e-4 v -0.5 a 15.38605,15.38605 0 0 1 15.38647,-15.38623 h 10e-4 l 24.1438,10e-4 z"
       transform="translate(-254,-200.06165)"
       fill="#2f2e41"
       id="path96" />
    <path
       d="M 762.01663,671.33665 737.57571,616.529 a 20.086,20.086 0 0 1 8.8186,-25.78418 l 53.01343,-28.42773 24.19116,-2.05762 22.3147,-2.02832 0.16089,0.27246 c 0.20581,0.34766 5.00366,8.63477 1.7605,17.72168 -2.46,6.89258 -8.85889,12.27637 -19.0188,16.00195 -23.71436,8.69532 -51.10913,16.127 -61.78638,18.918 a 3.45079,3.45079 0 0 0 -2.21118,1.75977 3.49812,3.49812 0 0 0 -0.19629,2.79883 l 22.70654,51.01464 a 4.49992,4.49992 0 0 1 -3.80932,6.0293 l -16.96656,1.23535 q -0.21606,0.0205 -0.43017,0.0205 a 4.49688,4.49688 0 0 1 -4.1062,-2.66699 z"
       transform="translate(-254,-200.06165)"
       fill="#2f2e41"
       id="path98" />
    <path
       d="m 749.83452,503.90591 a 167.50633,167.50633 0 0 1 -24.0754,-44.93173 4.30258,4.30258 0 0 1 2.03179,-5.17938 l 35.14526,-18.83159 a 4.2466,4.2466 0 0 1 3.72553,-0.15123 4.31914,4.31914 0 0 1 2.46131,2.884 102.32846,102.32846 0 0 0 22.44563,41.89073 4.31809,4.31809 0 0 1 1.03824,3.64654 4.24658,4.24658 0 0 1 -2.1894,3.01811 L 755.27223,505.083 a 4.30258,4.30258 0 0 1 -5.43771,-1.17709 z"
       transform="translate(-254,-200.06165)"
       fill="#cccccc"
       id="path100" />
    <path
       d="m 752.23284,502.10375 a 1.29853,1.29853 0 0 0 1.62207,0.335 l 35.14551,-18.832 a 1.24591,1.24591 0 0 0 0.65258,-0.897 1.31807,1.31807 0 0 0 -0.325,-1.12793 105.34018,105.34018 0 0 1 -23.10693,-43.125 1.31863,1.31863 0 0 0 -0.75806,-0.895 1.24691,1.24691 0 0 0 -1.11035,0.0459 l -35.14473,18.83148 a 1.29831,1.29831 0 0 0 -0.61962,1.53711 164.50711,164.50711 0 0 0 23.64453,44.12744 z"
       transform="translate(-254,-200.06165)"
       fill="#ffffff"
       id="path102" />
    <path
       d="m 866.59251,498.88255 -27.52466,10.45937 -6.72,-18.66664 a 11.16823,11.16823 0 0 1 5.002,-13.4995 v 0 a 11.16823,11.16823 0 0 1 14.26249,2.78445 z"
       transform="translate(-254,-200.06165)"
       fill="#b32f26"
       id="path104" />
    <path
       d="m 796.58273,572.84256 a 4.99862,4.99862 0 0 1 -2.0835,-3.54883 c -3.52539,-32.90967 -1.06982,-58.66406 7.50586,-78.73486 a 24.99166,24.99166 0 0 1 16.5669,-14.17969 l 22.24951,-1.12305 0.11523,0.0557 a 26.00516,26.00516 0 0 1 14.21927,27.58838 c -7.15625,18.86328 -13.14844,38.50293 -8.57861,54.34619 a 5.12194,5.12194 0 0 1 -0.48389,3.9834 4.88411,4.88411 0 0 1 -3.11572,2.30908 l -42.37845,10.08105 a 4.96422,4.96422 0 0 1 -4.0166,-0.77734 z"
       transform="translate(-254,-200.06165)"
       fill="#b32f26"
       id="path106" />
    <circle
       cx="579.39612"
       cy="242.3232"
       r="24.561029"
       fill="#ffb8b8"
       id="circle108" />
    <path
       d="m 765.24342,461.83787 -19.1416,8.44957 a 3.00328,3.00328 0 0 1 -3.956,-1.533 l -0.47343,-1.07251 a 3.00328,3.00328 0 0 1 1.533,-3.956 l 19.1416,-8.44957 a 3.00328,3.00328 0 0 1 3.956,1.533 l 0.47343,1.07251 a 3.00328,3.00328 0 0 1 -1.533,3.956 z"
       transform="translate(-254,-200.06165)"
       fill="#cccccc"
       id="path110" />
    <path
       d="m 772.24342,474.83787 -19.1416,8.44957 a 3.00328,3.00328 0 0 1 -3.956,-1.533 l -0.47343,-1.07251 a 3.00328,3.00328 0 0 1 1.533,-3.956 l 19.1416,-8.44957 a 3.00328,3.00328 0 0 1 3.956,1.533 l 0.47343,1.07251 a 3.00328,3.00328 0 0 1 -1.533,3.956 z"
       transform="translate(-254,-200.06165)"
       fill="#cccccc"
       id="path112" />
    <path
       d="m 787.00509,525.615 -42.67431,-33.666 a 10.51709,10.51709 0 0 1 -1.03614,0.30566 11.02708,11.02708 0 0 1 -8.81787,-1.69141 10.9127,10.9127 0 0 1 -4.62646,-7.73339 11.02293,11.02293 0 0 1 7.209,-11.63819 11.00361,11.00361 0 0 1 14.42627,7.8374 10.5714,10.5714 0 0 1 0.229,1.45215 l 42.48142,24.50734 10.57178,-6.08643 11.71093,15.332 -16.41406,11.69922 a 10.94192,10.94192 0 0 1 -13.05957,-0.31836 z"
       transform="translate(-254,-200.06165)"
       fill="#ffb8b8"
       id="path114" />
    <path
       d="m 821.686,519.00884 -24.34869,-16.55738 11.44288,-16.20686 a 11.16823,11.16823 0 0 1 13.92862,-3.64 v 0 a 11.16822,11.16822 0 0 1 5.89441,13.2826 z"
       transform="translate(-254,-200.06165)"
       fill="#b32f26"
       id="path116" />
    <path
       d="m 824.39127,438.72667 c -6.31271,4.32051 -14.60145,8.76174 -21.04891,4.16075 -4.23352,-3.02109 -5.56737,-8.61545 -3.8506,-13.52486 3.08726,-8.82857 11.56943,-12.71531 19.68052,-15.69459 10.54441,-3.87305 22.02573,-6.95424 32.91112,-4.18055 10.88539,2.77369 20.5056,13.31292 18.54058,24.37293 -1.58022,8.89423 -9.97,16.29492 -8.779,25.24958 1.19867,9.01215 11.33379,13.75589 20.28149,15.36658 8.9477,1.61069 18.96039,2.12822 25.39074,8.5552 8.2031,8.1988 6.15465,22.85325 -1.56414,31.50955 -7.71879,8.6563 -19.36683,12.58011 -30.6538,15.24757 -14.95454,3.53422 -31.12905,5.39161 -45.33209,-0.47378 -14.20304,-5.86539 -25.25565,-21.65433 -21.14126,-36.45976 1.73791,-6.2538 5.83191,-11.5391 9.78854,-16.68451 3.95663,-5.14541 7.9631,-10.526 9.47238,-16.83888 1.25772,-5.26073 0.32682,-11.36869 -3.16182,-15.31484 a 4.437,4.437 0 0 1 -0.59439,-5.18643 z"
       transform="translate(-254,-200.06165)"
       fill="#2f2e41"
       id="path118" />
    <path
       d="m 363.07219,558.06009 a 39.063,39.063 0 0 1 -37.72112,-6.64474 c -13.212,-11.08918 -17.35436,-29.35854 -20.72485,-46.275 q -4.98462,-25.01781 -9.96925,-50.0356 l 20.87166,14.37144 c 15.00965,10.33508 30.35744,21.00126 40.75007,35.97112 10.39263,14.96986 14.929,35.40506 6.57885,51.60315"
       transform="translate(-254,-200.06165)"
       fill="#e6e6e6"
       id="path120" />
    <path
       d="m 361.28809,618.6386 c 2.11249,-15.38745 4.28468,-30.97255 2.80288,-46.52494 -1.316,-13.81219 -5.52988,-27.30283 -14.10882,-38.36423 A 63.8196,63.8196 0 0 0 333.60831,518.912 c -1.6374,-1.03351 -3.14442,1.5614 -1.51416,2.59042 A 60.67179,60.67179 0 0 1 356.093,550.4588 c 5.22488,13.28947 6.06392,27.77612 5.16355,41.89337 -0.54449,8.53723 -1.69847,17.01851 -2.86134,25.48891 a 1.5543,1.5543 0 0 0 1.04766,1.84518 1.50916,1.50916 0 0 0 1.84518,-1.04766 z"
       transform="translate(-254,-200.06165)"
       fill="#f2f2f2"
       id="path122" />
    <path
       d="m 340.941,591.41008 a 28.75526,28.75526 0 0 1 -25.05474,12.93133 c -12.68314,-0.60208 -23.25684,-9.45412 -32.77515,-17.85807 l -28.15329,-24.85721 18.63281,-0.8917 c 13.39961,-0.64126 27.14492,-1.23941 39.90759,2.89278 12.76267,4.13219 24.53307,14.0769 26.8668,27.2873"
       transform="translate(-254,-200.06165)"
       fill="#e6e6e6"
       id="path124" />
    <path
       d="m 367.25813,627.48412 c -10.16773,-17.99115 -21.96141,-37.98627 -43.03473,-44.377 a 48.02218,48.02218 0 0 0 -18.10109,-1.869 c -1.9218,0.16571 -1.44191,3.12811 0.4764,2.9627 a 44.61381,44.61381 0 0 1 28.88649,7.64231 c 8.1449,5.544 14.48659,13.25166 19.85414,21.42526 3.28779,5.00657 6.23278,10.22555 9.17833,15.43753 0.94134,1.66563 3.69279,0.46329 2.74046,-1.22181 z"
       transform="translate(-254,-200.06165)"
       fill="#f2f2f2"
       id="path126" />
    <path
       d="M 383.54973,646.42114 A 21.77376,21.77376 0 0 0 370.207,628.18432 v -10.401 h -17.44487 v 10.72876 a 21.76258,21.76258 0 0 0 -12.61621,17.90906 l -4.102,47.68359 h 51.60791 z"
       transform="translate(-254,-200.06165)"
       fill="#f2f2f2"
       id="path128" />
  </g>
</svg>
