<?xml version="1.0" encoding="UTF-8" standalone="no"?>
<svg
   xmlns:dc="http://purl.org/dc/elements/1.1/"
   xmlns:cc="http://creativecommons.org/ns#"
   xmlns:rdf="http://www.w3.org/1999/02/22-rdf-syntax-ns#"
   xmlns:svg="http://www.w3.org/2000/svg"
   xmlns="http://www.w3.org/2000/svg"
   xmlns:sodipodi="http://sodipodi.sourceforge.net/DTD/sodipodi-0.dtd"
   xmlns:inkscape="http://www.inkscape.org/namespaces/inkscape"
   id="a5a3b5e3-d7d8-4dd0-99da-2c47698acbff"
   data-name="Layer 1"
   width="250.00002"
   height="128.08891"
   viewBox="0 0 250.00002 128.08891"
   version="1.1"
   sodipodi:docname="photoshop-illustration.svg"
   inkscape:version="1.0.1 (3bc2e813f5, 2020-09-07, custom)">
  <metadata
     id="metadata87">
    <rdf:RDF>
      <cc:Work
         rdf:about="">
        <dc:format>image/svg+xml</dc:format>
        <dc:type
           rdf:resource="http://purl.org/dc/dcmitype/StillImage" />
      </cc:Work>
    </rdf:RDF>
  </metadata>
  <defs
     id="defs85" />
  <sodipodi:namedview
     pagecolor="#ffffff"
     bordercolor="#666666"
     borderopacity="1"
     objecttolerance="10"
     gridtolerance="10"
     guidetolerance="10"
     inkscape:pageopacity="0"
     inkscape:pageshadow="2"
     inkscape:window-width="1920"
     inkscape:window-height="1058"
     id="namedview83"
     showgrid="false"
     inkscape:zoom="0.80339631"
     inkscape:cx="-89.743603"
     inkscape:cy="-8.6103281"
     inkscape:window-x="0"
     inkscape:window-y="22"
     inkscape:window-maximized="0"
     inkscape:current-layer="a5a3b5e3-d7d8-4dd0-99da-2c47698acbff" />
  <g
     id="g952"
     transform="scale(0.24635168)">
    <path
       d="m 141.87514,697.02227 c 18.35067,13.21982 42.13177,13.88362 65.11877,12.25956 3.20983,-0.22647 6.397,-0.49223 9.55455,-0.77894 0.0191,-0.005 0.0441,-0.003 0.0635,-0.008 0.15175,-0.0144 0.30381,-0.0289 0.449,-0.0375 0.65173,-0.061 1.30376,-0.12189 1.94938,-0.18326 l -0.15251,0.291 -0.47869,0.903 c 0.172,-0.30223 0.34392,-0.59817 0.516,-0.9004 0.0506,-0.0907 0.10731,-0.181 0.15761,-0.27182 5.9549,-10.3626 11.86111,-21.10587 13.36766,-32.93881 1.55723,-12.28205 -2.81921,-26.18939 -13.62881,-32.22607 a 21.81371,21.81371 0 0 0 -4.476,-1.87463 c -0.64648,-0.19644 -1.30171,-0.35578 -1.96438,-0.49681 a 23.38026,23.38026 0 0 0 -27.18952,30.393 c -9.1646,-9.39746 -7.455,-24.64254 -4.29368,-37.38365 3.16746,-12.74071 7.00195,-26.91811 0.55962,-38.3619 -3.58118,-6.36972 -9.87889,-10.32171 -16.94646,-11.91375 -0.21682,-0.0467 -0.43333,-0.0934 -0.65058,-0.13388 a 34.12132,34.12132 0 0 0 -24.51434,4.29533 c -13.5138,8.51589 -20.45468,24.66225 -22.70738,40.47892 -3.62962,25.45197 4.4026,53.85715 25.26626,68.88873 z"
       transform="translate(-92.5953,-190.02832)"
       fill="#f2f2f2"
       id="path2" />
    <path
       d="m 147.79989,656.22189 a 58.00367,58.00367 0 0 0 4.00323,16.34555 50.36554,50.36554 0 0 0 7.82,12.77317 64.53124,64.53124 0 0 0 24.78774,17.87326 92.875,92.875 0 0 0 22.583,6.068 c 3.20983,-0.22647 6.397,-0.49223 9.55455,-0.77894 0.0191,-0.005 0.0441,-0.003 0.0635,-0.008 0.15175,-0.0144 0.30381,-0.0289 0.449,-0.0375 0.65173,-0.061 1.30376,-0.12189 1.94938,-0.18326 l -0.15251,0.291 -0.47869,0.903 c 0.172,-0.30223 0.34392,-0.59817 0.516,-0.9004 0.0506,-0.0907 0.10731,-0.181 0.15761,-0.27182 a 51.3396,51.3396 0 0 1 -14.38829,-44.91026 51.77935,51.77935 0 0 1 9.6511,-22.12925 c -0.64648,-0.19644 -1.30171,-0.35578 -1.96438,-0.49681 a 53.68444,53.68444 0 0 0 -4.89705,8.111 52.6033,52.6033 0 0 0 -4.53843,32.72492 53.78111,53.78111 0 0 0 13.626,26.82527 c -0.61308,-0.0432 -1.23213,-0.0931 -1.8379,-0.14841 -11.47444,-0.97215 -22.9255,-3.43893 -33.33292,-8.49165 A 60.03366,60.03366 0 0 1 158.88122,681.3275 c -6.30312,-8.69283 -9.08057,-19.14906 -9.55769,-29.77639 a 125.66232,125.66232 0 0 1 3.56687,-34.01933 142.78942,142.78942 0 0 1 11.9983,-32.68329 1.02661,1.02661 0 0 0 -0.40763,-1.35528 0.87318,0.87318 0 0 0 -0.65058,-0.13388 0.76015,0.76015 0 0 0 -0.50183,0.42987 c -0.656,1.28032 -1.29979,2.56151 -1.91911,3.857 a 144.40982,144.40982 0 0 0 -11.30484,33.9078 c -2.28097,11.31314 -3.49844,23.14761 -2.30482,34.66789 z"
       transform="translate(-92.5953,-190.02832)"
       fill="#ffffff"
       id="path4" />
    <path
       d="m 1068.0106,688.87482 c -27.6878,19.94632 -63.5692,20.94787 -98.25246,18.49746 -4.84306,-0.3417 -9.65185,-0.74268 -14.41609,-1.17528 -0.0288,-0.007 -0.0666,-0.005 -0.0958,-0.0122 -0.229,-0.0218 -0.45838,-0.0436 -0.67746,-0.0566 -0.98334,-0.092 -1.96714,-0.18392 -2.94126,-0.27651 l 0.23012,0.43909 0.72225,1.36251 c -0.25956,-0.456 -0.51892,-0.90254 -0.77848,-1.35854 -0.0763,-0.13688 -0.16191,-0.27316 -0.2378,-0.41013 -8.98487,-15.63529 -17.89628,-31.84495 -20.16938,-49.69872 -2.34959,-18.5314 4.25368,-39.51506 20.56341,-48.62331 a 32.91172,32.91172 0 0 1 6.75353,-2.82848 c 0.97542,-0.2964 1.96405,-0.53682 2.9639,-0.7496 a 35.27659,35.27659 0 0 1 41.02402,45.8575 c 13.8278,-14.17907 11.2483,-37.18114 6.4784,-56.40517 -4.7791,-19.22344 -10.56463,-40.61458 -0.8444,-57.8812 5.4034,-9.61075 14.9055,-15.57359 25.5692,-17.97569 0.3271,-0.0705 0.6538,-0.141 0.9816,-0.202 a 51.483,51.483 0 0 1 36.9877,6.48087 c 20.3899,12.849 30.8624,37.21089 34.2614,61.07539 5.4763,38.40239 -6.6429,81.26069 -38.1224,103.94063 z"
       transform="translate(-92.5953,-190.02832)"
       fill="#f2f2f2"
       id="path6" />
    <path
       d="m 1059.0712,627.31441 a 87.51723,87.51723 0 0 1 -6.0401,24.66249 75.99285,75.99285 0 0 1 -11.799,19.2724 c -9.9514,11.97075 -23.1098,20.97073 -37.4002,26.96753 a 140.13226,140.13226 0 0 1 -34.07377,9.15545 c -4.84306,-0.3417 -9.65185,-0.74268 -14.41609,-1.17528 -0.0288,-0.007 -0.0666,-0.005 -0.0958,-0.0122 -0.229,-0.0218 -0.45838,-0.0436 -0.67746,-0.0566 -0.98334,-0.092 -1.96714,-0.18392 -2.94126,-0.27651 l 0.23012,0.43909 0.72225,1.36251 c -0.25956,-0.456 -0.51892,-0.90254 -0.77848,-1.35854 -0.0763,-0.13688 -0.16191,-0.27316 -0.2378,-0.41013 a 77.46219,77.46219 0 0 0 21.70934,-67.76148 78.12574,78.12574 0 0 0 -14.56178,-33.389 c 0.97542,-0.2964 1.96405,-0.53682 2.9639,-0.7496 a 81.00184,81.00184 0 0 1 7.38877,12.238 79.36887,79.36887 0 0 1 6.84766,49.376 81.14591,81.14591 0 0 1 -20.5592,40.47449 c 0.925,-0.0652 1.859,-0.14052 2.77306,-0.22392 17.31285,-1.4668 34.59044,-5.18873 50.29334,-12.81237 a 90.57982,90.57982 0 0 0 33.9328,-27.84245 c 9.5102,-13.11592 13.7009,-28.89247 14.4208,-44.92721 0.7633,-17.16658 -1.4641,-34.63466 -5.3818,-51.329 a 215.44337,215.44337 0 0 0 -18.1032,-49.31317 1.549,1.549 0 0 1 0.615,-2.04488 1.31747,1.31747 0 0 1 0.9816,-0.202 1.147,1.147 0 0 1 0.7571,0.64859 c 0.9898,1.93178 1.9612,3.86487 2.8956,5.81954 a 217.8887,217.8887 0 0 1 17.057,51.16079 c 3.4416,17.06938 5.2786,34.92546 3.4776,52.30748 z"
       transform="translate(-92.5953,-190.02832)"
       fill="#ffffff"
       id="path8" />
    <path
       d="M 807.8192,493.75781 H 393.79357 a 3.28124,3.28124 0 0 1 -3.27344,-3.27246 V 193.30176 a 3.28052,3.28052 0 0 1 3.27271,-3.27344 H 807.818 a 3.28093,3.28093 0 0 1 3.27344,3.27246 v 297.1836 a 3.28119,3.28119 0 0 1 -3.27224,3.27343 z M 393.7943,192.02832 a 1.27733,1.27733 0 0 0 -1.27417,1.27441 v 297.18165 a 1.278,1.278 0 0 0 1.27466,1.27343 H 807.818 a 1.278,1.278 0 0 0 1.27344,-1.27441 V 193.30176 a 1.27728,1.27728 0 0 0 -1.27417,-1.27344 z"
       transform="translate(-92.5953,-190.02832)"
       fill="#3f3d56"
       id="path10" />
    <path
       d="m 784.95776,215.552 v 211.19453 a 5.31536,5.31536 0 0 1 -5.3136,5.31714 H 421.12463 a 4.48228,4.48228 0 0 1 -0.762,-0.0593 5.31218,5.31218 0 0 1 -4.55511,-5.25787 V 215.552 a 5.31532,5.31532 0 0 1 5.31354,-5.31709 h 358.51956 a 5.31535,5.31535 0 0 1 5.31714,5.31358 z"
       transform="translate(-92.5953,-190.02832)"
       fill="#f2f2f2"
       id="path12" />
    <circle
       cx="413.5845"
       cy="99.131126"
       r="46.64764"
       fill="#ff6584"
       id="circle14" />
    <path
       d="M 652.4616,432.91035 H 423.62225 a 4.66646,4.66646 0 0 1 -0.85517,-0.0677 l 108.23047,-187.4708 a 7.578,7.578 0 0 1 13.19122,0 l 72.63623,125.80742 3.47986,6.01989 z"
       transform="translate(-92.5953,-190.02832)"
       fill="#3f3d56"
       id="path16" />
    <polygon
       points="522.85,183.158 524.23,181.151 527.71,187.171 559.866,242.882 481.735,242.882 520.089,187.171 "
       opacity="0.2"
       style="isolation:isolate"
       id="polygon18" />
    <path
       d="M 779.87768,432.91035 H 581.95043 l 38.35443,-55.71122 2.76013,-4.01327 49.97925,-72.60239 c 3.27661,-4.7583 11.15918,-5.05462 15.01154,-0.89746 a 9.03328,9.03328 0 0 1 0.71973,0.89746 z"
       transform="translate(-92.5953,-190.02832)"
       fill="#3f3d56"
       id="path20" />
    <circle
       cx="311.242"
       cy="292.10587"
       r="6.35007"
       fill="#b32f26"
       id="circle22" />
    <circle
       cx="311.242"
       cy="12.10587"
       r="6.35007"
       fill="#b32f26"
       id="circle24" />
    <circle
       cx="706.242"
       cy="12.10587"
       r="6.35007"
       fill="#b32f26"
       id="circle26" />
    <circle
       cx="706.242"
       cy="292.10587"
       r="6.35007"
       fill="#b32f26"
       id="circle28" />
    <polygon
       points="220.777,459.478 220.779,506.765 233.039,506.765 238.871,459.477 "
       fill="#a0616a"
       id="polygon30" />
    <path
       d="m 310.74775,693.29018 h 38.53073 V 708.177 H 325.6346 a 14.88686,14.88686 0 0 1 -14.88686,-14.88686 v 0 z"
       transform="rotate(179.99738,283.7176,605.71841)"
       fill="#2f2e41"
       id="path32" />
    <polygon
       points="174.777,459.478 174.779,506.765 187.039,506.765 192.871,459.477 "
       fill="#a0616a"
       id="polygon34" />
    <path
       d="m 264.74775,693.29018 h 38.53073 V 708.177 H 279.6346 a 14.88686,14.88686 0 0 1 -14.88686,-14.88686 v 0 z"
       transform="rotate(179.99738,237.7176,605.71841)"
       fill="#2f2e41"
       id="path36" />
    <path
       d="m 268.87207,555.95517 a 10.74271,10.74271 0 0 0 2.06222,-16.343 l 8.0725,-114.55784 -23.253,2.25509 -0.63868,112.18658 a 10.80091,10.80091 0 0 0 13.757,16.45913 z"
       transform="translate(-92.5953,-190.02832)"
       fill="#a0616a"
       id="path38" />
    <path
       d="m 313.74023,672.97677 a 4.51711,4.51711 0 0 1 -4.46875,-3.96582 l -7.12622,-59.60254 a 3.5,3.5 0 0 0 -6.93286,-0.12793 l -8.97705,57.06739 a 4.47889,4.47889 0 0 1 -4.44531,3.80078 H 267.24 a 4.50047,4.50047 0 0 1 -4.5,-4.53418 l 6.94434,-126.53418 a 4.4738,4.4738 0 0 1 3.85351,-4.41992 l 53.99365,-7.8379 a 4.50113,4.50113 0 0 1 5.14649,4.48536 l -0.9419,136.55664 a 4.499,4.499 0 0 1 -4.28589,4.46289 l -13.49633,0.64355 q -0.10732,0.006 -0.21364,0.006 z"
       transform="translate(-92.5953,-190.02832)"
       fill="#2f2e41"
       id="path40" />
    <path
       d="m 285.74756,543.86056 a 45.08471,45.08471 0 0 1 -15.22583,-2.71094 4.46544,4.46544 0 0 1 -2.918,-4.00488 c -0.46582,-10.33691 -3.19092,-63.54394 -11.12451,-95.999 a 33.17817,33.17817 0 0 1 12.63647,-34.57325 q 0.64014,-0.46 1.30518,-0.90332 a 32.30591,32.30591 0 0 1 31.39551,-2.46093 33.21915,33.21915 0 0 1 19.36352,25.957 l 12.9375,96.05078 a 4.47791,4.47791 0 0 1 -0.93115,3.40137 4.41813,4.41813 0 0 1 -3.05347,1.67285 c -4.48291,0.44726 -13.78052,2.18457 -25.67993,8.7959 a 38.12459,38.12459 0 0 1 -18.70529,4.77442 z"
       transform="translate(-92.5953,-190.02832)"
       fill="#b32f26"
       id="path42" />
    <path
       d="m 269.93088,464.24191 -21.29064,-5.77256 a 4.50509,4.50509 0 0 1 -3.16562,-5.52077 l 7.48456,-27.60491 a 12.3986,12.3986 0 0 1 24.34643,3.92684 l -1.70385,30.87615 a 4.49956,4.49956 0 0 1 -5.67088,4.09525 z"
       transform="translate(-92.5953,-190.02832)"
       fill="#b32f26"
       id="path44" />
    <circle
       cx="201.03592"
       cy="175.57703"
       r="24.561029"
       fill="#a0616a"
       id="circle46" />
    <path
       d="m 382.63494,413.86 a 10.52722,10.52722 0 0 0 -0.2393,1.64013 l -42.95745,24.782 -10.44141,-6.01093 -11.13116,14.57227 22.33714,15.92053 49.00791,-38.66268 A 10.4958,10.4958 0 1 0 382.63494,413.86 Z"
       transform="translate(-92.5953,-190.02832)"
       fill="#a0616a"
       id="path48" />
    <path
       d="m 335.878,441.4779 -18.5043,12.00853 a 4.50507,4.50507 0 0 1 -6.22447,-1.3251 l -15.57,-23.9922 a 12.3986,12.3986 0 0 1 19.16808,-15.51623 l 21.8634,21.86849 a 4.49956,4.49956 0 0 1 -0.73275,6.95651 z"
       transform="translate(-92.5953,-190.02832)"
       fill="#b32f26"
       id="path50" />
    <path
       d="m 276.25062,385.03691 c 4.582,4.88078 13.09132,2.26066 13.68835,-4.40718 a 8.05467,8.05467 0 0 0 -0.0101,-1.55569 c -0.30826,-2.95357 -2.0146,-5.63505 -1.60587,-8.7536 a 4.59038,4.59038 0 0 1 0.84011,-2.14891 c 3.65124,-4.88934 12.22227,2.18687 15.6682,-2.2393 2.113,-2.714 -0.3708,-6.98712 1.25065,-10.02051 2.14006,-4.00357 8.47881,-2.0286 12.45388,-4.22115 4.42275,-2.43949 4.15822,-9.22525 1.24686,-13.35269 -3.55052,-5.0336 -9.77572,-7.71952 -15.92336,-8.10661 -6.14764,-0.38709 -12.25291,1.27475 -17.99229,3.51145 -6.52109,2.54134 -12.98768,6.05351 -17.00066,11.78752 -4.88022,6.97317 -5.34986,16.34794 -2.90917,24.50175 1.48469,4.96001 6.55182,11.01924 10.29344,15.00492 z"
       transform="translate(-92.5953,-190.02832)"
       fill="#2f2e41"
       id="path52" />
    <path
       d="m 474.5953,709.97168 h -381 a 1,1 0 1 1 0,-2 h 381 a 1,1 0 1 1 0,2 z"
       transform="translate(-92.5953,-190.02832)"
       fill="#3f3d56"
       id="path54" />
    <path
       d="m 1100.5953,709.97168 h -381 a 1,1 0 0 1 0,-2 h 381 a 1,1 0 0 1 0,2 z"
       transform="translate(-92.5953,-190.02832)"
       fill="#3f3d56"
       id="path56" />
    <path
       d="m 928.02253,521.32191 a 10.342,10.342 0 0 1 -3.69829,-15.421 l -7.73338,-75.61094 h 16.71263 l 6.14591,73.83019 a 10.3981,10.3981 0 0 1 -11.42687,17.20178 z"
       transform="translate(-92.5953,-190.02832)"
       fill="#ffb8b8"
       id="path58" />
    <circle
       cx="820.08203"
       cy="174.88861"
       r="23.645041"
       fill="#ffb8b8"
       id="circle60" />
    <path
       d="m 907.29681,474.22278 -35.28941,-7.70634 a 4.34283,4.34283 0 0 1 -3.40214,-4.00971 c -0.40755,-7.87463 -0.7004,-28.24563 5.36539,-47.26282 A 28.63889,28.63889 0 0 1 910.77181,397 v 0 a 28.65183,28.65183 0 0 1 16.27057,39.55789 c -7.82574,16.06985 -12.75444,27.70693 -14.64882,34.58971 a 4.32479,4.32479 0 0 1 -5.09675,3.0752 z"
       transform="translate(-92.5953,-190.02832)"
       fill="#b32f26"
       id="path62" />
    <polygon
       points="781.459,463.301 781.457,508.826 769.654,508.825 764.04,463.301 "
       fill="#ffb8b8"
       id="polygon64" />
    <path
       d="m 761.22383,505.45268 h 22.76207 v 14.33167 h -37.09374 v 0 a 14.33167,14.33167 0 0 1 14.33167,-14.33167 z"
       fill="#2f2e41"
       id="path66" />
    <polygon
       points="877.544,453.637 899.476,493.529 889.134,499.215 862.279,462.029 "
       fill="#ffb8b8"
       id="polygon68" />
    <path
       d="m 975.64766,687.433 h 22.76208 v 14.33167 H 961.316 v 0 A 14.33166,14.33166 0 0 1 975.64766,687.433 Z"
       transform="rotate(-28.80096,563.52231,779.89579)"
       fill="#2f2e41"
       id="path70" />
    <path
       d="m 874.26727,673.57333 -18.16966,-1.39893 a 4.32027,4.32027 0 0 1 -3.97985,-3.89877 c -2.58939,-27.00934 -13.9503,-163.879 16.77683,-206.019 l 0.086,-0.11752 0.13726,-0.0508 c 0.275,-0.1006 27.67825,-9.87244 43.40048,8.03539 a 4.32994,4.32994 0 0 1 0.83367,4.21372 l -0.59981,1.79943 a 3.35482,3.35482 0 0 0 0.47736,3.05452 c 4.3632,5.89845 19.04845,28.616 24.82022,73.28878 a 3.337,3.337 0 0 0 0.21764,0.82921 l 42.61335,104.682 a 4.33179,4.33179 0 0 1 -2.47022,5.68128 l -13.40854,5.10875 a 4.3558,4.3558 0 0 1 -5.336,-1.95832 L 898.1504,555.216 a 2.40679,2.40679 0 0 0 -4.49434,0.85271 l -14.76047,113.74217 a 4.33167,4.33167 0 0 1 -4.292,3.77467 c -0.11139,0 -0.2235,-0.004 -0.33632,-0.0122 z"
       transform="translate(-92.5953,-190.02832)"
       fill="#2f2e41"
       id="path72" />
    <path
       d="m 820.75433,392.38312 a 10.13427,10.13427 0 0 1 0.23037,1.579 l 41.35538,23.85776 10.052,-5.78677 10.716,14.02882 -16.79954,11.97369 a 7.70167,7.70167 0 0 1 -9.24024,-0.22512 l -42.6445,-33.64254 a 10.10562,10.10562 0 1 1 6.33049,-11.7848 z"
       transform="translate(-92.5953,-190.02832)"
       fill="#ffb8b8"
       id="path74" />
    <path
       d="m 862.9083,415.43508 a 4.32755,4.32755 0 0 1 2.12879,-2.91222 l 18.97778,-10.61169 a 12.03133,12.03133 0 0 1 14.755,19.00779 l -15.13116,15.71252 a 4.33219,4.33219 0 0 1 -6.55017,-0.35878 l -13.36595,-17.32289 a 4.32732,4.32732 0 0 1 -0.81429,-3.51473 z"
       transform="translate(-92.5953,-190.02832)"
       fill="#b32f26"
       id="path76" />
    <path
       d="m 912.03228,448.15054 a 4.32749,4.32749 0 0 1 -1.60485,-3.23066 l -0.681,-21.73247 a 12.03133,12.03133 0 0 1 23.667,-4.34515 l 6.98015,20.66671 a 4.33221,4.33221 0 0 1 -3.33464,5.64922 l -21.53172,3.88793 a 4.32736,4.32736 0 0 1 -3.49494,-0.89558 z"
       transform="translate(-92.5953,-190.02832)"
       fill="#b32f26"
       id="path78" />
    <path
       d="m 908.9349,359.47828 c -6.07728,4.15938 -14.05689,8.435 -20.2639,4.00558 a 11.29522,11.29522 0 0 1 -3.707,-13.02047 c 2.97212,-8.4993 11.13795,-12.2411 18.94654,-15.10926 10.15117,-3.72861 21.20429,-6.69488 31.68372,-4.02464 10.47943,2.67024 19.74086,12.81642 17.84912,23.46395 -1.52129,8.56253 -9.59817,15.68722 -8.45156,24.30792 1.154,8.676 10.91111,13.24287 19.52511,14.79349 8.614,1.55062 18.25326,2.04884 24.4438,8.23614 7.89717,7.893 5.92511,22.00094 -1.5058,30.33441 -7.43091,8.33347 -18.64456,12.111 -29.51059,14.67893 -14.39682,3.40241 -29.96811,5.19052 -43.64145,-0.45612 -13.67334,-5.64664 -24.31376,-20.84675 -20.35281,-35.1 1.6731,-6.02056 5.61442,-11.10875 9.42349,-16.06227 3.80907,-4.95352 7.66612,-10.13345 9.1191,-16.21089 1.21082,-5.06453 0.31464,-10.94469 -3.04389,-14.74367 a 4.27156,4.27156 0 0 1 -0.57223,-4.993 z"
       transform="translate(-92.5953,-190.02832)"
       fill="#2f2e41"
       id="path80" />
  </g>
</svg>
