<svg width="41" height="41" viewBox="0 0 41 41" fill="none" xmlns="http://www.w3.org/2000/svg">
<rect width="41" height="41" rx="4" fill="#BB4430"/>
<path fill-rule="evenodd" clip-rule="evenodd" d="M22.7002 13.051C22.8186 13.0925 22.9281 13.1581 23.0224 13.2442C23.1167 13.3302 23.194 13.4349 23.2498 13.5524C23.3057 13.6699 23.339 13.7978 23.3479 13.9288C23.3567 14.0598 23.341 14.1914 23.3015 14.316L19.5015 26.316C19.4219 26.5677 19.2506 26.7758 19.0252 26.8945C18.7998 27.0132 18.5389 27.0329 18.2998 26.949C18.0607 26.8652 17.863 26.6849 17.7502 26.4476C17.6375 26.2104 17.6188 25.9357 17.6984 25.684L21.4984 13.684C21.5378 13.5594 21.6002 13.4442 21.6819 13.3449C21.7636 13.2456 21.8631 13.1643 21.9747 13.1055C22.0863 13.0467 22.2078 13.0116 22.3323 13.0023C22.4568 12.9929 22.5818 13.0095 22.7002 13.051ZM16.4216 16.293C16.5997 16.4806 16.6998 16.7349 16.6998 17C16.6998 17.2652 16.5997 17.5195 16.4216 17.707L14.2433 20L16.4216 22.293C16.5124 22.3853 16.5848 22.4956 16.6345 22.6176C16.6843 22.7396 16.7105 22.8709 16.7116 23.0036C16.7127 23.1364 16.6887 23.2681 16.6409 23.391C16.5932 23.5139 16.5226 23.6255 16.4334 23.7194C16.3442 23.8133 16.2382 23.8876 16.1214 23.9379C16.0046 23.9881 15.8796 24.0134 15.7534 24.0123C15.6273 24.0111 15.5026 23.9836 15.3867 23.9311C15.2708 23.8787 15.166 23.8026 15.0783 23.707L12.2283 20.707C12.0502 20.5195 11.9502 20.2652 11.9502 20C11.9502 19.7349 12.0502 19.4806 12.2283 19.293L15.0783 16.293C15.2565 16.1056 15.4981 16.0003 15.75 16.0003C16.0019 16.0003 16.2435 16.1056 16.4216 16.293ZM24.5783 16.293C24.7565 16.1056 24.9981 16.0003 25.25 16.0003C25.5019 16.0003 25.7435 16.1056 25.9216 16.293L28.7716 19.293C28.9497 19.4806 29.0498 19.7349 29.0498 20C29.0498 20.2652 28.9497 20.5195 28.7716 20.707L25.9216 23.707C25.834 23.8026 25.7292 23.8787 25.6133 23.9311C25.4974 23.9836 25.3727 24.0111 25.2466 24.0123C25.1204 24.0134 24.9953 23.9881 24.8786 23.9379C24.7618 23.8876 24.6558 23.8133 24.5666 23.7194C24.4774 23.6255 24.4068 23.5139 24.3591 23.391C24.3113 23.2681 24.2873 23.1364 24.2884 23.0036C24.2894 22.8709 24.3157 22.7396 24.3654 22.6176C24.4152 22.4956 24.4876 22.3853 24.5783 22.293L26.7567 20L24.5783 17.707C24.4002 17.5195 24.3002 17.2652 24.3002 17C24.3002 16.7349 24.4002 16.4806 24.5783 16.293Z" fill="#F2D4CE"/>
</svg>
