<svg width="42" height="42" viewBox="0 0 42 42" fill="none" xmlns="http://www.w3.org/2000/svg">
<rect width="42" height="42" rx="4" fill="#BB4430"/>
<path fill-rule="evenodd" clip-rule="evenodd" d="M13 16C13 15.4696 13.2107 14.9609 13.5858 14.5858C13.9609 14.2107 14.4696 14 15 14H27C27.5304 14 28.0391 14.2107 28.4142 14.5858C28.7893 14.9609 29 15.4696 29 16V18C29 18.5304 28.7893 19.0391 28.4142 19.4142C28.0391 19.7893 27.5304 20 27 20H15C14.4696 20 13.9609 19.7893 13.5858 19.4142C13.2107 19.0391 13 18.5304 13 18V16ZM27 17C27 17.2652 26.8946 17.5196 26.7071 17.7071C26.5196 17.8946 26.2652 18 26 18C25.7348 18 25.4804 17.8946 25.2929 17.7071C25.1054 17.5196 25 17.2652 25 17C25 16.7348 25.1054 16.4804 25.2929 16.2929C25.4804 16.1054 25.7348 16 26 16C26.2652 16 26.5196 16.1054 26.7071 16.2929C26.8946 16.4804 27 16.7348 27 17ZM13 24C13 23.4696 13.2107 22.9609 13.5858 22.5858C13.9609 22.2107 14.4696 22 15 22H27C27.5304 22 28.0391 22.2107 28.4142 22.5858C28.7893 22.9609 29 23.4696 29 24V26C29 26.5304 28.7893 27.0391 28.4142 27.4142C28.0391 27.7893 27.5304 28 27 28H15C14.4696 28 13.9609 27.7893 13.5858 27.4142C13.2107 27.0391 13 26.5304 13 26V24ZM27 25C27 25.2652 26.8946 25.5196 26.7071 25.7071C26.5196 25.8946 26.2652 26 26 26C25.7348 26 25.4804 25.8946 25.2929 25.7071C25.1054 25.5196 25 25.2652 25 25C25 24.7348 25.1054 24.4804 25.2929 24.2929C25.4804 24.1054 25.7348 24 26 24C26.2652 24 26.5196 24.1054 26.7071 24.2929C26.8946 24.4804 27 24.7348 27 25Z" fill="#F2D4CE"/>
</svg>
