<?xml version="1.0" encoding="UTF-8" standalone="no"?>
<svg
   xmlns:dc="http://purl.org/dc/elements/1.1/"
   xmlns:cc="http://creativecommons.org/ns#"
   xmlns:rdf="http://www.w3.org/1999/02/22-rdf-syntax-ns#"
   xmlns:svg="http://www.w3.org/2000/svg"
   xmlns="http://www.w3.org/2000/svg"
   xmlns:xlink="http://www.w3.org/1999/xlink"
   xmlns:sodipodi="http://sodipodi.sourceforge.net/DTD/sodipodi-0.dtd"
   xmlns:inkscape="http://www.inkscape.org/namespaces/inkscape"
   id="271e5882-3c8d-41ed-8a0a-1cb2b4d0cbc1"
   data-name="Layer 1"
   width="250"
   height="188.9144"
   viewBox="0 0 249.99999 188.9144"
   version="1.1"
   sodipodi:docname="team.svg"
   inkscape:version="1.0.1 (3bc2e813f5, 2020-09-07, custom)">
  <metadata
     id="metadata572">
    <rdf:RDF>
      <cc:Work
         rdf:about="">
        <dc:format>image/svg+xml</dc:format>
        <dc:type
           rdf:resource="http://purl.org/dc/dcmitype/StillImage" />
      </cc:Work>
    </rdf:RDF>
  </metadata>
  <sodipodi:namedview
     pagecolor="#ffffff"
     bordercolor="#666666"
     borderopacity="1"
     objecttolerance="10"
     gridtolerance="10"
     guidetolerance="10"
     inkscape:pageopacity="0"
     inkscape:pageshadow="2"
     inkscape:window-width="1920"
     inkscape:window-height="1058"
     id="namedview570"
     showgrid="false"
     inkscape:zoom="2.7372618"
     inkscape:cx="66.623333"
     inkscape:cy="58.630637"
     inkscape:window-x="0"
     inkscape:window-y="22"
     inkscape:window-maximized="0"
     inkscape:current-layer="271e5882-3c8d-41ed-8a0a-1cb2b4d0cbc1"
     inkscape:document-rotation="0" />
  <defs
     id="defs13">
    <linearGradient
       id="1d1d90cb-e8d6-4c10-b901-192027040f7e"
       x1="512.78998"
       y1="730.45001"
       x2="512.78998"
       y2="139.36"
       gradientUnits="userSpaceOnUse">
      <stop
         offset="0"
         stop-color="gray"
         stop-opacity="0.25"
         id="stop2" />
      <stop
         offset="0.54"
         stop-color="gray"
         stop-opacity="0.12"
         id="stop4" />
      <stop
         offset="1"
         stop-color="gray"
         stop-opacity="0.1"
         id="stop6" />
    </linearGradient>
    <linearGradient
       id="8425757a-56ab-41b8-890b-c9acfe5ccb1b"
       x1="703.39001"
       y1="781.92999"
       x2="703.39001"
       y2="171.12"
       xlink:href="#1d1d90cb-e8d6-4c10-b901-192027040f7e" />
    <linearGradient
       id="422858ff-741c-491e-b83f-4f975ae951a6"
       x1="876.04999"
       y1="827.31"
       x2="876.04999"
       y2="239.74001"
       xlink:href="#1d1d90cb-e8d6-4c10-b901-192027040f7e" />
    <linearGradient
       id="cb632b7f-b2f8-40b2-b1bc-4aa48a1a2180"
       x1="479.79999"
       y1="818.67999"
       x2="479.79999"
       y2="229.88"
       gradientTransform="matrix(-1,0,0,1,828.87,0)"
       xlink:href="#1d1d90cb-e8d6-4c10-b901-192027040f7e" />
    <linearGradient
       id="9b8149d4-8e0d-43dc-bd85-6bf0bb4ef8aa"
       x1="561.70001"
       y1="875.44"
       x2="561.70001"
       y2="737.82001"
       xlink:href="#1d1d90cb-e8d6-4c10-b901-192027040f7e" />
    <linearGradient
       inkscape:collect="always"
       xlink:href="#1d1d90cb-e8d6-4c10-b901-192027040f7e"
       id="linearGradient1675"
       gradientUnits="userSpaceOnUse"
       x1="512.78998"
       y1="730.45001"
       x2="512.78998"
       y2="139.36" />
  </defs>
  <title
     id="title15">team spirit</title>
  <g
     id="g1673"
     transform="matrix(0.21974299,0,0,0.21974299,0.00284609,-8.5244551e-4)">
    <path
       d="m 43.44,426.65 c 18,70.15 56.11,130.79 116.34,160.18 125.22,61.09 407.45,29.58 618.12,-6.58 109,-18.71 204.74,-70.3 274.33,-143 z"
       transform="translate(-31.16,-20.14)"
       fill="#b32f26"
       opacity="0.1"
       id="path17" />
    <path
       d="m 1148.21,96.46 h -115.59 c -5.5,0 -10,-4.1 -10,-9.11 0,-5.01 4.49,-9.11 10,-9.11 h 20 c -5.5,0 -10,-4.1 -10,-9.11 0,-5.01 4.49,-9.1 10,-9.1 h -14.27 c -5.5,0 -10,-4.1 -10,-9.11 0,-5.01 4.49,-9.11 10,-9.11 h 60.33 c -13.39,-5.68 -29,-9.71 -47.06,-11.82 -164.51,-19.27 -223.25,-6.53 -244,6.58 A 242.11,242.11 0 0 1 723.07,70.36 C 621.57,89.45 431.75,112.42 259.7,63 174.19,38.45 110.64,80 72.54,149.31 h 1095.74 c -1.43,-20.16 -5.71,-38.78 -13.57,-55.07 a 10.48,10.48 0 0 1 -6.5,2.22 z"
       transform="translate(-31.16,-20.14)"
       fill="#b32f26"
       opacity="0.1"
       id="path19" />
    <path
       d="m 33.63,280.23 a 423.94,423.94 0 0 0 4.49,122.39 L 1053,436.46 a 433.15,433.15 0 0 0 70.51,-98 z M 435,367.54 h -20 c 5.49,0 10,4.1 10,9.11 0,5.01 -4.5,9.1 -10,9.1 H 299.46 c -5.49,0 -10,-4.09 -10,-9.1 0,-5.01 4.5,-9.11 10,-9.11 h 20 c -5.49,0 -10,-4.1 -10,-9.11 0,-5.01 4.5,-9.11 10,-9.11 h -14.29 c -5.49,0 -10,-4.09 -10,-9.1 0,-5.01 4.5,-9.11 10,-9.11 h 115.59 c 5.5,0 10,4.1 10,9.11 0,5.01 -4.49,9.1 -10,9.1 H 435 c 5.5,0 10,4.1 10,9.11 0,5.01 -4.47,9.11 -10,9.11 z"
       transform="translate(-31.16,-20.14)"
       fill="#b32f26"
       opacity="0.1"
       id="path21" />
    <path
       d="m 1168.33,149.94 -1108,24.57 C 46.83,206.1 37.9,241.81 33.78,278.83 h 1115.13 a 399,399 0 0 0 16.1,-66.49 c 3.32,-21.76 4.65,-42.8 3.32,-62.4 z m -909.58,80.51 h -20 c 5.49,0 10,4.1 10,9.11 0,5.01 -4.5,9.11 -10,9.11 H 123.17 c -5.49,0 -10,-4.1 -10,-9.11 0,-5.01 4.5,-9.11 10,-9.11 h 20 c -5.49,0 -10,-4.09 -10,-9.1 0,-5.01 4.5,-9.11 10,-9.11 h -14.29 c -5.49,0 -10,-4.1 -10,-9.11 0,-5.01 4.5,-9.11 10,-9.11 h 115.59 c 5.5,0 10,4.1 10,9.11 0,5.01 -4.49,9.11 -10,9.11 h 14.28 c 5.49,0 10,4.1 10,9.11 0,5.01 -4.51,9.1 -10,9.1 z"
       transform="translate(-31.16,-20.14)"
       fill="#b32f26"
       opacity="0.1"
       id="path23" />
    <ellipse
       cx="664.34003"
       cy="749.94"
       rx="75.230003"
       ry="16.889999"
       fill="#b32f26"
       opacity="0.1"
       id="ellipse25" />
    <ellipse
       cx="839.15002"
       cy="803.58002"
       rx="135.72"
       ry="11.14"
       fill="#b32f26"
       opacity="0.1"
       id="ellipse27" />
    <ellipse
       cx="294.22"
       cy="786.69"
       rx="135.72"
       ry="16.889999"
       fill="#b32f26"
       opacity="0.1"
       id="ellipse29" />
    <ellipse
       cx="501.14999"
       cy="702.14001"
       rx="102.12"
       ry="16.889999"
       fill="#b32f26"
       opacity="0.1"
       id="ellipse31" />
    <ellipse
       cx="529.65997"
       cy="842.82001"
       rx="81.75"
       ry="16.889999"
       fill="#b32f26"
       opacity="0.1"
       id="ellipse33" />
    <path
       d="M 608.62,320.47 C 606.46,305.93 593.25,272 593.25,272 v 0 c -0.23,-1 -0.49,-2 -0.78,-3 -9.37,-32.2 -22.34,-35 -22.34,-35 l -46.46,-10 a 3.6,3.6 0 0 1 1,0.93 6.45,6.45 0 0 0 -0.73,0.11 18.2,18.2 0 0 1 -4.07,-8.8 c -0.09,-0.48 -0.17,-1 -0.23,-1.49 a 32.68,32.68 0 0 0 -2.66,-49.13 c -0.49,-0.38 -1,-0.75 -1.49,-1.1 2.19,-2.33 2.26,-5.57 0.62,-8.81 -3.66,-7.6 -11.62,-12.41 -19.8,-14.76 -6.25,-1.79 -13,-2.37 -19.22,-0.41 -3.53,1.12 -6.75,3 -10.06,4.67 -6.17,3.08 -13,5.52 -17.61,10.59 -1.08,1.18 -2.08,2.69 -1.76,4.25 0.24,1.16 1.16,2.06 1.75,3.09 1.33,2.31 1,5.22 0.09,7.74 -0.91,2.52 -2.24,4.86 -2.87,7.44 -0.63,2.58 -0.39,5.62 1.55,7.47 a 32.91,32.91 0 0 0 2.9,2 15.21,15.21 0 0 1 2.77,3.11 q 2.76,3.7 5.5,7.43 a 76.54,76.54 0 0 1 6.89,10.47 c 1.37,2.7 2.43,5.58 4.26,8 a 11.86,11.86 0 0 0 1.83,1.92 l -0.54,-0.21 a 8.33,8.33 0 0 0 6.11,2.49 v 0 c 0.1,0 0.19,0 0.28,0 a 1.68,1.68 0 0 0 1.12,-0.46 c 0,0.34 0,0.68 0,1 0.11,3.57 0.09,7.37 -0.16,10.94 l -0.43,-0.22 a 3.75,3.75 0 0 0 -4,0.42 L 431.94,267 c 0,0 -9.3,12.72 -8,34.68 l -7.5,32.93 c 0,0 -9.37,27.94 -2.16,47.89 7.21,19.95 11.39,31.36 11.39,31.36 0,0 2.88,22.67 7.21,24.52 4.33,1.85 6.2,2.85 6.2,2.85 l 0.86,5.42 v 0 c 0,0 0.29,0.53 0.8,1.42 3.15,5.48 14.82,24.82 21.6,22.75 a 86.69,86.69 0 0 1 1.1,15.89 l 6.71,45.05 c 0,0 4.68,12.25 4.39,18.67 C 474.25,556.85 480,566 480,566 a 29.75,29.75 0 0 0 -2.88,20.95 c 2.74,12 6.2,67.28 6.2,67.28 l 5,13.4 -0.14,15.71 a 15,15 0 0 1 -3.1,7 c -3.24,3.52 -3,7.59 -10.81,12.4 -7.81,4.81 -12.76,6.63 -12.76,13 a 16.72,16.72 0 0 1 -0.24,2.65 c -0.72,4.68 -2.12,7.22 12.24,8.58 16.87,1.6 28.12,-9.4 28.12,-9.4 0,0 2.48,-4.5 14.16,-6.32 0,0 4,-0.21 4.21,-3.74 0.08,-1.22 0.06,-3.55 0,-6.12 -0.19,-4.89 -0.66,-10.6 -1.28,-10.88 -0.78,-0.35 -2.14,-5.27 -2.61,-7.05 h 3.25 c 0,0 3,-22.67 0,-37.35 -3,-14.68 -0.29,-25.09 -0.29,-25.09 l -0.58,-38.77 c 0,0 -4,-4.28 -0.86,-11.84 3.14,-7.56 0,-44.9 0,-44.9 0,0 1.16,-13.4 4.47,-16.54 3.31,-3.14 0.16,-19.63 0,-20.49 l 5.9,19.79 c 0,0 2.59,39.34 8.08,46.46 l 1.58,17.82 c 0,0 11.24,16.4 9.08,25.23 -2.16,8.83 2.31,40.77 2.31,40.77 v 32.65 c 0,0 -5.05,13.11 2,17.82 l 3,-0.12 c -1,0.93 -1.77,2.33 -2.94,3.54 -1.35,1.39 -2.12,6.68 -2.55,11.23 -0.36,3.85 -0.48,7.16 -0.48,7.16 0,0 3,4.8 8.65,5.13 5.65,0.33 24.27,14.49 24.27,14.49 0,0 18.39,0 23.15,-1 l 0.28,-0.07 a 6.25,6.25 0 0 0 3.59,-2.93 7.5,7.5 0 0 0 0.86,-5.39 c -0.59,-2.81 -2.82,-5.89 -7.76,-8.51 C 588.83,706.07 587,700 587,700 l -8.07,-12.11 h 1.15 c 0,0 -0.71,-12.83 8.07,-27.23 l -0.57,-63.43 c 0,0 3.6,-21.81 -2.59,-33.65 0,0 -0.51,-12.54 3.63,-16.39 4.14,-3.85 -5.51,-42.76 -5.51,-42.76 0,0 -2,-20.89 -4.35,-39.95 v 0 c 9.73,9.23 19.82,-24 21.52,-29.91 h 0.25 l -0.11,-0.43 c 0.07,-0.28 0.11,-0.42 0.11,-0.42 v 0 c 0,0 -2.16,-7.68 -0.58,-6.12 1.58,1.56 5.48,-4.28 5.48,-4.28 0,0 -0.58,-31.79 6.2,-47.81 6.78,-16.02 -3.01,-55.04 -3.01,-55.04 z m -29,20.23 0.05,-0.09 c 1,19.41 -0.19,60.83 -0.19,60.83 0,0 -1.34,5.31 -2.77,11.56 l -1,-39.35 v 0 l -1,-37.07 z M 455.51,327.32 c 0,0 4.9,61.29 0,70.13 -1.39,2.52 -2.56,7 -3.53,12.11 -1.62,-4.25 -5.05,-14.23 -3.82,-19.52 1.59,-6.84 -3.17,-24.81 -3.17,-25.23 0,-0.42 -0.43,-10 3,-17.32 3.43,-7.32 1.18,-10.49 1.18,-10.49 0,0 2.88,-12 6.34,-9.68 z"
       transform="translate(-31.16,-20.14)"
       fill="url(#1d1d90cb-e8d6-4c10-b901-192027040f7e)"
       id="path35"
       style="fill:url(#linearGradient1675)" />
    <path
       d="m 467.45,465.36 c -4.27,18.77 -21.25,-9.61 -25.12,-16.42 -0.5,-0.89 -0.78,-1.41 -0.78,-1.41 l 1.84,-8.63 9.73,-4 a 27.18,27.18 0 0 1 4.36,2.84 c 5.33,4.19 13.26,13.08 9.97,27.62 z"
       transform="translate(-31.16,-20.14)"
       fill="#d38884"
       id="path37" />
    <path
       d="m 599.18,434.65 c 0,0 0,0.14 -0.11,0.42 0,0.12 -0.08,0.28 -0.13,0.45 -1.67,5.86 -11.57,38.85 -21.13,29.69 -10.46,-10 -5.38,-33.12 -5.38,-33.12 h 0.07 l 22,-2.25 4.36,4.48 c 0,0 0,0 0,0 z"
       transform="translate(-31.16,-20.14)"
       fill="#d38884"
       id="path39" />
    <path
       d="m 586.45,597 0.56,63 c -8.63,14.3 -7.92,27 -7.92,27 l -28.44,1.12 c -6.94,-4.67 -2,-17.68 -2,-17.68 V 638 c 0,0 -4.39,-31.69 -2.27,-40.47 2.12,-8.78 -8.91,-25 -8.91,-25 l -1.56,-17.69 c -5.38,-7.07 -7.93,-46.12 -7.93,-46.12 L 522.21,489 c 0.16,0.85 3.16,17.31 0,20.34 -3.16,3.03 -4.39,16.41 -4.39,16.41 0,0 3.11,37.08 0,44.57 -3.11,7.49 0.84,11.75 0.84,11.75 l 0.57,38.49 c 0,0 -2.69,10.33 0.28,24.9 2.97,14.57 0,37.08 0,37.08 H 489 l 0.14,-15.71 -4.94,-13.3 c 0,0 -3.4,-54.9 -6.09,-66.79 a 29.84,29.84 0 0 1 2.82,-20.8 c 0,0 -5.65,-9.05 -5.37,-15.42 C 475.84,544.15 471.2,532 471.2,532 l -6.58,-44.71 a 86.86,86.86 0 0 0 -3.26,-25.47 c -3.82,-12.74 -9.48,-29.44 -9.48,-29.44 l 6.39,0.57 32.24,2.87 c 0,0 78.39,-5.27 81.9,-0.89 a 14.71,14.71 0 0 1 1.48,4.57 c 3.52,15.81 8.17,65.34 8.17,65.34 0,0 9.48,38.63 5.41,42.45 -4.07,3.82 -3.57,16.26 -3.57,16.26 6.1,11.75 2.55,33.45 2.55,33.45 z"
       transform="translate(-31.16,-20.14)"
       fill="#444053"
       id="path41" />
    <path
       d="m 520.18,706.43 c -0.22,3.51 -4.13,3.72 -4.13,3.72 -11.46,1.8 -13.9,6.26 -13.9,6.26 0,0 -11,10.93 -27.59,9.34 -14.1,-1.36 -12.73,-3.87 -12,-8.52 a 17.62,17.62 0 0 0 0.23,-2.62 c 0,-6.37 4.88,-8.18 12.52,-13 7.64,-4.82 7.43,-8.81 10.61,-12.31 3.18,-3.5 3.51,-10.29 3.51,-10.29 3.6,-6.27 12.73,1 12.73,1 0.43,2.22 14,1.91 14,1.91 0,0 1.8,7.22 2.73,7.64 0.61,0.28 1.07,5.94 1.25,10.8 0.1,2.55 0.12,4.86 0.04,6.07 z"
       transform="translate(-31.16,-20.14)"
       fill="#b07473"
       id="path43" />
    <path
       d="m 520.18,706.43 c -0.22,3.51 -4.13,3.72 -4.13,3.72 -11.46,1.8 -13.9,6.26 -13.9,6.26 0,0 -11,10.93 -27.59,9.34 -14.1,-1.36 -12.73,-3.87 -12,-8.52 6.3,1.56 18.34,3.74 25.37,-0.08 9.77,-5.3 16.78,-9 16.78,-9 l 15.44,-7.77 c 0.09,2.53 0.11,4.84 0.03,6.05 z"
       transform="translate(-31.16,-20.14)"
       opacity="0.1"
       id="path45" />
    <path
       d="m 606.55,725.32 a 6.1,6.1 0 0 1 -3.52,2.91 l -0.27,0.07 c -4.67,1 -22.72,1 -22.72,1 0,0 -18.25,-14.11 -23.77,-14.43 -5.52,-0.32 -8.49,-5.1 -8.49,-5.1 0,0 0.11,-3.28 0.46,-7.1 0.43,-4.52 1.18,-9.77 2.51,-11.15 2.44,-2.55 3,-6 8.49,-3.82 0,0 7.84,-13.82 17.08,-3.14 l 9.56,14.5 c 0,0 1.8,6 13.91,12.51 4.84,2.6 7,5.66 7.61,8.45 a 7.45,7.45 0 0 1 -0.85,5.3 z"
       transform="translate(-31.16,-20.14)"
       fill="#b07473"
       id="path47" />
    <path
       d="m 606.55,725.32 c -1.08,0.91 -2.27,1.89 -3.52,2.91 l -0.27,0.07 c -4.67,1 -22.72,1 -22.72,1 0,0 -18.25,-14.11 -23.77,-14.43 -5.52,-0.32 -8.49,-5.1 -8.49,-5.1 0,0 0.11,-3.28 0.46,-7.1 5.62,1.68 14.13,4.65 16.41,7.85 3.5,4.87 14.13,11.67 14.13,11.67 0,0 19.82,-1.91 28.62,-2.17 a 7.45,7.45 0 0 1 -0.85,5.3 z"
       transform="translate(-31.16,-20.14)"
       opacity="0.1"
       id="path49" />
    <path
       d="m 529.42,231.53 -26.1,27.59 c 0,0 -31.63,-2.33 -26.11,-11.67 2.81,-4.76 3.25,-14.72 3,-23.38 -0.23,-8.35 -1.09,-15.46 -1.09,-15.46 0,0 44.36,-22.08 41,-1.49 A 33.89,33.89 0 0 0 520,218.87 c 1.89,10.4 9.42,12.66 9.42,12.66 z"
       transform="translate(-31.16,-20.14)"
       fill="#d38884"
       id="path51" />
    <path
       d="m 520.08,207.12 a 33.89,33.89 0 0 0 -0.12,11.75 32.56,32.56 0 0 1 -23.22,9.69 c -6,0 -12.49,-4.93 -17.34,-7.78 -0.23,-8.36 -0.28,-12.17 -0.28,-12.17 0,0 44.36,-22.08 40.96,-1.49 z"
       transform="translate(-31.16,-20.14)"
       opacity="0.1"
       id="path53" />
    <path
       d="m 529.42,194.17 a 32.69,32.69 0 1 1 -12.3,-25.54 32.69,32.69 0 0 1 12.3,25.54 z"
       transform="translate(-31.16,-20.14)"
       fill="#d38884"
       id="path55" />
    <path
       d="m 573.89,439.5 c -8.14,19.37 -60.5,19.77 -60.5,19.77 v -21.12 l -3.17,-0.21 c 1.37,6.05 -1.92,20.8 -1.92,20.8 C 466.92,464.58 456.83,441 456.83,441 l 1.44,-8.07 32.24,2.87 c 0,0 78.39,-5.27 81.9,-0.89 a 14.71,14.71 0 0 1 1.48,4.59 z"
       transform="translate(-31.16,-20.14)"
       opacity="0.1"
       id="path57" />
    <path
       d="M 513.39,456.72 V 435.6 l -3.17,-0.2 c 1.37,6 -1.92,20.8 -1.92,20.8 -31.14,4.39 -44.56,-7.87 -49.29,-14.21 a 19.35,19.35 0 0 1 -2.18,-3.52 l 12.64,-71.1 3,-104.64 4.53,-18.36 1.05,-8.81 v -0.1 h 0.11 l 3.22,1.38 19.27,8.33 21.89,-16.53 0.32,-0.23 1.09,-0.83 1.81,1.45 4.5,3.61 14.43,93.19 c 0,0 25,71.75 29.68,100.71 0.19,1.16 0.34,2.24 0.46,3.25 3.09,26.44 -61.44,26.93 -61.44,26.93 z"
       transform="translate(-31.16,-20.14)"
       fill="#b32f26"
       id="path59" />
    <circle
       cx="471.82999"
       cy="227.09"
       r="1.86"
       fill="#67647e"
       id="circle61" />
    <circle
       cx="472.69"
       cy="244.07001"
       r="1.86"
       fill="#67647e"
       id="circle63" />
    <circle
       cx="474.54999"
       cy="271.56"
       r="1.86"
       fill="#67647e"
       id="circle65" />
    <circle
       cx="477.62"
       cy="301.17001"
       r="1.86"
       fill="#67647e"
       id="circle67" />
    <circle
       cx="479.48001"
       cy="328.97"
       r="1.86"
       fill="#67647e"
       id="circle69" />
    <circle
       cx="481.34"
       cy="358.57999"
       r="1.86"
       fill="#67647e"
       id="circle71" />
    <circle
       cx="480.60001"
       cy="387.87"
       r="1.86"
       fill="#67647e"
       id="circle73" />
    <path
       d="m 479.29,377.71 c 0,0 -2.08,27.23 -5.9,35.15 -3.82,7.92 -5.52,30.14 -5.52,30.14 L 459,442 a 19.35,19.35 0 0 1 -2.18,-3.52 l 12.64,-71.1 3,-104.64 4.54,-18.37 1.05,-8.81 0.12,-0.05 a 3.58,3.58 0 0 1 3.16,0.05 l 0.42,0.22 q -0.19,0.54 -0.36,1.11 c -3.46,10.83 -4.75,30.79 -4.75,30.79 0,0 5,36.51 5.52,53.49 0.52,16.98 -2.87,56.54 -2.87,56.54 z"
       transform="translate(-31.16,-20.14)"
       opacity="0.1"
       id="path75" />
    <path
       d="m 457.48,437.77 a 5.13,5.13 0 0 1 -0.34,0.66 c -3.44,5.81 -12.16,9.5 -14.81,10.51 -0.5,-0.89 -0.78,-1.41 -0.78,-1.41 l 1.84,-8.63 9.73,-4 a 27.18,27.18 0 0 1 4.36,2.87 z"
       transform="translate(-31.16,-20.14)"
       opacity="0.1"
       id="path77" />
    <path
       d="m 433.91,298.81 -8.07,4.81 -7.35,32.69 c 0,0 -9.2,27.73 -2.13,47.54 7.07,19.81 11.18,31.15 11.18,31.15 0,0 2.83,22.5 7.08,24.34 4.25,1.84 6.08,2.83 6.08,2.83 l 0.85,5.38 c 0,0 11.52,-3.91 15.59,-10.8 4.07,-6.89 -3,-24 -3,-24 0,0 -6.08,-14.58 -4.52,-21.37 1.56,-6.79 -3.12,-24.62 -3.12,-25 0,-0.38 -0.42,-9.91 3,-17.2 3.42,-7.29 1.14,-10.4 1.14,-10.4 l -2.13,-20.8 z"
       transform="translate(-31.16,-20.14)"
       fill="#67647e"
       id="path79" />
    <path
       d="m 574.56,433.38 c 0,0 -21.37,8.06 -28.16,1 -6.79,-7.06 -6.09,-40.19 -6.09,-40.19 0,0 -6.5,-61.13 -10.61,-71.17 -4.11,-10.04 -2,-82.5 -2,-82.5 0,0 -2.76,-9.37 -5.17,-11.82 a 2.62,2.62 0 0 0 -0.51,-0.41 l 0.83,0.18 2.9,0.62 4.5,3.61 14.43,93.19 c 0,0 25,71.75 29.68,100.71 z"
       transform="translate(-31.16,-20.14)"
       opacity="0.1"
       id="path81" />
    <path
       d="m 599.18,435.5 h -0.24 c -2.69,0.35 -26.43,3.22 -26.53,-1.72 a 14.47,14.47 0 0 1 0.09,-1.71 l 22,-2.25 4.36,4.48 c 0,0 0,0 0,0 0.08,0.29 0.14,0.54 0.2,0.74 z"
       transform="translate(-31.16,-20.14)"
       opacity="0.1"
       id="path83" />
    <path
       d="m 576.4,266.07 15.6,8.14 c 0,0 13,33.66 15.08,48.09 0,0 9.63,38.66 3,54.56 -6.63,15.9 -6.08,47.46 -6.08,47.46 0,0 -3.82,5.8 -5.38,4.25 -1.56,-1.55 0.57,6.08 0.57,6.08 0,0 -26.67,3.54 -26.78,-1.7 -0.11,-5.24 6.12,-30.28 6.12,-30.28 0,0 1.7,-59.57 -0.71,-68.91 -2.41,-9.34 -1.42,-67.69 -1.42,-67.69 z"
       transform="translate(-31.16,-20.14)"
       fill="#67647e"
       id="path85" />
    <path
       d="m 529.85,329.52 c 0,0 -8.78,21.5 -11.61,22.92 -2.83,1.42 0.57,7.07 0.57,7.07 0,0 15.99,-22.35 11.04,-29.99 z"
       transform="translate(-31.16,-20.14)"
       opacity="0.1"
       id="path87" />
    <path
       d="m 524.61,254.1 c 0.1,-0.41 -10.47,10.37 -13.3,12 -2.83,1.63 10.33,-0.1 13.3,-12 z"
       transform="translate(-31.16,-20.14)"
       opacity="0.1"
       id="path89" />
    <path
       d="m 495.18,327.82 c 0,0 -16.13,10.43 -14,14.56 2.13,4.13 14,-14.56 14,-14.56 z"
       transform="translate(-31.16,-20.14)"
       opacity="0.1"
       id="path91" />
    <path
       d="m 524.47,480.07 c 0,0 13.73,8.83 35.09,11 z"
       transform="translate(-31.16,-20.14)"
       opacity="0.1"
       id="path93" />
    <path
       d="m 491.5,501.3 c 0,0 12.73,16 18.54,16.41 5.81,0.41 -18.54,-16.41 -18.54,-16.41 z"
       transform="translate(-31.16,-20.14)"
       opacity="0.1"
       id="path95" />
    <path
       d="m 509.33,564 c -0.57,0.28 -7.22,14.43 -14,14.86 -6.78,0.43 14,-14.86 14,-14.86 z"
       transform="translate(-31.16,-20.14)"
       opacity="0.1"
       id="path97" />
    <path
       d="m 568.33,595 c 0,0 12.62,-2.83 15.43,6.22 0,-0.03 -0.85,-2.86 -15.43,-6.22 z"
       transform="translate(-31.16,-20.14)"
       opacity="0.1"
       id="path99" />
    <path
       d="m 559.84,646.76 c 0,0 15.29,-3.12 18.54,1.13 3.25,4.25 -18.54,-1.13 -18.54,-1.13 z"
       transform="translate(-31.16,-20.14)"
       opacity="0.1"
       id="path101" />
    <path
       d="m 516.59,654 c 0,0.14 -15.56,3.12 -15,5.1 0.56,1.98 16.6,1.7 17.17,-1.42 A 3,3 0 0 0 516.59,654 Z"
       transform="translate(-31.16,-20.14)"
       opacity="0.1"
       id="path103" />
    <path
       d="m 554.75,667.42 c 0,0 25.57,-3.12 24,2.26 -1.57,5.38 -24,-2.26 -24,-2.26 z"
       transform="translate(-31.16,-20.14)"
       opacity="0.1"
       id="path105" />
    <path
       d="m 420.89,352.44 c 0.14,0.42 16.84,2.69 19.1,8.07 0,0 -16.41,-7.65 -19,-7.65"
       transform="translate(-31.16,-20.14)"
       opacity="0.1"
       id="path107" />
    <path
       d="m 444.38,396.16 c 0,0 -13.87,4.39 -12.88,11 0.99,6.61 -1.41,-3.06 12.88,-11 z"
       transform="translate(-31.16,-20.14)"
       opacity="0.1"
       id="path109" />
    <path
       d="m 437.92,429.84 c 0,0 5.05,-6.93 9.86,-5.66 4.81,1.27 -9.86,5.66 -9.86,5.66 z"
       transform="translate(-31.16,-20.14)"
       opacity="0.1"
       id="path111" />
    <path
       d="m 517.12,168.63 a 7.87,7.87 0 0 1 -1.62,1.21 c -4,2.33 -5.1,5.92 -7,10.06 -1.77,3.79 -3.72,7.8 -7.29,9.95 -4.61,2.78 -10.68,1.76 -15.47,4.18 a 12,12 0 0 0 -6.4,11.83 34.12,34.12 0 0 0 1.36,5.42 38.65,38.65 0 0 1 1.46,11.77 2,2 0 0 1 0,0.35 32.68,32.68 0 1 1 35,-54.77 z"
       transform="translate(-31.16,-20.14)"
       opacity="0.1"
       id="path113" />
    <path
       d="m 516.27,158.79 c -3.59,-7.54 -11.4,-12.32 -19.43,-14.65 -6.13,-1.77 -12.79,-2.35 -18.87,-0.4 -3.47,1.1 -6.62,3 -9.87,4.63 -6.06,3.06 -12.72,5.48 -17.28,10.51 -1.07,1.17 -2,2.67 -1.73,4.22 0.23,1.15 1.13,2 1.71,3.06 1.31,2.3 1,5.19 0.09,7.69 -0.91,2.5 -2.2,4.82 -2.82,7.39 -0.62,2.57 -0.38,5.58 1.52,7.41 0.85,0.81 1.94,1.32 2.86,2 a 15.05,15.05 0 0 1 2.71,3.08 l 5.4,7.38 a 74.85,74.85 0 0 1 6.76,10.39 c 1.34,2.68 2.38,5.54 4.18,7.93 1.8,2.39 4.6,4.31 7.58,4.05 a 1.47,1.47 0 0 0 1.2,-0.57 1.58,1.58 0 0 0 0.15,-0.75 38.38,38.38 0 0 0 -1.43,-11.73 33.85,33.85 0 0 1 -1.36,-5.42 12.05,12.05 0 0 1 6.4,-11.83 c 4.8,-2.42 10.87,-1.4 15.47,-4.17 3.58,-2.16 5.53,-6.17 7.29,-10 1.93,-4.14 3,-7.73 7,-10.06 4,-2.33 4.46,-6.19 2.47,-10.16 z"
       transform="translate(-31.16,-20.14)"
       fill="#585268"
       id="path115" />
    <path
       d="m 501.63,693.06 c 0,0 5,6.37 3.7,10 -1.3,3.63 -3.7,-10 -3.7,-10 z"
       transform="translate(-31.16,-20.14)"
       opacity="0.1"
       id="path117" />
    <path
       d="m 569.28,709 c 0,0 1.11,-8.54 5.56,-8.62 4.45,-0.08 4.67,-0.46 8.07,0.85 3.4,1.31 6.59,3.34 5.57,3.64 -1.02,0.3 -5.85,-4.88 -10.81,-2.23 a 35.72,35.72 0 0 0 -8.39,6.36 z"
       transform="translate(-31.16,-20.14)"
       opacity="0.1"
       id="path119" />
    <path
       d="m 486.71,255.88 14,-9.81 c 0,0 -20.48,-12.1 -22.92,-10.4 -2.44,1.7 -4.12,17 -4.12,17 z"
       transform="translate(-31.16,-20.14)"
       opacity="0.1"
       id="path121" />
    <path
       d="m 486.65,255.25 14,-10 c 0,0 -20.48,-12.1 -22.92,-10.4 -2.44,1.7 -4.12,17.84 -4.12,17.84 z"
       transform="translate(-31.16,-20.14)"
       fill="#e1e7ef"
       id="path123" />
    <path
       d="m 486.65,255.25 14,-10 c 0,0 -20.48,-12.1 -22.92,-10.4 -2.44,1.7 -4.12,17.84 -4.12,17.84 z"
       transform="translate(-31.16,-20.14)"
       fill="#b32f26"
       id="path125" />
    <path
       d="m 480.05,234.93 -0.42,-0.21 a 3.63,3.63 0 0 0 -3.93,0.41 l -42,34.07 c 0,0 -9.13,12.63 -7.86,34.42 l 24.77,35.09 c 0,0 2.83,-11.88 6.22,-9.62 0,0 4.81,60.85 0,69.62 -4.81,8.77 -6.93,41.6 -6.93,41.6 l 16.27,1.84 c 0,0 1.7,-22.22 5.52,-30.14 3.82,-7.92 5.9,-35.15 5.9,-35.15 0,0 3.44,-39.56 2.87,-56.54 -0.57,-16.98 -5.52,-53.49 -5.52,-53.49 0,0 1.39,-21.4 5.11,-31.9 z"
       transform="translate(-31.16,-20.14)"
       fill="#67647e"
       id="path127" />
    <path
       d="m 521.89,249.68 -17.45,-6.46 c 0,0 22.22,-24.34 25,-10.84 z"
       transform="translate(-31.16,-20.14)"
       opacity="0.1"
       id="path129" />
    <path
       d="m 521.89,248.83 -17.45,-6.46 c 0,0 22.22,-24.34 25,-10.84 z"
       transform="translate(-31.16,-20.14)"
       fill="#e1e7ef"
       id="path131" />
    <path
       d="m 521.89,248.83 -17.45,-6.46 c 0,0 22.22,-24.34 25,-10.84 z"
       transform="translate(-31.16,-20.14)"
       fill="#b32f26"
       id="path133" />
    <path
       d="m 521.32,228.12 a 1,1 0 0 1 0.72,0.16 z"
       transform="translate(-31.16,-20.14)"
       opacity="0.1"
       id="path135" />
    <path
       d="m 523,226.43 46.3,10 c 0,0 12.74,2.83 21.94,34.81 9.2,31.98 -12.6,71.16 -12.6,71.16 l -4.81,-4.09 2.41,93.39 c 0,0 -21.37,8.06 -28.16,1 -6.79,-7.06 -6.08,-40.22 -6.08,-40.22 0,0 -6.51,-61.12 -10.62,-71.17 -4.11,-10.05 -2,-82.49 -2,-82.49 0,0 -3.78,-12.95 -6.38,-12.39 z"
       transform="translate(-31.16,-20.14)"
       fill="#67647e"
       id="path137" />
    <path
       d="m 565.36,285.94 c -0.65,0.6 -1.41,28.86 1.42,50.37 a 274.5,274.5 0 0 0 8,38.77 l -4.2,-86.17 c 0,0 -3.24,-4.81 -5.22,-2.97 z"
       transform="translate(-31.16,-20.14)"
       opacity="0.1"
       id="path139" />
    <path
       d="m 559.7,261.6 c 1.13,0.71 6.09,12.45 3.82,17.26 -2.27,4.81 -3.82,-17.26 -3.82,-17.26 z"
       transform="translate(-31.16,-20.14)"
       opacity="0.1"
       id="path141" />
    <path
       d="m 516,158.79 a 25.56,25.56 0 0 0 -10.18,-10.66 24.21,24.21 0 0 1 7.63,9 c 2,4 1.41,8 -2.48,10.19 -3.89,2.19 -5.1,5.92 -7,10.06 -1.77,3.79 -3.72,7.8 -7.3,10 -4.6,2.78 -10.67,1.75 -15.47,4.17 a 12.08,12.08 0 0 0 -6.4,11.84 34,34 0 0 0 1.37,5.41 38.68,38.68 0 0 1 1.46,11.77 1.58,1.58 0 0 1 -0.16,0.75 1.43,1.43 0 0 1 -1.19,0.57 6.89,6.89 0 0 1 -3.49,-0.65 8.12,8.12 0 0 0 6,2.35 1.18,1.18 0 0 0 1.34,-1.32 38.37,38.37 0 0 0 -1.45,-11.77 32.85,32.85 0 0 1 -1.37,-5.42 12.05,12.05 0 0 1 6.4,-11.83 c 4.8,-2.42 10.87,-1.4 15.47,-4.17 3.58,-2.16 5.53,-6.17 7.29,-10 1.93,-4.14 3,-7.73 7,-10.06 4,-2.33 4.53,-6.26 2.53,-10.23 z"
       transform="translate(-31.16,-20.14)"
       opacity="0.1"
       id="path143" />
    <path
       d="m 800.87,284.37 c -13.78,-0.27 -25.94,-10 -32.83,-21.89 a 22,22 0 0 1 -3.32,-9.37 10.82,10.82 0 0 1 0.38,-2.24 23.24,23.24 0 0 0 1,-3.43 6,6 0 0 0 0,-1.4 c 0,0 0,0 0,-0.08 0.33,-2.53 -1.16,-5 -3,-6.73 -1.84,-1.73 -4.15,-3 -6.07,-4.72 -5.92,-5.2 -7.72,-13.54 -7.83,-21.48 v -0.42 c 0.07,-3.4 0.34,-6.81 0.31,-10.21 a 42.93,42.93 0 0 0 -0.25,-5.78 c -0.57,-4.81 -2.4,-9.71 -6.18,-12.78 -9.86,-8 -26.44,0.33 -36.65,-7.23 -2.48,-1.85 -4.49,-4.58 -7.5,-5.3 -2.27,-0.55 -4.63,0.19 -6.85,0.93 -7.52,2.48 -15.91,5.74 -18.85,13 -1.68,4.17 -1.21,8.93 -2.75,13.15 -1,2.83 -2.91,5.26 -4.3,7.94 a 12.43,12.43 0 0 0 -1.6,6.63 7.48,7.48 0 0 0 0.49,3.53 9,9 0 0 0 2.45,3.51 11.65,11.65 0 0 1 -1.46,2.34 c -1.92,2.35 -4.87,4 -6.87,6.34 -3.7,4.29 -3.56,10.12 -1.74,15.16 1.82,5.04 5.11,9.63 7.38,14.54 1,2.13 1.76,4.51 0.75,6.63 -0.71,1.47 -2.18,2.59 -3.32,3.86 a 12.13,12.13 0 0 0 -3,6.7 c -22.51,5.14 -22.53,23.23 -22.53,23.23 v 0 l -12.16,30.58 c 0,0 -1.95,5.15 -4.24,11.95 l -14.39,-2.58 10,16.74 c -1.89,6.82 -3.23,13.14 -2.79,16.32 0,0 -4.47,21 3.48,24.67 l 17.54,7.89 a 10.39,10.39 0 0 0 2.43,1.09 l 0.71,0.32 a 1.88,1.88 0 0 0 1.64,0 h 0.05 0.19 a 2.36,2.36 0 0 0 1,-0.15 2,2 0 0 0 0.88,-0.95 0.3,0.3 0 0 1 0,-0.1 l 5.25,-1.52 4.45,5.27 c 2,1.41 4,2.63 5.89,3.73 l -6.89,68.42 c 0,0 -1.11,91 -4.47,111.74 -1.24,7.68 -1.25,12.92 -0.78,16.48 l -0.13,0.22 c 0.83,5.85 3,7 3,7 v -0.08 a 0.65,0.65 0 0 0 0.13,0.08 58.91,58.91 0 0 1 3.6,-7.72 c 0,0.49 0,1 0,1.5 -0.07,7.72 -0.31,18.53 -1.11,25.56 -1.36,12 3.48,51.55 3.48,51.55 l 1.67,36 a 33.28,33.28 0 0 1 -4.1,17.54 c -4,7.19 -9.11,17.31 -9.48,21.8 a 4.5,4.5 0 0 0 0,0.73 v 0 L 633,773.2 c 0,0 -3.35,5.18 4.22,7.27 4.07,1.13 11.09,0 16.73,-1.33 a 11.18,11.18 0 0 0 8.67,-10.88 38.5,38.5 0 0 1 7.08,-13.59 l 1.41,8.29 9.44,2.34 1.21,-22.72 a 10,10 0 0 0 0.65,-4 v 0 c 1.86,-16.16 -4.38,-14.71 -4.38,-14.71 a 0.87,0.87 0 0 1 0.3,0.56 l -0.3,-0.55 v 0 c -3.83,-7.56 -2,-20 -2,-20 0,0 5,-36 6.71,-45.51 1.23,-6.72 0.72,-28.72 0.31,-41 0,-0.51 0,-1 -0.05,-1.49 14.64,-0.19 32.58,-0.68 45.17,-1.9 v 1.48 l -2.32,85.05 a 46.69,46.69 0 0 1 -3.26,15.82 c 0,0.1 -0.07,0.19 -0.11,0.29 a 69,69 0 0 0 -4.61,22.29 l -1.08,27 v 0.75 0 c -1.88,0.72 -4.85,2.81 -4.93,8.87 -0.13,8.88 15.52,5.92 15.52,5.92 15.64,0 15.77,-16.28 15.77,-16.28 0,0 0.49,-14.93 1.24,-24.92 0.75,-9.99 -2.36,-7.79 -2.36,-7.79 l -0.24,28.42 c 0,0.07 0,0.14 0,0.22 v -24.91 l 0.24,-3.61 v -0.1 0 -0.77 L 744,702.4 c 0,0 14.41,-48.84 16.64,-58.21 1.59,-6.66 0.93,-26.72 0.41,-37.81 0,-0.51 0,-1 -0.08,-1.47 4.47,-0.4 8.42,-0.44 10,-0.44 h 0.73 c 0,0 -0.74,-78.44 -2.61,-108 -1.87,-29.56 -4.84,-56.61 -12.29,-64.75 -4.5,-4.92 -10.77,-20.11 -15,-31.36 a 156.88,156.88 0 0 0 27.57,9 c 23.59,4.94 20.36,-15.54 20.36,-15.54 l -2.39,-38.73 h 0.16 a 197.48,197.48 0 0 0 -2.6,-30.28 c -1.25,-7.68 -3.16,-15.62 -6.08,-22 2.56,-1 5.09,-2.07 7.57,-3.17 6.41,-2.83 13.63,-6.84 14.55,-13.75 h -0.31 a 8.92,8.92 0 0 0 0.24,-1.52 z m -146.23,56 v 0 c 0.05,4 -0.1,10.94 -0.34,18.61 l -7.49,-10 7.51,-12.18 z M 755,360.68 Z m 3.12,15.13 -12.48,-4 a 56,56 0 0 1 7.71,-9.54 l 1.08,-1 -0.39,0.08 0.6,-0.55 0.36,-0.08 -0.57,0.55 0.68,-0.14 a 21.29,21.29 0 0 0 4.25,8.55 c 4.48,4.89 -1.23,6.13 -1.23,6.13 z"
       transform="translate(-31.16,-20.14)"
       fill="url(#8425757a-56ab-41b8-890b-c9acfe5ccb1b)"
       id="path145"
       style="fill:url(#8425757a-56ab-41b8-890b-c9acfe5ccb1b)" />
    <polygon
       points="638.42,729.5 651.15,715.66 649.69,743.34 640.38,741.01 "
       fill="#a27772"
       id="polygon147" />
    <polygon
       points="638.42,729.5 651.15,715.66 649.69,743.34 640.38,741.01 "
       opacity="0.1"
       id="polygon149" />
    <path
       d="m 716.48,767.15 14.2,2.94 10.53,-9.3 v -26.21 l 0.24,-3.58 v -0.11 0 -0.76 L 743.41,701 c 0,0 14.21,-48.49 16.42,-57.8 1.56,-6.6 0.91,-26.52 0.39,-37.53 -0.21,-4.51 -0.39,-7.53 -0.39,-7.53 l -31.35,-7.59 -0.66,24.1 -2.29,84.44 a 46.79,46.79 0 0 1 -3.21,15.71 l -0.11,0.29 a 68.72,68.72 0 0 0 -4.55,22.12 l -1.06,26.85 v 0.74 z"
       transform="translate(-31.16,-20.14)"
       fill="#cc818c"
       id="path151" />
    <path
       d="m 741.45,730.15 v 0.74 0 -0.76 z"
       transform="translate(-31.16,-20.14)"
       opacity="0.1"
       id="path153" />
    <path
       d="m 716.48,767.15 14.2,2.94 10.53,-9.3 v -2.23 a 3,3 0 0 1 -1.51,2.4 l -0.15,0.09 a 28.3,28.3 0 0 1 -15.94,3.15 l -5.54,-0.47 a 5.19,5.19 0 0 0 -1.47,0.36 v 0.74 z"
       transform="translate(-31.16,-20.14)"
       opacity="0.1"
       id="path155" />
    <path
       d="m 739.55,761.78 0.15,-0.08 a 3,3 0 0 0 1.53,-2.6 l 0.23,-28.21 c 0,0 3.06,-2.19 2.32,7.73 -0.74,9.92 -1.22,24.74 -1.22,24.74 0,0 -0.12,16.16 -15.55,16.16 0,0 -15.43,2.94 -15.31,-5.88 0.12,-8.82 6.37,-9.18 6.37,-9.18 l 5.54,0.48 a 28.23,28.23 0 0 0 15.94,-3.16 z"
       transform="translate(-31.16,-20.14)"
       fill="#b07473"
       id="path157" />
    <path
       d="m 642.52,761.15 c 0.36,6.37 19.1,2.69 19.1,2.69 l 12.61,-24.48 c 0,0 10.53,-8.09 5.26,-15.19 a 11.33,11.33 0 0 1 -0.77,-1.21 c 0,0 0,0 -0.05,-0.06 v 0 c -0.11,-0.18 -0.21,-0.37 -0.31,-0.57 v 0 c -3.78,-7.5 -1.92,-19.8 -1.92,-19.8 0,0 4.89,-35.76 6.61,-45.19 1.21,-6.66 0.71,-28.51 0.31,-40.73 -0.16,-5.08 -0.31,-8.49 -0.31,-8.49 l -31.11,-8.33 c 0,0 0,3.88 0,9.28 -0.07,7.67 -0.31,18.4 -1.1,25.38 -1.34,11.87 3.43,51.18 3.43,51.18 l 1.65,35.77 a 33.13,33.13 0 0 1 -4,17.41 c -3.9,7.14 -9,17.2 -9.35,21.65 a 4.38,4.38 0 0 0 -0.05,0.69 z"
       transform="translate(-31.16,-20.14)"
       fill="#cc818c"
       id="path159" />
    <path
       d="m 642.52,761.15 c 0.36,6.37 19.1,2.69 19.1,2.69 l 12.61,-24.48 c 0,0 10.53,-8.09 5.26,-15.19 a 11.33,11.33 0 0 1 -0.77,-1.21 c -0.17,3.71 -4.24,13 -4.24,13 0,0 -10.41,20.83 -13.72,25.6 -3.31,4.77 -17.69,-0.89 -18.23,-1.09 a 4.38,4.38 0 0 0 -0.01,0.68 z"
       transform="translate(-31.16,-20.14)"
       opacity="0.1"
       id="path161" />
    <path
       d="m 678.36,722.3 c 0,0 6.16,-1.43 4.32,14.61 v 0 a 10.33,10.33 0 0 1 -4.87,9.17 c -4.41,2.77 -11.21,8.73 -14.65,20.32 v 0 a 11.08,11.08 0 0 1 -8.55,10.8 c -5.56,1.3 -12.49,2.44 -16.5,1.32 -7.47,-2.08 -4.16,-7.22 -4.16,-7.22 l 8.57,-10.17 c 0,0 14.94,5.88 18.24,1.1 3.3,-4.78 13.72,-25.59 13.72,-25.59 0,0 5.71,-12.99 3.88,-14.34 z"
       transform="translate(-31.16,-20.14)"
       fill="#b07473"
       id="path163" />
    <path
       d="m 728.48,593.52 -0.66,24.1 c 8.35,-0.81 14.33,-1.94 15.35,-3.53 2.21,-3.42 10.23,-4.86 17.05,-5.45 -0.21,-4.51 -0.39,-7.53 -0.39,-7.53 z"
       transform="translate(-31.16,-20.14)"
       opacity="0.1"
       id="path165" />
    <path
       d="m 651.94,612 a 11.44,11.44 0 0 1 3.43,-4.14 c 3.3,-1.83 2.94,11.76 2.94,11.76 0,0 11,0.1 25.05,-0.08 -0.16,-5.08 -0.31,-8.5 -0.31,-8.5 l -31.11,-8.32 c 0,0 0.06,3.86 0,9.28 z"
       transform="translate(-31.16,-20.14)"
       opacity="0.1"
       id="path167" />
    <path
       d="m 648.39,615.22 c 0,0 3.68,-10 7,-11.78 3.32,-1.78 2.94,11.75 2.94,11.75 0,0 80.82,0.74 84.86,-5.51 4.04,-6.25 27.55,-5.88 27.55,-5.88 0,0 -0.73,-77.88 -2.57,-107.26 -1.84,-29.38 -4.77,-56.21 -12.12,-64.29 -4.75,-5.23 -11.51,-22.15 -15.69,-33.43 -2.27,-6.16 -3.78,-10.65 -3.78,-10.65 l -77.14,4.4 -0.63,6.25 -8.19,81.92 c 0,0 -1.1,90.37 -4.41,110.94 -3.31,20.57 2.18,23.54 2.18,23.54 z"
       transform="translate(-31.16,-20.14)"
       fill="#444053"
       id="path169" />
    <g
       opacity="0.1"
       id="g175">
      <path
         d="m 736.91,609.68 c 4,-6.24 27.55,-5.88 27.55,-5.88 0,0 -0.73,-77.88 -2.57,-107.26 -1.84,-29.38 -4.77,-56.21 -12.12,-64.29 C 745,427 738.26,410.1 734.08,398.82 c -1.91,-5.18 -3.28,-9.17 -3.66,-10.31 l 6,-0.34 c 0,0 1.51,4.49 3.79,10.65 4.18,11.28 10.93,28.2 15.68,33.43 7.35,8.08 10.29,34.9 12.12,64.29 1.83,29.39 2.58,107.26 2.58,107.26 0,0 -23.51,-0.36 -27.56,5.88 -3.45,5.33 -62.92,5.58 -80.18,5.53 22.15,-0.05 70.94,-0.71 74.06,-5.53 z"
         transform="translate(-31.16,-20.14)"
         id="path171" />
      <path
         d="m 649.11,603.44 c 1.49,-0.83 2.23,1.47 2.6,4.26 a 57.68,57.68 0 0 0 -3.47,7.52 c 0,0 -2.13,-1.15 -3,-7 1.22,-2.09 2.57,-4.06 3.87,-4.78 z"
         transform="translate(-31.16,-20.14)"
         id="path173" />
    </g>
    <path
       d="m 672.23,199.74 c -5.34,7.28 0.06,17.63 -5.67,24.71 -1.89,2.34 -4.8,4 -6.77,6.3 -3.65,4.26 -3.51,10.05 -1.72,15.05 1.79,5 5,9.56 7.28,14.44 1,2.11 1.74,4.48 0.74,6.58 -0.7,1.46 -2.15,2.57 -3.28,3.83 -3.68,4.11 -3.78,9.82 -1.8,14.66 1.98,4.84 5.76,9 9.49,13.1 1.47,1.61 3.33,3.39 5.78,3.34 a 8,8 0 0 0 3.63,-1.19 37,37 0 0 0 16.84,-48.29 c -3.1,-7.43 -8.27,-14.55 -8.32,-22.4 0,-6.23 3.2,-12.18 3.77,-18.38 0.69,-7.54 -3.77,-19.51 -12.87,-22.8 0.6,4.84 -4.39,7.31 -7.1,11.05 z"
       transform="translate(-31.16,-20.14)"
       fill="#585268"
       id="path177" />
    <path
       d="m 672.23,199.74 c -5.34,7.28 0.06,17.63 -5.67,24.71 -1.89,2.34 -4.8,4 -6.77,6.3 -3.65,4.26 -3.51,10.05 -1.72,15.05 1.79,5 5,9.56 7.28,14.44 1,2.11 1.74,4.48 0.74,6.58 -0.7,1.46 -2.15,2.57 -3.28,3.83 -3.68,4.11 -3.78,9.82 -1.8,14.66 1.98,4.84 5.76,9 9.49,13.1 1.47,1.61 3.33,3.39 5.78,3.34 a 8,8 0 0 0 3.63,-1.19 37,37 0 0 0 16.84,-48.29 c -3.1,-7.43 -8.27,-14.55 -8.32,-22.4 0,-6.23 3.2,-12.18 3.77,-18.38 0.69,-7.54 -3.77,-19.51 -12.87,-22.8 0.6,4.84 -4.39,7.31 -7.1,11.05 z"
       transform="translate(-31.16,-20.14)"
       opacity="0.1"
       id="path179" />
    <path
       d="m 731.45,464.55 c -10.69,0.56 -20.75,5.16 -30.11,10.36 -9.36,5.2 -18.42,11.09 -28.49,14.78"
       transform="translate(-31.16,-20.14)"
       opacity="0.1"
       id="path181" />
    <path
       d="m 724.81,489.74 a 44.07,44.07 0 0 0 -27.75,13.5 c -2.6,2.75 -4.84,5.83 -7.55,8.47 a 33.54,33.54 0 0 1 -14.88,8.43"
       transform="translate(-31.16,-20.14)"
       opacity="0.1"
       id="path183" />
    <path
       d="m 727,508.91 a 48.52,48.52 0 0 0 -22.32,13.46 c -1.64,1.77 -3.13,3.66 -4.77,5.43 -8.85,9.5 -21.35,14.54 -33.42,19.31"
       transform="translate(-31.16,-20.14)"
       opacity="0.1"
       id="path185" />
    <path
       d="m 726.09,243.06 a 219.46,219.46 0 0 0 2.2,25.52 c 1,6 2.4,11.4 4.41,13.79 5.88,7 -28.65,16.35 -28.65,16.35 l -20.39,-15.8 c 0,0 16.16,-14.88 8.63,-29.39 -7.53,-14.51 33.8,-10.47 33.8,-10.47 z"
       transform="translate(-31.16,-20.14)"
       fill="#cc818c"
       id="path187" />
    <path
       d="m 658.79,398.82 h 81.55 c -2.27,-6.16 -3.78,-10.65 -3.78,-10.65 l -77.14,4.4 z"
       transform="translate(-31.16,-20.14)"
       opacity="0.1"
       id="path189" />
    <path
       d="m 653.54,397.35 h 87.19 c -2.45,-8.77 0,-16.88 3.49,-23.12 a 51.1,51.1 0 0 1 9.13,-11.84 l 0.6,-0.55 30.44,-6.74 1.64,-0.36 c 0,0 0.25,-55.35 -19.35,-62.95 -19.6,-7.6 -31.35,-17.87 -31.35,-17.87 l -26.93,8.32 -19.84,-10 c -6.37,6.85 -23.27,4.16 -23.27,4.16 -27.67,3.18 -27.67,24 -27.67,24 0,0 16.16,37.71 17.39,37.71 1.23,0 -1.47,59.24 -1.47,59.24 z"
       transform="translate(-31.16,-20.14)"
       fill="#b32f26"
       id="path191" />
    <path
       d="m 683.64,362.16 c 0,0 -17.78,-3.94 -23.83,-10.83"
       transform="translate(-31.16,-20.14)"
       opacity="0.1"
       id="path193" />
    <path
       d="m 773.29,341.51 -20.62,16.9 a 35.13,35.13 0 0 0 0.68,4 l 0.6,-0.55 30.44,-6.74 z"
       transform="translate(-31.16,-20.14)"
       opacity="0.1"
       id="path195" />
    <path
       d="m 717.46,391.47 c 0,0 4.51,2.54 11.42,5.88 h 11.85 c -2.45,-8.77 0,-16.88 3.49,-23.12 l -20.89,-6.76 c 7.11,6.61 -5.87,24 -5.87,24 z"
       transform="translate(-31.16,-20.14)"
       opacity="0.1"
       id="path197" />
    <path
       d="m 649.86,293.76 -12.24,6.61 -12,30.37 c 0,0 -12.49,33.3 -11.27,42.12 0,0 -4.4,20.82 3.43,24.49 l 20.4,9.24 a 1.9,1.9 0 0 0 2.45,-2.62 c -2.91,-5.51 -6.11,-14.13 -1,-18.87 l -5.88,-12.24 21.25,-34.78 7.1,-12 z"
       transform="translate(-31.16,-20.14)"
       fill="#b32f26"
       id="path199" />
    <path
       d="m 677.09,355.21 c 1.06,4.32 4.64,11 16.49,13.49 l 13,10.65 13.83,6.27 5.64,2.55 2.39,-17.27 -5.43,-3 -6.33,-3.46 c 0,0 -14.28,-25.87 -36.89,-15 a 5,5 0 0 0 -2.7,5.77 z"
       transform="translate(-31.16,-20.14)"
       opacity="0.1"
       id="path201" />
    <path
       d="m 677.83,353.74 c 1.06,4.33 4.63,11 16.48,13.49 l 13,10.65 13.84,6.27 5.63,2.55 2.39,-17.27 -5.43,-3 -6.28,-3.43 c 0,0 -14.29,-25.87 -36.9,-14.95 a 5,5 0 0 0 -2.73,5.69 z"
       transform="translate(-31.16,-20.14)"
       fill="#cc818c"
       id="path203" />
    <circle
       cx="672.15002"
       cy="213.73"
       r="31.59"
       opacity="0.1"
       id="circle205" />
    <circle
       cx="672.15002"
       cy="213"
       r="31.59"
       fill="#cc818c"
       id="circle207" />
    <path
       d="m 722.88,300.64 -9.5,-18.46 c 0,0 13.9,-5.62 14.91,-12.13 1.01,-6.51 13.32,7.63 10.66,12.32 -2.66,4.69 -16.07,18.27 -16.07,18.27 z"
       transform="translate(-31.16,-20.14)"
       opacity="0.1"
       id="path209" />
    <path
       d="m 722.88,299.17 -9.5,-18.46 c 0,0 13.9,-5.62 14.91,-12.13 1.01,-6.51 13.32,7.64 10.66,12.32 -2.66,4.68 -16.07,18.27 -16.07,18.27 z"
       transform="translate(-31.16,-20.14)"
       fill="#b32f26"
       id="path211" />
    <path
       d="m 645.13,346.86 52.49,70.57 c 0,0 -19.35,10.53 -46,-8.32 L 640.11,395.39 607.25,340 Z"
       transform="translate(-31.16,-20.14)"
       fill="#f6f8fb"
       id="path213" />
    <path
       d="m 634.8,385.23 4.78,-0.13 c 0,0 29.2,-28.34 36.37,-14 7.17,14.34 -18.19,27.74 -18.19,27.74 l -7.71,4.16 -10.05,3 -6.43,-8.63 z"
       transform="translate(-31.16,-20.14)"
       fill="#cc818c"
       id="path215" />
    <path
       d="m 641.85,400.54 c 0.44,1.63 0.86,3.43 0.12,4.94 a 2,2 0 0 1 -0.87,0.95 2.23,2.23 0 0 1 -1,0.14 10.05,10.05 0 0 1 -6.59,-3.26 30.1,30.1 0 0 1 -4.27,-6.18 c -1.3,-2.27 -2.65,-4.78 -2.19,-7.36 0.52,-2.81 3,-4.76 5.43,-6.34 4.84,-3.2 5,0.53 6.06,4.65 1.06,4.12 2.2,8.3 3.31,12.46 z"
       transform="translate(-31.16,-20.14)"
       opacity="0.1"
       id="path217" />
    <path
       d="m 641.12,400.54 c 0.43,1.63 0.86,3.43 0.12,4.94 a 2,2 0 0 1 -0.87,0.95 2.25,2.25 0 0 1 -1,0.14 10,10 0 0 1 -6.59,-3.26 29.75,29.75 0 0 1 -4.28,-6.18 c -1.3,-2.27 -2.65,-4.78 -2.18,-7.36 0.51,-2.81 3,-4.76 5.42,-6.34 4.85,-3.2 5,0.53 6.07,4.65 1.07,4.12 2.19,8.3 3.31,12.46 z"
       transform="translate(-31.16,-20.14)"
       fill="#b32f26"
       id="path219" />
    <polygon
       points="626.29,313.81 624.16,321.48 623.85,317.94 "
       opacity="0.1"
       id="polygon221" />
    <path
       d="m 721.19,384.15 5.63,2.55 2.39,-17.27 -5.43,-3 c 3.75,4.3 0.47,12.25 -2.59,17.72 z"
       transform="translate(-31.16,-20.14)"
       opacity="0.1"
       id="path223" />
    <path
       d="m 743.79,364.1 c 0,0 -18.18,1.11 -25.9,-3.85"
       transform="translate(-31.16,-20.14)"
       opacity="0.1"
       id="path225" />
    <g
       opacity="0.1"
       id="g233">
      <path
         d="m 741.53,375.7 a 51.18,51.18 0 0 1 9.13,-11.85 24.37,24.37 0 0 1 2.69,-1.46 l 28.34,-5.82 1.64,-0.36 c 0,0 0.25,-55.35 -19.34,-62.95 a 117.72,117.72 0 0 1 -30.56,-17.21 l 2.15,-0.66 c 0,0 11.75,10.28 31.35,17.87 19.6,7.59 19.34,62.95 19.34,62.95 h -2.94 l -29,5.55 c 0,0 -1.25,1.21 -1.63,1.56 a 56.2,56.2 0 0 0 -9.27,12.26 30.74,30.74 0 0 0 -2.43,23.24 h -3 c -2.42,-8.77 0.08,-16.88 3.53,-23.12 z"
         transform="translate(-31.16,-20.14)"
         id="path227" />
      <path
         d="m 664.13,278 c 0.47,-0.07 0.92,-0.14 1.41,-0.19 a 50.71,50.71 0 0 0 6,0.49 54.54,54.54 0 0 1 -7.41,-0.3 z"
         transform="translate(-31.16,-20.14)"
         id="path229" />
      <path
         d="m 705.7,283.71 -17.94,-9.08 a 9.48,9.48 0 0 0 1,-0.95 l 18.72,9.47 z"
         transform="translate(-31.16,-20.14)"
         id="path231" />
    </g>
    <path
       d="m 774,340 12,14.7 2.45,39.92 c 0,0 3.18,20.32 -20.08,15.42 -23.26,-4.9 -50.18,-20.04 -50.18,-20.04 0,0 13,-17.39 5.88,-24 l 33.31,10.78 c 0,0 5.63,-1.23 1.22,-6.12 -4.41,-4.89 -5.19,-13.72 -5.19,-13.72 z"
       transform="translate(-31.16,-20.14)"
       fill="#b32f26"
       id="path235" />
    <path
       d="m 779.42,382.17 6.61,7.59 a 9.53,9.53 0 0 1 -6.61,-7.59 z"
       transform="translate(-31.16,-20.14)"
       opacity="0.1"
       id="path237" />
    <polygon
       points="747.28,374.02 742.14,375.25 736.99,360.8 "
       opacity="0.1"
       id="polygon239" />
    <path
       d="m 665.58,218.64 c -1.13,-2.77 -0.26,-6 1.1,-8.61 1.36,-2.61 3.23,-5.08 4.25,-7.89 1.51,-4.18 1.05,-8.91 2.7,-13 2.91,-7.25 11.18,-10.49 18.59,-13 2.19,-0.73 4.52,-1.46 6.76,-0.92 3,0.71 4.95,3.43 7.4,5.26 10.06,7.5 26.42,-0.76 36.15,7.18 3.72,3 5.53,7.91 6.09,12.68 0.56,4.77 0,9.61 -0.06,14.42 -0.16,8.42 1.42,17.63 7.72,23.21 1.9,1.68 4.14,2.94 6,4.68 1.86,1.74 3.32,4.17 3,6.69 a 23.19,23.19 0 0 1 -1,3.4 c -1.25,4.39 0.62,9 2.9,13 6.8,11.77 18.79,21.47 32.38,21.74 -0.91,6.86 -8,10.84 -14.35,13.65 -8,3.59 -16.52,7.11 -25.33,6.66 -8.81,-0.45 -18,-6.09 -19.54,-14.77 -0.53,-3 -0.46,-6.61 -3,-8.17 -1.56,-0.95 -3.58,-0.71 -5.26,-1.42 -2.43,-1 -3.63,-3.73 -4.43,-6.24 a 56.16,56.16 0 0 1 -2.61,-16 c -0.11,-6.44 0.74,-13.47 -2.91,-18.77 -3.38,-4.91 -9.38,-7.4 -13.28,-11.91 -3.6,-4.18 -7.51,-9.22 -13.41,-10 -8.16,-1.15 -25.04,9.94 -29.86,-1.87 z"
       transform="translate(-31.16,-20.14)"
       opacity="0.1"
       id="path241" />
    <path
       d="m 665.58,217.17 c -1.13,-2.77 -0.26,-6 1.1,-8.61 1.36,-2.61 3.23,-5.08 4.25,-7.89 1.51,-4.18 1.05,-8.91 2.7,-13 2.91,-7.26 11.18,-10.5 18.59,-13 2.19,-0.73 4.52,-1.46 6.76,-0.92 3,0.71 4.95,3.43 7.4,5.26 10.06,7.5 26.42,-0.76 36.15,7.18 3.72,3 5.53,7.91 6.09,12.69 0.56,4.78 0,9.6 -0.06,14.41 -0.16,8.42 1.42,17.63 7.72,23.21 1.9,1.68 4.14,2.94 6,4.68 1.86,1.74 3.32,4.17 3,6.69 a 23.19,23.19 0 0 1 -1,3.4 c -1.25,4.39 0.62,9 2.9,13 6.82,11.73 18.76,21.46 32.35,21.73 -0.91,6.86 -8,10.84 -14.35,13.66 -8,3.58 -16.52,7.1 -25.33,6.65 -8.81,-0.45 -18,-6.09 -19.54,-14.77 -0.53,-3 -0.46,-6.61 -3,-8.17 -1.56,-0.95 -3.58,-0.71 -5.26,-1.42 -2.43,-1 -3.63,-3.73 -4.43,-6.24 a 56.1,56.1 0 0 1 -2.61,-16 c -0.11,-6.44 0.74,-13.47 -2.91,-18.77 -3.38,-4.91 -9.38,-7.4 -13.28,-11.91 -3.6,-4.18 -7.51,-9.22 -13.41,-10 -8.13,-1.14 -25.01,9.97 -29.83,-1.86 z"
       transform="translate(-31.16,-20.14)"
       fill="#585268"
       id="path243" />
    <path
       d="m 688,298.35 18.11,-14.7 c 0,0 -12.4,-6.72 -13.88,-12.45 -1.48,-5.73 -11.4,2.72 -10.39,7.86 1.01,5.14 6.16,19.29 6.16,19.29 z"
       transform="translate(-31.16,-20.14)"
       opacity="0.1"
       id="path245" />
    <path
       d="m 688.71,296.14 18.11,-14.69 c 0,0 -12.4,-6.72 -13.82,-12.45 -1.42,-5.73 -11.4,2.72 -10.39,7.86 1.01,5.14 6.1,19.28 6.1,19.28 z"
       transform="translate(-31.16,-20.14)"
       fill="#b32f26"
       id="path247" />
    <circle
       cx="676.37"
       cy="273.60999"
       r="1.4400001"
       opacity="0.1"
       id="circle249" />
    <circle
       cx="676.37"
       cy="281.60999"
       r="1.4400001"
       opacity="0.1"
       id="circle251" />
    <circle
       cx="676.37"
       cy="289.60001"
       r="1.4400001"
       opacity="0.1"
       id="circle253" />
    <g
       opacity="0.1"
       id="g259">
      <path
         d="m 672.89,196.75 c 1.43,-3.93 1.12,-8.34 2.46,-12.3 a 13.44,13.44 0 0 0 -1.53,2.82 c -1.66,4.13 -1.19,8.86 -2.71,13 l -0.1,0.24 a 22.85,22.85 0 0 0 1.88,-3.76 z"
         transform="translate(-31.16,-20.14)"
         id="path255" />
      <path
         d="m 787.14,295.74 c -8,3.58 -16.52,7.1 -25.33,6.65 -8.81,-0.45 -18,-6.09 -19.54,-14.76 -0.53,-3 -0.46,-6.62 -3,-8.18 -1.56,-0.95 -3.58,-0.71 -5.26,-1.42 -2.43,-1 -3.63,-3.73 -4.43,-6.24 a 56.1,56.1 0 0 1 -2.61,-16 c -0.11,-6.43 0.75,-13.46 -2.9,-18.77 -3.39,-4.91 -9.39,-7.39 -13.29,-11.91 -3.6,-4.17 -7.51,-9.22 -13.41,-10 -8.09,-1.1 -25,10 -29.78,-1.82 a 9.3,9.3 0 0 1 0.31,-6.83 c -0.35,0.59 -0.69,1.18 -1,1.78 -1.36,2.66 -2.22,5.85 -1.09,8.62 4.81,11.8 21.69,0.71 29.78,1.82 5.9,0.8 9.81,5.85 13.41,10 3.9,4.52 9.9,7 13.28,11.92 3.66,5.3 2.8,12.33 2.91,18.76 a 56.1,56.1 0 0 0 2.61,16 c 0.8,2.52 2,5.22 4.43,6.24 1.68,0.71 3.7,0.48 5.26,1.42 2.58,1.56 2.51,5.21 3,8.18 1.56,8.67 10.74,14.31 19.54,14.76 8.8,0.45 17.28,-3.06 25.33,-6.65 5.8,-2.58 12.26,-6.15 14,-12 -2.78,3.8 -7.7,6.42 -12.22,8.43 z"
         transform="translate(-31.16,-20.14)"
         id="path257" />
    </g>
    <path
       d="M 963.87,352.18 C 942.7,340 934.7,337 934.66,337 l -0.44,-0.31 a 17.61,17.61 0 0 1 -5.33,-6.74 14.07,14.07 0 0 1 0,-1.45 0.61,0.61 0 0 0 0,0.14 c 0.33,-6.45 4.92,-12.32 9.27,-17.44 l 11.13,-13.09 a 12.9,12.9 0 0 0 2.87,-4.54 10.47,10.47 0 0 0 0.3,-2.79 c 0,-0.38 0,-0.76 0,-1.14 -0.06,-3.25 -0.15,-6.51 -0.27,-9.76 -0.1,-2.84 -0.83,-6.42 -3.67,-7 -1.48,-0.3 -3.44,0.23 -4.22,-1 a 2.43,2.43 0 0 1 -0.19,-1.69 0.58,0.58 0 0 0 0,0.14 v -0.16 a 37.67,37.67 0 0 0 1.05,-6.69 9.12,9.12 0 0 0 -0.46,-3.39 c -1.64,-4.71 -7.31,-6.65 -12.32,-7.54 -5.01,-0.89 -10.63,-1.65 -13.77,-5.57 a 40.73,40.73 0 0 0 -2.74,-3.77 10.81,10.81 0 0 0 -5.12,-2.53 29,29 0 0 0 -18.63,1.62 c -2.42,1.08 -4.85,2.54 -7.51,2.38 -2.66,-0.16 -5.12,-2.08 -7.84,-2.54 -4.4,-0.75 -8.61,2.48 -10.78,6.31 a 15.43,15.43 0 0 0 -2,7.44 v 0.44 0 a 10.88,10.88 0 0 0 2.86,7.6 c 1.9,2 4.72,3.32 5.51,5.91 0.32,1.05 0.24,2.19 0.53,3.26 a 2.91,2.91 0 0 0 0.12,0.39 l -0.14,0.19 a 33,33 0 0 0 -7,20.34 33.76,33.76 0 0 0 23.72,32 c 0,0.33 0,0.66 0,1 0,4 -1.15,8.17 -4.6,11.2 L 855,350.2 c 0,0 -18.08,-2.15 -24.6,24.27 a 45.05,45.05 0 0 0 -1.12,13.4 c 0.24,4 -0.31,11 -5,20.07 -7.41,14.52 -5.72,47.85 9.44,51.15 14.31,3.12 19.91,1.82 20.5,1.67 v 0.58 c -0.24,6.26 -2.51,60.2 -10.76,66.72 -2.28,1.81 -1.86,3 0,3.85 0,0 0,0.35 -0.05,1 -0.25,4 -1.52,19 -7,27.52 -6.41,9.9 -5.74,67 -5.74,67 l -4.37,33.66 c 0,0 2.69,20.79 0,24.42 -2.41,3.23 -5.61,80.14 -6.28,96.82 h -0.28 a 8.12,8.12 0 0 0 -6.48,4 c -3.54,5.75 -15.94,16.38 -15.94,16.38 -2.69,3.82 -12.64,7.48 -17.9,9.2 a 11.12,11.12 0 0 0 -2,0.88 10.67,10.67 0 0 0 -4.52,4.76 5.11,5.11 0 0 0 -0.48,4 c 1.34,3.29 29.31,5.61 36.39,2.3 5.56,-2.59 27.6,-6 36.75,-7.34 a 7.54,7.54 0 0 0 6.54,-6.54 4.31,4.31 0 0 0 -0.84,-3.27 c -1.75,-2.17 -2.64,-8.1 -3,-12 a 8.11,8.11 0 0 0 2.06,-1.22 87.85,87.85 0 0 1 5,-35.31 c 6.74,-17.82 8.76,-50.82 7.08,-72.27 0,0 20.55,-88.44 36.73,-96.69 v 0 c 0.25,0.32 8.1,10.39 9.1,41.58 1,31.68 12.46,52.47 12.46,52.47 0,0 -5.06,53.79 0,73.92 l -6.61,31.75 c -0.49,-0.41 -0.8,-0.73 -0.8,-0.73 0,0 0.2,0.88 0.47,2.29 l -0.14,0.68 0.29,0.06 c 0.75,4 1.86,10.89 1.4,15 -0.26,2.31 -0.91,5.48 -1.35,8.59 -0.7,4.89 -0.89,9.63 1.68,10.67 4.22,1.7 29,4 33.2,-1.44 a 7.79,7.79 0 0 0 1.22,-8.15 8.25,8.25 0 0 0 -1.22,-2.08 c 0,0 -6.58,-10.75 -4.72,-18.33 a 5.58,5.58 0 0 0 -0.79,-4.35 c 0.29,-3.72 1.79,-20.94 5.67,-35.56 4.22,-15.88 13.11,-50.7 6.57,-73.59 v 0 q -0.37,-1.35 -0.84,-2.64 a 98.84,98.84 0 0 1 -3.71,-38.61 78.69,78.69 0 0 1 0,-33.66 c 4.05,-18.48 6.88,-36.63 6.88,-36.63 0,0 2.23,-24.42 0.28,-39.39 0,-0.32 -0.09,-0.64 -0.13,-1 l 1.06,-0.24 c 0,0 -5.73,-25.41 -7.75,-41.58 -0.48,-3.82 -1.1,-8.65 -1.78,-13.81 a 35.25,35.25 0 0 0 5.49,-1.37 c 18.19,-6.27 23.92,-63 23.92,-63 v -18 c 0,0 6.12,-27.67 -15.11,-39.88 z M 828.31,790.42 c -0.56,-0.28 -0.89,-0.47 -0.89,-0.47 v 0 z"
       transform="translate(-31.16,-20.14)"
       fill="url(#422858ff-741c-491e-b83f-4f975ae951a6)"
       id="path261"
       style="fill:url(#422858ff-741c-491e-b83f-4f975ae951a6)" />
    <path
       d="m 952.89,679.71 c 7.89,22.69 -1.32,59.52 -5.6,76 -4.28,16.48 -5.59,36.18 -5.59,36.18 -16.77,2.63 -28.94,-0.66 -28.94,-0.66 l 6.91,-33.87 c -4.94,-20.06 0,-73.67 0,-73.67 0,0 -11.18,-20.72 -12.17,-52.29 -1,-31.07 -8.63,-41.12 -8.87,-41.43 v 0 c -15.78,8.22 -35.84,96.36 -35.84,96.36 1.64,21.37 -0.34,54.26 -6.91,72 a 89,89 0 0 0 -4.93,35.18 c -2.3,2 -5.5,2.28 -9,1.72 -9.39,-1.52 -20.65,-9.61 -20.65,-9.61 0,0 3.61,-96 6.25,-99.64 2.64,-3.64 0,-24.34 0,-24.34 l 4.27,-33.54 c 0,0 -0.66,-56.9 5.59,-66.76 5.4,-8.52 6.64,-23.5 6.88,-27.43 0,-0.62 0,-1 0,-1 l 9.52,-11.4 c 0,0 92.08,-6.91 99,0 1.69,1.69 2.74,5.55 3.36,10.4 1.9,14.92 -0.28,39.25 -0.28,39.25 0,0 -2.76,18.09 -6.71,36.5 a 80.12,80.12 0 0 0 0,33.55 100.43,100.43 0 0 0 3.71,38.5 z"
       transform="translate(-31.16,-20.14)"
       fill="#65617d"
       id="path263" />
    <path
       d="m 947.13,823.91 c -4.11,5.43 -28.28,3.13 -32.4,1.44 -2.51,-1 -2.32,-5.77 -1.64,-10.64 0.43,-3.09 1.06,-6.25 1.32,-8.55 0.65,-5.92 -2,-17.93 -2,-17.93 0,0 5.42,5.76 6.73,0 0.58,-2.52 2.6,-3.81 4.7,-4.46 a 12.28,12.28 0 0 1 8.54,0.53 c 4.27,1.86 11.39,5.81 10.12,11.15 -1.81,7.55 4.6,18.27 4.6,18.27 a 8.32,8.32 0 0 1 1.2,2.06 7.89,7.89 0 0 1 -1.17,8.13 z"
       transform="translate(-31.16,-20.14)"
       fill="#a27772"
       id="path265" />
    <path
       d="m 947.13,823.91 c -4.11,5.43 -28.28,3.13 -32.4,1.44 -2.51,-1 -2.32,-5.77 -1.64,-10.64 2.6,1.22 7,2.23 14.37,1.55 a 40.54,40.54 0 0 1 5.17,-0.16 120.23,120.23 0 0 0 15.7,-0.32 7.89,7.89 0 0 1 -1.2,8.13 z"
       transform="translate(-31.16,-20.14)"
       opacity="0.1"
       id="path267" />
    <path
       d="m 862.78,686.29 c 1.64,21.37 -0.34,54.26 -6.91,72 a 89,89 0 0 0 -4.93,35.18 c -2.3,2 -5.5,2.28 -9,1.72 2,-13.87 10.44,-73.63 15.85,-120.85 6.17,-53.77 35,-90.76 35,-90.76 l 5.75,6.33 c -15.7,8.24 -35.76,96.38 -35.76,96.38 z"
       transform="translate(-31.16,-20.14)"
       opacity="0.1"
       id="path269" />
    <path
       d="m 937.26,340.65 -4,19.73 -19.67,33.05 -24.25,-10.36 c 0,0 -33,-34.53 -12.25,-39.46 a 18.36,18.36 0 0 0 6.88,-3.06 c 4.07,-3.07 5.35,-7.53 5.37,-11.9 A 36.48,36.48 0 0 0 886,314.51 l 42.42,-13.32 a 68.09,68.09 0 0 0 -3,17.18 c -0.33,11.56 4,17.25 7.49,20 a 12.74,12.74 0 0 0 4.35,2.28 z"
       transform="translate(-31.16,-20.14)"
       fill="#fbbebe"
       id="path271" />
    <path
       d="m 928.38,301.19 a 68.09,68.09 0 0 0 -3,17.18 32.29,32.29 0 0 1 -2.47,2.63 33.56,33.56 0 0 1 -33.54,7.65 36.48,36.48 0 0 0 -3.37,-14.14 z"
       transform="translate(-31.16,-20.14)"
       opacity="0.1"
       id="path273" />
    <path
       d="m 933.25,295.76 a 33.55,33.55 0 1 1 -33.55,-33.54 33.39,33.39 0 0 1 33.55,33.54 z"
       transform="translate(-31.16,-20.14)"
       fill="#fbbebe"
       id="path275" />
    <path
       d="m 937.26,340.65 -4,19.73 -19.67,33.05 -24.25,-10.36 c 0,0 -33,-34.53 -12.25,-39.46 a 18.36,18.36 0 0 0 6.88,-3.06 c -3.74,10.28 11.7,31.67 11.7,31.67 1.8,2.65 5.92,1 5.92,1 9.95,-1.51 28.26,-30.12 31.25,-34.88 a 12.74,12.74 0 0 0 4.42,2.31 z"
       transform="translate(-31.16,-20.14)"
       opacity="0.1"
       id="path277" />
    <path
       d="m 956.25,531.93 c -5.84,1.33 -38.15,8.48 -50.4,6.69 -13.48,-2 -39.69,-3.28 -39.69,-3.28 0,0 -16.69,0.9 -21.83,-1.45 0,-0.62 0,-1 0,-1 l 9.52,-11.4 c 0,0 92.08,-6.91 99,0 1.73,1.73 2.78,5.59 3.4,10.44 z"
       transform="translate(-31.16,-20.14)"
       opacity="0.1"
       id="path279" />
    <path
       d="m 895.66,373.21 c 0,0 -17.35,-24 -10.81,-33.4 l -29.31,12 c 0,0 -17.64,-2.14 -24,24.19 a 45.81,45.81 0 0 0 -1.09,13.36 c 0.24,4 -0.3,11 -4.83,20 -7.23,14.47 -5.59,47.69 9.21,51 14.8,3.31 20.05,1.64 20.05,1.64 0,0 -2,60.18 -10.52,67.09 -8.52,6.91 21.8,5.26 21.8,5.26 0,0 26.21,1.32 39.7,3.29 13.49,1.97 51.3,-6.91 51.3,-6.91 0,0 -5.59,-25.32 -7.57,-41.43 C 947.61,473.19 943,438.87 943,438.87 l 33.54,-45.44 c 0,0 5.92,-27.46 -14.8,-39.63 -20.72,-12.17 -28.51,-15.15 -28.51,-15.15 0,0 -20.82,33.9 -31.67,35.54 0.02,0 -4.1,1.66 -5.9,-0.98 z"
       transform="translate(-31.16,-20.14)"
       fill="#b32f26"
       id="path281" />
    <path
       d="m 857.18,382.74 c 0,0 -0.32,10.86 1.65,15.13 1.97,4.27 9.21,28 9.21,28 h -16.45 c 0,0 8.88,-9.54 8.23,-14.15 -0.65,-4.61 -2.64,-28.98 -2.64,-28.98 z"
       transform="translate(-31.16,-20.14)"
       opacity="0.1"
       id="path283" />
    <path
       d="m 905.86,464.63 c 0,0 -36.32,-8.88 -39.7,-16.44 -3.38,-7.56 -12.71,-24.49 -12.71,-24.49 l 3.83,-5.16 17.66,13.86 c 0,0 21,16.77 30.92,18.42 9.92,1.65 0,13.81 0,13.81 z"
       transform="translate(-31.16,-20.14)"
       fill="#fbbebe"
       id="path285" />
    <path
       d="m 905.86,464.63 c 0,0 -36.32,-8.88 -39.7,-16.44 -3.38,-7.56 -12.71,-24.49 -12.71,-24.49 l 3.83,-5.16 17.66,13.86 c 0,0 21,16.77 30.92,18.42 9.92,1.65 0,13.81 0,13.81 z"
       transform="translate(-31.16,-20.14)"
       opacity="0.05"
       id="path287" />
    <path
       d="m 937.26,421.88 v 19.7 h -3.16 a 92.07,92.07 0 0 0 -44.72,11.58 l -5.94,3.29 -1.59,0.89 -10.2,-23 9.54,-8.55 h 0.49 c 2.33,0.23 12.42,1.07 16.7,-0.37 4.06,-1.38 9.1,-5.75 21.06,-2.7 5.89,1.51 10.93,8.11 16.64,6.05 z"
       transform="translate(-31.16,-20.14)"
       fill="#fbbebe"
       id="path289" />
    <path
       d="m 969,386 6.57,7.4 v 17.93 c 0,0 -5.59,56.56 -23.34,62.81 -17.75,6.25 -49.46,-3.62 -49.46,-3.62 0,0 -8.19,-21.7 -4.36,-23 3.83,-1.3 33.85,-9.24 33.85,-9.24 0,0 -0.42,-33.18 6.15,-43.05 0,0 -4.27,-30.91 10.53,-31.57 C 963.74,363 969,386 969,386 Z"
       transform="translate(-31.16,-20.14)"
       opacity="0.1"
       id="path291" />
    <path
       d="m 970,386 6.58,7.4 v 17.93 c 0,0 -5.59,56.56 -23.35,62.81 -17.76,6.25 -49.46,-3.62 -49.46,-3.62 0,0 -8.19,-21.7 -4.35,-23 3.84,-1.3 33.85,-9.24 33.85,-9.24 0,0 -0.43,-33.18 6.15,-43.05 0,0 -4.28,-30.91 10.52,-31.57 C 964.74,363 970,386 970,386 Z"
       transform="translate(-31.16,-20.14)"
       fill="#b32f26"
       id="path293" />
    <path
       d="m 924.05,310 a 13.22,13.22 0 0 0 -0.75,-6.41 c -0.93,-2 -3.1,-3.51 -5.22,-3 -2.81,0.66 -4,4.32 -6.78,5.2 -2.33,0.74 -4.87,-0.91 -6,-3.08 -1.13,-2.17 -1.14,-4.72 -1.14,-7.16 0,-2.74 0,-5.49 0,-8.24 0,-3 -0.1,-6.22 -1.94,-8.57 -2.29,-2.92 -7.68,-4.2 -11.28,-4.08 a 9.57,9.57 0 0 0 -6.44,2.59 c -1.92,1.64 -4.15,2.84 -6.77,2.41 a 5.83,5.83 0 0 1 -4.72,-4.08 v -0.1 a 33.54,33.54 0 1 1 49.86,44.52 90.43,90.43 0 0 0 1.18,-10 z"
       transform="translate(-31.16,-20.14)"
       opacity="0.1"
       id="path295" />
    <path
       d="M 877.73,278.69 A 5.88,5.88 0 0 1 873,274.6 c -0.27,-1.06 -0.2,-2.19 -0.51,-3.24 -0.77,-2.59 -3.53,-3.93 -5.38,-5.9 -3.7,-3.93 -3.46,-10.39 -0.84,-15.12 2.12,-3.81 6.22,-7 10.52,-6.28 2.66,0.46 5,2.35 7.66,2.53 2.66,0.18 5,-1.29 7.33,-2.37 a 27.62,27.62 0 0 1 18.22,-1.62 10.5,10.5 0 0 1 5,2.53 43.75,43.75 0 0 1 2.67,3.75 c 3.06,3.9 8.55,4.67 13.44,5.55 4.89,0.88 10.42,2.82 12,7.52 1.07,3.12 0,6.5 -0.58,9.74 a 2.94,2.94 0 0 0 0.13,2 c 0.77,1.26 2.68,0.73 4.12,1 2.77,0.59 3.48,4.16 3.59,7 q 0.17,4.86 0.26,9.73 a 12.39,12.39 0 0 1 -0.29,3.6 12.71,12.71 0 0 1 -2.79,4.53 l -10.86,13.05 c -4.82,5.78 -9.93,12.52 -9,20 -2.28,1 -5,-0.95 -5.74,-3.34 -0.74,-2.39 -0.15,-5 0.36,-7.41 a 90.85,90.85 0 0 0 1.74,-12.85 13.18,13.18 0 0 0 -0.75,-6.4 c -0.93,-2 -3.1,-3.51 -5.22,-3 -2.82,0.66 -4,4.32 -6.78,5.2 -2.33,0.74 -4.87,-0.91 -6,-3.08 -1.13,-2.17 -1.14,-4.71 -1.14,-7.15 v -8.25 c 0,-3 -0.1,-6.22 -1.94,-8.57 -2.29,-2.92 -7.68,-4.2 -11.28,-4.08 a 9.57,9.57 0 0 0 -6.43,2.59 c -1.93,1.65 -4.16,2.86 -6.78,2.43 z"
       transform="translate(-31.16,-20.14)"
       fill="#7c5c5c"
       id="path297" />
    <path
       d="m 885.3,381.92 10.3,42.31 c 0,0 8.12,-0.05 -10.3,-42.31 z"
       transform="translate(-31.16,-20.14)"
       opacity="0.1"
       id="path299" />
    <path
       d="m 920.49,374.85 c 0,0 -13.48,22.08 -8.22,44.92 l 2.51,0.18 c 0,0 -4.48,-10.57 5.71,-45.1 z"
       transform="translate(-31.16,-20.14)"
       opacity="0.1"
       id="path301" />
    <path
       d="m 929,499.82 c 0,0 16.56,-5.48 17.76,7.23 0.04,0 -3.08,-8.71 -17.76,-7.23 z"
       transform="translate(-31.16,-20.14)"
       opacity="0.1"
       id="path303" />
    <path
       d="m 881.19,426.81 c 0,0 -3.29,23 2.63,32.23 0,0 -12,4.93 -28.94,3.95 l -2,-36.18 z"
       transform="translate(-31.16,-20.14)"
       opacity="0.1"
       id="path305" />
    <path
       d="m 883.44,456.45 -1.59,0.89 -10.2,-23 9.54,-8.55 h 0.49 v 0 c -0.15,1.14 -2.81,20.91 1.76,30.66 z"
       transform="translate(-31.16,-20.14)"
       opacity="0.1"
       id="path307" />
    <path
       d="m 881.19,425.83 c 0,0 -3.29,23 2.63,32.22 0,0 -12,4.94 -28.94,3.95 l -11.51,-36.17 z"
       transform="translate(-31.16,-20.14)"
       fill="#b32f26"
       id="path309" />
    <path
       d="m 852.75,809.91 a 7.45,7.45 0 0 1 -6.39,6.52 c -8.93,1.33 -30.44,4.73 -35.87,7.32 -6.91,3.29 -34.2,1 -35.52,-2.3 a 5.22,5.22 0 0 1 0.47,-4 10.54,10.54 0 0 1 4.41,-4.74 11.7,11.7 0 0 1 2,-0.88 c 5.14,-1.71 14.85,-5.35 17.47,-9.17 0,0 12.11,-10.59 15.56,-16.31 a 7.9,7.9 0 0 1 6.32,-3.94 c 2.88,-0.13 6.09,1.32 7.41,7.63 0,0 15.77,9 20,1.11 0,0 0.66,12.12 3.28,15.44 v 0 a 4.4,4.4 0 0 1 0.86,3.32 z"
       transform="translate(-31.16,-20.14)"
       fill="#a27772"
       id="path311" />
    <path
       d="m 852.75,809.91 a 7.45,7.45 0 0 1 -6.39,6.52 c -8.93,1.33 -30.44,4.73 -35.87,7.32 -6.91,3.29 -34.2,1 -35.52,-2.3 a 5.22,5.22 0 0 1 0.47,-4 10.54,10.54 0 0 1 4.41,-4.74 c 4.45,3 14.33,5.84 36.06,2.45 20.73,-3.24 31,-6.41 36,-8.57 v 0 a 4.4,4.4 0 0 1 0.84,3.32 z"
       transform="translate(-31.16,-20.14)"
       opacity="0.1"
       id="path313" />
    <g
       opacity="0.1"
       id="g323">
      <path
         d="m 942.48,272.15 v -0.16 c 0.47,-2.46 1.18,-5 1,-7.47 a 49.31,49.31 0 0 1 -1,6 3.64,3.64 0 0 0 0,1.63 z"
         transform="translate(-31.16,-20.14)"
         id="path315" />
      <path
         d="m 923.29,302.93 a 9.51,9.51 0 0 1 0.81,3.76 11.34,11.34 0 0 0 -0.81,-5.24 c -0.92,-2 -3.09,-3.51 -5.21,-3 -2.82,0.66 -4,4.32 -6.79,5.2 -2.32,0.74 -4.86,-0.91 -6,-3.08 -1.14,-2.17 -1.14,-4.72 -1.14,-7.16 0,-2.75 0,-5.49 0,-8.24 0,-3 -0.1,-6.22 -1.94,-8.57 -2.3,-2.93 -7.68,-4.2 -11.28,-4.09 a 9.58,9.58 0 0 0 -6.44,2.6 c -1.93,1.64 -4.15,2.84 -6.78,2.41 a 5.86,5.86 0 0 1 -4.72,-4.08 c -0.27,-1.06 -0.2,-2.2 -0.51,-3.25 -0.77,-2.58 -3.53,-3.93 -5.38,-5.89 a 10.77,10.77 0 0 1 -2.77,-7 11.21,11.21 0 0 0 2.77,8.43 c 1.85,2 4.61,3.31 5.38,5.89 0.31,1 0.24,2.19 0.51,3.25 a 5.86,5.86 0 0 0 4.72,4.08 c 2.63,0.43 4.85,-0.77 6.78,-2.41 a 9.58,9.58 0 0 1 6.44,-2.6 c 3.6,-0.11 9,1.16 11.28,4.09 1.84,2.35 1.93,5.58 1.94,8.57 0,2.75 0,5.49 0,8.24 0,2.44 0,5 1.14,7.15 1.14,2.15 3.65,3.83 6,3.09 2.76,-0.88 4,-4.54 6.79,-5.2 2.12,-0.46 4.29,1.12 5.21,3.05 z"
         transform="translate(-31.16,-20.14)"
         id="path317" />
      <path
         d="m 950.32,293.88 a 12.64,12.64 0 0 1 -2.8,4.52 l -10.86,13.05 c -4.57,5.49 -9.4,11.85 -9,18.86 0.33,-6.43 4.81,-12.28 9,-17.38 l 10.86,-13.05 a 12.64,12.64 0 0 0 2.8,-4.52 12.48,12.48 0 0 0 0.29,-3.61 9.5,9.5 0 0 1 -0.29,2.13 z"
         transform="translate(-31.16,-20.14)"
         id="path319" />
      <path
         d="m 922,328.11 a 7.69,7.69 0 0 1 -0.33,-1.76 8.87,8.87 0 0 0 0.33,3.24 c 0.74,2.38 3.45,4.35 5.74,3.33 a 14,14 0 0 1 -0.12,-1.44 c -2.28,0.91 -4.92,-1.03 -5.62,-3.37 z"
         transform="translate(-31.16,-20.14)"
         id="path321" />
    </g>
    <path
       d="m 812.69,789.36 c 0,0 3.44,6 15.9,0.72"
       transform="translate(-31.16,-20.14)"
       opacity="0.1"
       id="path325" />
    <path
       d="m 918,790.82 c 0,0 10.74,12.65 24.28,4.15"
       transform="translate(-31.16,-20.14)"
       opacity="0.1"
       id="path327" />
    <path
       d="m 949.26,641.23 c 0,0 -7.59,4.74 -7.83,7.45 -0.24,2.71 3.92,-2 3.92,-2 z"
       transform="translate(-31.16,-20.14)"
       opacity="0.1"
       id="path329" />
    <path
       d="m 952.26,677.59 a 15.87,15.87 0 0 1 -9.35,3.65 c -5.68,0.25 -5.2,7.65 -1.49,5.43 3.71,-2.22 10.84,-9.08 10.84,-9.08 z"
       transform="translate(-31.16,-20.14)"
       opacity="0.1"
       id="path331" />
    <path
       d="m 953.7,682.34 c 0,0 -3.64,17.89 -6.6,14.44"
       transform="translate(-31.16,-20.14)"
       opacity="0.1"
       id="path333" />
    <path
       d="m 250.48,816.42 c 0,0 22.85,6.27 33.85,-2.07 11,-8.34 15.77,-5.66 15.77,-5.66 0,0 26.23,-1.45 28.39,-7.65 2.16,-6.2 -10.06,-28.72 -10.06,-28.72 -0.87,-2 -2.14,-4.54 -2.71,-4.54 l 0.12,-9.5 v 0 l 3.8,-39.75 c 8.77,-22.49 0.16,-51.55 0.16,-51.55 l -1.57,-7.21 a 18.24,18.24 0 0 1 1.49,-12 l 15.93,-32 a 47.88,47.88 0 0 1 3,-6.14 c 1,-1.83 2.33,-4.09 4,-6.8 0.49,-0.78 1,-1.59 1.56,-2.44 1.93,-3 4.27,-6.4 7.1,-10.32 7.05,-9.77 10.76,-22 12.68,-31 l 0.85,2.82 h 0.05 0.14 v 0 l 0.23,0.05 v 0 h 0.32 0.06 l 0.41,0.07 h 0.15 l 4.9,62.36 c 0.3,24.32 9.23,37.78 9.23,37.78 l -1.23,53.69 c 1.68,12.93 -2,30.17 -3.69,37.05 l -3.86,8.71 a 10.47,10.47 0 0 0 -5.69,7.92 c -0.76,6.43 -7.53,20.29 -7.53,20.29 -2.62,3.32 -8.31,12.29 -8.31,12.29 0,0 -2.68,8.66 -1.02,11.9 1.66,3.24 15.54,2.91 15.54,2.91 15.85,3.51 28,-5 27.23,-10.86 -0.77,-5.86 2.47,-7.35 2.47,-7.35 6.3,-2 5.69,-6.27 5.69,-6.27 a 39.24,39.24 0 0 0 -4.77,-25.54 l -1,2.31 a 35.17,35.17 0 0 1 1.9,-13.63 l -0.58,0.4 -0.18,0.11 h -0.06 c 1,-8.77 10.21,-25 10.21,-25 16.92,-29.68 10.77,-69.9 10.77,-69.9 l -2.62,-12.54 -0.15,-4.73 a 157.87,157.87 0 0 1 2.55,-33.7 c 0.91,-4.92 1.85,-10.86 2.57,-17.41 1.52,-13.84 6.42,-28.12 8.68,-34.17 l 0.67,-0.12 H 428 c 0.92,-0.16 1.85,-0.32 2.79,-0.5 h 0.18 c 0,0 0.54,-2.92 1,-7.89 0.27,-3.17 0.49,-7.19 0.49,-11.81 a 132.87,132.87 0 0 0 -6.31,-41.11 l 0.51,-0.73 c 0,0 1.21,-1.64 3.42,-4.48 v 0 c 4.06,-5.16 10.38,-13 18.17,-21.84 13.95,-15.91 9.85,-32 9.85,-32 0,0 -10.1,-37.01 -14.6,-59.23 -2.57,-12.66 -7.39,-21.27 -11.08,-26.35 a 52.44,52.44 0 0 0 1.4,-10.68 c 0.3,-6.58 0.07,-13.44 -2.89,-19.35 -2.96,-5.91 -9.26,-10.58 -15.84,-9.79 a 6.06,6.06 0 0 1 -2.84,0 4.32,4.32 0 0 1 -1.87,-1.63 c -3.85,-5.31 -4.1,-12.45 -2.9,-18.89 1.2,-6.44 3.66,-12.6 4.76,-19.06 1.1,-6.46 0.6,-13.63 -3.51,-18.75 -4.83,-6 -13.25,-7.69 -19.53,-12.2 -4.41,-3.17 -7.72,-7.72 -12.37,-10.53 -4.65,-2.81 -9,-1.74 -14.05,-0.68 -8.49,1.79 -16.56,2.61 -24.59,6.26 a 65.49,65.49 0 0 0 -21.43,15.59 20.34,20.34 0 0 0 -4.78,7.54 c -2,6.61 1.91,13.65 1.09,20.49 -0.58,4.85 -3.44,9.07 -5.71,13.4 -2.27,4.33 -4,9.47 -2.22,14 2.8,7.08 11.93,8.58 18.57,12.35 a 5.67,5.67 0 0 1 2.2,1.91 c 1.64,2.86 -1.71,5.83 -3.82,8.37 a 12.61,12.61 0 0 0 -2.5,5.08 18.12,18.12 0 0 0 -10.87,13.12 c -2.25,10.07 1.21,22.78 4.26,31.18 -3.33,18.71 1,26.09 4.19,28.92 a 16.05,16.05 0 0 1 5.56,10.94 v 0.35 c 0.21,3.4 0.57,6.79 1.05,10.17 v 0 c -0.11,-0.79 -0.22,-1.63 -0.28,-2 -2.61,4.83 -7.58,17.17 -10.38,37.93 a 114,114 0 0 1 -2.53,13.21 72.24,72.24 0 0 0 -2.12,23.62 l 0.5,6.73 a 2.12,2.12 0 0 1 -1.36,-0.45 l 3.51,6.43 V 527 a 40,40 0 0 1 -2.66,14.31 c -0.25,0.66 -0.52,1.32 -0.81,2 a 11.64,11.64 0 0 0 -1.18,5.89 c -7.55,11.57 -24.86,76.41 -24.86,76.41 -9.39,21.26 0.77,35 0.77,35 0,0 4.92,59.19 5.84,62.25 0.92,3.06 2.96,39.14 2.96,39.14 v 0 c 0,0.95 0,1.94 0,2.87 a 6.73,6.73 0 0 0 -1.71,-0.49 c -8.23,-0.46 -10.46,12.54 -10.46,12.54 L 262.17,793 c 0,0 -7.69,-1.3 -19,7.19 -11.31,8.49 7.31,16.23 7.31,16.23 z m 168.15,-342.09 -0.05,-0.18 -0.46,0.27 v 0 l -0.19,0.11 -0.09,0.06 v 0 l -7.76,-27.39 a 45.48,45.48 0 0 1 -0.57,-22.53 l 6,-26.28 v 0 -6.32 l 19.07,50.82 c 1.22,6.85 -10.11,23.44 -15.95,31.44 z"
       transform="translate(-31.16,-20.14)"
       fill="url(#cb632b7f-b2f8-40b2-b1bc-4aa48a1a2180)"
       id="path335"
       style="fill:url(#cb632b7f-b2f8-40b2-b1bc-4aa48a1a2180)" />
    <path
       d="m 427,557 c 0,0 -7.7,18.73 -9.66,36.7 -0.71,6.48 -1.63,12.34 -2.53,17.2 a 157.18,157.18 0 0 0 -2.46,33.27 l 0.15,4.67 2.5,12.37 c 0,0 6,39.73 -10.57,69 0,0 -9.82,17.53 -10.12,25.83 l -6.65,2.57 -13.44,-3.77 c 0,0 6.49,-23.27 4.38,-39.58 l 1.21,-53 c 0,0 -8.73,-13.26 -9.03,-37.26 l -5.13,-65.86 z"
       transform="translate(-31.16,-20.14)"
       fill="#fdc2cc"
       id="path337" />
    <path
       d="m 365.65,547.62 c 0,0 -1.65,25.68 -14.35,43.38 -12.7,17.7 -15.4,25.38 -15.4,25.38 L 320.26,648 a 18.11,18.11 0 0 0 -1.47,11.83 l 1.54,7.12 c 0,0 8.46,28.7 -0.15,50.91 l -4.08,42.9 h -23.86 c 0,0 -2,-35.65 -2.87,-38.67 -0.87,-3.02 -5.74,-61.48 -5.74,-61.48 0,0 -10,-13.6 -0.76,-34.59 0,0 20.85,-78.55 26.43,-77.19 5.58,1.36 56.35,-1.21 56.35,-1.21 z"
       transform="translate(-31.16,-20.14)"
       fill="#fdc2cc"
       id="path339" />
    <g
       opacity="0.1"
       id="g343">
      <path
         d="m 317.91,667 -1.53,-7.12 A 18,18 0 0 1 317.84,648 l 15.64,-31.65 c 0,0 2.71,-7.7 15.4,-25.38 12.19,-17 14.2,-41.36 14.34,-43.23 l 2.43,-0.12 c 0,0 -1.65,25.68 -14.35,43.38 -12.7,17.7 -15.4,25.38 -15.4,25.38 L 320.26,648 a 18.11,18.11 0 0 0 -1.47,11.83 l 1.54,7.12 c 0,0 8.46,28.7 -0.15,50.91 l -4.08,42.9 h -2.42 l 4.08,-42.9 c 8.61,-22.21 0.15,-50.86 0.15,-50.86 z"
         transform="translate(-31.16,-20.14)"
         id="path341" />
    </g>
    <path
       d="m 391.93,756.07 c 0.3,-8.3 10.12,-25.83 10.12,-25.83 16.62,-29.3 10.57,-69 10.57,-69 l -2.56,-12.38 -0.15,-4.67 a 157.18,157.18 0 0 1 2.46,-33.27 c 0.89,-4.86 1.81,-10.72 2.52,-17.2 1.89,-17.3 9.1,-35.3 9.63,-36.62 L 427,557 c 0,0 -7.7,18.73 -9.66,36.7 -0.71,6.48 -1.63,12.34 -2.53,17.2 a 157.18,157.18 0 0 0 -2.46,33.27 l 0.15,4.67 2.5,12.37 c 0,0 6,39.73 -10.57,69 0,0 -9.82,17.53 -10.12,25.83 l -6.65,2.57 -1.4,-0.39 z"
       transform="translate(-31.16,-20.14)"
       opacity="0.1"
       id="path345" />
    <path
       d="m 384.23,755.77 a 11.56,11.56 0 0 0 11,-1.36 35.5,35.5 0 0 0 -0.9,19.94 c 2.72,10.88 -25.38,-8.76 -25.38,-8.76 l 6,-13.71 c 0,0 2.33,4.34 9.28,3.89 z"
       transform="translate(-31.16,-20.14)"
       fill="#d39999"
       id="path347" />
    <path
       d="m 386.32,756.38 a 11.23,11.23 0 0 0 8.93,-2 35.5,35.5 0 0 0 -0.9,19.94 c 2.72,10.88 -25.38,-8.76 -25.38,-8.76 l 6,-13.71 c 0,0 1.74,3.34 6.85,3.86 1.55,0.18 3.03,0.39 4.5,0.67 z"
       transform="translate(-31.16,-20.14)"
       opacity="0.1"
       id="path349" />
    <polygon
       points="292.25,413.31 289.32,481.5 301.06,481.5 301.06,414.89 "
       fill="#fdc2cc"
       id="polygon351" />
    <polygon
       points="292.25,413.31 289.32,481.5 301.06,481.5 301.06,414.89 "
       opacity="0.05"
       id="polygon353" />
    <path
       d="m 377.58,760.91 c 0,0 7.4,-0.46 10.72,6.19 l 4.08,3.17 2,-4.68 a 39,39 0 0 1 4.62,25.23 c 0,0 0.6,4.22 -5.59,6.19 0,0 -3.17,1.51 -2.42,7.25 0.75,5.74 -11.17,14.2 -26.73,10.72 0,0 -13.6,0.31 -15.26,-2.87 -1.66,-3.18 1.06,-11.63 1.06,-11.63 0,0 5.59,-8.86 8.15,-12.13 0,0 6.65,-13.7 7.41,-20 0.76,-6.3 8.03,-10.92 11.96,-7.44 z"
       transform="translate(-31.16,-20.14)"
       fill="#7e5659"
       id="path355" />
    <path
       d="m 316.33,766.5 0.12,-9.39 c 0,0 -13.51,3.89 -24.45,-0.51 0,0 0.92,9.44 -0.6,10.73 -1.52,1.29 5.06,13.44 5.06,13.44 l 7.35,7.7 12.64,-4.6 3.43,-10.8 c 0,0 -2.65,-6.57 -3.55,-6.57 z"
       transform="translate(-31.16,-20.14)"
       fill="#d39999"
       id="path357" />
    <path
       d="m 316.33,766.5 0.12,-9.39 c 0,0 -13.51,3.89 -24.45,-0.51 0,0 0.92,9.44 -0.6,10.73 -1.52,1.29 5.06,13.44 5.06,13.44 l 7.35,7.7 12.64,-4.6 3.43,-10.8 c 0,0 -2.65,-6.57 -3.55,-6.57 z"
       transform="translate(-31.16,-20.14)"
       opacity="0.1"
       id="path359" />
    <path
       d="m 290.57,763.1 c 0,0 7.18,0.83 6.27,10 -0.91,9.17 0.38,0 0.38,0 0,0 7.63,3.09 10.35,7.4 2.72,4.31 7.63,-3.85 8,-6.19 0.37,-2.34 3.43,-3.31 3.43,-3.31 0,0 12,22.25 9.88,28.37 -2.12,6.12 -27.88,7.53 -27.88,7.53 0,0 -4.69,-2.64 -15.49,5.59 -10.8,8.23 -33.23,2 -33.23,2 0,0 -18.28,-7.63 -7.17,-16 11.11,-8.37 18.65,-7.1 18.65,-7.1 l 16.54,-15.94 c 0,0 2.19,-12.81 10.27,-12.35 z"
       transform="translate(-31.16,-20.14)"
       fill="#7e5659"
       id="path361" />
    <path
       d="m 376.32,237.09 c 4.57,2.77 7.82,7.27 12.15,10.4 6.16,4.45 14.43,6.11 19.17,12.05 4,5.06 4.52,12.13 3.44,18.51 -1.08,6.38 -3.5,12.47 -4.67,18.83 -1.17,6.36 -0.93,13.41 2.85,18.65 a 4.23,4.23 0 0 0 1.83,1.61 6,6 0 0 0 2.79,0 c 6.46,-0.78 12.66,3.84 15.56,9.67 2.9,5.83 3.13,12.61 2.83,19.11 -0.25,5.33 -0.85,10.77 -3.19,15.57 -4,8.16 -12.32,13.2 -20.53,17.06 a 159,159 0 0 1 -16.39,6.62 c -3.84,1.3 -7.89,2.47 -11.88,1.79 -6.83,-1.18 -11.67,-7.39 -18.15,-9.82 -5.31,-2 -11.2,-1.28 -16.85,-0.78 -4.82,0.42 -10.33,0.41 -13.65,-3.11 -4.26,-4.52 -2.34,-11.81 -0.16,-17.63 a 12.55,12.55 0 0 1 -8.88,-20.52 c 2.06,-2.51 5.35,-5.44 3.74,-8.27 a 5.48,5.48 0 0 0 -2.16,-1.88 c -6.51,-3.72 -15.48,-5.21 -18.22,-12.19 -1.76,-4.49 -0.06,-9.57 2.17,-13.84 2.23,-4.27 5,-8.45 5.61,-13.23 0.8,-6.76 -3,-13.71 -1.07,-20.23 a 20.28,20.28 0 0 1 4.69,-7.46 64.36,64.36 0 0 1 21,-15.39 c 7.89,-3.61 15.8,-4.42 24.14,-6.18 5,-1.06 9.14,-2.18 13.83,0.66 z"
       transform="translate(-31.16,-20.14)"
       fill="#865a61"
       id="path363" />
    <path
       d="m 332.21,337.76 c 0,0 -19.13,-1 -22.75,15.31 -3.62,16.31 7.85,39.67 7.85,39.67 z"
       transform="translate(-31.16,-20.14)"
       fill="#fdc2cc"
       id="path365" />
    <path
       d="m 332.21,337.76 c 0,0 -19.13,-1 -22.75,15.31 -3.62,16.31 7.85,39.67 7.85,39.67 z"
       transform="translate(-31.16,-20.14)"
       opacity="0.05"
       id="path367" />
    <path
       d="m 320,386.3 7.25,5.74 33.83,1.51 21.12,-14.5 21.48,-36.86 c -13.13,-3.35 -18.44,-12.42 -20.42,-20.9 a 45.76,45.76 0 0 1 -0.42,-17.46 c 0,0 -34.44,-17.83 -30.21,10 a 37.8,37.8 0 0 1 0.32,10.34 c -2,16.3 -17.82,13.23 -17.82,13.23 l -6.07,9.36 -6.95,23 z"
       transform="translate(-31.16,-20.14)"
       fill="#fdc2cc"
       id="path369" />
    <path
       d="m 352.66,313.79 a 37.8,37.8 0 0 1 0.32,10.34 30.53,30.53 0 0 0 30.31,-2.84 45.76,45.76 0 0 1 -0.42,-17.46 c 0,0 -34.44,-17.83 -30.21,9.96 z"
       transform="translate(-31.16,-20.14)"
       opacity="0.1"
       id="path371" />
    <circle
       cx="334.51001"
       cy="275.03"
       r="30.51"
       fill="#fdc2cc"
       id="circle373" />
    <path
       d="m 344.09,380.48 c 0.74,0 1.47,0.11 2.2,0.18 4,0.4 20.71,1.3 30.23,-10.07 10.65,-12.72 24.83,-28.43 25.41,-29.07 l 14.43,4.36 c 0,0 -11.42,-4.06 -19,17.18 a 22,22 0 0 0 7.43,25.31 22.86,22.86 0 0 0 9.44,4 0.05,0.05 0 0 1 0,0.05 v 9.32 0 l -5.9,26 a 45.07,45.07 0 0 0 0.56,22.25 l 9,31.81 c -1.36,0.94 -57.2,38.92 -94.5,12.69 0,0 0,0 0,0 0.14,-1.14 4.75,-38.47 1.55,-56.74 a 126.16,126.16 0 0 1 -1.67,-14.12 c 0,-0.12 0,-0.23 0,-0.35 a 15.92,15.92 0 0 0 -5.47,-10.8 c -3.36,-3 -7.91,-11 -3.41,-32.14 a 77.66,77.66 0 0 1 5,-15.23 l 12.51,-28.27 c 0,0 0,0 0,0 l 11.53,0.23 a 0.04,0 -90 0 0 0,0.08 c -1,1.24 -14.37,17.94 -15.82,28.7 -1.42,10.23 -3.17,13.37 16.48,14.63 z"
       transform="translate(-31.16,-20.14)"
       fill="#b32f26"
       id="path375" />
    <path
       d="m 426.07,350.85 c 0,0 11.28,9.67 15.71,31.62 4.43,21.95 14.3,58.41 14.3,58.41 0,0 4,15.91 -9.67,31.62 -13.67,15.71 -22.76,28 -22.76,28 l -9,13.26 a 11.29,11.29 0 0 1 -6.48,4.58 c -4.1,1.08 -10.4,1.86 -15.86,-1.13 a 9.24,9.24 0 0 1 -4,-11.67 l 2,-4.63 c 0,0 -18.53,11.68 -20.14,5.23 -1.61,-6.45 21.55,-12.89 21.55,-12.89 0,0 19.13,-3.22 23,-12.28 0,0 20.54,-26.39 18.93,-35.45 l -19.84,-53.17 c 0,0 -24.81,-3.28 -16.35,-31.15 8.46,-27.87 28.61,-10.35 28.61,-10.35 z"
       transform="translate(-31.16,-20.14)"
       fill="#fdc2cc"
       id="path377" />
    <path
       d="m 307.44,551.45 c 0,0 45.32,9.06 56,7.85 l 1.15,3.83 c 0,0 17.2,3.85 56.09,-2.32 q 3.81,-0.6 7.91,-1.35 l 0.91,-0.16 c 0,0 0.53,-2.88 0.95,-7.79 0.93,-11.15 1.26,-32.74 -6.59,-54.84 l -6.54,-20.14 c 0,0 -40.42,24.23 -67.18,22 -2.39,-0.2 -4.76,-0.39 -7.15,-0.47 -5.49,-0.21 -14,0 -19.53,-4.43 l -11.6,2 v 33 a 39.54,39.54 0 0 1 -2.62,14.12 c -0.25,0.66 -0.51,1.31 -0.8,2 a 10.5,10.5 0 0 0 -1,6.7 z"
       transform="translate(-31.16,-20.14)"
       fill="#65617d"
       id="path379" />
    <path
       d="m 364.58,552.86 v 10.27 c 0,0 19.8,4.43 64.91,-3.83 0,0 0.53,-2.88 0.95,-7.79 -13.84,2.22 -52.01,7.56 -65.86,1.35 z"
       transform="translate(-31.16,-20.14)"
       opacity="0.1"
       id="path381" />
    <path
       d="m 307.44,551.45 c 0,0 45.32,9.06 56,7.85 l 1.15,3.83 v -10.27 c -5.16,2.14 -42,-6.74 -55.35,-10.07 -0.25,0.66 -0.51,1.31 -0.8,2 a 10.5,10.5 0 0 0 -1,6.66 z"
       transform="translate(-31.16,-20.14)"
       opacity="0.1"
       id="path383" />
    <path
       d="m 417.31,540 3.36,20.84 q 3.81,-0.6 7.91,-1.35 c -1.05,-6.09 -3.34,-20 -2.71,-22.31 l -4.23,-3.62 z"
       transform="translate(-31.16,-20.14)"
       fill="#65617d"
       id="path385" />
    <path
       d="m 417.78,539.55 3.36,20.85 q 3.81,-0.61 7.91,-1.35 c -1.05,-6.09 -3.34,-20 -2.71,-22.31 l -4.23,-3.63 z"
       transform="translate(-31.16,-20.14)"
       opacity="0.1"
       id="path387" />
    <g
       opacity="0.05"
       id="g395">
      <path
         d="m 347.71,498.52 c -2.38,-0.2 -4.76,-0.39 -7.15,-0.47 -5.34,-0.2 -13.49,0 -19.05,-4.09 l 1.94,-0.34 c 5.56,4.41 14,4.22 19.53,4.43 2.39,0.08 4.76,0.27 7.15,0.47 0.78,0.07 1.58,0.11 2.39,0.13 a 44.87,44.87 0 0 1 -4.81,-0.13 z"
         transform="translate(-31.16,-20.14)"
         id="path389" />
      <path
         d="m 418.25,560.81 q 3.81,-0.6 7.91,-1.34 l 0.92,-0.17 c 0,0 0.53,-2.88 0.94,-7.79 0.94,-11.15 1.27,-32.74 -6.59,-54.84 l -6.16,-19 c 1.31,-0.74 2,-1.17 2,-1.17 l 6.54,20.14 c 7.85,22.1 7.52,43.69 6.59,54.84 -0.42,4.91 -0.95,7.79 -0.95,7.79 l -0.91,0.17 q -4.09,0.74 -7.91,1.34 c -18.17,2.88 -31.59,3.58 -40.75,3.5 a 257,257 0 0 0 38.37,-3.47 z"
         transform="translate(-31.16,-20.14)"
         id="path391" />
      <path
         d="m 361,559.3 v 0.11 h -1.3 q 0.74,-0.05 1.3,-0.11 z"
         transform="translate(-31.16,-20.14)"
         id="path393" />
    </g>
    <ellipse
       cx="391.78"
       cy="520.22998"
       rx="1.71"
       ry="3.52"
       fill="#d39999"
       id="ellipse397" />
    <path
       d="m 313.8,469.09 c 2.76,-20.5 7.63,-32.68 10.2,-37.45 0.1,0.65 0.36,2.76 0.48,3.41 0.52,3 0.06,6.78 0.22,10.59 l -2.56,46.36 3.43,14.5 c 3.22,11.48 -8.71,2.41 -8.71,2.41 -2.47,5.44 -7,4.84 -7,4.84 l -0.62,-8.32 a 71.86,71.86 0 0 1 2.08,-23.33 111.18,111.18 0 0 0 2.48,-13.01 z"
       transform="translate(-31.16,-20.14)"
       fill="#fdc2cc"
       id="path399" />
    <path
       d="m 313.8,469.09 c 2.76,-20.5 7.63,-32.68 10.2,-37.45 0.1,0.65 0.36,2.76 0.48,3.41 0.52,3 0.06,6.78 0.22,10.59 l -2.56,46.36 3.43,14.5 c 3.22,11.48 -8.71,2.41 -8.71,2.41 -2.47,5.44 -7,4.84 -7,4.84 l -0.62,-8.32 a 71.86,71.86 0 0 1 2.08,-23.33 111.18,111.18 0 0 0 2.48,-13.01 z"
       transform="translate(-31.16,-20.14)"
       opacity="0.05"
       id="path401" />
    <path
       d="m 428.58,494.1 c -2.17,2.81 -3.36,4.42 -3.36,4.42 l -9,13.25 a 11.24,11.24 0 0 1 -6.48,4.58 c -4.1,1.08 -10.4,1.87 -15.86,-1.13 a 9.22,9.22 0 0 1 -4,-11.66 l 2,-4.64 c 0,0 -18.53,11.68 -20.14,5.24 -1.61,-6.44 21.55,-12.89 21.55,-12.89 0,0 19.13,-3.22 23,-12.29 0,0 1.67,-2.14 4,-5.42"
       transform="translate(-31.16,-20.14)"
       fill="#fdc2cc"
       id="path403" />
    <path
       d="m 417.31,516.31 c 0,0 -21.91,-2.13 -28.85,-14.66 L 385.28,512 c 0,0 23,15.88 28.25,13.82 z"
       transform="translate(-31.16,-20.14)"
       fill="#65617d"
       id="path405" />
    <path
       d="m 416.53,516.21 c 0,0 -21.9,-2.13 -28.85,-14.67 l -3.17,10.32 c 0,0 23,15.88 28.24,13.82 z"
       transform="translate(-31.16,-20.14)"
       opacity="0.1"
       id="path407" />
    <path
       d="m 317.58,510.46 c 0,0 -7.67,2.72 -9.18,1.21 l 3.45,6.35 6.52,-5 z"
       transform="translate(-31.16,-20.14)"
       fill="#65617d"
       id="path409" />
    <path
       d="m 317.58,510.46 c 0,0 -7.67,2.72 -9.18,1.21 l 3.45,6.35 6.52,-5 z"
       transform="translate(-31.16,-20.14)"
       opacity="0.1"
       id="path411" />
    <polygon
       points="333.42,519.47 330.27,533.04 333.42,532.72 "
       opacity="0.1"
       id="polygon413" />
    <path
       d="m 395.65,279.06 c -1.85,2.6 -5.06,3.92 -8.22,4.33 -3.16,0.41 -6.36,0.06 -9.55,0 -5,-0.08 -10.32,0.69 -14.41,3.63 -2.61,1.87 -4.57,4.5 -6.61,7 -6.18,7.55 -14.76,14.62 -24.5,13.83 a 6.35,6.35 0 0 1 -4.55,-1.92 7.3,7.3 0 0 1 -1.16,-4.14 94.64,94.64 0 0 1 0.59,-18.66 39.34,39.34 0 0 1 2.82,-11.13 38,38 0 0 1 6.78,-9.68 41.47,41.47 0 0 1 11.83,-9.48 21.22,21.22 0 0 1 14.8,-1.91 c 5.83,1.59 10.37,6.15 15.93,8.5 6.35,2.67 23.21,9.8 16.25,19.63 z"
       transform="translate(-31.16,-20.14)"
       opacity="0.1"
       id="path415" />
    <path
       d="m 395.65,277.85 c -1.85,2.6 -5.06,3.92 -8.22,4.33 -3.16,0.41 -6.36,0.06 -9.55,0 -5,-0.09 -10.32,0.68 -14.41,3.62 -2.61,1.87 -4.57,4.5 -6.61,7 -6.18,7.55 -14.76,14.62 -24.5,13.83 a 6.31,6.31 0 0 1 -4.55,-1.92 7.27,7.27 0 0 1 -1.16,-4.14 94.64,94.64 0 0 1 0.59,-18.66 39.34,39.34 0 0 1 2.82,-11.13 37.74,37.74 0 0 1 6.78,-9.67 41.33,41.33 0 0 1 11.83,-9.49 21.22,21.22 0 0 1 14.8,-1.91 c 5.83,1.59 10.37,6.15 15.93,8.5 6.35,2.68 23.21,9.79 16.25,19.64 z"
       transform="translate(-31.16,-20.14)"
       fill="#865a61"
       id="path417" />
    <polygon
       points="292.22,477.12 291.4,473.63 292.3,473.47 "
       fill="#fdc2cc"
       id="polygon419" />
    <polygon
       points="292.22,477.12 291.4,473.63 292.3,473.47 "
       opacity="0.05"
       id="polygon421" />
    <g
       opacity="0.05"
       id="g425">
      <path
         d="m 400.58,359.29 c -8.47,27.87 16.22,31.14 16.22,31.14 l 19.84,53.17 c 1.61,9.06 -18.94,35.45 -18.94,35.45 -1.43,3.38 -5,5.95 -8.9,7.85 a 13.94,13.94 0 0 0 5.28,-5.8 c 0,0 20.54,-26.38 18.93,-35.44 l -19.84,-53.18 c 0,0 -24.68,-3.27 -16.22,-31.14 2.83,-9.31 7,-13.55 11.22,-15.07 -2.91,2.34 -5.58,6.39 -7.59,13.02 z"
         transform="translate(-31.16,-20.14)"
         id="path423" />
    </g>
    <g
       opacity="0.1"
       id="g437">
      <path
         d="m 401,384.61 a 20.84,20.84 0 0 0 4,3.79 22.73,22.73 0 0 0 9.44,4 c 0,0 0,0 0,0.05 v 1 a 22.66,22.66 0 0 1 -8.56,-3.79 20.75,20.75 0 0 1 -4.88,-5.05 z"
         transform="translate(-31.16,-20.14)"
         id="path427" />
      <path
         d="m 324.28,424.48 c 0,0.11 0,0.23 0,0.35 A 129.15,129.15 0 0 0 326,439 c 3,17.24 -0.93,51.47 -1.49,56.2 -0.32,-0.21 -0.64,-0.41 -1,-0.64 0.15,-1.14 4.76,-38.47 1.56,-56.73 a 126.72,126.72 0 0 1 -1.67,-14.12 c 0,-0.12 0,-0.24 0,-0.35 a 15.43,15.43 0 0 0 -2.69,-7.65 15.55,15.55 0 0 1 3.57,8.77 z"
         transform="translate(-31.16,-20.14)"
         id="path429" />
      <path
         d="m 342.69,338.2 -9.78,-0.19 a 0.05,0.05 0 0 0 -0.05,0 l -12.5,28.26 a 77.91,77.91 0 0 0 -5,15.23 c -3.64,17.1 -1.35,25.62 1.43,29.83 -3.13,-3.69 -6.36,-12.1 -2.33,-31 a 77.09,77.09 0 0 1 4.95,-15.24 L 332,336.83 c 0,0 0,0 0,0 l 11.53,0.23 a 0.035,0 -90 0 0 0,0.07 c -0.09,0.12 -0.4,0.5 -0.84,1.07 z"
         transform="translate(-31.16,-20.14)"
         id="path431" />
      <path
         d="m 416.39,345.87 0.17,0.05 z"
         transform="translate(-31.16,-20.14)"
         id="path433" />
      <path
         d="m 412.8,345.71 -9.8,-2.95 a 0.025,0 0 0 0 -0.05,0 c -0.58,0.64 -14.75,16.35 -25.4,29.07 -9.52,11.37 -26.21,10.48 -30.23,10.08 -0.73,-0.08 -1.47,-0.14 -2.2,-0.19 -10.93,-0.7 -15.23,-2 -16.67,-4.76 2.05,2 6.56,3 15.76,3.56 0.74,0 1.47,0.11 2.2,0.18 4,0.4 20.71,1.29 30.23,-10.07 10.65,-12.73 24.83,-28.44 25.41,-29.08 v 0 l 14.26,4.32 a 8.91,8.91 0 0 0 -3.51,-0.16 z"
         transform="translate(-31.16,-20.14)"
         id="path435" />
    </g>
    <path
       d="m 296.77,777.63 c 0,0 -13.8,3.77 -16.47,-2.15"
       transform="translate(-31.16,-20.14)"
       opacity="0.1"
       id="path439" />
    <path
       d="m 384.38,774.8 c 0,0 -16,4.13 -19.7,-2.26"
       transform="translate(-31.16,-20.14)"
       opacity="0.1"
       id="path441" />
    <path
       d="m 615.1,765.85 c 0.23,-2 0.56,-4 0.92,-6 1.58,-8.64 -0.83,-16.88 -2,-20.28 v 0 c -0.37,-1.05 -0.64,-1.64 -0.64,-1.64 -6.37,-1.74 -31.48,17.74 -40.63,25.08 -3.17,0 -6.61,0.14 -10.37,0.39 -1.64,0.12 -3.28,0.16 -4.92,0.13 -1.47,0 -3.56,0 -6,0 -8.49,-6.84 -34.77,-27.41 -41.31,-25.63 0,0 -0.27,0.59 -0.64,1.64 v 0 c -1.22,3.4 -3.63,11.64 -2.05,20.28 0.36,2 0.69,4 0.92,6 0.49,4.39 2.33,12.82 9,18.51 1.43,10.4 6.78,24.07 10.9,32.37 a 23.18,23.18 0 0 0 1.4,4.57 c -1.7,6.56 -3.66,15.12 -3.1,18 0,0 -8.88,-2.15 -9.78,8.54 0,0.1 0,0.22 0,0.33 -3.21,1.47 -7.22,4.84 -2.71,11.9 a 4.63,4.63 0 0 0 2.32,1.89 c 0.8,0.28 1.58,0.28 1.5,-0.84 l 5.55,6.25 c 0,0 10.06,1.16 10.18,-4.68 l 0.59,0.09 c 1.35,0.2 2.76,0.37 4.21,0.52 l 0.7,2.31 c 0,0 -7.55,-0.16 -5.49,4.49 0,0 1.9,1.76 2.55,1.12 0,0 -1,3.05 2.94,3.05 0,0 4.23,2.24 5.88,0.64 1.65,-1.6 5.07,-4 5.39,-5 0.09,-0.27 0.13,-2.64 0.15,-5.92 h 0.65 c 8.43,0.2 17.38,-0.07 25.52,-0.51 h 0.66 c 0,3.55 0.05,6.17 0.14,6.45 0.33,1 3.76,3.37 5.4,5 1.64,1.63 5.87,-0.64 5.87,-0.64 3.92,0 2.94,-3.05 2.94,-3.05 0.66,0.64 2.56,-1.12 2.56,-1.12 2.06,-4.65 -5.5,-4.49 -5.5,-4.49 l 0.9,-3 4.17,-0.35 0.66,-0.06 c -0.4,6.35 10.17,5.13 10.17,5.13 l 5.56,-6.25 c -0.09,1.12 0.69,1.12 1.49,0.84 A 4.59,4.59 0 0 0 614,860 c 6.81,-10.65 -5.77,-12.91 -5.77,-12.91 a 6.17,6.17 0 0 0 -1.19,-0.19 c 0,-0.18 0,-0.37 0.05,-0.55 v 0 a 21.94,21.94 0 0 0 0.08,-4.22 c -0.47,-1.93 -3.57,-5 -7.49,-5.45 -2.56,-0.32 -2.61,-12.08 -2.35,-20.23 a 23.27,23.27 0 0 0 0.4,-4.64 24.48,24.48 0 0 0 -1,-7.43 c 5,-8.48 9,-17.37 9.45,-20 6.59,-5.74 8.43,-14.14 8.92,-18.53 z"
       transform="translate(-31.16,-20.14)"
       fill="url(#9b8149d4-8e0d-43dc-bd85-6bf0bb4ef8aa)"
       id="path443"
       style="fill:url(#9b8149d4-8e0d-43dc-bd85-6bf0bb4ef8aa)" />
    <path
       d="m 605.42,846.9 v 0 c -0.4,5.54 -1.47,14.43 -1.47,14.43 0,0 -4.45,0.54 -11.33,1.16 l -4.67,0.4 c -3.58,0.29 -7.6,0.57 -11.85,0.81 -7.85,0.43 -16.47,0.7 -24.6,0.5 -4.06,-0.09 -8,-0.3 -11.65,-0.66 -1.63,-0.16 -3.21,-0.35 -4.71,-0.57 -9.32,-1.39 -16,-4.05 -16.57,-8.72 a 27,27 0 0 1 -0.21,-6 c 0.87,-10.5 9.42,-8.38 9.42,-8.38 -0.55,-2.9 1.52,-11.91 3.2,-18.43 1.06,-4.11 2,-7.23 2,-7.23 l 60.12,-4 h 0.2 a 2.94,2.94 0 0 1 2.94,3.09 c -0.36,7.21 -0.87,23.72 2.08,24.09 3.78,0.47 6.77,3.46 7.23,5.35 a 22.44,22.44 0 0 1 -0.13,4.16 z"
       transform="translate(-31.16,-20.14)"
       fill="#b32f26"
       id="path445" />
    <path
       d="m 554.36,767.76 c 0,0 -22.67,27.29 -33.59,19.73 -0.26,-0.18 -0.51,-0.36 -0.75,-0.55 -7.34,-5.56 -9.27,-14.52 -9.78,-19.07 -0.22,-2 -0.54,-3.93 -0.89,-5.88 -1.51,-8.49 0.8,-16.57 2,-19.91 v 0 c 0.36,-1 0.61,-1.61 0.61,-1.61 7.55,-2.1 42.4,27.29 42.4,27.29 z"
       transform="translate(-31.16,-20.14)"
       fill="#b32f26"
       id="path447" />
    <path
       d="m 542.18,770.28 c 0,0 -7.14,5 -17.21,13.22 a 36.36,36.36 0 0 1 -5,3.44 c -7.34,-5.56 -9.27,-14.52 -9.78,-19.07 -0.22,-2 -0.54,-3.93 -0.89,-5.88 -1.51,-8.49 0.8,-16.57 2,-19.91 v 0 c 14.12,0.98 30.88,28.2 30.88,28.2 z"
       transform="translate(-31.16,-20.14)"
       fill="#b32f26"
       id="path449" />
    <path
       d="m 542.18,770.28 c 0,0 -7.14,5 -17.21,13.22 a 36.36,36.36 0 0 1 -5,3.44 c -7.34,-5.56 -9.27,-14.52 -9.78,-19.07 -0.22,-2 -0.54,-3.93 -0.89,-5.88 -1.51,-8.49 0.8,-16.57 2,-19.91 v 0 c 14.12,0.98 30.88,28.2 30.88,28.2 z"
       transform="translate(-31.16,-20.14)"
       fill="#ffffff"
       opacity="0.5"
       id="path451" />
    <path
       d="m 534.41,767.59 c 0,0 -3.81,2.69 -9.19,7.06 a 19.35,19.35 0 0 1 -2.64,1.83 c -3.91,-3 -5,-7.75 -5.22,-10.17 -0.11,-1.06 -0.28,-2.1 -0.47,-3.15 A 21.86,21.86 0 0 1 518,752.54 v 0 c 7.47,0.52 16.41,15.05 16.41,15.05 z"
       transform="translate(-31.16,-20.14)"
       opacity="0.1"
       id="path453" />
    <path
       d="m 569.05,767.76 c 0,0 22.67,27.29 33.59,19.73 0.25,-0.18 0.51,-0.36 0.75,-0.55 7.34,-5.56 9.27,-14.52 9.78,-19.07 0.22,-2 0.54,-3.93 0.88,-5.88 1.52,-8.49 -0.8,-16.57 -2,-19.91 v 0 c -0.36,-1 -0.62,-1.61 -0.62,-1.61 -7.53,-2.1 -42.38,27.29 -42.38,27.29 z"
       transform="translate(-31.16,-20.14)"
       fill="#b32f26"
       id="path455" />
    <path
       d="m 581.22,770.28 c 0,0 7.15,5 17.22,13.22 a 36.36,36.36 0 0 0 4.95,3.44 c 7.34,-5.56 9.27,-14.52 9.78,-19.07 0.22,-2 0.54,-3.93 0.88,-5.88 1.52,-8.49 -0.8,-16.57 -2,-19.91 v 0 c -14.05,0.98 -30.83,28.2 -30.83,28.2 z"
       transform="translate(-31.16,-20.14)"
       fill="#b32f26"
       id="path457" />
    <path
       d="m 581.22,770.28 c 0,0 7.15,5 17.22,13.22 a 36.36,36.36 0 0 0 4.95,3.44 c 7.34,-5.56 9.27,-14.52 9.78,-19.07 0.22,-2 0.54,-3.93 0.88,-5.88 1.52,-8.49 -0.8,-16.57 -2,-19.91 v 0 c -14.05,0.98 -30.83,28.2 -30.83,28.2 z"
       transform="translate(-31.16,-20.14)"
       fill="#ffffff"
       opacity="0.5"
       id="path459" />
    <path
       d="m 589.05,767.57 c 0,0 3.79,2.68 9.13,7 a 18.31,18.31 0 0 0 2.63,1.82 c 3.89,-2.95 4.92,-7.7 5.19,-10.11 0.11,-1 0.28,-2.09 0.47,-3.13 a 21.9,21.9 0 0 0 -1.05,-10.56 v 0 c -7.48,0.54 -16.37,14.98 -16.37,14.98 z"
       transform="translate(-31.16,-20.14)"
       opacity="0.1"
       id="path461" />
    <path
       d="m 593.06,810.23 c -2.86,4.52 -5.9,8.6 -8.68,11.06 -9,8 -47.86,4.82 -50.38,4.41 -0.53,-0.09 -1.63,-1.66 -3,-4.21 1.06,-4.11 2,-7.23 2,-7.23 z"
       transform="translate(-31.16,-20.14)"
       opacity="0.1"
       id="path463" />
    <path
       d="m 562.3,765.47 c -1.58,0.11 -3.16,0.15 -4.75,0.12 -8.11,-0.14 -35.43,0.22 -38.46,11.25 -3.57,13 12.39,47.81 14.9,48.23 2.51,0.42 41.36,3.57 50.39,-4.41 9.03,-7.98 20.78,-33 20.15,-35.27 0,0 11.2,-23.62 -42.23,-19.92 z"
       transform="translate(-31.16,-20.14)"
       fill="#b32f26"
       id="path465" />
    <path
       d="m 561.44,786.55 c 0,0 -20,-3.08 -29.38,16.6 a 24,24 0 0 0 1.77,24.19 c 3.12,4.39 7.7,7.66 14.07,5 14.16,-5.83 13.54,-45.79 13.54,-45.79 z"
       transform="translate(-31.16,-20.14)"
       opacity="0.1"
       id="path467" />
    <path
       d="m 560.81,785.29 c 0,0 -20,-3.08 -29.38,16.6 a 24,24 0 0 0 1.77,24.19 c 3.12,4.39 7.7,7.66 14.07,5 14.16,-5.83 13.54,-45.79 13.54,-45.79 z"
       transform="translate(-31.16,-20.14)"
       opacity="0.1"
       id="path469" />
    <path
       d="m 560.81,785.92 c 0,0 -20,-3.08 -29.38,16.6 a 24,24 0 0 0 1.77,24.19 c 3.12,4.39 7.7,7.66 14.07,5 14.16,-5.83 13.54,-45.79 13.54,-45.79 z"
       transform="translate(-31.16,-20.14)"
       fill="#b32f26"
       id="path471" />
    <path
       d="m 560.81,785.92 c 0,0 -20,-3.08 -29.38,16.6 a 24,24 0 0 0 1.77,24.19 c 3.12,4.39 7.7,7.66 14.07,5 14.16,-5.83 13.54,-45.79 13.54,-45.79 z"
       transform="translate(-31.16,-20.14)"
       fill="#ffffff"
       opacity="0.5"
       id="path473" />
    <path
       d="m 539.24,803.13 c 0,0 -2.73,2.52 -1.68,3.15 1.05,0.63 1.68,-3.15 1.68,-3.15 z"
       transform="translate(-31.16,-20.14)"
       fill="#3f2b3b"
       id="path475" />
    <path
       d="m 542.18,806.35 c 0,0 -1.49,3.29 -0.43,3.65 1.06,0.36 1.69,-2.36 1.69,-2.36 z"
       transform="translate(-31.16,-20.14)"
       fill="#3f2b3b"
       id="path477" />
    <path
       d="m 535.59,811.32 c 0,0 -1.46,3.88 0,3.88 1.46,0 0,-3.88 0,-3.88 z"
       transform="translate(-31.16,-20.14)"
       fill="#3f2b3b"
       id="path479" />
    <path
       d="m 533.78,821.71 c 0,0 2.92,7.46 10.52,6.93"
       transform="translate(-31.16,-20.14)"
       fill="none"
       stroke="#3f2b3b"
       stroke-miterlimit="10"
       id="path481" />
    <path
       d="m 540.61,823.91 c 0,0 3,2.94 6.29,0.84"
       transform="translate(-31.16,-20.14)"
       fill="none"
       stroke="#3f2b3b"
       stroke-miterlimit="10"
       id="path483" />
    <path
       d="m 564,786.55 c 0,0 20,-3.08 29.38,16.6 a 24,24 0 0 1 -1.77,24.19 c -3.11,4.39 -7.7,7.66 -14.07,5 C 563.34,826.51 564,786.55 564,786.55 Z"
       transform="translate(-31.16,-20.14)"
       opacity="0.1"
       id="path485" />
    <path
       d="m 564.59,785.29 c 0,0 20,-3.08 29.38,16.6 a 24,24 0 0 1 -1.77,24.19 c -3.11,4.39 -7.7,7.66 -14.07,5 -14.13,-5.83 -13.54,-45.79 -13.54,-45.79 z"
       transform="translate(-31.16,-20.14)"
       opacity="0.1"
       id="path487" />
    <path
       d="m 564.59,785.92 c 0,0 20,-3.08 29.38,16.6 a 24,24 0 0 1 -1.77,24.19 c -3.11,4.39 -7.7,7.66 -14.07,5 -14.13,-5.83 -13.54,-45.79 -13.54,-45.79 z"
       transform="translate(-31.16,-20.14)"
       fill="#b32f26"
       id="path489" />
    <path
       d="m 564.59,785.92 c 0,0 20,-3.08 29.38,16.6 a 24,24 0 0 1 -1.77,24.19 c -3.11,4.39 -7.7,7.66 -14.07,5 -14.13,-5.83 -13.54,-45.79 -13.54,-45.79 z"
       transform="translate(-31.16,-20.14)"
       fill="#ffffff"
       opacity="0.5"
       id="path491" />
    <path
       d="m 586.16,803.13 c 0,0 2.73,2.52 1.68,3.15 -1.05,0.63 -1.68,-3.15 -1.68,-3.15 z"
       transform="translate(-31.16,-20.14)"
       fill="#3f2b3b"
       id="path493" />
    <path
       d="m 583.22,806.35 c 0,0 1.49,3.29 0.43,3.65 -1.06,0.36 -1.69,-2.36 -1.69,-2.36 z"
       transform="translate(-31.16,-20.14)"
       fill="#3f2b3b"
       id="path495" />
    <path
       d="m 589.82,811.32 c 0,0 1.45,3.88 0,3.88 -1.45,0 0,-3.88 0,-3.88 z"
       transform="translate(-31.16,-20.14)"
       fill="#3f2b3b"
       id="path497" />
    <path
       d="m 591.62,821.71 c 0,0 -2.92,7.46 -10.52,6.93"
       transform="translate(-31.16,-20.14)"
       fill="none"
       stroke="#3f2b3b"
       stroke-miterlimit="10"
       id="path499" />
    <path
       d="m 584.8,823.91 c 0,0 -3,2.94 -6.3,0.84"
       transform="translate(-31.16,-20.14)"
       fill="none"
       stroke="#3f2b3b"
       stroke-miterlimit="10"
       id="path501" />
    <path
       d="m 553.2,842.91 c 0.53,-0.1 10.5,-4.41 20.78,0 z"
       transform="translate(-31.16,-20.14)"
       fill="#3f2b3b"
       id="path503" />
    <path
       d="m 535.14,863 c -9.32,-1.39 -16,-4.05 -16.57,-8.72 a 27,27 0 0 1 -0.21,-6 13.46,13.46 0 0 1 3.56,-1.3 c 1.69,-0.47 3.78,-0.15 8.19,1.11 4.41,1.26 4.09,6.45 5,13.22 a 5.59,5.59 0 0 1 0.03,1.69 z"
       transform="translate(-31.16,-20.14)"
       opacity="0.1"
       id="path505" />
    <path
       d="m 521.29,847.63 c 0,0 -12.12,2.22 -5.56,12.68 a 4.47,4.47 0 0 0 2.24,1.85 c 0.77,0.27 1.51,0.27 1.43,-0.83 l 5.36,6.14 c 0,0 10.7,1.26 9.76,-5.51 -0.94,-6.77 -0.63,-12 -5,-13.22 -4.37,-1.22 -6.52,-1.58 -8.23,-1.11 z"
       transform="translate(-31.16,-20.14)"
       fill="#b32f26"
       id="path507" />
    <path
       d="m 524.18,854.67 c 0,0 2.57,5.87 6.14,0.94"
       transform="translate(-31.16,-20.14)"
       fill="none"
       stroke="#3f2b3b"
       stroke-miterlimit="10"
       id="path509" />
    <path
       d="m 518.28,857 c 0,0 1.33,5.56 6.37,1.42"
       transform="translate(-31.16,-20.14)"
       fill="none"
       stroke="#3f2b3b"
       stroke-miterlimit="10"
       id="path511" />
    <path
       d="m 605.42,846.9 v 0 c -0.4,5.54 -1.47,14.43 -1.47,14.43 0,0 -4.45,0.54 -11.33,1.16 a 5.81,5.81 0 0 1 0,-1.16 c 0.94,-6.77 0.63,-12 5,-13.22 4.1,-1.11 6.19,-1.52 7.8,-1.21 z"
       transform="translate(-31.16,-20.14)"
       opacity="0.1"
       id="path513" />
    <path
       d="m 606.52,847.63 c 0,0 12.13,2.22 5.57,12.68 a 4.51,4.51 0 0 1 -2.24,1.85 c -0.77,0.27 -1.52,0.27 -1.44,-0.83 l -5.35,6.14 c 0,0 -10.71,1.26 -9.76,-5.51 0.95,-6.77 0.63,-12 5,-13.22 4.37,-1.22 6.54,-1.58 8.22,-1.11 z"
       transform="translate(-31.16,-20.14)"
       fill="#b32f26"
       id="path515" />
    <path
       d="m 603.64,854.67 c 0,0 -2.58,5.87 -6.14,0.94"
       transform="translate(-31.16,-20.14)"
       fill="none"
       stroke="#3f2b3b"
       stroke-miterlimit="10"
       id="path517" />
    <path
       d="m 609.54,857 c 0,0 -1.34,5.56 -6.38,1.42"
       transform="translate(-31.16,-20.14)"
       fill="none"
       stroke="#3f2b3b"
       stroke-miterlimit="10"
       id="path519" />
    <path
       d="m 551.5,864.2 c -4.06,-0.09 -8,-0.3 -11.65,-0.66 l -3.63,-12.22 a 7.93,7.93 0 0 1 -0.33,-2.23 7.78,7.78 0 0 1 15.55,-0.05 c 0.04,4.76 0.08,10.79 0.06,15.16 z"
       transform="translate(-31.16,-20.14)"
       opacity="0.1"
       id="path521" />
    <path
       d="m 535.59,851.32 4.28,14.42 c 0,0 -7.28,-0.16 -5.29,4.41 0,0 1.83,1.73 2.46,1.1 0,0 -0.95,3 2.83,3 0,0 4.08,2.21 5.66,0.63 1.58,-1.58 4.89,-3.94 5.21,-4.88 0.2,-0.62 0.14,-12.68 0.07,-21 a 7.76,7.76 0 0 0 -7.77,-7.7 v 0 a 7.77,7.77 0 0 0 -7.45,10.02 z"
       transform="translate(-31.16,-20.14)"
       fill="#b32f26"
       id="path523" />
    <path
       d="m 541.37,869.47 c 0,0 -3.18,3 -1.5,4.77"
       transform="translate(-31.16,-20.14)"
       fill="none"
       stroke="#3f2b3b"
       stroke-miterlimit="10"
       id="path525" />
    <path
       d="m 540,867.56 c 0,0 -2.94,1 -2.94,3.69"
       transform="translate(-31.16,-20.14)"
       fill="none"
       stroke="#3f2b3b"
       stroke-miterlimit="10"
       id="path527" />
    <path
       d="m 591.71,849.09 a 7.91,7.91 0 0 1 -0.32,2.23 L 588,862.89 c -3.58,0.29 -7.6,0.57 -11.85,0.81 0,-4.32 0,-10.07 0.07,-14.66 a 7.7700402,7.7700402 0 0 1 15.54,0.05 z"
       transform="translate(-31.16,-20.14)"
       opacity="0.1"
       id="path529" />
    <path
       d="m 592,851.32 -4.28,14.42 c 0,0 7.29,-0.16 5.3,4.41 0,0 -1.83,1.73 -2.46,1.1 0,0 0.94,3 -2.84,3 0,0 -4.08,2.21 -5.66,0.63 -1.58,-1.58 -4.88,-3.94 -5.2,-4.88 -0.2,-0.62 -0.14,-12.68 -0.07,-21 a 7.76,7.76 0 0 1 7.77,-7.7 v 0 a 7.77,7.77 0 0 1 7.44,10.02 z"
       transform="translate(-31.16,-20.14)"
       fill="#b32f26"
       id="path531" />
    <path
       d="m 586.23,869.47 c 0,0 3.18,3 1.5,4.77"
       transform="translate(-31.16,-20.14)"
       fill="none"
       stroke="#3f2b3b"
       stroke-miterlimit="10"
       id="path533" />
    <path
       d="m 587.63,867.56 c 0,0 2.94,1 2.94,3.69"
       transform="translate(-31.16,-20.14)"
       fill="none"
       stroke="#3f2b3b"
       stroke-miterlimit="10"
       id="path535" />
    <path
       d="m 560.82,782.77 c 0,0 -14.81,-0.47 -15.28,11 -0.47,11.47 23.14,6.61 23.14,6.61 0,0 9.92,-1.33 8.19,-8.3 -1.73,-6.97 -5.34,-8.68 -16.05,-9.31 z"
       transform="translate(-31.16,-20.14)"
       opacity="0.1"
       id="path537" />
    <path
       d="m 560.82,781.51 c 0,0 -14.81,-0.47 -15.28,11 -0.47,11.47 23.14,6.61 23.14,6.61 0,0 9.92,-1.33 8.19,-8.3 -1.73,-6.97 -5.34,-8.68 -16.05,-9.31 z"
       transform="translate(-31.16,-20.14)"
       opacity="0.1"
       id="path539" />
    <path
       d="m 560.82,782.14 c 0,0 -14.81,-0.47 -15.28,11 -0.47,11.47 23.14,6.61 23.14,6.61 0,0 9.92,-1.33 8.19,-8.3 -1.73,-6.97 -5.34,-8.68 -16.05,-9.31 z"
       transform="translate(-31.16,-20.14)"
       fill="#3f2b3b"
       id="path541" />
    <path
       d="m 527.78,839.92 c 0,0 5,1.78 6,5.19"
       transform="translate(-31.16,-20.14)"
       opacity="0.1"
       id="path543" />
    <path
       d="m 598.28,837.4 c 0,0 -3.55,1.49 -3.3,7.71"
       transform="translate(-31.16,-20.14)"
       opacity="0.1"
       id="path545" />
    <ellipse
       cx="527.78003"
       cy="862.48999"
       rx="2.3099999"
       ry="3.8299999"
       transform="matrix(0.87,-0.5,0.5,0.87,-391.69,359.3)"
       fill="#b32f26"
       id="ellipse547" />
    <ellipse
       cx="600.25"
       cy="862.48999"
       rx="3.8299999"
       ry="2.3099999"
       transform="rotate(-60,567.22403,879.39916)"
       fill="#b32f26"
       id="ellipse549" />
    <ellipse
       cx="527.78003"
       cy="862.48999"
       rx="2.3099999"
       ry="3.8299999"
       transform="matrix(0.87,-0.5,0.5,0.87,-391.69,359.3)"
       fill="#ffffff"
       opacity="0.5"
       id="ellipse551" />
    <ellipse
       cx="600.25"
       cy="862.48999"
       rx="3.8299999"
       ry="2.3099999"
       transform="rotate(-60,567.22403,879.39916)"
       fill="#ffffff"
       opacity="0.5"
       id="ellipse553" />
    <ellipse
       cx="192.60001"
       cy="716.06"
       rx="26.93"
       ry="4.5500002"
       fill="#b32f26"
       opacity="0.1"
       id="ellipse555" />
    <ellipse
       cx="86.510002"
       cy="780.59003"
       rx="26.93"
       ry="4.5500002"
       fill="#b32f26"
       opacity="0.1"
       id="ellipse557" />
    <ellipse
       cx="58.470001"
       cy="722.85999"
       rx="40.209999"
       ry="6.8000002"
       fill="#b32f26"
       id="ellipse559" />
    <path
       d="m 73,731.88 a 11.63,11.63 0 0 1 -3.84,-5.78 c -0.49,-2.3 0.49,-5.05 2.68,-5.89 2.46,-0.94 5.09,0.76 7.08,2.48 1.99,1.72 4.28,3.69 6.89,3.33 a 10.49,10.49 0 0 1 -3.24,-9.82 4,4 0 0 1 0.9,-2 c 1.36,-1.46 3.84,-0.83 5.48,0.32 5.19,3.66 6.65,10.72 6.67,17.08 0.53,-2.3 0.09,-4.68 0.1,-7 0.01,-2.32 0.66,-5 2.64,-6.22 a 8,8 0 0 1 4,-1 c 2.34,-0.08 4.94,0.15 6.54,1.86 2,2.12 1.47,5.69 -0.26,8 -1.73,2.31 -4.35,3.8 -6.76,5.42 a 14.92,14.92 0 0 0 -4.84,4.61 4.72,4.72 0 0 0 -0.36,0.82 H 82.07 A 40.44,40.44 0 0 1 73,731.88 Z"
       transform="translate(-31.16,-20.14)"
       fill="#b32f26"
       id="path561" />
    <ellipse
       cx="1029.83"
       cy="754.12"
       rx="26.93"
       ry="4.5500002"
       fill="#b32f26"
       opacity="0.1"
       id="ellipse563" />
    <path
       d="m 1042.91,753.11 c 0,0 15.36,-0.47 20,-3.77 4.64,-3.3 23.62,-7.23 24.77,-1.94 1.15,5.29 23.09,26.29 5.74,26.43 -17.35,0.14 -40.29,-2.7 -44.91,-5.52 -4.62,-2.82 -5.6,-15.2 -5.6,-15.2 z"
       transform="translate(-31.16,-20.14)"
       fill="#a8a8a8"
       id="path565" />
    <path
       d="m 1093.72,772 c -17.34,0.14 -40.29,-2.7 -44.91,-5.52 -3.52,-2.14 -4.92,-9.83 -5.39,-13.38 h -0.51 c 0,0 1,12.39 5.59,15.2 4.59,2.81 27.57,5.66 44.91,5.52 5,0 6.74,-1.82 6.64,-4.46 -0.69,1.64 -2.6,2.64 -6.33,2.64 z"
       transform="translate(-31.16,-20.14)"
       opacity="0.2"
       id="path567" />
  </g>
</svg>
