<?xml version="1.0" encoding="UTF-8" standalone="no"?>
<svg
   xmlns:dc="http://purl.org/dc/elements/1.1/"
   xmlns:cc="http://creativecommons.org/ns#"
   xmlns:rdf="http://www.w3.org/1999/02/22-rdf-syntax-ns#"
   xmlns:svg="http://www.w3.org/2000/svg"
   xmlns="http://www.w3.org/2000/svg"
   xmlns:sodipodi="http://sodipodi.sourceforge.net/DTD/sodipodi-0.dtd"
   xmlns:inkscape="http://www.inkscape.org/namespaces/inkscape"
   id="b1a9ffcb-883a-40c3-a838-c4c452e3657e"
   data-name="Layer 1"
   width="250"
   height="160.61185"
   viewBox="0 0 250 160.61184"
   version="1.1"
   sodipodi:docname="your-course-here-illustration.svg"
   inkscape:version="1.0.1 (3bc2e813f5, 2020-09-07, custom)">
  <metadata
     id="metadata87">
    <rdf:RDF>
      <cc:Work
         rdf:about="">
        <dc:format>image/svg+xml</dc:format>
        <dc:type
           rdf:resource="http://purl.org/dc/dcmitype/StillImage" />
      </cc:Work>
    </rdf:RDF>
  </metadata>
  <defs
     id="defs85" />
  <sodipodi:namedview
     pagecolor="#ffffff"
     bordercolor="#666666"
     borderopacity="1"
     objecttolerance="10"
     gridtolerance="10"
     guidetolerance="10"
     inkscape:pageopacity="0"
     inkscape:pageshadow="2"
     inkscape:window-width="1920"
     inkscape:window-height="1058"
     id="namedview83"
     showgrid="false"
     inkscape:zoom="1.5588798"
     inkscape:cx="13.148231"
     inkscape:cy="100.90537"
     inkscape:window-x="0"
     inkscape:window-y="22"
     inkscape:window-maximized="0"
     inkscape:current-layer="b1a9ffcb-883a-40c3-a838-c4c452e3657e"
     inkscape:document-rotation="0" />
  <g
     id="g952"
     transform="scale(0.47801147)">
    <circle
       cx="766.34967"
       cy="561.77557"
       r="43.067322"
       transform="rotate(-45,256.69556,829.3812)"
       fill="#2f2e41"
       id="circle2" />
    <circle
       cx="762.92871"
       cy="551.36578"
       r="14.71924"
       transform="rotate(-12.48125,-695.73249,1958.1166)"
       fill="#ffffff"
       id="circle4" />
    <circle
       cx="756.96631"
       cy="547.56451"
       r="4.9064298"
       transform="rotate(-12.48125,-701.69507,1954.3154)"
       fill="#3f3d56"
       id="circle6" />
    <path
       d="m 764.64834,532.6599 c -17.61323,-0.0325 -29.97775,-3.17854 -29.94827,-19.13582 0.0295,-15.95728 14.33174,-28.86688 31.945,-28.83431 17.61326,0.0326 31.86768,12.99488 31.8382,28.95216 -0.0295,15.95736 -16.22171,19.05048 -33.83493,19.01797 z"
       transform="translate(-338.5,-282)"
       fill="#b32f26"
       id="path8" />
    <path
       d="m 833.85155,568.97444 c -5.05211,17.52641 -19.80364,29.79509 -35.19135,40.21716 q -3.22281,2.18327 -6.44766,4.266 c -0.0146,0.006 -0.0296,0.02 -0.0443,0.0265 -0.10343,0.0664 -0.20707,0.133 -0.30344,0.19991 -0.44372,0.286 -0.88759,0.57222 -1.32762,0.855 l 0.24171,0.10858 c 0,0 0.23735,0.12621 -0.0223,0.0202 -0.0773,-0.0323 -0.15825,-0.0614 -0.23537,-0.0939 -8.93929,-3.60536 -18.03735,-7.4764 -24.888,-14.23042 -7.1065,-7.0136 -11.25952,-18.01413 -7.41141,-27.228 a 17.5918,17.5918 0 0 1 1.90481,-3.41886 c 0.31214,-0.44666 0.64831,-0.87416 0.99832,-1.29373 a 18.85591,18.85591 0 0 1 32.3856,5.72979 c 1.1305,-10.52576 -7.54879,-19.34265 -15.90135,-25.84822 -8.35623,-6.50228 -17.85125,-13.58341 -19.46674,-24.05074 -0.90215,-5.82388 1.12306,-11.46778 4.81224,-15.99852 0.11421,-0.13766 0.22827,-0.27514 0.3459,-0.409 a 27.51849,27.51849 0 0 1 17.68718,-9.48885 c 12.81321,-1.33167 25.25927,5.4506 34.56779,14.35941 14.98203,14.33369 24.03931,36.35019 18.29604,56.27763 z"
       transform="translate(-338.5,-282)"
       fill="#e6e6e6"
       id="path10" />
    <path
       d="m 809.76735,546.05008 a 46.77965,46.77965 0 0 1 5.60443,12.36093 40.61967,40.61967 0 0 1 1.404,11.9968 52.04376,52.04376 0 0 1 -6.81624,23.68461 74.9024,74.9024 0 0 1 -11.29934,15.09918 q -3.22281,2.18327 -6.44766,4.266 c -0.0146,0.006 -0.0296,0.02 -0.0443,0.0265 -0.10343,0.0664 -0.20707,0.133 -0.30344,0.19991 -0.44372,0.286 -0.88759,0.57222 -1.32762,0.855 0,0 0.47906,0.23479 0.21938,0.12882 -0.0773,-0.0323 -0.15825,-0.0614 -0.23537,-0.0939 a 41.40487,41.40487 0 0 0 -13.249,-35.6508 41.75957,41.75957 0 0 0 -17.14558,-9.22645 c 0.31214,-0.44666 0.64831,-0.87416 0.99832,-1.29373 a 43.296,43.296 0 0 1 7.14664,2.70436 42.424,42.424 0 0 1 19.18179,18.49347 43.37384,43.37384 0 0 1 4.72253,23.80133 c 0.36729,-0.33284 0.735,-0.67291 1.09167,-1.00976 6.7929,-6.33309 12.82634,-13.60244 16.90958,-21.99189 A 48.41647,48.41647 0 0 0 815.247,567.493 c -0.33324,-8.65329 -3.781,-16.66846 -8.77294,-23.64614 a 101.34553,101.34553 0 0 0 -19.21051,-19.79842 115.15792,115.15792 0 0 0 -23.89219,-14.75057 0.828,0.828 0 0 1 -0.41667,-1.06262 0.7042,0.7042 0 0 1 0.3459,-0.409 0.61308,0.61308 0 0 1 0.53243,0.0226 c 1.0539,0.48518 2.10048,0.977 3.13867,1.49007 a 116.46492,116.46492 0 0 1 24.06247,15.87266 c 7.08278,6.03854 13.75084,12.93755 18.73319,20.83849 z"
       transform="translate(-338.5,-282)"
       fill="#ffffff"
       id="path12" />
    <ellipse
       cx="73.714012"
       cy="331.4603"
       rx="10.90314"
       ry="4.0886798"
       fill="#2f2e41"
       id="ellipse14" />
    <ellipse
       cx="99.881493"
       cy="330.91516"
       rx="10.90314"
       ry="4.0886798"
       fill="#2f2e41"
       id="ellipse16" />
    <ellipse
       cx="469.74365"
       cy="542.42432"
       rx="21.533689"
       ry="6.7600698"
       transform="rotate(-29.96257,-226.41383,1033.9003)"
       fill="#2f2e41"
       id="ellipse18" />
    <circle
       cx="420.93646"
       cy="555.94635"
       r="43.067348"
       transform="rotate(-80.78252,85.960855,613.87587)"
       fill="#2f2e41"
       id="circle20" />
    <rect
       x="62.810871"
       y="307.746"
       width="13.08374"
       height="23.44171"
       fill="#2f2e41"
       id="rect22" />
    <rect
       x="88.978348"
       y="307.746"
       width="13.08374"
       height="23.44171"
       fill="#2f2e41"
       id="rect24" />
    <circle
       cx="83.52681"
       cy="263.04321"
       r="14.71922"
       fill="#ffffff"
       id="circle26" />
    <circle
       cx="83.52681"
       cy="263.04321"
       r="4.9064202"
       fill="#3f3d56"
       id="circle28" />
    <path
       d="m 379.15975,515.89493 c -3.47748,-15.57379 7.63867,-31.31046 24.82861,-35.14884 17.18994,-3.83838 33.94421,5.67508 37.42169,21.24887 3.47748,15.57379 -7.91491,21.31766 -25.10486,25.156 -17.18995,3.83834 -33.66796,4.31779 -37.14544,-11.25603 z"
       transform="translate(-338.5,-282)"
       fill="#e6e6e6"
       id="path30" />
    <ellipse
       cx="372.42831"
       cy="535.96289"
       rx="6.7600698"
       ry="21.53368"
       transform="rotate(-64.62574,-19.750743,662.55685)"
       fill="#2f2e41"
       id="ellipse32" />
    <path
       d="m 399.78194,571.48328 c 0,4.21514 10.85327,12.53857 22.89654,12.53857 12.04327,0 23.33515,-11.867 23.33515,-16.08209 0,-4.21509 -11.29193,0.81775 -23.33515,0.81775 -12.04322,0 -22.89654,-1.48938 -22.89654,2.72577 z"
       transform="translate(-338.5,-282)"
       fill="#ffffff"
       id="path34" />
    <ellipse
       cx="232.60883"
       cy="331.4603"
       rx="10.90314"
       ry="4.0886798"
       fill="#2f2e41"
       id="ellipse36" />
    <ellipse
       cx="206.44135"
       cy="330.91516"
       rx="10.90314"
       ry="4.0886798"
       fill="#2f2e41"
       id="ellipse38" />
    <ellipse
       cx="513.57916"
       cy="542.42432"
       rx="6.7600698"
       ry="21.533689"
       transform="rotate(-60.03743,100.29411,694.35289)"
       fill="#2f2e41"
       id="ellipse40" />
    <circle
       cx="223.88635"
       cy="273.94632"
       r="43.067341"
       fill="#2f2e41"
       id="circle42" />
    <rect
       x="230.42822"
       y="307.746"
       width="13.08374"
       height="23.44171"
       fill="#2f2e41"
       id="rect44" />
    <rect
       x="204.26074"
       y="307.746"
       width="13.08374"
       height="23.44171"
       fill="#2f2e41"
       id="rect46" />
    <circle
       cx="213.79602"
       cy="263.04321"
       r="14.71922"
       fill="#ffffff"
       id="circle48" />
    <ellipse
       cx="545.29602"
       cy="543.04321"
       rx="4.9205499"
       ry="4.8859301"
       transform="rotate(-44.97427,35.425552,810.90848)"
       fill="#3f3d56"
       id="ellipse50" />
    <path
       d="m 567.01764,527.15094 c -17.18994,-3.83832 -28.58234,-9.58219 -25.10486,-25.156 3.47748,-15.57381 20.23175,-25.08725 37.42169,-21.24887 17.18994,3.83838 28.3061,19.57505 24.82862,35.14884 -3.47748,15.57379 -19.95551,15.09435 -37.14545,11.25603 z"
       transform="translate(-338.5,-282)"
       fill="#b32f26"
       id="path52" />
    <ellipse
       cx="601.89453"
       cy="567.96295"
       rx="6.7600698"
       ry="21.53368"
       transform="rotate(-14.87459,-647.48997,1723.5077)"
       fill="#2f2e41"
       id="ellipse54" />
    <path
       d="m 552.62933,568.75815 c -7.90666,0 -15.32008,-5.03284 -15.32008,-0.81775 0,4.21509 7.41338,16.08209 15.32008,16.08209 7.9067,0 15.03213,-8.32343 15.03213,-12.53857 0,-4.21514 -7.12546,-2.72577 -15.03213,-2.72577 z"
       transform="translate(-338.5,-282)"
       fill="#ffffff"
       id="path56" />
    <path
       d="M 496.97168,484.53906 H 493.147 a 12.93742,12.93742 0 0 1 -12.92285,-12.92285 v -3.21094 c 0,-7.95312 1.50684,-14.6123 4.479,-19.79248 a 104.11414,104.11414 0 0 1 12.542,-16.85156 74.26915,74.26915 0 0 0 8.52783,-10.27881 17.29,17.29 0 0 0 2.69336,-9.5625 c 0,-7.978 -5.19776,-11.85644 -15.89063,-11.85644 a 64.52587,64.52587 0 0 0 -17.51513,2.6289 14.7451,14.7451 0 0 1 -18.79248,-14.17822 v -6.5 a 14.46343,14.46343 0 0 1 8.53222,-13.25635 78.08334,78.08334 0 0 1 31.81003,-6.25781 c 11.44434,0 21.77539,1.92236 30.707,5.71289 8.94776,3.79932 16.01709,9.15674 21.01123,15.92383 a 38.35194,38.35194 0 0 1 7.53614,23.24414 c 0,8.98 -2.45166,16.80127 -7.28663,23.24658 -4.78222,6.37988 -11.63769,13.36426 -20.376,20.76026 a 145.20407,145.20407 0 0 0 -13.06348,12.30664 22.71817,22.71817 0 0 0 -5.43115,10.11132 12.888,12.888 0 0 1 -12.73578,10.7334 z"
       transform="translate(-338.5,-282)"
       fill="#b32f26"
       id="path58" />
    <path
       d="m 494.84521,545.31055 h -0.50439 a 23.95118,23.95118 0 0 1 0,-47.90235 h 0.50439 a 23.95118,23.95118 0 1 1 0,47.90235 z"
       transform="translate(-338.5,-282)"
       fill="#b32f26"
       id="path60" />
    <path
       d="m 650.5,618 h -311 a 1,1 0 0 1 0,-2 h 311 a 1,1 0 0 1 0,2 z"
       transform="translate(-338.5,-282)"
       fill="#cccccc"
       id="path62" />
    <path
       d="m 860.5,618 h -166 a 1,1 0 0 1 0,-2 h 166 a 1,1 0 0 1 0,2 z"
       transform="translate(-338.5,-282)"
       fill="#cccccc"
       id="path64" />
    <ellipse
       cx="757.33856"
       cy="582.03149"
       rx="21.53368"
       ry="6.7600698"
       transform="rotate(-1.12041,-13832.435,17750.767)"
       fill="#2f2e41"
       id="ellipse66" />
    <path
       d="m 746.66142,431 h -26 a 5.00573,5.00573 0 0 1 -5,-5 v -26 a 5.00573,5.00573 0 0 1 5,-5 h 26 a 5.00573,5.00573 0 0 1 5,5 v 26 a 5.00573,5.00573 0 0 1 -5,5 z m -26,-34 a 3.00328,3.00328 0 0 0 -3,3 v 26 a 3.00328,3.00328 0 0 0 3,3 h 26 a 3.00328,3.00328 0 0 0 3,-3 v -26 a 3.00328,3.00328 0 0 0 -3,-3 z"
       transform="translate(-338.5,-282)"
       fill="#f2f2f2"
       id="path68" />
    <path
       d="m 758.66142,414 h -26 a 5.00573,5.00573 0 0 1 -5,-5 v -26 a 5.00573,5.00573 0 0 1 5,-5 h 26 a 5.00573,5.00573 0 0 1 5,5 v 26 a 5.00573,5.00573 0 0 1 -5,5 z m -26,-34 a 3.00328,3.00328 0 0 0 -3,3 v 26 a 3.00328,3.00328 0 0 0 3,3 h 26 a 3.00328,3.00328 0 0 0 3,-3 v -26 a 3.00328,3.00328 0 0 0 -3,-3 z"
       transform="translate(-338.5,-282)"
       fill="#f2f2f2"
       id="path70" />
    <path
       d="m 553.66142,331 h -26 a 5.00573,5.00573 0 0 1 -5,-5 v -26 a 5.00573,5.00573 0 0 1 5,-5 h 26 a 5.00573,5.00573 0 0 1 5,5 v 26 a 5.00573,5.00573 0 0 1 -5,5 z m -26,-34 a 3.00328,3.00328 0 0 0 -3,3 v 26 a 3.00328,3.00328 0 0 0 3,3 h 26 a 3.00328,3.00328 0 0 0 3,-3 v -26 a 3.00328,3.00328 0 0 0 -3,-3 z"
       transform="translate(-338.5,-282)"
       fill="#f2f2f2"
       id="path72" />
    <path
       d="m 537.66142,318 h -26 a 5.00573,5.00573 0 0 1 -5,-5 v -26 a 5.00573,5.00573 0 0 1 5,-5 h 26 a 5.00573,5.00573 0 0 1 5,5 v 26 a 5.00573,5.00573 0 0 1 -5,5 z m -26,-34 a 3.00328,3.00328 0 0 0 -3,3 v 26 a 3.00328,3.00328 0 0 0 3,3 h 26 a 3.00328,3.00328 0 0 0 3,-3 v -26 a 3.00328,3.00328 0 0 0 -3,-3 z"
       transform="translate(-338.5,-282)"
       fill="#f2f2f2"
       id="path74" />
    <circle
       cx="321.22046"
       cy="183.1701"
       r="6.4668899"
       fill="#f2f2f2"
       id="circle76" />
    <circle
       cx="61.22047"
       cy="160.1701"
       r="6.4668899"
       fill="#f2f2f2"
       id="circle78" />
    <circle
       cx="497.22046"
       cy="216.1701"
       r="6.4668899"
       fill="#f2f2f2"
       id="circle80" />
  </g>
</svg>
